<?xml version="1.0" encoding="utf-8"?>
<!-- Generator: Adobe Illustrator 19.1.0, SVG Export Plug-In . SVG Version: 6.00 Build 0)  -->
<svg version="1.1" id="Layer_1" xmlns="http://www.w3.org/2000/svg" xmlns:xlink="http://www.w3.org/1999/xlink" x="0px" y="0px"
	 viewBox="-5 -5 30 30" style="enable-background:new -5 -5 30 30;" xml:space="preserve">
<style type="text/css">
	.st0{fill:#D10037;}
	.st1{clip-path:url(#SVGID_2_);fill:#D10037;}
	.st2{clip-path:url(#SVGID_4_);fill:#D10037;}
	.st3{fill:#FFFFFF;}
</style>
<g id="XMLID_103_">
	<rect id="XMLID_153_" x="-5" y="-5" class="st0" width="30" height="30"/>
	<g id="XMLID_149_">
		<g>
			<defs>
				<rect id="SVGID_1_" x="-5" y="-5" width="30" height="30"/>
			</defs>
			<clipPath id="SVGID_2_">
				<use xlink:href="#SVGID_1_"  style="overflow:visible;"/>
			</clipPath>
			<path id="XMLID_152_" class="st1" d="M-3.1,10c0,7.2,5.8,13.1,13,13.1s13-5.8,13-13.1S17.2-3,10-3S-3.1,2.8-3.1,10"/>
		</g>
		<g>
			<defs>
				<rect id="SVGID_3_" x="-5" y="-5" width="30" height="30"/>
			</defs>
			<clipPath id="SVGID_4_">
				<use xlink:href="#SVGID_3_"  style="overflow:visible;"/>
			</clipPath>
			<path id="XMLID_151_" class="st2" d="M1,10.1c0,5,4,9,9,9s9-4,9-9s-4-9-9-9C5,1.1,1,5.1,1,10.1"/>
		</g>
	</g>
	<rect id="XMLID_148_" x="-5" y="-5" class="st0" width="30" height="30"/>
	<g id="XMLID_141_">
		<path id="XMLID_147_" class="st3" d="M-3.1,10c0,7.2,5.8,13.1,13,13.1s13-5.8,13-13.1S17.2-3,10-3S-3.1,2.8-3.1,10"/>
		<path id="XMLID_146_" class="st0" d="M1,10.1c0,5,4,9,9,9s9-4,9-9s-4-9-9-9C5,1.1,1,5.1,1,10.1"/>
	</g>
</g>
</svg>
