<?xml version="1.0" encoding="utf-8"?>
<!-- Generator: Adobe Illustrator 19.1.0, SVG Export Plug-In . SVG Version: 6.00 Build 0)  -->
<svg version="1.1" id="Layer_1" xmlns="http://www.w3.org/2000/svg" xmlns:xlink="http://www.w3.org/1999/xlink" x="0px" y="0px"
	 viewBox="0 0 234.2 19.2" style="enable-background:new 0 0 234.2 19.2;" xml:space="preserve">
<style type="text/css">
	.st0{fill:#d31b35;}
</style>
<g>
	<polygon class="st0" points="5.7,4.4 0,4.4 0,0.6 15.7,0.6 15.7,4.4 10,4.4 10,18.6 5.7,18.6 5.7,4.4 	"/>
	<polygon class="st0" points="23.9,0.6 28.1,0.6 28.1,7.2 35.1,7.2 35.1,0.6 39.3,0.6 39.3,18.6 35.1,18.6 35.1,11.1 28.1,11.1 
		28.1,18.6 23.9,18.6 23.9,0.6 	"/>
	<polygon class="st0" points="49.5,0.6 60.6,0.6 60.6,4.3 53.7,4.3 53.7,7.6 59.6,7.6 59.6,11.3 53.7,11.3 53.7,14.8 60.7,14.8 
		60.7,18.6 49.5,18.6 49.5,0.6 	"/>
	<path class="st0" d="M85.1,2.7C86.8,1,89.1,0,91.6,0c2.4,0,4.8,1,6.5,2.7c1.8,1.8,2.7,4.2,2.7,6.8c0,2.2-0.6,4.2-1.9,5.9
		c-1.8,2.3-4.4,3.7-7.3,3.7c-2.4,0-4.7-1-6.5-2.8c-1.8-1.8-2.7-4.2-2.7-6.8C82.4,6.9,83.4,4.6,85.1,2.7L85.1,2.7z M91.6,15.1
		c2.6,0,4.8-2.3,4.8-5.5c0-3.2-2.1-5.5-4.8-5.5c-2.6,0-4.8,2.3-4.8,5.5C86.8,12.8,88.9,15.1,91.6,15.1L91.6,15.1z"/>
	<path class="st0" d="M138.6,17.4c-2.4,1.2-4.7,1.8-6.9,1.8c-5.5,0-9.5-4.1-9.5-9.6c0-5.5,4.1-9.6,9.7-9.6c2.1,0,4.1,0.6,5.8,1.8
		l-0.5,4.5c-1.6-1.6-3.2-2.4-5.1-2.4c-3.2,0-5.6,2.4-5.6,5.7c0,3.4,2.2,5.8,5.5,5.8c0.7,0,1.5-0.1,2.3-0.4v-2.6h-3.4V8.6h7.7V17.4
		L138.6,17.4z"/>
	<path class="st0" d="M148.2,0.6h4.6c2.3,0,4.1,0.2,5.6,1.3c1.3,1,2.1,2.5,2.1,4c0,2.3-1.2,4-3.3,5l5.5,7.7h-4.9l-4.8-7.1h-0.6v7.1
		h-4.2V0.6L148.2,0.6z M152.4,3.9v5h0.9c2.2,0,3.3-0.9,3.3-2.5c0-1.8-1.2-2.4-3.5-2.4H152.4L152.4,3.9z"/>
	<path class="st0" d="M172.1,2.7c1.7-1.8,4-2.7,6.5-2.7c2.4,0,4.7,1,6.5,2.7c1.7,1.8,2.7,4.2,2.7,6.8c0,2.2-0.6,4.2-1.9,5.9
		c-1.7,2.3-4.4,3.7-7.3,3.7c-2.4,0-4.7-1-6.5-2.8c-1.8-1.8-2.7-4.2-2.7-6.8C169.4,6.9,170.4,4.6,172.1,2.7L172.1,2.7z M178.6,15.1
		c2.6,0,4.7-2.3,4.7-5.5c0-3.2-2.1-5.5-4.7-5.5c-2.6,0-4.8,2.3-4.8,5.5C173.8,12.8,176,15.1,178.6,15.1L178.6,15.1z"/>
	<path class="st0" d="M200.9,10.5c0,3.2,1.2,4.8,3.5,4.8c2.2,0,3.5-1.5,3.5-4.3V0.6h3.8v10.3c0,5.4-2.9,8.3-7.5,8.3
		c-4.7,0-7.6-2.9-7.6-8.2V0.6h4.2V10.5L200.9,10.5z"/>
	<path class="st0" d="M221.9,0.6h4.6c2.3,0,4.1,0.2,5.6,1.4c1.3,1,2.1,2.5,2.1,4.2c0,3.8-3,6.2-8,5.9v6.6h-4.3V0.6L221.9,0.6z
		 M226.2,3.9v4.8h0.8c2.2,0,3.3-0.9,3.3-2.4c0-1.7-1.2-2.4-3.5-2.4H226.2L226.2,3.9z"/>
</g>
</svg>
