<?xml version="1.0" encoding="utf-8"?>
<!-- Generator: Adobe Illustrator 19.0.1, SVG Export Plug-In . SVG Version: 6.00 Build 0)  -->
<svg version="1.1" id="Layer_1" xmlns="http://www.w3.org/2000/svg" xmlns:xlink="http://www.w3.org/1999/xlink" x="0px" y="0px"
	 viewBox="100 -50 220 120" style="enable-background:new 100 -50 220 120;" xml:space="preserve">
<style type="text/css">
	.st0{fill:#EEEEEE;}
	.st1{fill:#808080;}
</style>
<rect x="100" y="-50" class="st0" width="220" height="120"/>
<g>
	<g>
		<g>
			<path class="st1" d="M149.8,45.6h-1.3l5.9-14.4h0.1l5.9,14.4h-1.4l-1-2.4h-7.3L149.8,45.6z M154.5,34.1l-3.2,7.8h6.3
				C157.6,41.9,154.5,34.1,154.5,34.1z"/>
			<path class="st1" d="M171.2,31.5h1.4v14.1h-1.4V31.5z"/>
			<path class="st1" d="M192.8,31.5h8.4v1.2h-7v7h6.4v1.2h-6.4v4.6h-1.3V31.5z"/>
			<path class="st1" d="M212.3,31.5h1.4v14.1h-1.4V31.5z"/>
			<path class="st1" d="M224.6,38.5c0-4.2,3.2-7.2,7.2-7.2c4,0,7.2,3,7.2,7.2c0,4.2-3.2,7.2-7.2,7.2
				C227.9,45.7,224.6,42.7,224.6,38.5z M237.7,38.5c0-3.4-2.5-6-5.8-6c-3.3,0-5.8,2.6-5.8,6c0,3.4,2.5,6,5.8,6
				C235.2,44.5,237.7,41.9,237.7,38.5z"/>
			<path class="st1" d="M258.6,45.6H257l-2.8-3.6c-0.4,0.1-0.7,0.1-1.2,0.1h-1.7v3.5H250V31.5h3.1c3.8,0,5.8,2.3,5.8,5.3
				c0,2.3-1.1,4.1-3.3,4.9L258.6,45.6z M253,40.9c3.2,0,4.5-1.7,4.5-4.1c0-2.4-1.3-4.1-4.5-4.1h-1.6v8.2H253z"/>
			<path class="st1" d="M270.1,31.5h1.4v14.1h-1.4V31.5z"/>
		</g>
		<path class="st1" d="M225.6-25.7c-0.1,0.8-0.2,1.4-0.3,2.1c-1.1-0.2-4.4-0.7-10.8-0.7c-8.2,0-15.9,2.3-15.9,8.5c0,2.7,1.8,5,5,5
			c1.1,0,2.3-0.2,3.2-0.7c0-0.3-0.1-0.5-0.3-0.5c-0.9,0.5-2,0.7-2.7,0.7c-2.7,0-4.4-2-4.4-4.7c0-3.9,4-5.6,7.5-6.4
			c1.5-0.3,3.2-0.5,4.8-0.6c-0.7,10.6-2.9,30.2-8.7,37.4c-1.3,1.6-3.1,2.8-4.7,2.8c-2.1,0-4-1.4-4-4.2c0-2.7,2.3-4.8,5-4.8
			c0.2-0.1,0.3-0.3,0.3-0.7c-3,0-5.9,2.4-5.9,5.6c0,2.4,1.5,4.7,4.5,4.7c2,0,4.1-1.1,5.7-2.9c3.5-3.8,5.9-9.3,7.6-15.8
			c0.2,0,1-0.1,2.9-0.1c2,0,3.3,0,3.3,1.7c0,0.4,0,0.8-0.2,1.3c0.1,0.2,0.5,0.2,0.7,0.2c0.1-1.7,1-5,1.5-6.7c0-0.1-0.3-0.3-0.6-0.3
			c-0.4,2.2-1.4,3.2-3,3.2c-0.8,0-3.4,0-4.4-0.1c1.7-6.5,2.7-13.9,3.6-21.3c4.7,0.1,8.1,0.6,9.7,0.9c-0.2,0.7-0.4,1.4-0.6,2.3
			c0,0.2,0.4,0.3,0.7,0.3c0.4-1.6,1.2-5.9,1.2-5.9C226.3-25.6,225.8-25.8,225.6-25.7z M218.5-2L218-0.4c0-0.4-0.5-0.8-1.1-0.9
			C217.7-1.3,218.3-1.7,218.5-2z M205.2,12.3C205.1,12.3,205.1,12.3,205.2,12.3c5.2-10.1,6.3-23.7,7.3-35.4c0.3,0,0.6,0,1,0
			C212.3-8.6,209.9,5.7,205.2,12.3z"/>
	</g>
	<g>
		<path class="st1" d="M206.2-2.3c0.5-1.3,1.9-2.2,1.9-4.2c0-0.5-0.1-1.2-0.3-1.9c-1.5,1.2-2.2,2.6-2.2,3.9c0,1.1,0.2,1.3,0.2,2
			c0,0.3,0,0.5-0.2,0.7c-0.9,0.7-1.7,1.5-2.4,2.4c-0.5-1.3-1.6-1.8-2-2c-0.2-0.1-0.3-0.4-0.4-0.6c-0.2-0.4-0.9-0.6-1.2-0.6
			c-0.2,0-0.9,0-0.9,0l0.1,0.2l-0.3,0.3c0,0,0.3,0.3,0.5,0.5c0.2,0.2,0.6,0.6,1,0.6c0.3,0,1.1-0.1,1.3,0.1c0.5,0.4,1.2,1,1.5,2
			c-1,1.5-1.6,3.2-1.6,5.5c-0.1-0.1-0.4-0.6-0.4-0.9c-0.5-2-1.5-3-3.4-3c0,1.1,0.3,1.8,0.7,2.2c0.7,1,1.9,0.9,2.7,1.6
			c0.2,0.2,0.4,0.5,0.5,1.1c0.2,4.7,2.5,6.8,2.5,9.9c0,0.3,0.3,0.3,0.6,0.3c0.5-1.9,2.2-2.9,4.5-3.6c0.2,0,0.4-0.1,0.6-0.1
			c0.6,0,0.9,0.3,1.3,0.7c0.6,0.6,1.6,1.6,3.8,1.6c0.6,0,1.2-0.1,1.9-0.2c-0.6-0.9-1.9-2.3-3.9-2.3c-0.6,0-1.2,0.2-1.5,0.2
			c-0.3,0-0.5-0.1-0.7-0.2c3.8-0.9,7.9-1.6,7.9-5.6c0-0.8-0.2-1.8-0.8-2.6c-0.2-0.5-0.1-0.9-0.2-1.3c-0.1-0.6-0.4-1-0.7-1.1
			c-0.1,0-0.2,0.3-0.2,0.3s-0.4-0.4-0.7-0.3c-0.4,0.2-0.4,0.9-0.4,0.9s-0.3,0-0.3,0c-0.1,0,0,0.5,0.5,1c0.4,0.4,1.6,0.7,1.7,1
			c0.3,0.5,0.6,1.2,0.6,1.8c0,4.5-5.1,4.7-9.2,6c0.1-0.4,0.5-0.7,0.9-0.9c1.7-1,2.3-2.3,2.3-4.3c0-0.3,0-0.6,0-0.9
			c-0.3,0.5-0.7,0.7-1,1c-1.4,1-2.2,1.9-2.2,4c0,0.5-0.5,1.2-1.3,1.5c-1.3,0.5-2.4,1.2-3.1,2.3c-0.3-2.6-2-4.7-2.3-8.3
			c0-0.9,0.3-1.4,0.9-1.6c2.9-0.8,2.9-2.5,3.2-3.9c-3.3,0.5-3.2,2.4-3.8,3.6c-0.2,0.2-0.3,0.3-0.4,0.4c0.2-5.7,4-8.2,7.7-10.2
			c0-0.2,0.1-0.5,0.1-0.7C208.4-3.7,207.2-3,206.2-2.3z M197.9,3.3c1.2,0.2,1.9,0.9,2.4,2.4C198.9,5.2,198,4.4,197.9,3.3z
			 M212.2,14.4c1.2,0,2.2,0.7,2.7,1.3c-1.6,0-3-0.3-3.7-1.2C211.6,14.4,211.9,14.4,212.2,14.4z M209.4,10.3c0.6-0.9,1.3-1,1.6-1.4
			c0,1.9-1.2,3-2,3.3C209,11.5,209.2,10.8,209.4,10.3z M205.2,3.3c0,1.2-1.1,2.2-2.4,2.6C203.2,4,204.2,3.5,205.2,3.3z M206.1-4.1
			c0-1.3,0.4-2.5,1.3-3.1c0.1,0.2,0.1,0.5,0.1,0.8c0,1-0.6,2.1-1.4,3C206.1-3.5,206.1-3.8,206.1-4.1z"/>
		<path class="st1" d="M217.7-8.1c2.3-0.1,3.4-0.7,4-2.2c-0.1,0-0.4,0-0.6,0c-1.7,0-2.7,0.9-3.4,1.8c-0.1,0.1-0.5,0.1-0.7,0.2
			c1.3-1.3,2-2.4,2-4.3c0-1,0-1.7-0.5-2.9c-0.1-0.4,0.1-1,0.2-1.5c0.1-0.9-0.8-1.3-1.1-1.8c-0.1-0.1-0.6,0.6-0.6,0.6s-0.4-0.1-0.3,0
			c0.1,0.1,0,0.6,0.1,1.4c0,0.8,1.3,1.4,1.5,1.7c0.2,0.4,0.4,1.4,0.4,2.1c0,2-0.9,3.2-2.1,4.4c0.1-1.3,0.8-1.4,0.8-3.1
			c0-0.5-0.3-1.6-1-2.3c-0.6,0.6-0.7,1.5-0.7,2.4c0,1.3,0.6,2,0.6,2.4c0,0.3,0,0.9-0.6,1.3c-0.7,0.6-1.7,1.2-2.6,1.7
			c-0.1,0.3-0.1,0.5-0.2,0.8c0.2-0.1,0.4-0.2,0.6-0.2c0.3,0,0.4,0.1,0.5,0.2c0.6,0.5,1.1,0.6,1.6,0.6c1.4,0,2.7-1.4,4.1-1.4
			c-0.7-0.7-1.4-0.9-2.1-0.9c-1.6,0-3,1.3-3.5,1.3c-0.2,0-0.3,0-0.5,0c1.1-0.7,2.1-1.3,3-2.1C216.7-8,217.4-8.1,217.7-8.1z M221-9.9
			c-0.8,1.3-2.8,1.3-2.8,1.3C219-9.5,220.1-9.9,221-9.9z M217.3-6.5c0.3,0,0.7,0,1,0.2c-0.7,0-1.9,1.1-3.1,1.1c-0.3,0-0.6,0-0.9-0.2
			C214.9-5.4,216.1-6.5,217.3-6.5z M215.9-11.5c0-0.5,0.1-1.3,0.3-1.6c0.2,0.3,0.5,1,0.5,1.7c0,0.5-0.1,1.1-0.5,1.7
			C216-10.3,215.9-10.8,215.9-11.5z"/>
	</g>
</g>
</svg>
