<?xml version="1.0" encoding="utf-8"?>
<!-- Generator: Adobe Illustrator 19.0.1, SVG Export Plug-In . SVG Version: 6.00 Build 0)  -->
<svg version="1.1" id="Layer_1" xmlns="http://www.w3.org/2000/svg" xmlns:xlink="http://www.w3.org/1999/xlink" x="0px" y="0px"
	 viewBox="100 -50 220 120" style="enable-background:new 100 -50 220 120;" xml:space="preserve">
<style type="text/css">
	.st0{fill:#EEEEEE;}
	.st1{fill:#808080;}
</style>
<rect x="100" y="-50" class="st0" width="220" height="120"/>
<g>
	<path class="st1" d="M189.8,26.5c-2.2-0.7-3.4-1.3-3.4-3c0-1.5,1.2-2.3,2.5-2.3c1.5,0,2.7,1.2,3.8,3.7h0.3v-4.2h-0.2
		c0,0-0.4,0.8-1.2,0.5l0,0c-0.6-0.2-1.5-0.4-2.3-0.4c-2.6,0-4.5,1.6-4.5,4.1c0,2.4,2,3,3.9,3.7c2.3,0.8,3.5,1.5,3.5,3.1
		c0,1.2-0.9,2.4-2.8,2.4c-2,0-3.4-1.8-4.5-4.3h-0.3v4.7h0.2c0,0,0.7-1,2-0.5l0,0c0.7,0.3,1.5,0.4,2.3,0.4c3.3,0,4.5-2.3,4.5-4.4
		C193.5,27.8,191.6,27.1,189.8,26.5"/>
	<path class="st1" d="M135.1,28.9l2.5-5.3l2.2,5.3H135.1z M143.6,32.3l-5-11.4h-0.1L133.6,31c-1,2-1.7,2.8-3,3.1l0,0.2h4.4l0-0.2
		c-1.7-0.3-2-0.9-0.9-3.1l0.8-1.7h5l1.4,3.3c0.4,1.1,0.2,1.5-1.6,1.5l0,0.2h6.2l0-0.2C144.5,33.9,144.2,33.6,143.6,32.3"/>
	<path class="st1" d="M160.5,21.1l-0.1,4.1l0.3,0c1.2-2.5,2.4-3.8,3.8-3.8h1.3v11.3c0,0.8-0.6,1.2-2.3,1.2v0.2h6.7v-0.2
		c-1.7-0.1-2.3-0.5-2.3-1.2V21.5h1.3c1.4,0,2.7,1.4,3.8,3.8l0.3,0l-0.1-4.1H160.5z"/>
	<path class="st1" d="M175.6,21.4c1.7,0.1,2.1,0.5,2.1,1.2v10.2c0,0.8-0.4,1.2-2.1,1.2v0.2h6.4v-0.2c-1.7-0.1-2.1-0.5-2.1-1.2V22.6
		c0-0.8,0.4-1.2,2.1-1.2v-0.2h-6.4V21.4z"/>
	<path class="st1" d="M196,21.1l-0.1,4.1l0.3,0c1.2-2.5,2.4-3.8,3.8-3.8h1.3v11.3c0,0.8-0.6,1.2-2.3,1.2v0.2h6.7v-0.2
		c-1.7-0.1-2.3-0.5-2.3-1.2V21.5h1.3c1.4,0,2.7,1.4,3.8,3.8l0.3,0l-0.1-4.1H196z"/>
	<path class="st1" d="M211.2,21.4c1.7,0.1,2.1,0.5,2.1,1.2v10.2c0,0.8-0.4,1.2-2.1,1.2v0.2h6.4v-0.2c-1.7-0.1-2.1-0.5-2.1-1.2V22.6
		c0-0.8,0.4-1.2,2.1-1.2v-0.2h-6.4V21.4z"/>
	<path class="st1" d="M239.7,21.1l-0.1,4.1l0.3,0c1.2-2.5,2.4-3.8,3.8-3.8h1.3v11.3c0,0.8-0.6,1.2-2.3,1.2v0.2h6.7v-0.2
		c-1.7-0.1-2.3-0.5-2.3-1.2V21.5h1.3c1.4,0,2.7,1.4,3.8,3.8l0.3,0l-0.1-4.1H239.7z"/>
	<path class="st1" d="M254.6,21.4c1.7,0.1,2.1,0.5,2.1,1.2v10.2c0,0.8-0.4,1.2-2.1,1.2v0.2h6.4v-0.2c-1.7-0.1-2.1-0.5-2.1-1.2V22.6
		c0-0.8,0.4-1.2,2.1-1.2v-0.2h-6.4V21.4z"/>
	<path class="st1" d="M270.6,34H268V22.6c0-0.8,0.2-1.2,1.9-1.3v-0.2h-6.2v0.2c1.6,0.1,2.1,0.5,2.1,1.3v10.2c0,0.8-0.4,1.2-2.1,1.2
		v0.2h12l0.2-4.4l-0.3,0C274.4,33.1,273.3,34,270.6,34"/>
	<path class="st1" d="M289.1,29.8c-1.2,2.9-2.2,4.2-4.8,4.2h-2.8v-6.3h1.6c1.6,0,2.4,0.6,2.9,2.6h0.2v-5.5H286
		c-0.5,2-1.3,2.6-2.9,2.6h-1.6v-5.8h2.9c2.3,0,3.1,1.2,4.2,3.9l0.3,0l-0.1-4.3h-11.6v0.2c1.6,0.1,2.1,0.5,2.1,1.2v10.2
		c0,0.8-0.4,1.2-2.1,1.3v0.2h12.1l0.1-4.5L289.1,29.8z"/>
	<path class="st1" d="M150.9,27.5v-6h1.3c2.6,0,3.3,1.1,3.3,2.9c0,2-0.5,3.1-3.1,3.1H150.9z M158.9,33.7c-0.5-0.4-0.8-0.9-1.1-1.5
		c-0.4-0.8-0.7-1.6-1.1-2.3c-0.7-1.3-1.9-1.9-3.3-2.1c0.3-0.1,0.6-0.1,0.6-0.1c2.9-0.4,4-1.7,4-3.3c0-1.8-1.5-3.2-5.4-3.2h-6v0.2
		c1.6,0.1,2.1,0.5,2.1,1.2v10.2c0,0.8-0.4,1.2-2.1,1.3v0.2h6.3v-0.2c-1.6-0.1-2-0.4-2-1.3v-5h0h0.2c0.5,0,1.1,0,1.6,0.2
		c0.9,0.3,1.4,1.4,1.8,2.2c0.5,0.9,0.8,1.8,1.3,2.7c0.3,0.5,0.6,1,1.1,1.3c0.6,0.4,1.4,0.5,2.1,0.4c0.1,0,1.7-0.1,1.7-0.2l0-0.2
		C160,34.2,159.4,34.2,158.9,33.7"/>
	<path class="st1" d="M226.8,33.9c-2.3,0-4.7-1.8-4.7-6.2c0-4.5,1.9-6.6,4.2-6.6c2,0,3.4,1.5,4.4,4.1h0.2v-4.6h-0.2
		c0,0-0.5,1-1.3,0.7v0c-0.8-0.3-1.8-0.6-2.9-0.6c-3.8,0-6.9,2.9-6.9,7.1c0,4.1,2.6,6.7,6.5,6.7c3,0,4.7-1.9,5.5-3.7l-0.3-0.2
		C230.5,32.6,229,33.9,226.8,33.9"/>
	<path class="st1" d="M224.4-18.3H224h-25.5h-0.4v0.4V7.6v0.4h0.4H224h0.4V7.6v-25.5V-18.3z M224,7.6h-25.5v-25.5H224V7.6z"/>
	<path class="st1" d="M210.3-15.5l-4.1,8.4H201v-8.4H210.3z M221.6-7.1h-5.2l-4.1-8.4h9.3V-7.1z M217.1-5.6h4.4v9L217.1-5.6z
		 M212-5.6h2.4l-0.7-1.5h-5.9l3.5-7.2l9.6,19.4H212V-5.6z M204.9-4.7l-4,8v-9h9.6V5.1h-8.8l4.8-9.8H204.9z M199.5,6.6H223v-23.5
		h-23.5V6.6z"/>
</g>
</svg>
