<?xml version="1.0" encoding="utf-8"?>
<!-- Generator: Adobe Illustrator 19.0.1, SVG Export Plug-In . SVG Version: 6.00 Build 0)  -->
<svg version="1.1" id="Layer_1" xmlns="http://www.w3.org/2000/svg" xmlns:xlink="http://www.w3.org/1999/xlink" x="0px" y="0px"
	 viewBox="100 -50 220 120" style="enable-background:new 100 -50 220 120;" xml:space="preserve">
<style type="text/css">
	.st0{fill:#EEEEEE;}
	.st1{fill:#808080;}
</style>
<g>
	<rect x="100" y="-50.4" class="st0" width="220" height="120"/>
</g>
<g>
	<path class="st1" d="M145.9,10.9c0,0.9,0,1.4,0.5,1.8c0.6,0.4,3.5,0.3,4.4-0.1c1.4-0.6,2.2-1.7,2.6-3.3c0.3-1.4,0.1-4.1-0.9-5.7
		c-1.3-2.2-4-1.9-5.7-1.9h-1V10.9z M152.3-4.6c0.2-1.7,0-4-1.8-5.1c-1-0.7-3.4-0.8-4.1-0.6c-0.6,0.1-0.5,1.1-0.5,2v8.6
		c1.3,0,3.2,0.1,4-0.4C151.6-1.1,152.1-3.1,152.3-4.6 M156,4.2c0.6,2.2,0.5,5.2-0.9,7.4c-2,3.1-6.2,2.8-7.7,2.7c0,0-1.5-0.2-2.6-0.3
		c-1.1,0-3.1,0.1-3.1,0.1v-0.9c1.4,0,1.5-0.1,1.5-2.3V-8.4c0-2.4-0.4-2.3-3.7-2.3v-0.9c0,0,3.3,0,5,0c1.2,0,3.1-0.1,3.1-0.1
		c1.6-0.1,5-0.2,6.6,2.7c0.8,1.5,0.9,4.5,0,6.2c-0.8,1.7-1.8,2.5-3.2,3.3C152.8,0.6,155.2,1.5,156,4.2"/>
	<path class="st1" d="M173.6,13.4c1.2,0,1.3-0.2,1.3-2V-4.9c0-2.2-0.2-2-2.9-2v-0.7c0,0,2.6,0,4.1,0c1.3,0,2.6,0,2.6,0v0.7
		c-1.2,0-1.3,0.2-1.3,2V9.4c0,1.6,0,2.7,0.4,3.1c0.5,0.4,1.1,0.3,2.7,0.3h1.3c0.8,0,2,0.1,2.5-1.1c0.3-0.6,0.8-2.4,1-3.2h0.7
		l-1.2,5.7c-0.2,0-0.7-0.1-1-0.1c0,0-4-0.1-6.6-0.1c-1.4,0-3.6,0.1-3.6,0.1V13.4z"/>
	<path class="st1" d="M199.5-9l-7.7,23.5h-1.1l-5.9-19.7c-0.5-1.5-0.5-1.7-1.6-1.7v-0.7c0,0,1.7,0,2.7,0c1.4,0,4.3,0,4.3,0v0.7
		c-1.4,0-2.8-0.1-3.1,0.4c-0.2,0.4-0.1,0.8,0.4,2.6l4.3,14.3l4.7-14.5c0.4-1.3,0.6-1.8,0.4-2.3c-0.2-0.4-1.1-0.5-3.1-0.5v-0.7
		c0,0,2.5,0,3.6,0c0.6,0,0.8-0.4,1.2-1.4H199.5z"/>
	<path class="st1" d="M221.1,9.9c0,1.4-0.1,2.5,0.6,3c1,0.7,5.2,0.3,7.5-1.2c3.2-2.1,3.7-6.1,3.6-8.8c-0.1-3.2-0.8-6.3-4.1-8.3
		c-1.9-1.2-6.4-1.3-7.2-0.8c-0.5,0.3-0.4,0.6-0.4,1.3V9.9z M217.4,13.4c1.3,0,1.3-0.5,1.3-2.2v-16c0-2.2-0.5-2-3.3-2v-0.7
		c0,0,2.5,0,4.4,0c1.7,0,4.9-0.1,4.9-0.1c3-0.1,7.3,0.7,9.5,5.1c1.5,3,1.6,8.4-0.4,12c-2.7,4.9-7.3,5.1-10.6,4.9
		c0,0-1.8-0.2-3.3-0.2c-1.1,0-2.6,0.1-2.6,0.1V13.4z"/>
	<path class="st1" d="M240.1,2.9c1.6,0,3.5,0,3.6,0c0.6,0.1,0.7,0.8,0.9,2.4l0.1,0.6h0.6l-0.4-4.7h-0.7c0,0.3-0.2,0.6-0.4,0.6
		c-0.5,0-1.5,0-3.7,0l0,0v-5c0-2.1-0.1-2.5,0.4-2.9c0.2-0.2,0.7-0.2,2.3-0.2c1.8,0,2.4,0,2.5,0c0.7,0.2,0.9,1.3,1.2,4.1l0.1,0.6h0.7
		c0,0-0.3-3.1-0.4-3.9c0-0.4-0.1-0.7,0-0.8c0-0.3,0.5-0.5,0.9-0.5v-0.7c0,0-5.3,0-8.4,0c-1.7,0-5,0-5,0v0.7c0.1,0,2.7-0.1,3,0.2
		c0.4,0.3,0.3,0.6,0.3,2.2v15.7c0,1.9-0.1,2.2-1.3,2.2v0.8c0,0,2.3-0.1,3.9-0.1c3.3,0,8.6,0.1,8.6,0.1l0.9-4.4H249
		c-0.3,1.3-0.4,1.6-0.6,2.1c-0.6,1.2-1.8,1-2.6,1h-3.1c-1.7,0-2,0.1-2.4-0.4c-0.3-0.3-0.3-1.1-0.3-3.2L240.1,2.9L240.1,2.9z"/>
	<path class="st1" d="M271,2.9c1.6,0,3.5,0,3.6,0c0.6,0.1,0.7,0.8,0.9,2.4l0.1,0.6h0.6l-0.4-4.7h-0.7c0,0.3-0.2,0.6-0.4,0.6
		c-0.5,0-1.5,0-3.7,0l0,0v-5c0-2.1-0.1-2.5,0.4-2.9c0.2-0.2,0.7-0.2,2.3-0.2c1.8,0,2.4,0,2.5,0c0.7,0.2,0.9,1.3,1.2,4.1l0.1,0.6h0.7
		c0,0-0.3-3.1-0.4-3.9c0-0.4-0.1-0.7,0-0.8c0-0.3,0.5-0.5,0.9-0.5v-0.7c0,0-5.3,0-8.4,0c-1.7,0-5,0-5,0v0.7c0.1,0,2.7-0.1,3,0.2
		c0.4,0.3,0.3,0.6,0.3,2.2v15.7c0,1.9-0.1,2.2-1.3,2.2v0.8c0,0,2.3-0.1,3.9-0.1c3.3,0,8.6,0.1,8.6,0.1l0.9-4.4h-0.7
		c-0.3,1.3-0.4,1.6-0.6,2.1c-0.6,1.2-1.8,1-2.6,1h-3.1c-1.7,0-2,0.1-2.4-0.4c-0.3-0.3-0.3-1.1-0.3-3.2L271,2.9L271,2.9z"/>
	<path class="st1" d="M206,2.9c1.6,0,3.5,0,3.6,0c0.6,0.1,0.7,0.8,0.9,2.4l0.1,0.6h0.6l-0.4-4.7h-0.7c0,0.3-0.2,0.6-0.4,0.6
		c-0.5,0-1.5,0-3.7,0l0,0v-5c0-2.1-0.1-2.5,0.4-2.9c0.2-0.2,0.7-0.2,2.3-0.2c1.8,0,2.4,0,2.5,0c0.7,0.2,0.9,1.3,1.2,4.1l0.1,0.6h0.7
		c0,0-0.3-3.1-0.4-3.9c0-0.4-0.1-0.7,0-0.8c0-0.3,0.5-0.5,0.9-0.5v-0.7c0,0-5.3,0-8.4,0c-1.7,0-5,0-5,0v0.7c0.1,0,2.7-0.1,3,0.2
		c0.4,0.3,0.3,0.6,0.3,2.2v15.7c0,1.9-0.1,2.2-1.3,2.2v0.8c0,0,2.3-0.1,3.9-0.1c3.3,0,8.6,0.1,8.6,0.1l0.9-4.4h-0.7
		c-0.3,1.3-0.4,1.6-0.6,2.1c-0.6,1.2-1.8,1-2.6,1h-3.1c-1.7,0-2,0.1-2.4-0.4c-0.3-0.3-0.3-1.1-0.3-3.2L206,2.9L206,2.9z"/>
	<path class="st1" d="M162.3,2.9c1.6,0,3.5,0,3.6,0c0.6,0.1,0.7,0.8,0.9,2.4l0.1,0.6h0.6l-0.4-4.7h-0.7c0,0.3-0.2,0.6-0.4,0.6
		c-0.5,0-1.5,0-3.7,0l0,0v-5c0-2.1-0.1-2.5,0.4-2.9c0.2-0.2,0.7-0.2,2.3-0.2c1.8,0,2.4,0,2.5,0c0.7,0.2,0.9,1.3,1.2,4.1l0.1,0.6h0.7
		c0,0-0.3-3.1-0.4-3.9c0-0.4-0.1-0.7,0-0.8c0-0.3,0.5-0.5,0.9-0.5v-0.7c0,0-5.3,0-8.4,0c-1.7,0-5,0-5,0v0.7c0.1,0,2.7-0.1,3,0.2
		c0.4,0.3,0.3,0.6,0.3,2.2v15.7c0,1.9-0.1,2.2-1.3,2.2v0.8c0,0,2.3-0.1,3.9-0.1c3.3,0,8.6,0.1,8.6,0.1l0.9-4.4h-0.7
		c-0.3,1.3-0.4,1.6-0.6,2.1c-0.6,1.2-1.8,1-2.6,1h-3.1c-1.7,0-2,0.1-2.4-0.4c-0.3-0.3-0.3-1.1-0.3-3.2L162.3,2.9L162.3,2.9z"/>
	<path class="st1" d="M261.8-2c-0.1-1.7-0.5-3.1-2.1-4.1c-1-0.6-3.2-0.9-3.9-0.4c-0.4,0.3-0.4,0.8-0.4,3.1v6.8
		c1.4,0.3,3.4,0.2,4.6-0.8C261.5,1.5,261.8-0.7,261.8-2 M256.2,4.8l-0.9,0v6.6c0,2.2,0.5,2,3.3,2v0.8c0,0-3-0.1-4.4-0.1
		c-1,0-2.6,0.1-2.6,0.1v-0.8c1.2,0,1.3-0.2,1.3-2V-4.9c0-2.2-0.5-2-3.3-2v-0.7c0,0,3,0,4.4,0c1.1,0,2.9-0.1,2.9-0.1
		c1.8,0,4.8-0.2,6.4,2.7c1,1.8,0.7,4.5-0.1,6.3c-0.8,1.7-2.2,2.5-3.7,3l5.6,9.1c1.5,2.5,2.1,3.9,3.4,4.9l-0.3,0.5
		c-3.2-1.7-3.4-1.7-5.6-5.4l-5.4-8.7C256.9,4.8,256.5,4.8,256.2,4.8"/>
	<polygon class="st1" points="185.6,19.7 184.5,27.5 184.5,27.5 183.3,19.7 181.7,19.7 183.7,30.7 185.2,30.7 187.2,19.7 	"/>
	<path class="st1" d="M196.8,29.6c1.1,0,1.3-1.9,1.3-4.7c0-3.3-0.6-4-1.3-4c-0.8,0-1.3,1.1-1.3,4.6
		C195.5,27.7,195.7,29.6,196.8,29.6 M196.8,19.5c2.6,0,2.9,2.9,2.9,5.7c0,3-0.5,5.7-2.9,5.7c-2.7,0-2.9-2.9-2.9-5.7
		C193.9,22.2,194.4,19.5,196.8,19.5"/>
	<path class="st1" d="M208.5,29.4c1.8,0,2.3-1.9,2.3-4.2c0-2.7-0.8-4.2-2.3-4.2V29.4z M206.9,19.7h1.8c2.9,0,3.7,2.7,3.7,5.6
		c0,2.4-0.7,5.4-3.6,5.4h-1.9V19.7z"/>
	<polygon class="st1" points="223.7,19.7 221.3,24.7 221.3,24.7 221.3,19.7 219.7,19.7 219.7,30.7 221.3,30.7 221.3,25.2 
		221.3,25.2 223.8,30.7 225.6,30.7 222.7,24.9 225.4,19.7 	"/>
	<path class="st1" d="M235.1,22.2L235.1,22.2l1,5h-1.9L235.1,22.2z M234.3,19.7l-2.3,11h1.5l0.4-2.3h2.4l0.4,2.3h1.6l-2.5-11H234.3z
		"/>
</g>
</svg>
