<?xml version="1.0" encoding="utf-8"?>
<!-- Generator: Adobe Illustrator 19.0.1, SVG Export Plug-In . SVG Version: 6.00 Build 0)  -->
<svg version="1.1" id="Layer_1" xmlns="http://www.w3.org/2000/svg" xmlns:xlink="http://www.w3.org/1999/xlink" x="0px" y="0px"
	 viewBox="100 -50 220 120" style="enable-background:new 100 -50 220 120;" xml:space="preserve">
<style type="text/css">
	.st0{fill:#EEEEEE;}
	.st1{fill:#808080;}
</style>
<rect x="100" y="-50" class="st0" width="220" height="120"/>
<g>
	<g>
		<g>
			<path class="st1" d="M168.7-19c-16,0-29,13-29,29c0,16,13,29,29,29c16,0,29-13,29-29C197.7-6,184.7-19,168.7-19z M182.6-1.7v0.7
				c-1,0-2.6,0-3.8,0.7c-1.2,0.6-1.6,1.6-2,2.5c-0.4,1-3.1,7.5-3.1,7.5l-0.5-1.3l4.2-10.1C177.4-1.7,181.8-1.7,182.6-1.7z
				 M161.1,21.7c-1.2,0-6.3,0-7.6,0V21c1,0,2.4-0.5,2.8-1.3c0.5-0.8,0.8-1.8,1-5.7l1,1.9c0.1,1-0.3,3.1,0.2,4
				c0.3,0.6,1.5,1.2,2.7,1.2V21.7z M163,20.4c0,0-3.8-8-5.8-12.3c-2.1-4.6-5.5-5.3-7.4-5.3V2c2.4-0.1,8,0.3,10.7,6.9
				c2.3,5.4,3.6,8.4,3.6,8.4L163,20.4z M168.6,22.3L160,2.2c-0.5-1.3-1.1-2.2-1.8-2.6c-0.7-0.5-1.8-0.7-2.8-0.7l-0.1-0.7
				c1.1,0,5.6,0,6.2,0l8.4,20.2L168.6,22.3z M184.2,21.7c0,0-7.7,0-9.2,0v-0.7c1.1,0,1.6-0.1,2.1-0.4c0.3-0.1,0.9-0.5,1-1.4
				c0.1-0.6,0-1.5,0-2.5l2-5.2c0.1,3,0.4,6.4,0.8,7.7c0.4,1.3,1.6,1.6,3.3,1.6V21.7z M186.5,2.7c-3.6,0-6,0.8-7.6,4.5
				c-1.9,4.4-5.7,13.3-5.7,13.3S167,5.9,166.6,5c-2.5-6.2-0.7-10,2.4-10.5c1.7-0.3,3.5,0.5,4.2,2.6c0.6,1.6,0.3,3.4-1.6,7.5
				l-0.4-1.1c0.9-2.3,1.7-4.3,1.1-6c-0.6-1.5-2.2-2.1-3.4-1.4c-1.6,0.9-1.8,3.1-0.1,7c0.2,0.5,5.4,13,5.4,13s1.3-3.1,3.7-9
				c1.8-4.4,4.2-5.2,8.6-5.2V2.7z"/>
		</g>
	</g>
	<g>
		<path class="st1" d="M212.5-1.6c-3,0-5.4-2.5-5.4-5.8c0-3.1,2.4-5.8,5.4-5.8c1.7,0,3.1,0.7,4,1.8L216-11c-0.8-1-2-1.6-3.5-1.6
			c-2.8,0-4.7,2.4-4.7,5.1c0,2.9,2,5.2,4.7,5.2c1.7,0,2.7-0.7,3.7-1.8l0.5,0.4C215.9-2.6,214.6-1.6,212.5-1.6z"/>
		<path class="st1" d="M228.1-1.8v-5.6h-6.5v5.6h-0.7V-13h0.7v5h6.5v-5h0.7v11.2H228.1z"/>
		<path class="st1" d="M233.6-1.8V-13h5.7v0.6h-5V-8h4.5v0.6h-4.5v5h5.3v0.6H233.6z"/>
		<path class="st1" d="M244.6-12.4v4.4h3.9v0.6h-3.9v5.6h-0.7V-13h5v0.6H244.6z"/>
		<path class="st1" d="M216.4,15.6V5.4l-3.8,6h-0.5l-3.8-5.9v10.2h-0.7V4.4h0.8l3.9,6.1l3.9-6.1h0.8v11.2H216.4z"/>
		<path class="st1" d="M221.9,15.6V4.4h0.7v11.2H221.9z"/>
		<path class="st1" d="M231.9,15.8c-3,0-5.4-2.5-5.4-5.8c0-3.1,2.4-5.8,5.4-5.8c1.7,0,3.1,0.7,4,1.8l-0.5,0.4c-0.8-1-2-1.6-3.5-1.6
			c-2.8,0-4.7,2.4-4.7,5.1c0,2.9,2,5.2,4.7,5.2c1.7,0,2.7-0.7,3.7-1.8l0.5,0.4C235.3,14.8,234,15.8,231.9,15.8z"/>
		<path class="st1" d="M247.5,15.6v-5.6H241v5.6h-0.7V4.4h0.7v5h6.5v-5h0.7v11.2H247.5z"/>
		<path class="st1" d="M259.8,15.6l-1.5-4.3h-4.2l-1.5,4.3h-0.7L256,4.2h0.4l4.2,11.4H259.8z M256.2,5.5l-1.9,5.2h3.7L256.2,5.5z"/>
		<path class="st1" d="M264.1,15.6V4.4h5.7V5h-5v4.4h4.5V10h-4.5v5h5.3v0.6H264.1z"/>
		<path class="st1" d="M274.4,15.6V4.4h0.7V15h5.1v0.6H274.4z"/>
		<path class="st1" d="M216.8,33h-0.5l-2.6-9.3c0-0.2-0.1-0.5-0.1-0.5s0,0.3-0.1,0.4l-2.6,9.3h-0.5l-3.5-11.2h0.7l2.9,9.5
			c0,0.2,0.1,0.4,0.1,0.4s0-0.2,0.1-0.4l2.6-9.5h0.5l2.6,9.5c0,0.2,0.1,0.4,0.1,0.4s0.1-0.2,0.1-0.4l2.8-9.5h0.7L216.8,33z"/>
		<path class="st1" d="M231.2,33v-5.6h-6.5V33H224V21.8h0.7v5h6.5v-5h0.7V33H231.2z"/>
		<path class="st1" d="M236.7,33V21.8h0.7V33H236.7z"/>
		<path class="st1" d="M244.5,22.4V33h-0.7V22.4H241v-0.6h6.4v0.6H244.5z"/>
		<path class="st1" d="M251,33V21.8h5.7v0.6h-5v4.4h4.5v0.6h-4.5v5h5.3V33H251z"/>
	</g>
</g>
</svg>
