<?xml version="1.0" encoding="utf-8"?>
<!-- Generator: Adobe Illustrator 19.0.1, SVG Export Plug-In . SVG Version: 6.00 Build 0)  -->
<svg version="1.1" id="Layer_1" xmlns="http://www.w3.org/2000/svg" xmlns:xlink="http://www.w3.org/1999/xlink" x="0px" y="0px"
	 viewBox="100 -50 220 120" style="enable-background:new 100 -50 220 120;" xml:space="preserve">
<style type="text/css">
	.st0{fill:#EEEEEE;}
	.st1{fill:#808080;}
</style>
<rect x="100" y="-50" class="st0" width="220" height="120"/>
<g>
	<g>
		<g>
			<polygon class="st1" points="205.7,29.3 210,23.6 214.3,29.3 210,35.1 			"/>
		</g>
	</g>
	<path class="st1" d="M131.8,1.7h-2.9V15h2.8c4.1,0,7.5-2.2,7.5-6.7C139.2,3.9,135.7,1.8,131.8,1.7z M131.3,13.1h-0.3V3.6h0.3
		c3.2,0,5.9,1.1,5.9,4.7C137.1,12,134.5,13.1,131.3,13.1z M148.5,1.5c-3.8,0-6.9,3.1-6.9,6.9c0,3.9,3.1,6.9,6.9,6.9
		c3.8,0,6.9-3,6.9-6.9C155.4,4.6,152.3,1.5,148.5,1.5z M153.4,8.4c0,2.8-2.3,5-4.9,5c-2.7,0-4.9-2.2-4.9-5c0-2.7,2-5,4.9-5
		C151.4,3.4,153.4,5.7,153.4,8.4L153.4,8.4z M168.1,10.8l-9.6-9.8V15h2V5.9l9.6,9.8v-14h-2V10.8z M173.3,15h2.2l1.5-3.2h5.6l1.5,3.2
		h2.2l-6.5-14L173.3,15z M177.9,9.9l2-4.4l1.9,4.4H177.9z M201.7,1.7h-2.9V15h2.8c4.1,0,7.5-2.2,7.5-6.7
		C209.1,3.9,205.7,1.8,201.7,1.7z M201.2,13.1h-0.3V3.6h0.3c3.2,0,5.9,1.1,5.9,4.7C207.1,12,204.5,13.1,201.2,13.1z M242.4,1.7h-2
		V15h6.1v-1.9h-4.1V1.7z M249.7,15h2V1.7h-2V15z M265.5,10.8l-9.6-9.8v14h2V5.9l9.6,9.8v-14h-2V10.8z M271.6,15h7.3v-1.9h-5.3V9h5.1
		V7.1h-5.1V3.6h5.3V1.7h-7.3V15z M234.6,1.9c-0.6-0.1-1.6-0.1-2.2-0.1H230V15h2V9.6h1.3c0.7,0,1.3-0.1,2-0.3c1.6-0.6,2.2-2,2.3-2.6
		c0.2-0.5,0.2-0.9,0.2-1.2c0-0.8-0.2-1.7-0.7-2.4C236.1,2.1,235.1,1.9,234.6,1.9z M235.4,6.8c-0.6,0.8-1.3,0.8-2.3,0.9H232v-4h1.3
		c0.6,0,1.2,0.1,1.7,0.4c0.7,0.5,0.8,1.3,0.8,1.5C235.8,5.9,235.7,6.4,235.4,6.8z M191.6,1.7h-2V15h6.1v-1.9h-4.1V1.7z M287.2,9.5
		c0.2,0,0.4-0.1,0.7-0.1c1.6-0.6,2.2-2,2.3-2.6c0.2-0.5,0.2-0.9,0.2-1.2c0-0.8-0.2-1.7-0.7-2.4c-0.8-1.1-1.8-1.3-2.4-1.3
		c-0.6-0.1-1.6-0.1-2.2-0.1h-2.4V15h2V9.6h0.3l3.8,5.4h2.3C290.9,14.6,288.2,10.8,287.2,9.5z M284.7,7.7v-4h1.3
		c0.6,0,1.2,0.1,1.7,0.4c0.7,0.5,0.8,1.3,0.8,1.5c0,0.2-0.1,0.7-0.4,1.2c-0.6,0.8-1.3,0.8-2.3,0.9H284.7z M219.2,11.2
		c0,0.3,0,0.7-0.1,1c-0.2,0.8-0.8,1.3-1.6,1.3c-0.5,0-0.9-0.2-1.3-0.5l-0.9,1.6c0.8,0.4,1.5,0.7,2.4,0.7c1.3,0,2.2-0.6,2.5-1
		c0.7-0.7,0.9-1.6,0.9-1.9c0-0.3,0-0.6,0.1-0.8V1.7h-2V11.2z"/>
</g>
</svg>
