<?xml version="1.0" encoding="utf-8"?>
<!-- Generator: Adobe Illustrator 19.0.1, SVG Export Plug-In . SVG Version: 6.00 Build 0)  -->
<svg version="1.1" id="Layer_1" xmlns="http://www.w3.org/2000/svg" xmlns:xlink="http://www.w3.org/1999/xlink" x="0px" y="0px"
	 viewBox="100 -50 220 120" style="enable-background:new 100 -50 220 120;" xml:space="preserve">
<style type="text/css">
	.st0{fill:#EEEEEE;}
	.st1{fill:#808080;}
</style>
<g>
	<rect x="100" y="-50" class="st0" width="220" height="120"/>
</g>
<g>
	<path class="st1" d="M177.1,32.5v-0.1c0.2,0,0.3,0,0.3-0.1c0-0.1,0-0.1-0.1-0.2l-2.1-3.9c-0.1-0.3-0.2-0.3-0.4-0.3v-0.1h1.6v0.1
		c-0.2,0-0.3,0-0.3,0.1c0,0,0,0.1,0.1,0.2l1.9,3.5l1.8-3.5c0-0.1,0.1-0.1,0.1-0.2c0-0.1-0.1-0.2-0.3-0.2v-0.1h1.5v0.1
		c-0.2,0-0.3,0.1-0.4,0.3l-2.1,3.9c0,0-0.1,0.1-0.1,0.2c0,0.1,0,0.1,0.3,0.1v0.1H177.1"/>
	<path class="st1" d="M183.8,32.5v-0.1c0.2,0,0.3,0,0.3-0.3v-3.3c0-0.2,0-0.3-0.3-0.3v-0.1h1.2v0.1c-0.2,0-0.3,0-0.3,0.3v3.3
		c0,0.2,0,0.3,0.3,0.3v0.1H183.8"/>
	<path class="st1" d="M188.2,32.5v-0.1c0.2,0,0.3,0,0.3-0.3v-3.3c0-0.2-0.1-0.3-0.3-0.3v-0.1h1.6v0.1c-0.2,0-0.3,0-0.3,0.1
		c0,0,0,0.1,0.1,0.2l3,2.8v-2.8c0-0.2-0.1-0.3-0.3-0.3v-0.1h1.2v0.1c-0.2,0-0.3,0-0.3,0.3v3.3c0,0.2,0.1,0.3,0.3,0.3v0.1H192v-0.1
		c0.3,0,0.3,0,0.3-0.1c0-0.1-0.1-0.1-0.1-0.2l-3.1-2.9v2.9c0,0.2,0.1,0.3,0.3,0.3v0.1H188.2"/>
	<path class="st1" d="M196.7,28.9c0-0.2,0-0.3-0.3-0.3v-0.1h4.4c0.2,0,0.3-0.1,0.3-0.2h0.1v0.9h-0.1c0-0.2-0.1-0.2-0.3-0.2h-3.4v1.2
		h2.4c0.2,0,0.3-0.1,0.3-0.2h0.1v0.9h-0.1c0-0.2-0.1-0.2-0.3-0.2h-2.4V32h3.5c0.2,0,0.3-0.1,0.3-0.2h0.1v0.9h-0.1
		c0-0.2-0.1-0.2-0.3-0.2h-4.5v-0.1c0.2,0,0.3,0,0.3-0.3V28.9"/>
	<path class="st1" d="M205,32.5v-0.1c0.2,0,0.2,0,0.2-0.3v-1.3l-1.7-2c-0.1-0.1-0.3-0.2-0.4-0.2v-0.1h1.4v0.1c-0.2,0-0.2,0-0.2,0.1
		c0,0.1,0.1,0.1,0.1,0.2l1.2,1.5l1.4-1.5c0.1-0.1,0.1-0.1,0.1-0.2c0-0.1,0-0.1-0.2-0.1v-0.1h1.4v0.1c-0.3,0-0.3,0.1-0.5,0.3
		l-1.8,1.9v1.3c0,0.2,0,0.3,0.3,0.3v0.1H205"/>
	<path class="st1" d="M211.9,28.9l-1,1.9h2.1L211.9,28.9 M209.2,32.5v-0.1c0.2,0,0.3-0.1,0.3-0.2l1.7-3.3c0-0.1,0.1-0.1,0.1-0.2
		c0-0.1-0.1-0.1-0.3-0.1v-0.1h1.8v0.1c-0.1,0-0.3,0-0.3,0.1c0,0.1,0,0.1,0.1,0.2l1.9,3.3c0,0.1,0.1,0.2,0.3,0.2v0.1h-1.4v-0.1
		c0.3,0,0.3,0,0.3-0.1c0-0.1,0-0.1-0.1-0.2l-0.4-0.8h-2.7l-0.4,0.7c-0.1,0.1-0.1,0.2-0.1,0.3c0,0.1,0.1,0.1,0.3,0.1v0.1H209.2"/>
	<path class="st1" d="M217.6,30.2h2.3c0.5,0,0.7-0.2,0.7-0.6c0-0.4-0.2-0.6-0.8-0.6h-2.2V30.2 M217.6,32.1c0,0.2,0,0.3,0.3,0.3v0.1
		h-1.2v-0.1c0.2,0,0.3,0,0.3-0.3v-3.3c0-0.2,0-0.3-0.3-0.3v-0.1h3.3c0.9,0,1.4,0.4,1.4,1.1c0,0.7-0.5,1.1-1.3,1.1l1.2,1.5
		c0.1,0.1,0.2,0.2,0.3,0.2v0.1h-1.2v-0.1c0.2,0,0.2,0,0.2-0.1c0-0.1,0-0.1-0.1-0.2l-1.1-1.4h-1.7V32.1"/>
	<path class="st1" d="M224.7,32h1.6c1.4,0,1.9-0.7,1.9-1.5c0-0.8-0.5-1.5-1.9-1.5h-1.6V32 M224.1,28.9c0-0.2,0-0.3-0.3-0.3v-0.1h2.6
		c1.7,0,2.5,0.9,2.5,2c0,1.1-0.7,2-2.5,2h-2.6v-0.1c0.2,0,0.3,0,0.3-0.3V28.9"/>
	<path class="st1" d="M231.6,31.3l0.1,0c0,0,0,0.1,0,0.1c0,0.2,1,0.5,2,0.5c1,0,1.6-0.2,1.6-0.6c0-1.2-3.9,0-3.9-1.7
		c0-0.9,1-1.3,2.1-1.3c1.1,0,1.7,0.3,1.9,0.3c0.1,0,0.1,0,0.2-0.1l0.1,0l-0.4,0.9l-0.1,0c0,0,0-0.1,0-0.1c0-0.2-0.9-0.5-1.7-0.5
		c-1.1,0-1.4,0.3-1.4,0.7c0,1.1,3.9,0,3.9,1.6c0,0.9-0.7,1.3-2.4,1.3c-1.1,0-1.9-0.4-2.1-0.4c-0.1,0-0.2,0.1-0.2,0.1l-0.1,0
		L231.6,31.3"/>
	<path class="st1" d="M163.4-3.4c-0.2-3-0.3-4.4-7.5-4.4c-1.4,0-3.5,0-4.6,0.3c-0.2,2.5-0.2,7.3-0.2,8.4v3.6c2,0.2,2.6,0.2,4.6,0.2
		c5.8,0,5.8-0.6,5.8-2.9l0.8-0.1c0,0.7,0.1,1.2,0.1,2.8c0,0.4,0,2.4-0.1,4.8h-0.8c0-0.6,0-2.3-0.3-2.5c-0.6-0.5-3.2-1-6.3-1
		c-1.2,0-2.4,0-3.6,0.1c0,2.1-0.1,4.8-0.1,7.7c0,4.9,0,5.3,4.4,5.9v0.9c-0.9,0-1.8-0.1-4.4-0.1h-2c-0.4,0-2.2,0-3.8,0.2l0-0.7
		c1.9-0.4,2.3-1,2.4-2c0.5-2.7,0.5-7.1,0.5-12.5c0-2.2,0-10.5-0.5-12.1c-0.4-1.2-1.4-1.3-2.8-1.4V-9h2.6c1,0,2.8,0.2,3.7,0.2
		c1.6,0,3.3,0,3.9,0c3.5,0,7.2-0.1,9.3-0.3c-0.2,1.9-0.2,3.6-0.1,5.7H163.4"/>
	<path class="st1" d="M181.3,11.4h-0.6c-0.1-3.5-0.7-3.7-6.4-3.7c-1.7,0-2.4,0.1-3.1,0.2l-0.1,2.8c0,1.6,0,5.8,0.3,8.1
		c0.7,0.2,1.5,0.6,4.5,0.6c5.4,0,6.9-1.3,8-4.9h0.5c-0.4,3.1-0.7,4.3-1.4,6.1c-0.7-0.1-2.6-0.1-4.3-0.1c-1.7,0-3.3-0.1-3.3-0.1
		c-3.3,0-7.1,0.2-9.3,0.3l0-0.7c2-0.5,2.1-0.5,2.3-2.2c0.2-2,0.4-9,0.4-10.4L168.7,1c-0.1-5.5-0.2-5.5-2.3-6l0-0.5h11
		c1.2,0,3.7-0.1,5.6-0.2c-0.2,2.8-0.4,4.5-0.8,5.2l-0.5-0.2c0-0.4,0.1-1.5,0.1-1.7c0-2.2-3.5-2.3-5.1-2.3c-2.4,0-3.9,0.2-5.3,0.4
		c-0.1,1.5-0.3,3.2-0.3,5.6c0,1.7,0,4.5,0,5.2c0.4,0,1.4,0,2.5,0c1.8,0,4,0,5-0.2c1.3-0.2,1.5-0.2,2.1-2.7h0.5V11.4"/>
	<path class="st1" d="M184.5-1.4c0.7-2,0.8-2.6,1.4-4.8c0.4,0.4,0.6,0.7,1.4,0.8c0.8,0.1,2.2,0.2,5,0.2h8.7c0.6,0,2.4-0.1,3-0.1
		c1.1,0,1.2-0.2,1.5-0.6c0.2,0.3,0.2,0.3,0.5,0.5c-0.4,1.2-0.8,3.2-1,4.1l-0.7,0.1c0.1-0.8,0.1-1,0.1-1.8c-0.5-0.5-0.3-1.1-4.3-1.1
		c-2.4,0-2.6,0-2.6,0.8c0,1.4-0.1,3.3-0.2,6.2c0,1.6-0.1,8.2-0.1,9.6c0,6.9,0,6.9,2.8,7.3c0.7,0.1,0.8,0.1,0.8,0.2c0,0,0,0.4,0,0.5
		c-0.2,0-0.5,0-0.7,0c-0.2,0-1-0.1-1.8-0.1c-0.8-0.1-1.5-0.1-1.9-0.1c-0.7,0-1.7,0-3.7,0.4c-0.9,0.2-1,0.2-1.2,0.2
		c-0.4,0-0.5-0.2-0.6-0.7c0.3-0.1,0.5-0.2,1.1-0.3c2.4-0.7,2.5-0.9,2.5-2.4c0-0.1,0.1-1.9,0.1-2.3c0-0.5,0.1-4.5,0.1-8.5
		c0-7.4,0-9.4-0.4-10.6C193.5-3.9,192.6-4,191-4c-4.9,0-5.2,0.8-5.9,2.8L184.5-1.4"/>
	<path class="st1" d="M245.2,11.4h-0.6c-0.1-3.5-0.7-3.7-6.4-3.7c-1.7,0-2.4,0.1-3.1,0.2l-0.1,2.8c0,1.6,0,5.8,0.3,8.1
		c0.7,0.2,1.5,0.6,4.5,0.6c5.4,0,6.9-1.3,8-4.9h0.5c-0.4,3.1-0.7,4.3-1.4,6.1c-0.7-0.1-2.6-0.1-4.3-0.1c-1.7,0-3.3-0.1-3.4-0.1
		c-3.3,0-7.1,0.2-9.3,0.3l0-0.7c2-0.5,2.1-0.5,2.3-2.2c0.2-2,0.4-9,0.4-10.4L232.6,1c-0.1-5.5-0.2-5.5-2.3-6l0-0.5h11
		c1.2,0,3.7-0.1,5.6-0.2c-0.2,2.8-0.4,4.5-0.8,5.2l-0.5-0.2c0-0.4,0.1-1.5,0.1-1.7c0-2.2-3.5-2.3-5.1-2.3c-2.4,0-3.9,0.2-5.3,0.4
		c-0.1,1.5-0.3,3.2-0.3,5.6c0,1.7,0,4.5,0,5.2c0.4,0,1.4,0,2.5,0c1.8,0,4,0,5-0.2c1.3-0.2,1.4-0.2,2.1-2.7h0.5V11.4"/>
	<path class="st1" d="M258.3-4.9c-0.7,0-2.6,0.2-2.8,0.9c-0.4,1-0.4,7.2-0.4,10.7c0.4,0.1,1.2,0.3,2.8,0.3c1.2,0,6,0,6-5.5
		C263.9-0.8,262.2-4.9,258.3-4.9 M258.7,8.1c-1.3,0-2.5,0-3.8-0.2l0,4.8c0,1.4,0,5,0.4,6.1c0.3,0.7,0.4,0.8,2,1.3
		c0.3,0.1,0.4,0.1,0.4,0.3c0,0.2,0,0.4-0.2,0.4c-0.1,0-0.7-0.1-1.4-0.2c-0.7-0.1-1.5-0.2-1.8-0.2c-0.8,0-1.7,0-2.3,0.1
		c-0.7,0-1.2,0.1-1.4,0.1c-0.2,0-0.4-0.1-0.4-0.3c0-0.3,0.1-0.3,0.7-0.5c1.4-0.5,1.8-0.9,1.8-7.3V3.7c0-8-0.1-8-2.5-8.4
		c0-0.3,0-0.5,0.1-0.7c0.9,0,1.7,0,2.3,0c0.9,0,5.3-0.5,6.3-0.5c5,0,7.7,3.5,7.7,6.9c0,2.6-1.4,5.2-4.8,6.7l0.8,1.4
		c3.2,5.7,11,15.7,14.5,16c0.2,0,0.3,0.1,0.3,0.4c0,0.2,0,0.4-0.9,0.4c-4.7,0-12.7-9.4-15.7-14.5L258.7,8.1"/>
	<path class="st1" d="M218.8,19.3c-2.1-0.5-4-1.8-6.1-1.7c-0.3,0-0.5,0-0.8,0c1.4-2,3.3-4.8,5.3-7.7l3.8-5.7
		c0.3-0.4,3.6-5.1,6.3-9.3v-0.4c-5.1,0.2-7.4,0.2-12.8,0.2c-3,0-4,0-5-0.2c-0.7-0.1,0.1-0.3-0.1-0.7c-0.1-0.1-0.1-0.2-0.2-0.2
		c-0.2,0-0.2,0.2-0.3,0.5c-0.1,0.4-0.2,1-0.4,1.9c-0.1,0.3-0.4,1.8-0.7,3.3l0.5,0.3c1.3-3.4,1.3-3.8,8.4-3.8c1.6,0,4.8,0,6.6,0.2
		c-4.9,8.5-9.5,15.5-15.6,22.9c-1.6,1.1-2.1,2.3-2.1,2.3c3.3-3.4,7.8-1.2,11.7,0c4.7,1.4,10.3,0.7,13.1-4.3
		C227.9,20.8,222.4,20.2,218.8,19.3"/>
	<path class="st1" d="M276.5,21.4h0.3c0.2,0,0.3,0,0.3-0.1c0.1,0,0.1-0.1,0.1-0.2c0,0,0-0.1,0-0.1c0,0-0.1-0.1-0.1-0.1
		c0,0-0.1,0-0.3,0h-0.3V21.4 M276.2,22.3v-1.6h0.6c0.2,0,0.3,0,0.4,0c0.1,0,0.2,0.1,0.2,0.2c0.1,0.1,0.1,0.2,0.1,0.2
		c0,0.1,0,0.2-0.1,0.3c-0.1,0.1-0.2,0.1-0.3,0.1c0.1,0,0.1,0.1,0.1,0.1c0.1,0.1,0.1,0.2,0.2,0.3l0.2,0.3h-0.3l-0.1-0.3
		c-0.1-0.2-0.2-0.3-0.3-0.4c0,0-0.1-0.1-0.2-0.1h-0.2v0.7H276.2 M276.9,20.2c-0.2,0-0.4,0.1-0.6,0.2c-0.2,0.1-0.4,0.3-0.5,0.5
		c-0.1,0.2-0.2,0.4-0.2,0.6c0,0.2,0.1,0.4,0.2,0.6c0.1,0.2,0.3,0.4,0.5,0.5c0.2,0.1,0.4,0.2,0.6,0.2c0.2,0,0.4-0.1,0.6-0.2
		c0.2-0.1,0.4-0.3,0.5-0.5c0.1-0.2,0.2-0.4,0.2-0.6c0-0.2-0.1-0.4-0.2-0.6s-0.3-0.4-0.5-0.5C277.3,20.3,277.1,20.2,276.9,20.2
		 M276.9,20c0.3,0,0.5,0.1,0.7,0.2c0.2,0.1,0.4,0.3,0.6,0.6c0.1,0.2,0.2,0.5,0.2,0.8c0,0.3-0.1,0.5-0.2,0.7
		c-0.1,0.2-0.3,0.4-0.6,0.6c-0.2,0.1-0.5,0.2-0.7,0.2c-0.3,0-0.5-0.1-0.7-0.2c-0.2-0.1-0.4-0.3-0.6-0.6c-0.1-0.2-0.2-0.5-0.2-0.7
		c0-0.3,0.1-0.5,0.2-0.8c0.1-0.2,0.3-0.4,0.6-0.6C276.4,20.1,276.6,20,276.9,20"/>
</g>
</svg>
