<?xml version="1.0" encoding="utf-8"?>
<!-- Generator: Adobe Illustrator 19.0.1, SVG Export Plug-In . SVG Version: 6.00 Build 0)  -->
<svg version="1.1" id="Layer_1" xmlns="http://www.w3.org/2000/svg" xmlns:xlink="http://www.w3.org/1999/xlink" x="0px" y="0px"
	 viewBox="100 -50 220 120" style="enable-background:new 100 -50 220 120;" xml:space="preserve">
<style type="text/css">
	.st0{fill:#EEEEEE;}
	.st1{fill:#808080;}
</style>
<rect x="100" y="-50" class="st0" width="220" height="120"/>
<g>
	<g>
		<g>
			<g>
				<path class="st1" d="M152,22.7l-0.2,0c-0.3-0.1-0.7-0.1-1-0.1c-1,0-1.5,0.7-1.5,1.4c0,0.5,0.3,0.9,0.9,1.2l0.7,0.3
					c0.3,0.2,0.7,0.3,0.7,0.8c0,0.5-0.5,0.7-0.9,0.7c-0.5,0-0.9-0.4-1-0.9l0-0.1h-0.1h-0.2h-0.1l0,0.1l0,1v0.1l0.1,0
					c0.5,0.1,1,0.2,1.2,0.2c1,0,1.7-0.6,1.7-1.5c0-0.6-0.3-1-1-1.3l-0.6-0.3c-0.5-0.2-0.6-0.5-0.6-0.8c0-0.4,0.3-0.6,0.7-0.6
					c0.7,0,0.9,0.5,0.9,0.9l0,0.1h0.1h0.2h0.1v-0.1v-1.1L152,22.7L152,22.7z"/>
			</g>
			<g>
				<path class="st1" d="M153.9,27.3l0.2,0c0.2,0,0.4,0,0.6,0c0.2,0,0.4,0,0.5,0l0.3,0l0.1,0v-0.1V27v-0.1h-0.1h-0.1
					c-0.2,0-0.3,0-0.3-0.4v-3.1c0-0.4,0.1-0.4,0.3-0.4h0.1h0.1v-0.1v-0.2v-0.1l-0.1,0l-0.3,0c-0.2,0-0.4,0-0.5,0c-0.2,0-0.4,0-0.6,0
					l-0.2,0l-0.1,0v0.1v0.2V23h0.1h0.1c0.2,0,0.3,0,0.3,0.4v3.1c0,0.4-0.1,0.4-0.3,0.4h-0.1h-0.1V27v0.2v0.1L153.9,27.3z"/>
			</g>
			<path class="st1" d="M161.9,22.6l-0.2,0c-0.1,0-0.3,0-0.4,0c-0.2,0-0.4,0-0.5,0l-0.2,0l-0.1,0v0.1v0.2V23h0.1h0.1
				c0.2,0,0.3,0,0.3,0.8c0,0,0,1.6,0,2.3l-2.8-3.4l0,0l-0.1,0l-0.2,0c-0.1,0-0.2,0-0.3,0c-0.1,0-0.3,0-0.4,0l-0.2,0l-0.1,0v0.1v0.2
				V23h0.1h0.2c0.2,0,0.3,0,0.3,0.4c0,0.8,0,1.9,0,2.8c0,0.7-0.1,0.7-0.3,0.7h-0.1H157V27v0.2v0.1l0.1,0l0.2,0c0.2,0,0.4,0,0.5,0
				c0.2,0,0.3,0,0.5,0l0.2,0l0.1,0v-0.1V27v-0.1h-0.1h-0.1c-0.2,0-0.3,0-0.3-0.5c0-0.9,0-1.7,0-2.6l2.9,3.6l0,0h0.1h0.2h0.1l0-0.1
				l0.1-3.7c0-0.6,0.2-0.6,0.3-0.6h0.1h0.1v-0.1v-0.2v-0.1L161.9,22.6z"/>
			<path class="st1" d="M167.8,25.1l-0.2,0c-0.2,0-0.3,0-0.5,0c-0.2,0-0.4,0-0.5,0l-0.2,0l-0.1,0c0,0,0,0.1,0,0.1l0,0.2v0.1h0.1h0.1
				c0.2,0,0.3,0.1,0.3,0.2v1c-0.4,0.2-0.5,0.2-1,0.2c-1.2,0-1.9-1.1-1.9-2.1c0-1.1,0.7-1.9,1.8-1.9c0.6,0,1.4,0.2,1.4,0.8l0,0.1h0.1
				h0.2h0.1v-0.1V23v-0.1l-0.1,0c-0.5-0.2-1.1-0.3-1.7-0.3c-1.6,0-2.7,1-2.7,2.5c0,0.8,0.6,2.4,2.6,2.4c0.7,0,1.2-0.2,1.8-0.3l0.1,0
				V27v-1.3c0-0.2,0.1-0.2,0.2-0.2h0.1h0.1v-0.1v-0.2v-0.1L167.8,25.1z"/>
			<g>
				<path class="st1" d="M169.2,27.3c0.2,0,0.8,0,1.6,0l1.3,0l0.5,0h0.1l0-0.1l0-1.1l0-0.1h-0.1h-0.2h-0.1l0,0.1
					c-0.1,0.6-0.2,0.8-1.2,0.8c-0.8,0-0.8-0.2-0.8-0.5v-2.9c0-0.4,0.1-0.4,0.3-0.4h0.1h0.1v-0.1v-0.2v-0.1l-0.1,0l-0.3,0
					c-0.2,0-0.3,0-0.5,0c-0.2,0-0.4,0-0.6,0l-0.2,0l-0.1,0v0.1v0.2V23h0.1h0.1c0.2,0,0.3,0,0.3,0.4v3.1c0,0.4-0.1,0.4-0.3,0.4h-0.1
					h-0.1V27v0.2v0.1L169.2,27.3z"/>
			</g>
			<path class="st1" d="M177.5,25.9h-0.2h-0.1l0,0.1c-0.1,0.6-0.3,0.8-1.3,0.8h-0.2c-0.4,0-0.4-0.1-0.4-0.4v-1.4h0.5
				c0.6,0,0.6,0.1,0.6,0.3l0,0.1c0,0,0.1,0,0.1,0h0.2h0.1l0-0.1c0-0.1,0-0.3,0-0.6c0-0.3,0-0.5,0-0.6l0-0.1h-0.1h-0.2h-0.1l0,0.1
				c0,0.3,0,0.4-0.7,0.4h-0.4v-1.6h0.5c1,0,1,0.3,1.1,0.7v0l0,0.1h0.1h0.2h0.1l0-0.1c0-0.3,0-0.7-0.1-1.1l0-0.1c0,0-0.1,0-0.1,0
				l-0.4,0c-0.3,0-0.6,0-1.1,0c-0.6,0-1.3,0-1.5,0l-0.1,0v0.1v0.2V23h0.1h0.1c0.2,0,0.3,0,0.3,0.4v3.1c0,0.4-0.1,0.4-0.3,0.4h-0.1
				H174V27v0.2v0.1l0.1,0c0.2,0,0.8,0,1.5,0c0.6,0,1.3,0,1.6,0l0.1,0l0.1,0l0-0.1l0.1-0.6l0.1-0.5l0-0.1H177.5z"/>
			<path class="st1" d="M186.7,27.2V27v-0.1h-0.1h-0.1c-0.3,0-0.3,0-0.3-0.6l0-1l0-1.8c0-0.4,0.1-0.4,0.4-0.4h0.1h0.1v-0.1v-0.2
				v-0.1l-0.1,0l-0.2,0c-0.1,0-0.3,0-0.4,0c-0.1,0-0.2,0-0.4,0l-0.2,0l-0.1,0c0,0,0,0.1,0,0.1l-1.4,3.5l-1.6-3.5l0-0.1l-0.1,0
				c-0.1,0-0.3,0-0.5,0c-0.1,0-0.2,0-0.3,0l-0.2,0l-0.1,0l0,0.1v0.2V23h0.1h0.1c0.3,0,0.3,0,0.3,0.4c0,0.6,0,1.2,0,1.7l0,0.9
				c0,0.8-0.1,0.8-0.3,0.8H181h-0.1V27v0.2v0.1l0.1,0l0.2,0c0.1,0,0.3,0,0.5,0c0.2,0,0.4,0,0.6,0l0.1,0l0.1,0v-0.1V27v-0.1h-0.1
				h-0.1c-0.2,0-0.3,0-0.3-0.8V24l1.5,3.3l0,0.1h0.1h0.1h0.1l0-0.1l1.5-3.6v2.6c0,0.6-0.1,0.6-0.3,0.6h-0.1h-0.1V27v0.2v0.1l0.1,0
				l0.1,0c0.2,0,0.4,0,0.7,0c0.3,0,0.5,0,0.7,0l0.1,0l0.1,0V27.2z"/>
			<path class="st1" d="M192.3,26.9h-0.1c-0.2,0-0.4-0.2-0.5-0.5l-1.6-3.9l0-0.1h-0.1h-0.1h-0.1l0,0.1l-1.4,3.8
				c-0.2,0.5-0.3,0.6-0.6,0.6h-0.1h-0.1V27v0.2v0.1l0.1,0c0.1,0,0.4,0,0.6,0c0.3,0,0.6,0,0.8,0l0.1,0v-0.1V27v-0.1H189h-0.1
				c-0.1,0-0.1-0.1-0.1-0.1c0-0.1,0.1-0.3,0.1-0.4c0,0,0.2-0.7,0.3-0.9h1.3l0.4,1.1c0,0.1,0.1,0.2,0.1,0.3c0,0.1-0.1,0.1-0.2,0.1
				h-0.2h-0.1V27v0.2v0.1l0.1,0c0.2,0,0.5,0,0.9,0c0.3,0,0.6,0,0.9,0l0.1,0v-0.1V27v-0.1H192.3z M189.3,25l0.4-1.3l0.5,1.3H189.3z"
				/>
			<g>
				<path class="st1" d="M193.5,27.3c0.2,0,0.8,0,1.6,0l1.3,0l0.5,0h0.1l0-0.1l0-1.1l0-0.1h-0.1h-0.2h-0.1l0,0.1
					c-0.1,0.6-0.2,0.8-1.2,0.8c-0.8,0-0.8-0.2-0.8-0.5v-2.9c0-0.4,0.1-0.4,0.3-0.4h0.1h0.1v-0.1v-0.2v-0.1c0,0-0.1,0-0.1,0l-0.3,0
					c-0.2,0-0.3,0-0.5,0c-0.2,0-0.4,0-0.6,0l-0.2,0l-0.1,0v0.1v0.2V23h0.1h0.1c0.2,0,0.3,0,0.3,0.4v3.1c0,0.4-0.1,0.4-0.3,0.4h-0.1
					h-0.1V27v0.2v0.1L193.5,27.3z"/>
			</g>
			<path class="st1" d="M201.8,22.6c-0.2,0-1.3,0-2,0c-0.8,0-1.8,0-2,0l-0.1,0v0.1v1.1V24h0.1h0.2h0.1l0-0.1c0-0.5,0.1-0.8,0.7-0.8
				h0.6v3.3c0,0.5,0,0.5-0.3,0.5H199h-0.1V27v0.2v0.1l0.1,0l0.2,0c0.2,0,0.4,0,0.6,0c0.2,0,0.4,0,0.6,0l0.2,0l0.1,0v-0.1V27v-0.1
				h-0.1h-0.1c-0.3,0-0.3,0-0.3-0.5v-3.3h0.6c0.6,0,0.6,0.3,0.7,0.8l0,0.1h0.1h0.2h0.1v-0.1v-1.1v-0.1L201.8,22.6z"/>
		</g>
		<g>
			<g>
				<path class="st1" d="M208,22.7l-0.2,0c-0.3-0.1-0.7-0.1-1-0.1c-1,0-1.5,0.7-1.5,1.4c0,0.5,0.3,0.9,0.9,1.2l0.7,0.3
					c0.3,0.2,0.7,0.3,0.7,0.8c0,0.5-0.5,0.7-0.9,0.7c-0.5,0-0.9-0.4-1-0.9l0-0.1h-0.1h-0.2h-0.1l0,0.1l0,1l0,0.1l0.1,0
					c0.5,0.1,1,0.2,1.2,0.2c1,0,1.7-0.6,1.7-1.5c0-0.6-0.3-1-1-1.3l-0.6-0.3c-0.5-0.2-0.6-0.5-0.6-0.8c0-0.4,0.3-0.6,0.7-0.6
					c0.7,0,0.9,0.5,0.9,0.9l0,0.1h0.1h0.2h0.1v-0.1v-1.1L208,22.7L208,22.7z"/>
			</g>
			<g>
				<path class="st1" d="M213.8,22.9c0,0-0.1,0-0.2-0.1l-0.1,0l0,0c-0.2-0.1-0.8-0.3-1.5-0.3c-1.5,0-2.5,1.3-2.5,2.6
					c0,1.3,1,2.3,2.5,2.3c1,0,1.6-0.5,1.8-0.7l0,0c0,0,0-0.1,0-0.1v-0.5V26h-0.1h0h-0.1l0,0c-0.3,0.4-0.7,0.9-1.7,0.9
					c-0.6,0-1.6-0.5-1.6-1.9c0-0.9,0.4-2,1.6-2c1.1,0,1.4,0.5,1.6,0.9l0,0.1c0,0,0.1,0,0.1,0h0.1h0.1l0-0.1l0-0.9l0-0.1L213.8,22.9z
					"/>
			</g>
			<path class="st1" d="M217.6,22.5c-1.4,0-2.5,1.1-2.5,2.5c0,1.3,1.1,2.4,2.5,2.4c1.6,0,2.5-1.2,2.5-2.4
				C220,23.6,218.9,22.5,217.6,22.5z M217.6,26.9c-1,0-1.6-1.1-1.6-2c0-1.7,1.1-1.9,1.6-1.9c1,0,1.6,1,1.6,2
				C219.2,26.2,218.6,26.9,217.6,26.9z"/>
			<path class="st1" d="M225.2,22.6c-0.2,0-1.3,0-2,0c-0.8,0-1.8,0-2,0l-0.1,0v0.1v1.1V24h0.1h0.2h0.1l0-0.1c0-0.5,0.1-0.8,0.7-0.8
				h0.6v3.3c0,0.5,0,0.5-0.3,0.5h-0.1h-0.1V27v0.2v0.1l0.1,0l0.2,0c0.2,0,0.4,0,0.6,0c0.2,0,0.4,0,0.6,0l0.2,0l0.1,0v-0.1V27v-0.1
				H224h-0.1c-0.2,0-0.3,0-0.3-0.5v-3.3h0.6c0.6,0,0.6,0.3,0.7,0.8l0,0.1h0.1h0.2h0.1v-0.1v-1.1v-0.1L225.2,22.6z"/>
			<g>
				<path class="st1" d="M230.5,22.9c0,0-0.1,0-0.2-0.1l-0.1,0l0,0c-0.2-0.1-0.8-0.3-1.5-0.3c-1.5,0-2.5,1.3-2.5,2.6
					c0,1.3,1,2.3,2.5,2.3c1,0,1.6-0.5,1.8-0.7l0,0c0,0,0-0.1,0-0.1v-0.5V26h-0.1h0h-0.1l0,0c-0.3,0.4-0.7,0.9-1.7,0.9
					c-0.6,0-1.6-0.5-1.6-1.9c0-0.9,0.4-2,1.6-2c1.1,0,1.4,0.5,1.6,0.9l0,0.1c0,0,0.1,0,0.1,0h0.1h0.1l0-0.1l0-0.9l0-0.1L230.5,22.9z
					"/>
			</g>
			<path class="st1" d="M237,27.2V27v-0.1h-0.1h-0.1c-0.2,0-0.3,0-0.3-0.4v-3.1c0-0.4,0.1-0.4,0.3-0.4h0.1h0.1v-0.1v-0.2v-0.1
				l-0.1,0l-0.2,0c-0.2,0-0.4,0-0.6,0c-0.2,0-0.4,0-0.5,0l-0.3,0l-0.1,0v0.1v0.2V23h0.1h0.2c0.2,0,0.2,0,0.2,0.6v1.1h-2.4v-1.1
				c0-0.6,0.1-0.6,0.2-0.6h0.2h0.1v-0.1v-0.2v-0.1l-0.1,0l-0.3,0c-0.2,0-0.4,0-0.5,0c-0.2,0-0.4,0-0.6,0l-0.2,0l-0.1,0v0.1v0.2V23
				h0.1h0.1c0.2,0,0.3,0,0.3,0.4v3.1c0,0.4-0.1,0.4-0.3,0.4h-0.1H232V27v0.2v0.1l0.1,0l0.2,0c0.2,0,0.4,0,0.6,0c0.2,0,0.4,0,0.5,0
				l0.3,0l0.1,0v-0.1V27v-0.1h-0.1h-0.2c-0.2,0-0.2,0-0.2-0.6v-1.2h2.4v1.2c0,0.6-0.1,0.6-0.2,0.6h-0.2h-0.1V27v0.2v0.1l0.1,0l0.3,0
				c0.2,0,0.4,0,0.5,0c0.2,0,0.4,0,0.6,0l0.2,0l0.1,0V27.2z"/>
			<path class="st1" d="M246.9,22.6l-0.2,0c-0.2,0-0.3,0-0.5,0c-0.2,0-0.4,0-0.5,0l-0.2,0l-0.1,0v0.1v0.2V23h0.1h0.1
				c0.2,0,0.2,0,0.2,0.1c0,0.1-0.1,0.3-0.1,0.5c0,0-0.5,1.5-0.7,2.2l-1-3.3l0-0.1h-0.1h-0.2h-0.1l0,0.1l-1,3.3l-0.8-2.5
				c0,0,0-0.1,0-0.1c0-0.1-0.1-0.2-0.1-0.2c0,0,0-0.1,0.2-0.1h0.1h0.1v-0.1v-0.2v-0.1l-0.1,0l-0.3,0c-0.2,0-0.4,0-0.5,0
				c-0.2,0-0.4,0-0.6,0l-0.2,0l-0.1,0v0.1v0.2V23h0.1h0.1c0.2,0,0.3,0.1,0.4,0.4l1.3,3.9l0,0.1h0.1h0.2h0.1l0-0.1l1-3.3l1,3.3l0,0.1
				h0.1h0.2h0.1l0-0.1l1.3-4c0.1-0.3,0.2-0.4,0.4-0.4h0.1h0.1v-0.1v-0.2v-0.1L246.9,22.6z"/>
			<path class="st1" d="M253,27.2V27v-0.1h-0.1h-0.1c-0.2,0-0.3,0-0.3-0.4v-3.1c0-0.4,0.1-0.4,0.3-0.4h0.1h0.1v-0.1v-0.2v-0.1
				l-0.1,0l-0.2,0c-0.2,0-0.4,0-0.6,0c-0.2,0-0.4,0-0.5,0l-0.3,0l-0.1,0v0.1v0.2V23h0.1h0.2c0.2,0,0.2,0,0.2,0.6v1.1h-2.4v-1.1
				c0-0.6,0.1-0.6,0.2-0.6h0.2h0.1v-0.1v-0.2v-0.1c0,0-0.1,0-0.1,0l-0.3,0c-0.2,0-0.4,0-0.5,0c-0.2,0-0.4,0-0.6,0l-0.2,0l-0.1,0
				l0,0.1v0.2V23h0.1h0.1c0.2,0,0.3,0,0.3,0.4v3.1c0,0.4-0.1,0.4-0.3,0.4h-0.1H248V27v0.2v0.1l0.1,0l0.2,0c0.2,0,0.4,0,0.6,0
				c0.2,0,0.4,0,0.5,0l0.3,0l0.1,0c0,0,0-0.1,0-0.1V27v-0.1h-0.1h-0.2c-0.2,0-0.2,0-0.2-0.6v-1.2h2.4v1.2c0,0.6-0.1,0.6-0.2,0.6
				h-0.2h-0.1V27v0.2v0.1l0.1,0l0.3,0c0.2,0,0.4,0,0.5,0c0.2,0,0.4,0,0.6,0l0.2,0l0.1,0V27.2z"/>
			<g>
				<path class="st1" d="M254.7,27.3l0.2,0c0.2,0,0.4,0,0.6,0c0.2,0,0.4,0,0.5,0l0.3,0l0.1,0l0-0.1V27v-0.1h-0.1h-0.1
					c-0.2,0-0.3,0-0.3-0.4v-3.1c0-0.4,0.1-0.4,0.3-0.4h0.1h0.1v-0.1v-0.2v-0.1l-0.1,0l-0.3,0c-0.2,0-0.4,0-0.5,0c-0.2,0-0.4,0-0.6,0
					l-0.2,0l-0.1,0v0.1v0.2V23h0.1h0.1c0.2,0,0.3,0,0.3,0.4v3.1c0,0.4-0.1,0.4-0.3,0.4h-0.1h-0.1V27v0.2v0.1L254.7,27.3z"/>
			</g>
			<g>
				<path class="st1" d="M260.8,22.7l-0.2,0c-0.3-0.1-0.7-0.1-1-0.1c-1,0-1.5,0.7-1.5,1.4c0,0.5,0.3,0.9,0.9,1.2l0.7,0.3
					c0.3,0.2,0.7,0.3,0.7,0.8c0,0.5-0.5,0.7-0.9,0.7c-0.5,0-0.9-0.4-1-0.9l0-0.1h-0.1h-0.2h-0.1l0,0.1l0,1l0,0.1l0.1,0
					c0.5,0.2,1.1,0.2,1.2,0.2c1,0,1.7-0.6,1.7-1.5c0-0.6-0.3-1-1-1.3l-0.6-0.3c-0.5-0.2-0.6-0.5-0.6-0.8c0-0.4,0.3-0.6,0.7-0.6
					c0.7,0,0.9,0.5,0.9,0.9l0,0.1h0.1h0.2h0.1v-0.1v-1.1L260.8,22.7L260.8,22.7z"/>
			</g>
			<path class="st1" d="M267,27.2V27v-0.1h-0.1h-0.1c-0.2,0-0.4,0-0.7-0.4c0,0-1.3-1.5-1.6-1.8l1.1-1.2c0.4-0.4,0.4-0.4,0.7-0.4h0.1
				h0.1v-0.1v-0.2v-0.1l-0.1,0l-0.3,0c-0.2,0-0.3,0-0.5,0c-0.2,0-0.3,0-0.5,0l-0.2,0l-0.1,0v0.1v0.2V23h0.1h0.1c0.1,0,0.1,0,0.1,0.1
				c0,0,0,0.1-0.3,0.4l0,0c0,0-0.8,0.9-1.2,1.3v-1.2c0-0.6,0.1-0.6,0.2-0.6h0.2h0.1v-0.1v-0.2v-0.1l-0.1,0l-0.3,0
				c-0.2,0-0.4,0-0.5,0c-0.2,0-0.4,0-0.6,0l-0.2,0l-0.1,0v0.1v0.2V23h0.1h0.1c0.2,0,0.3,0,0.3,0.4v3.1c0,0.4-0.1,0.4-0.3,0.4h-0.1
				h-0.1V27v0.2v0.1l0.1,0l0.2,0c0.2,0,0.4,0,0.6,0c0.2,0,0.4,0,0.5,0l0.3,0l0.1,0v-0.1V27v-0.1h-0.1h-0.2c-0.2,0-0.2,0-0.2-0.6
				v-0.9l0.2-0.2l1.2,1.4c0.3,0.4,0.4,0.5,0.4,0.6l0,0.1l0.1,0l0.2,0c0.1,0,0.3,0,0.4,0s0.3,0,0.4,0l0.2,0l0.1,0V27.2z"/>
			<path class="st1" d="M271.9,22.6l-0.2,0c-0.1,0-0.3,0-0.4,0c-0.1,0-0.2,0-0.3,0l-0.3,0l-0.1,0v0.1v0.2V23h0.1h0.1
				c0.1,0,0.1,0,0.1,0c0,0,0,0,0,0c0,0.1-0.1,0.2-0.2,0.4c0,0-0.5,1-0.8,1.5l-0.8-1.5c-0.1-0.1-0.1-0.3-0.1-0.3c0-0.1,0-0.1,0.1-0.1
				h0.1h0.1v-0.1v-0.2v-0.1l-0.1,0l-0.3,0c-0.2,0-0.4,0-0.5,0c-0.2,0-0.3,0-0.5,0l-0.3,0l-0.1,0v0.1v0.2V23h0.1h0.1
				c0.2,0,0.3,0,0.5,0.4c0,0,1.1,1.9,1.2,2.1v1c0,0.3-0.1,0.3-0.3,0.3H269h-0.1V27v0.2v0.1l0.1,0l0.2,0c0.2,0,0.4,0,0.6,0
				c0.2,0,0.4,0,0.5,0l0.3,0l0.1,0l0-0.1V27v-0.1h-0.1h-0.1c-0.2,0-0.3,0-0.3-0.3v-1.1l1.1-2.1c0.2-0.4,0.2-0.4,0.4-0.4h0.2h0.1
				v-0.1v-0.2v-0.1L271.9,22.6z"/>
		</g>
	</g>
	<g>
		<path class="st1" d="M161.7,2.3"/>
		<path class="st1" d="M175.9,0.1c1.4,2.2,4.4,7.3,6.4,10.5l0.1,0.1c0-3.5,0-9.1,0-9.2c0-1-0.3-1.6-1-1.6c-0.2,0-0.4-0.1-0.4-0.4
			c0-0.3,0.2-0.4,0.4-0.4c0.6-0.1,0.3,0.1,1.8,0.1h0h0h0c1.5,0,1.2-0.2,1.8-0.1c0.2,0,0.4,0.2,0.4,0.4c0,0.2-0.2,0.3-0.4,0.4
			c-0.8,0.1-1,0.7-1,1.6c0,0.2,0,13.6,0,13.8c0,0.3,0,0.7-0.4,0.7c-0.4,0-0.4,0-0.6-0.3c-0.1-0.1-4.7-7.9-7.6-12.3l-0.1-0.1
			c0,3.3,0,10.2,0,10.3c0,1,0.3,1.6,1,1.6c0.2,0,0.4,0.2,0.4,0.4c0,0.3-0.2,0.3-0.4,0.4c-0.7,0.1-0.4-0.1-1.8-0.1l0,0h0h0
			c-1.4,0-1.1,0.2-1.8,0.1c-0.2,0-0.4-0.1-0.4-0.4c0-0.2,0.2-0.4,0.4-0.4c0.8-0.1,1-0.7,1-1.6c0-0.2,0-11.9,0-12.1
			c0-1-0.3-1.6-1-1.6c-0.2,0-0.4-0.1-0.4-0.4c0-0.3,0.2-0.4,0.4-0.4c0.6-0.1,0.6,0.1,1.3,0.1h0h0h0c0.3,0,0.5-0.1,1-0.1
			C175.5-0.9,175.7-0.3,175.9,0.1z"/>
		<path class="st1" d="M241.9,0.1c1.4,2.2,4.4,7.3,6.4,10.5l0.1,0.1c0-3.5,0-9.1,0-9.2c0-1-0.3-1.6-1-1.6c-0.2,0-0.4-0.1-0.4-0.4
			c0-0.3,0.2-0.4,0.4-0.4c0.6-0.1,0.3,0.1,1.8,0.1l0,0h0h0c1.5,0,1.2-0.2,1.8-0.1c0.2,0,0.4,0.2,0.4,0.4c0,0.2-0.2,0.3-0.4,0.4
			c-0.8,0.1-1,0.7-1,1.6c0,0.2,0,13.6,0,13.7c0,0.3,0,0.8-0.4,0.8c-0.4,0-0.4,0-0.6-0.3c-0.1-0.1-4.7-7.9-7.6-12.3l-0.1-0.1
			c0,3.3,0,10.2,0,10.3c0,1,0.3,1.6,1,1.6c0.2,0,0.4,0.2,0.4,0.4c0,0.3-0.2,0.4-0.4,0.4c-0.7,0-0.6-0.1-1.8-0.1h0h0h0
			c-1.2,0-1.1,0.1-1.8,0.1c-0.2,0-0.4-0.1-0.4-0.4c0-0.2,0.2-0.4,0.4-0.4c0.8-0.1,1-0.7,1-1.6c0-0.2,0-11.9,0-12.1
			c0-1-0.3-1.6-1-1.6c-0.2,0-0.4-0.1-0.4-0.4c0-0.3,0.2-0.4,0.4-0.4c0.6-0.1,0.6,0.1,1.3,0.1h0h0h0c0.3,0,0.5-0.1,1-0.1
			C241.4-0.9,241.7-0.3,241.9,0.1z"/>
		<path class="st1" d="M153.9-0.8c1.4,0,1.6-0.2,2.3-0.1c0.2,0,0.4,0.2,0.4,0.4c0,0.2-0.2,0.3-0.4,0.4c-0.8,0.1-1,0.7-1,1.6
			c0,0.1,0,12,0,12.1c0,0.7,0.1,1,1.6,1c3.1,0,3.8-1.7,3.9-1.9c0.1-0.2,0.4-0.4,0.6-0.3c0.2,0.1,0.3,0.3,0.2,0.5
			c-0.3,0.8-0.9,2.3-0.9,2.6c-0.1,0.4-0.3,0.6-0.8,0.6c-1.2,0,0.1-0.1-3.3-0.1c-0.9,0-0.3,0-0.9,0l-0.1,0c-1.5,0-3,0.2-3.7,0.1
			c-0.2,0-0.4-0.2-0.4-0.4c0-0.2,0.2-0.3,0.4-0.4c0.8-0.1,1-0.7,1-1.6c0-0.1,0-12,0-12.1c0-1-0.3-1.6-1-1.6c-0.2,0-0.4-0.1-0.4-0.4
			c0-0.3,0.2-0.4,0.4-0.4C152.3-1,152.4-0.8,153.9-0.8L153.9-0.8z"/>
		<path class="st1" d="M281.6,15.4c0.1-0.2,0.6-1.7,0.9-2.6c0.1-0.2,0.1-0.4-0.2-0.5c-0.2-0.1-0.5,0.1-0.6,0.3
			c-0.1,0.2-0.8,1.9-3.9,1.9c-2.2,0-2.6-0.3-2.6-1c0-0.1,0-2.6,0-5.3c0-0.4,0-0.4,0.3-0.4c0.4,0,2.7,0,2.9,0c0.7,0,0.9,0.4,1.1,1
			c0,0.1,0.1,0.4,0.5,0.4c0.2,0,0.4-0.2,0.3-0.4c0-0.2-0.1-1.1-0.1-1.5V7.2c0-0.4,0.1-1.3,0.1-1.5c0-0.3-0.1-0.4-0.3-0.4
			c-0.4,0-0.5,0.3-0.5,0.4c-0.2,0.6-0.3,1-1.1,1c-0.3,0-2.6,0-2.9,0c-0.3,0-0.3,0-0.3-0.4c0-2.9,0-5.1,0-5.2c0-0.6,0.1-0.8,0.7-0.8
			c0.2,0,0.7-0.1,1.4-0.1c2.3,0,2.6,0.7,3.2,1.3c0.3,0.4,1,0,0.7-0.5c-0.1-0.2-0.3-1-0.4-1.3c-0.2-0.5-0.3-0.8-1.1-0.8
			c-0.2,0-0.9,0.1-1.7,0.1c-1.2,0.1-2.8,0-4,0h0h0h0c-1.4,0-1.6-0.2-2.3-0.1c-0.2,0-0.4,0.2-0.4,0.4c0,0.2,0.2,0.3,0.4,0.4
			c0.8,0.1,1,0.7,1,1.6c0,0.2,0,11.9,0,12.1c0,1-0.3,1.6-1,1.6c-0.2,0-0.4,0.1-0.4,0.4c0,0.3,0.2,0.4,0.4,0.4
			c0.7,0.1,2.2-0.1,3.7-0.1l0.1,0c0.6,0,0,0,0.9,0c3.5,0,3.2,0.1,4.3,0.1C281.3,16,281.5,15.8,281.6,15.4z"/>
		<path class="st1" d="M171.1,15.4c0.1-0.2,0.6-1.7,0.9-2.6c0.1-0.2,0.1-0.4-0.2-0.5c-0.2-0.1-0.5,0.1-0.6,0.3
			c-0.1,0.2-0.8,1.9-3.9,1.9c-2.2,0-2.6-0.3-2.6-1c0-0.1,0-2.6,0-5.3c0-0.4,0-0.4,0.3-0.4c0.4,0,2.7,0,2.9,0c0.7,0,0.9,0.4,1.1,1
			c0,0.1,0.1,0.4,0.5,0.4c0.2,0,0.3-0.2,0.3-0.4c0-0.6-0.1-1.1-0.1-1.5V7.2c0-0.4,0.1-1.1,0.1-1.5c0-0.3-0.1-0.4-0.3-0.4
			c-0.4,0-0.5,0.3-0.5,0.4c-0.2,0.6-0.3,1-1.1,1c-0.3,0-2.6,0-2.9,0c-0.3,0-0.3,0-0.3-0.4c0-2.9,0-5.1,0-5.2c0-0.6,0.1-0.8,0.7-0.8
			c0.2,0,0.7-0.1,1.4-0.1c2.3,0,2.6,0.7,3.2,1.3c0.3,0.4,1,0,0.7-0.5c-0.1-0.2-0.3-1-0.4-1.3c-0.2-0.5-0.3-0.8-1.1-0.8
			c-0.2,0-0.9,0-1.7,0.1c-1.2,0.1-2.8,0.1-4,0.1l0,0h0h0c-1.4,0-1.6-0.2-2.3-0.1c-0.2,0-0.4,0.2-0.4,0.4c0,0.2,0.2,0.3,0.4,0.4
			c0.8,0.1,1,0.7,1,1.6c0,0.2,0,11.9,0,12.1c0,1-0.3,1.6-1,1.6c-0.2,0-0.4,0.1-0.4,0.4c0,0.3,0.2,0.4,0.4,0.4
			c0.7,0.1,2.2-0.1,3.7-0.1l0.1,0c0.6,0,0,0,0.9,0c3.5,0,3.2,0.1,4.3,0.1C170.7,16,171,15.8,171.1,15.4z"/>
		<path class="st1" d="M193.7,14.8c0.5-1.6,2.1-6.6,3.8-11.5l0.1-0.1c0,3.3,0,10.3,0,10.4c0,1-0.3,1.6-1,1.6c-0.2,0-0.4,0.1-0.4,0.4
			c0,0.3,0.2,0.4,0.4,0.4c0.7,0.1,0.8-0.1,2.3-0.1h0h0h0c1.4,0,1.6,0.2,2.3,0.1c0.2,0,0.4-0.2,0.4-0.4c0-0.2-0.2-0.3-0.4-0.4
			c-0.8-0.1-1-0.7-1-1.6c0-0.2,0-11.9,0-12.1c0-1,0.3-1.6,1-1.6c0.2,0,0.4-0.1,0.4-0.4c0-0.3-0.2-0.4-0.4-0.4
			c-0.7-0.1-1.2,0.1-1.8,0.1h0h0l0,0c-0.3,0-0.6-0.1-1.1-0.1c-0.6,0-0.9,0.6-1,1c-0.7,2.3-2.5,7.6-3.5,10.8l-0.1-0.2
			c-1-3.1-2.5-8.1-3.3-10.6c-0.1-0.4-0.4-1-1-1c-0.5,0-0.9,0.1-1.2,0.1h0h0h0c-0.7,0-1-0.1-1.7-0.1c-0.2,0-0.4,0.2-0.4,0.4
			c0,0.2,0.2,0.3,0.4,0.4c0.8,0.1,1,0.7,1,1.6c0,0.2,0,11.9,0,12.1c0,1-0.3,1.6-1,1.6c-0.2,0-0.4,0.1-0.4,0.4c0,0.3,0.2,0.4,0.4,0.4
			c0.7,0.1,0.4-0.1,1.8-0.1h0h0h0c1.4,0,1.1,0.2,1.8,0.1c0.2,0,0.4-0.2,0.4-0.4c0-0.2-0.2-0.3-0.4-0.4c-0.8-0.1-1-0.7-1-1.6
			c0-0.1,0-7,0-10.3l0.1,0.1c1.5,4.9,3,9.9,3.6,11.5C192.7,15.5,193.4,15.7,193.7,14.8z"/>
		<g>
			<g>
				<path class="st1" d="M238.6,15.2c-0.8-0.1-1.2-0.6-1.5-1.6c0-0.2-3.6-13.1-3.6-13.3C233.2-0.8,233-1,232.6-1
					c-0.4,0-0.5,0.2-0.8,1.1c-0.1,0.5-3.6,13.3-3.6,13.4c-0.4,1.1-0.9,1.6-1.6,1.6c-0.2,0-0.4,0.1-0.4,0.4c0,0.3,0.5,0.4,0.7,0.4
					c0.8,0,0.9-0.1,1.5-0.1c1.1,0,1.2,0.2,1.9,0.1c0.2,0,0.4-0.2,0.4-0.4c0-0.2-0.2-0.3-0.4-0.4c-0.8-0.1-0.7-0.6-0.5-1.6
					c0,0,0.2-0.7,0.4-1.6c0-0.1,0.1-0.3,0.3-0.3h3.4c0.1,0,0.3,0,0.4,0.3c0.2,1,0.4,1.6,0.4,1.6c0.2,0.9,0.2,1.6-0.6,1.6
					c-0.2,0-0.4,0.1-0.4,0.4c0,0.3,0.2,0.4,0.4,0.4c0.7,0.1,0.9-0.1,2.3-0.1c1.4,0,1.6,0.1,2.3,0.1c0.3,0,0.4-0.2,0.4-0.4
					C239.1,15.3,238.8,15.2,238.6,15.2z M233.6,10.5h-2.8c-0.2,0-0.3,0.1-0.2-0.2c0.5-2.2,1.1-4.4,1.6-6.3l0.1-0.2
					c0.5,1.9,1.1,4.2,1.7,6.4C233.9,10.4,233.7,10.5,233.6,10.5z"/>
			</g>
		</g>
		<g>
			<g>
				<path class="st1" d="M227.8,15.2c-1.6-0.2-2.8-4.4-5.2-7.5c1,0,4.2-1.2,4.2-4.3c0-2.2-1.3-3.5-3-4.1c-0.7-0.2-1.4-0.3-2.1-0.3
					c-1.1,0-2,0.1-3,0.1c-1.4,0-1.6-0.2-2.3-0.1c-0.2,0-0.4,0.2-0.4,0.4c0,0.2,0.2,0.3,0.4,0.4c0.8,0.1,1,0.7,1,1.6v12.1
					c0,1-0.3,1.6-1,1.6c-0.2,0-0.4,0.1-0.4,0.4c0,0.3,0.2,0.4,0.4,0.4c0.7,0.1,0.9-0.1,2.3-0.1c1.4,0,1.6,0.2,2.3,0.1
					c0.2,0,0.4-0.2,0.4-0.4c0-0.2-0.2-0.3-0.4-0.4c-0.8-0.1-1-0.7-1-1.6V7.8c1.1,0.5,1.7,2.6,2.4,3.8c0.9,1.7,2.1,3.5,3.7,4.2
					c0.4,0.2,0.7,0.2,0.8,0.2c0.8,0,1.3-0.2,1.3-0.4C228.2,15.4,228.1,15.2,227.8,15.2z M221.6,6.9c-0.9,0-1.1,0-1.7-0.2V1.2
					c0-0.7,0.2-1,1.2-1c0.6,0,1,0,1.5,0.2c1.1,0.4,1.8,1.5,1.8,3.2C224.3,5.3,223.3,6.9,221.6,6.9z"/>
			</g>
		</g>
		<path class="st1" d="M269.3,1.5c0-1,0.3-1.6,1-1.6c0.2,0,0.4-0.1,0.4-0.4c0-0.3-0.2-0.4-0.4-0.4c-0.7-0.1-0.8,0.1-2.2,0.1h0h0l0,0
			c-1.4,0-1.6-0.2-2.3-0.1c-0.2,0-0.4,0.2-0.4,0.4c0,0.2,0.2,0.3,0.4,0.4c0.8,0.1,1,0.7,1,1.6c0,0.2,0,11.9,0,12.1
			c0,1-0.3,1.6-1,1.6c-0.2,0-0.4,0.1-0.4,0.4c0,0.3,0.2,0.4,0.4,0.4c0.7,0.1,0.9-0.1,2.3-0.1l0,0h0h0c1.4,0,1.6,0.2,2.2,0.1
			c0.2,0,0.4-0.2,0.4-0.4c0-0.2-0.2-0.3-0.4-0.4c-0.8-0.1-1-0.7-1-1.6C269.3,13.4,269.3,1.7,269.3,1.5z"/>
		<path class="st1" d="M164,2.3"/>
		<g>
			<g>
				<path class="st1" d="M208.8-1.1c-4.4,0-7.2,3.6-7.2,8.7c0,5.1,2.8,8.7,7.2,8.7c4.4,0,7.3-3.6,7.3-8.7
					C216,2.5,213.2-1.1,208.8-1.1z M208.8,15.2c-3,0-4.7-3.1-4.7-7.7c0-4.5,1.7-7.7,4.7-7.7c3,0,4.7,3.1,4.7,7.7
					C213.5,12,211.8,15.2,208.8,15.2z"/>
			</g>
		</g>
		<g>
			<g>
				<path class="st1" d="M265,8.3c-0.5-0.1-0.6,0.1-1.9,0.1c-1.4,0-1.4-0.2-2-0.1c-0.2,0-0.4,0.2-0.4,0.4c0,0.2,0.2,0.4,0.4,0.4
					c0.7,0.1,0.9,0.7,0.9,1.6v2.5c0,0.9-0.1,1-0.6,1.3c-0.7,0.4-1.3,0.6-2.7,0.6h-0.1c-2.7,0-4.5-2.6-4.5-7.5c0-4.5,1.5-7.7,4.8-7.7
					c3.6,0,4.4,2.6,4.5,4.1c0,0.3,0.2,0.4,0.4,0.4c0.2,0,0.4-0.2,0.4-0.4c0.1-1,0.1-2.1,0-3c-0.1-0.5-0.3-0.7-0.5-0.9
					c-0.5-0.4-1.8-1.3-4.7-1.3c-4.6,0-7.5,3.7-7.5,8.7c0,5.1,2.7,8.5,7.1,8.5c2.6,0,4.2-0.7,4.8-0.9c0.6-0.2,1.1-0.2,1.1-0.6
					c0-0.5-0.2-0.4-0.2-1.9v-2c0-1,0.1-1.5,0.6-1.6c0.2,0,0.4-0.1,0.4-0.4C265.3,8.5,265.2,8.3,265,8.3z"/>
			</g>
		</g>
		<g>
			<g>
				<path class="st1" d="M150.9,8.3c-0.5-0.1-0.6,0.1-1.9,0.1c-1.4,0-1.4-0.2-2-0.1c-0.2,0-0.4,0.2-0.4,0.4c0,0.2,0.2,0.4,0.4,0.4
					c0.7,0.1,0.9,0.7,0.9,1.6v2.5c0,0.9-0.1,1-0.6,1.3c-0.7,0.4-1.3,0.6-2.7,0.6h-0.1c-2.7,0-4.5-2.6-4.5-7.5c0-4.5,1.5-7.7,4.8-7.7
					c3.6,0,4.4,2.6,4.5,4.1c0,0.3,0.2,0.4,0.4,0.4c0.2,0,0.4-0.2,0.4-0.4c0.1-1,0.1-2.1,0-3c-0.1-0.5-0.3-0.7-0.5-0.9
					c-0.5-0.4-1.8-1.3-4.7-1.3c-4.6,0-7.5,3.7-7.5,8.7c0,5.1,2.7,8.5,7.1,8.5c2.6,0,4.2-0.7,4.8-0.9c0.6-0.2,1.1-0.2,1.1-0.6
					c0-0.5-0.2-0.4-0.2-1.9v-2c0-1,0.1-1.5,0.6-1.6c0.2,0,0.4-0.1,0.4-0.4C151.3,8.5,151.1,8.3,150.9,8.3z"/>
			</g>
		</g>
	</g>
</g>
</svg>
