<?xml version="1.0" encoding="utf-8"?>
<!-- Generator: Adobe Illustrator 19.0.1, SVG Export Plug-In . SVG Version: 6.00 Build 0)  -->
<svg version="1.1" id="Layer_1" xmlns="http://www.w3.org/2000/svg" xmlns:xlink="http://www.w3.org/1999/xlink" x="0px" y="0px"
	 viewBox="100 -50 220 120" style="enable-background:new 100 -50 220 120;" xml:space="preserve">
<style type="text/css">
	.st0{fill:#EEEEEE;}
	.st1{fill:#808080;}
</style>
<rect x="100" y="-50" class="st0" width="220" height="120"/>
<g>
	<rect x="131.9" y="3" class="st1" width="2" height="13.6"/>
	<path class="st1" d="M155.8,8.4L155.8,8.4c0.6-0.1,1.1-0.2,1.5-0.4c0.4-0.2,0.7-0.4,0.9-0.6c0.2-0.2,0.4-0.5,0.5-0.8
		c0.1-0.3,0.2-0.6,0.2-0.8c0-0.4-0.1-0.8-0.2-1.2c-0.2-0.4-0.4-0.7-0.7-0.9c-0.3-0.3-0.8-0.4-1.3-0.6C156,3.1,155.4,3,154.7,3h-4.2
		v13.6h4.3c1,0,1.8-0.1,2.4-0.3c0.7-0.2,1.2-0.5,1.6-0.9c0.4-0.4,0.7-0.8,0.9-1.3c0.2-0.5,0.3-1,0.3-1.6c0-1.1-0.3-2-1-2.7
		C158.3,9.1,157.2,8.6,155.8,8.4z M152.4,3.9h1.4c0.5,0,0.9,0,1.2,0.1c0.4,0.1,0.7,0.2,0.9,0.3c0.3,0.2,0.5,0.4,0.6,0.6
		c0.1,0.3,0.2,0.6,0.2,0.9c0,0.4-0.1,0.7-0.2,1c-0.2,0.3-0.4,0.5-0.6,0.7c-0.3,0.2-0.6,0.3-0.9,0.4C154.6,8,154.2,8,153.8,8h-1.4
		V3.9z M157.5,13.8c-0.2,0.4-0.4,0.7-0.7,1c-0.3,0.3-0.7,0.5-1.1,0.6c-0.4,0.1-0.9,0.2-1.5,0.2h-1.8V8.9h0.6c0.7,0,1.4,0.1,2,0.2
		c0.6,0.1,1.1,0.4,1.5,0.6c0.4,0.3,0.7,0.7,1,1.1c0.2,0.4,0.3,1,0.3,1.6C157.7,12.9,157.7,13.4,157.5,13.8z"/>
	<polygon class="st1" points="161.2,16.6 168.6,16.6 168.6,15.7 163.2,15.7 163.2,8.9 168.4,8.9 168.4,8 163.2,8 163.2,3.9 
		168.6,3.9 168.6,3 161.2,3 	"/>
	<path class="st1" d="M177.9,10.6c0.5-0.3,0.9-0.7,1.1-1.1c0.3-0.4,0.5-0.8,0.6-1.2c0.1-0.4,0.2-0.8,0.2-1.1c0-0.3,0-0.5-0.1-0.9
		c0-0.3-0.1-0.6-0.3-0.9c-0.1-0.3-0.3-0.6-0.6-0.9c-0.2-0.3-0.6-0.6-0.9-0.8c-0.4-0.2-0.9-0.4-1.4-0.5c-0.6-0.1-1.2-0.2-2-0.2h-4.3
		v13.6h2v-5.2h1.5l3.8,5.2h2.4l-3.9-5.3C176.8,11.1,177.4,10.9,177.9,10.6z M173.4,10.5h-1.1V3.9h1.2c0.5,0,1.1,0,1.6,0.1
		c0.5,0.1,1,0.2,1.4,0.5c0.4,0.2,0.7,0.6,1,1c0.2,0.4,0.4,1,0.4,1.7c0,0.6-0.1,1.1-0.3,1.5c-0.2,0.4-0.5,0.8-0.9,1
		c-0.4,0.3-0.8,0.5-1.4,0.6C174.6,10.4,174,10.5,173.4,10.5z"/>
	<polygon class="st1" points="183.3,3 181.3,3 181.3,16.6 188.9,16.6 188.9,15.7 183.3,15.7 	"/>
	<polygon class="st1" points="192.4,9.1 189,3 186.7,3 191,10.4 191,16.6 192.9,16.6 192.9,10.3 196.7,3 195.6,3 	"/>
	<path class="st1" d="M236.2,2.6c-0.8-0.7-1.8-1.3-3-1.7c-1.2-0.4-2.6-0.6-4.1-0.6h-4.6v16.4h4.6c1.6,0,3-0.2,4.1-0.6
		c1.2-0.4,2.2-1,3-1.8c0.8-0.7,1.4-1.6,1.8-2.6c0.4-1,0.6-2.1,0.6-3.2c0-1.1-0.2-2.2-0.6-3.2C237.6,4.2,237,3.3,236.2,2.6z
		 M236,11.1c-0.2,0.8-0.6,1.4-1,2c-0.4,0.6-0.9,1-1.4,1.4c-0.5,0.4-1.1,0.6-1.7,0.8c-0.6,0.2-1.2,0.3-1.9,0.4
		c-0.6,0.1-1.3,0.1-1.9,0.1h-1.6V0.9h1.6c0.6,0,1.2,0,1.9,0.1c0.6,0.1,1.3,0.2,1.9,0.4c0.6,0.2,1.2,0.5,1.7,0.8
		c0.5,0.4,1,0.8,1.4,1.4c0.4,0.6,0.7,1.2,1,2c0.2,0.8,0.4,1.7,0.4,2.7C236.3,9.5,236.2,10.4,236,11.1z"/>
	<path class="st1" d="M253.3,6.1c-0.3-0.5-0.7-1-1.1-1.4c-0.4-0.4-0.9-0.8-1.5-1.1c-0.5-0.3-1.1-0.5-1.7-0.7
		c-0.6-0.2-1.3-0.3-1.9-0.3c-0.7,0-1.3,0.1-1.9,0.3c-0.6,0.2-1.2,0.4-1.7,0.7c-0.5,0.3-1,0.7-1.5,1.1c-0.4,0.4-0.8,0.9-1.1,1.4
		c-0.3,0.5-0.6,1.1-0.7,1.7c-0.2,0.6-0.3,1.2-0.3,1.9c0,0.7,0.1,1.3,0.3,1.9c0.2,0.6,0.4,1.2,0.7,1.7c0.3,0.5,0.7,1,1.1,1.4
		c0.4,0.4,0.9,0.8,1.5,1.1c0.5,0.3,1.1,0.5,1.7,0.7c0.6,0.2,1.3,0.3,1.9,0.3c0.7,0,1.3-0.1,1.9-0.3c0.6-0.2,1.2-0.4,1.7-0.7
		c0.5-0.3,1-0.7,1.5-1.1c0.4-0.4,0.8-0.9,1.1-1.4c0.3-0.5,0.6-1.1,0.7-1.7c0.2-0.6,0.3-1.2,0.3-1.9c0-0.6-0.1-1.3-0.3-1.9
		C253.8,7.2,253.6,6.6,253.3,6.1z M251.8,12.1c-0.2,0.8-0.5,1.4-1,2c-0.4,0.6-1,1-1.6,1.3c-0.6,0.3-1.4,0.5-2.2,0.5
		c-0.8,0-1.6-0.2-2.2-0.5c-0.6-0.3-1.2-0.8-1.6-1.3c-0.4-0.6-0.8-1.2-1-2c-0.2-0.8-0.3-1.6-0.3-2.4c0-0.9,0.1-1.7,0.3-2.4
		c0.2-0.8,0.5-1.4,1-2c0.4-0.6,1-1,1.6-1.3c0.6-0.3,1.4-0.5,2.2-0.5c0.8,0,1.6,0.2,2.2,0.5c0.6,0.3,1.2,0.8,1.6,1.3
		c0.4,0.6,0.8,1.2,1,2c0.2,0.8,0.3,1.6,0.3,2.4C252.1,10.6,252,11.4,251.8,12.1z"/>
	<polygon class="st1" points="264.5,14 256.7,3 254.2,3 255.4,4.7 255.4,16.6 256.4,16.6 256.4,6 263.9,16.6 265.4,16.6 265.4,3 
		264.5,3 	"/>
	<path class="st1" d="M272.2,3h-2.1l0.5,1.4l-4.2,12.2h1.1l1.1-3.3h5.4l1.2,3.3h2.1L272.2,3L272.2,3z M269,12.4l2.2-6.6l2.5,6.6H269
		z"/>
	<polygon class="st1" points="280.4,3 278.4,3 278.4,16.6 286,16.6 286,15.7 280.4,15.7 	"/>
	<path class="st1" d="M298.6,7.1c-0.3-0.8-0.8-1.5-1.5-2.2c-0.7-0.6-1.5-1.1-2.5-1.4c-1-0.4-2.1-0.5-3.4-0.5h-3.9v13.6h3.9
		c1.3,0,2.4-0.2,3.4-0.5c1-0.4,1.8-0.8,2.5-1.5c0.7-0.6,1.2-1.3,1.5-2.2c0.3-0.8,0.5-1.7,0.5-2.7C299.2,8.8,299,8,298.6,7.1z
		 M296.8,12c-0.2,0.6-0.4,1.1-0.8,1.6c-0.3,0.4-0.7,0.8-1.1,1.1c-0.4,0.3-0.9,0.5-1.4,0.7c-0.5,0.2-1,0.3-1.5,0.3
		c-0.5,0.1-1,0.1-1.5,0.1h-1.1V3.9h1.1c0.5,0,1,0,1.5,0.1c0.5,0.1,1,0.2,1.5,0.3c0.5,0.2,0.9,0.4,1.4,0.7c0.4,0.3,0.8,0.6,1.1,1.1
		c0.3,0.4,0.6,1,0.8,1.6c0.2,0.6,0.3,1.3,0.3,2.2C297,10.6,296.9,11.4,296.8,12z"/>
	<polygon class="st1" points="129.9,0.2 122.8,7.4 122.8,0.2 120.8,0.2 120.8,16.6 122.8,16.6 122.8,9 123.5,8.4 128.7,16.6 
		131.1,16.6 124.9,6.9 131.5,0.2 	"/>
	<path class="st1" d="M222.1,18.2c-0.1,0.1-0.3,0.2-0.4,0.3c-0.2,0.1-0.3,0.2-0.5,0.2c-0.2,0.1-0.3,0.1-0.5,0.2
		c-0.2,0-0.3,0.1-0.5,0.1c-0.6,0-1.2-0.1-1.6-0.3c-0.5-0.2-0.9-0.4-1.2-0.7c-0.3-0.3-0.5-0.7-0.7-1.1c-0.2-0.4-0.2-0.8-0.2-1.2l0,0
		l0,0v0c0-0.4,0.1-0.8,0.2-1.2c0.2-0.4,0.4-0.8,0.7-1.1c0.3-0.3,0.7-0.5,1.2-0.7c0.1,0,0.2-0.1,0.4-0.1v4.1h1.3v-4.3
		c0.1,0,0.3,0,0.4,0c0.2,0,0.3,0.1,0.5,0.1c0.2,0.1,0.3,0.2,0.5,0.2c0.1,0.1,0.3,0.2,0.4,0.3l0,0l0.4-0.6l0,0
		c-0.2-0.2-0.4-0.3-0.6-0.4c-0.2-0.1-0.4-0.2-0.6-0.3c-0.2-0.1-0.4-0.1-0.6-0.2c-0.1,0-0.3,0-0.4-0.1V1.3l0.5-1.1h-1.3l-6.6,13.7
		l-6.7-13.7h-2.3l1.7,3.6v12.8h1.1V6l5.2,10.6h0.9L218.9,4v7.5c-0.3,0.1-0.7,0.1-0.9,0.3c-0.6,0.2-1.1,0.5-1.5,0.9
		c-0.4,0.4-0.7,0.8-0.9,1.3c-0.2,0.5-0.3,1-0.3,1.5h0v0.1l0,0c0,0.5,0.1,1.1,0.3,1.5c0.2,0.5,0.5,1,0.9,1.3c0.4,0.4,0.9,0.7,1.5,0.9
		c0.6,0.2,1.3,0.3,2,0.3c0.2,0,0.4,0,0.6-0.1c0.2,0,0.4-0.1,0.6-0.2c0.2-0.1,0.4-0.2,0.6-0.3c0.2-0.1,0.4-0.3,0.6-0.4l0,0
		L222.1,18.2L222.1,18.2z"/>
	<polygon class="st1" points="148,3 142.5,14.1 137.1,3 135,3 135.8,4.7 135.8,16.6 136.8,16.6 136.8,6.7 141.7,16.6 142.5,16.6 
		146.7,8 146.7,16.6 146.9,16.6 148.7,16.6 148.7,3.9 149.2,3 	"/>
</g>
</svg>
