<?xml version="1.0" encoding="utf-8"?>
<!-- Generator: Adobe Illustrator 19.0.1, SVG Export Plug-In . SVG Version: 6.00 Build 0)  -->
<svg version="1.1" id="Layer_1" xmlns="http://www.w3.org/2000/svg" xmlns:xlink="http://www.w3.org/1999/xlink" x="0px" y="0px"
	 viewBox="100 -50 220 120" style="enable-background:new 100 -50 220 120;" xml:space="preserve">
<style type="text/css">
	.st0{fill:#EEEEEE;}
	.st1{fill:#808080;}
</style>
<rect x="100" y="-50" class="st0" width="220" height="120"/>
<g>
	<g>
		<path class="st1" d="M168.5,28l-0.1,0.1c0-0.1-0.1-0.1-0.1-0.1c0,0-0.1,0-0.1,0.1c-0.3,0.2-1,0.8-2.3,0.8c-1.9,0-3.2-1.3-3.2-3
			c0-1.4,1.2-2.7,3.1-2.7c0.7,0,1.2,0.1,1.6,0.3c0.3,0.1,0.5,0.2,0.6,0.3c0,0,0.1,0,0.1,0c0.1,0,0.1,0,0.1-0.1l0.1,0.1l-0.6,1.1
			l-0.1-0.1c0,0,0-0.1,0-0.1c0,0,0-0.1,0-0.1c-0.2-0.3-1-0.7-1.9-0.7c-1.1,0-2.2,0.6-2.2,2.1c0,1.4,1,2.2,2.4,2.2
			c0.8,0,1.5-0.5,1.8-0.8c0-0.1,0.1-0.1,0.1-0.2c0-0.1,0-0.1,0-0.1l0.1-0.1L168.5,28z"/>
		<path class="st1" d="M179.7,28.4c0,0.1,0,0.3,0.2,0.3v0.1h-1.2v-0.1c0.2,0,0.2-0.1,0.2-0.3v-2.1h-3.6v2.1c0,0.1,0,0.3,0.2,0.3v0.1
			h-1.2v-0.1c0.2,0,0.2-0.1,0.2-0.3v-4.8c0-0.1,0-0.3-0.2-0.3v-0.1h1.2v0.1c-0.2,0-0.2,0.1-0.2,0.3v2h3.6v-2c0-0.1,0-0.3-0.2-0.3
			v-0.1h1.2v0.1c-0.2,0-0.2,0.1-0.2,0.3V28.4z"/>
		<path class="st1" d="M186.7,27.3l-0.4,0.8c-0.1,0.1-0.1,0.3-0.1,0.4c0,0.1,0.1,0.1,0.1,0.1l0,0.1h-1.2l0-0.1c0.2,0,0.2,0,0.4-0.5
			l1.9-4.3c0.1-0.2,0.3-0.7,0.3-0.7h0.9c0,0,0.2,0.5,0.3,0.7l1.9,4.2c0.2,0.5,0.3,0.5,0.4,0.5l0,0.1h-1.3l0-0.1
			c0.1,0,0.2-0.1,0.2-0.1c0-0.1,0-0.1-0.1-0.4l-0.4-0.8H186.7z M187,26.6h2.2l-1.1-2.5L187,26.6z"/>
		<path class="st1" d="M220,27.3l-0.4,0.8c-0.1,0.1-0.1,0.3-0.1,0.4c0,0.1,0.1,0.1,0.1,0.1l0,0.1h-1.2l0-0.1c0.2,0,0.2,0,0.4-0.5
			l1.9-4.3c0.1-0.2,0.3-0.7,0.3-0.7h0.9c0,0,0.2,0.5,0.3,0.7l1.9,4.2c0.2,0.5,0.2,0.5,0.4,0.5l0,0.1h-1.3l0-0.1
			c0.1,0,0.2-0.1,0.2-0.1c0-0.1,0-0.1-0.1-0.4l-0.4-0.8H220z M220.4,26.6h2.2l-1.1-2.5L220.4,26.6z"/>
		<path class="st1" d="M196.5,28.8v-0.1c0.2,0,0.2-0.1,0.2-0.3v-4.8c0-0.1,0-0.2-0.2-0.2v-0.1h1.3l1.8,3.8l1.9-3.8h1.3v0.1
			c-0.2,0-0.2,0.2-0.2,0.2v4.8c0,0.1,0,0.3,0.2,0.3v0.1h-1.3v-0.1c0.2,0,0.2-0.1,0.2-0.3v-4.2l0,0l-2.2,4.5l-2.2-4.5l0,0v4.2
			c0,0.2,0,0.3,0.2,0.3v0.1H196.5z"/>
		<path class="st1" d="M209.1,23.6c0-0.1,0-0.3-0.2-0.3v-0.1h3.1c0.5,0,0.8,0,1,0.1c0.8,0.2,1.1,0.7,1.1,1.4c0,0.6-0.3,1.2-1,1.5
			c-0.2,0.1-0.6,0.2-1.1,0.2h-2.1v2c0,0.1,0,0.3,0.2,0.3v0.1h-1.2v-0.1c0.2,0,0.2-0.1,0.2-0.3V23.6z M209.9,25.7h2.3
			c0.9,0,1.1-0.4,1.1-0.9c0-0.5-0.2-0.8-1.1-0.8h-2.3V25.7z"/>
		<path class="st1" d="M233,26.7c-0.2,0-0.3,0-0.3,0.2l-0.1,0v-1.1l0.1,0c0,0.2,0.2,0.2,0.4,0.2h2c0,0,0,0.2,0,0.4v0.9
			c0,0.2,0,0.5,0,0.5c-1,0.8-1.8,1-2.7,1c-1.7,0-3.1-1.2-3.1-2.8c0-1.7,1.3-2.9,3-2.9c1.7,0,2.3,0.7,2.5,0.7c0,0,0.1,0,0.1-0.1
			l0.1,0.1l-0.6,1l-0.1-0.1c0,0,0,0,0,0c0-0.2-0.9-0.8-2-0.8c-1.5,0-2.2,1-2.2,2.1c0,1.4,1.1,2.1,2.1,2.1s1.6-0.3,2-0.6v-0.8H233z"
			/>
		<path class="st1" d="M245.7,27.4L245.7,27.4l0-3.8c0-0.1,0-0.3-0.2-0.3v-0.1h1.1v0.1c-0.2,0-0.2,0.1-0.2,0.3v4.8
			c0,0.1,0,0.4,0,0.4h-0.6c0,0-0.3-0.4-0.3-0.4l-3.6-4.3v4.3c0,0.1,0,0.3,0.2,0.3v0.1h-1.1v-0.1c0.2,0,0.2-0.1,0.2-0.3v-4.8
			c0-0.1,0-0.3-0.2-0.3v-0.1h1.2c0,0,0.3,0.3,0.3,0.4L245.7,27.4z"/>
		<path class="st1" d="M252.8,23.6c0-0.1,0-0.3-0.2-0.3v-0.1h4.2c0.3,0,0.5,0,0.5,0v0.9h-0.1c0-0.2-0.1-0.2-0.4-0.2h-3.2v1.7h2.1
			c0.2,0,0.4,0,0.4-0.2h0.1v1.2h-0.1c0-0.2-0.1-0.2-0.4-0.2h-2.1v1.8h3.4c0.3,0,0.4,0,0.4-0.2h0.1v0.9c0,0-0.2,0-0.5,0h-4.5v-0.1
			c0.2,0,0.2-0.1,0.2-0.3V23.6z"/>
	</g>
	<g>
		<circle class="st1" cx="199.3" cy="-11.8" r="0.6"/>
		<circle class="st1" cx="199.6" cy="-10.5" r="0.5"/>
		<g>
			<g>
				<g>
					<path class="st1" d="M210.5-12.9c0.2,0,0.4,0,0.5,0c0.2-0.7,0.2-1.6,0-2.2c0.2,0.1,0.6,0.1,1,0.2c0,0,0.2,0,0.2,0
						c0.6,0,1.6,0,2.1,0.7c0.4,0.6,0.2,1.2,0,1.8c-0.2,0.6-0.2,0.8-0.2,0.9c0.1,0,0.3,0.1,0.4,0.3c0-0.4,0-0.6,0.3-1.1
						c0.2-0.5,0.5-1.3,0-2.1c-0.7-1-1.9-0.9-2.6-0.9h-0.1c-1,0-1.5-0.3-1.5-0.3l-0.2,0C210.7-14.7,210.8-13.6,210.5-12.9z
						 M208.4-15.7c0.2,0,0.3-0.1,0.3-0.3c0-0.2-0.1-0.3-0.3-0.3c-0.2,0-0.3,0.1-0.3,0.3C208.1-15.9,208.2-15.7,208.4-15.7z
						 M205.4-11.3c0.1-0.2,0.3-0.3,0.4-0.3c0-0.1,0-0.3-0.2-0.9c-0.2-0.5-0.4-1.2,0-1.8c0.5-0.7,1.5-0.7,2.1-0.7c0,0,0.2,0,0.2,0
						c0.4,0,0.8-0.1,1-0.2c-0.2,0.7-0.2,1.6,0,2.2c0.1,0,0.3,0,0.5,0c-0.3-0.7-0.2-1.8,0.1-2.8l-0.2,0c0,0-0.5,0.3-1.5,0.3h-0.1
						c-0.8,0-2,0-2.6,0.9c-0.5,0.7-0.2,1.6,0,2.1C205.3-11.9,205.4-11.8,205.4-11.3z M201.8-5.5v1.9h16.4v-1.9H201.8z M203.4-4.2
						h-1.1V-5h1.1V-4.2z M205.1-4.1l-1-0.5l1-0.5l1,0.5L205.1-4.1z M207.4-4.1c-0.3,0-0.5-0.2-0.5-0.5c0-0.3,0.2-0.5,0.5-0.5
						c0.3,0,0.5,0.2,0.5,0.5C207.9-4.3,207.7-4.1,207.4-4.1z M211-4.2h-2.2V-5h2.2V-4.2z M212.5-4.1c-0.3,0-0.5-0.2-0.5-0.5
						c0-0.3,0.2-0.5,0.5-0.5c0.3,0,0.5,0.2,0.5,0.5C213-4.3,212.8-4.1,212.5-4.1z M214.7-4.1l-1-0.5l1-0.5l1,0.5L214.7-4.1z
						 M217.6-4.2h-1.1V-5h1.1V-4.2z M204.4-12c0.3-0.1,0.4-0.4,0.3-0.7c-0.1-0.3-0.4-0.4-0.7-0.3c-0.3,0.1-0.4,0.4-0.3,0.7
						C203.8-12,204.1-11.9,204.4-12z"/>
				</g>
			</g>
			<g>
				<g>
					<path class="st1" d="M203-13.8L203-13.8c0-0.2,0.1-0.4,0.2-0.5c-1.1,0.1-1.8,0.5-2.3,0.9c-1.1,1-0.7,2.6-0.4,3.5
						c0.1,0.2,0,0.1,0.1,0.2c0.1-0.3,0.2-0.3,0.4-0.4c0-0.1,0-0.1-0.1-0.2c-0.1-0.4-0.2-0.9-0.2-1.2C200.8-12.9,201.8-13.7,203-13.8
						z M218.9-13.3c-0.5-0.5-1.1-0.8-2.2-0.9c0.1,0.1,0.2,0.3,0.2,0.5l0,0c1.2,0.1,2.3,0.9,2.3,2.3c0,0.3-0.1,0.8-0.2,1.2
						c-0.1,0.2-0.1,0.2-0.1,0.2c0.2,0.1,0.3,0.1,0.4,0.4c0-0.1,0,0,0.1-0.2C219.6-10.7,219.9-12.3,218.9-13.3z M201.8-3.6h16.4v-1.9
						h-16.4V-3.6z M216.5-5h1.1v0.7h-1.1V-5z M214.7-5l1,0.5l-1,0.5l-1-0.5L214.7-5z M212.5-5.1c0.3,0,0.5,0.2,0.5,0.5
						c0,0.3-0.2,0.5-0.5,0.5c-0.3,0-0.5-0.2-0.5-0.5C212-4.9,212.2-5.1,212.5-5.1z M208.8-5h2.2v0.7h-2.2V-5z M207.4-5.1
						c0.3,0,0.5,0.2,0.5,0.5c0,0.3-0.2,0.5-0.5,0.5c-0.3,0-0.5-0.2-0.5-0.5C206.8-4.9,207.1-5.1,207.4-5.1z M205.1-5l1,0.5l-1,0.5
						l-1-0.5L205.1-5z M202.3-5h1.1v0.7h-1.1V-5z"/>
				</g>
			</g>
			<circle class="st1" cx="199.8" cy="-13.2" r="0.5"/>
			<circle class="st1" cx="200.7" cy="-14.1" r="0.5"/>
			<circle class="st1" cx="201.8" cy="-14.7" r="0.5"/>
			<circle class="st1" cx="203" cy="-15" r="0.5"/>
			<path class="st1" d="M218.2-2.7L218.2-2.7c0.2,0,0.3-0.1,0.3-0.3s-0.1-0.3-0.3-0.3h0h-16.6h0c-0.2,0-0.3,0.1-0.3,0.3
				c0,0.2,0.1,0.3,0.3,0.3h0H218.2z"/>
			<path class="st1" d="M218.2-5.9L218.2-5.9c0.2,0,0.3-0.1,0.3-0.3c0-0.2-0.1-0.3-0.3-0.3h0l-16.6,0h0c-0.2,0-0.3,0.1-0.3,0.3
				c0,0.2,0.1,0.3,0.3,0.3h0H218.2z"/>
			<circle class="st1" cx="220.5" cy="-11.8" r="0.6"/>
			<circle class="st1" cx="220.8" cy="-11.7" r="0"/>
			<circle class="st1" cx="220.3" cy="-10.5" r="0.5"/>
			<circle class="st1" cx="220.1" cy="-13.2" r="0.5"/>
			<circle class="st1" cx="219.2" cy="-14.1" r="0.5"/>
			<circle class="st1" cx="218" cy="-14.7" r="0.5"/>
			<circle class="st1" cx="216.9" cy="-15" r="0.5"/>
			<ellipse class="st1" cx="220.3" cy="-13.3" rx="0" ry="0"/>
			<circle class="st1" cx="219.3" cy="-14.3" r="0"/>
			<circle class="st1" cx="217.9" cy="-14.9" r="0"/>
			<polygon class="st1" points="209.4,-22.3 210.5,-22.3 210.3,-21.3 211.2,-21.6 211.2,-20.4 210.3,-20.7 210.3,-19.6 209.6,-19.6 
				209.6,-20.7 208.7,-20.4 208.7,-21.6 209.6,-21.3 			"/>
			<circle class="st1" cx="204" cy="-13.7" r="0.5"/>
			<circle class="st1" cx="204.5" cy="-14.9" r="0.5"/>
			<circle class="st1" cx="205.4" cy="-15.7" r="0.5"/>
			<circle class="st1" cx="206.4" cy="-16" r="0.4"/>
			<circle class="st1" cx="207.5" cy="-16.1" r="0.4"/>
			<circle class="st1" cx="211.5" cy="-16.1" r="0.3"/>
			<path class="st1" d="M215.5-12c0.3,0.1,0.6-0.1,0.7-0.3c0.1-0.3,0-0.6-0.3-0.7c-0.3-0.1-0.6,0-0.7,0.3
				C215.1-12.4,215.2-12.1,215.5-12z"/>
			<circle class="st1" cx="215.9" cy="-13.7" r="0.5"/>
			<circle class="st1" cx="215.4" cy="-14.9" r="0.5"/>
			<circle class="st1" cx="214.5" cy="-15.7" r="0.5"/>
			<circle class="st1" cx="213.4" cy="-16" r="0.4"/>
			<circle class="st1" cx="212.4" cy="-16.1" r="0.4"/>
			<circle class="st1" cx="209.9" cy="-14.4" r="0.4"/>
			<circle class="st1" cx="209.9" cy="-13.4" r="0.5"/>
			<circle class="st1" cx="209.9" cy="-15.4" r="0.3"/>
			<path class="st1" d="M220.4-9.7c-0.3,0-0.4,0.1-0.7,0.3c-0.2,0.2-0.5,0.6-0.5,0.6l-0.2-0.2c-0.1-0.1-0.2-0.5,0-0.6
				c0,0,0-0.1,0-0.1c0,0-0.2,0-0.4,0.2c-0.1,0.2-0.2,0.4-0.2,0.4s-0.2,0-0.4,0.2c-0.2,0.2-0.2,0.7-0.2,0.7s-0.3,0.2-0.3,0.3
				c-0.1,0.3,0,0.6,0,0.6c0,0,0.1,0.1,0.1,0c0.1-0.2,0.3-0.3,0.5-0.3c0.3,0,0.4,0.1,0.4,0.1c0,0.1-0.4,0.5-0.8,0.5
				c-0.3,0-0.5-0.1-0.7-0.3c-0.2-0.3-0.1-0.5-0.1-0.5s0.4,0.1,0.6-0.4c0.2-0.4,0.1-0.6-0.1-0.7c-0.2-0.1-0.5,0.1-0.7,0.3
				c-0.2,0.5-0.1,0.7-0.1,0.7s-0.4,0.6-1.1,0.3c-0.7-0.2-0.3-1.5-0.3-1.5s0.2-0.1,0.3,0c0.1,0.1,0.1,0.3,0.2,0.5
				c0.1,0.1,0.2,0.4,0.3,0.4c0.1,0,0.3-0.3,0.3-0.6c0.3-0.1,0.5-0.2,0.4-0.7c0,0,0.3-0.3,0.3-0.6c0,0-0.2-0.1-0.4-0.1
				c-0.3,0-0.6,0.2-0.6,0.2s0-0.2,0.1-0.3c0.1-0.1,0.4-0.3,0.5-0.5c0.1-0.2,0.2-0.4,0.1-0.5c-0.1-0.1-0.3-0.1-0.5-0.1
				c0,0-0.1-0.2-0.3-0.2l0,0c-0.2-0.1-0.3,0-0.3,0c-0.1-0.1-0.3-0.2-0.5-0.2c-0.1,0-0.2,0.3-0.2,0.4c0,0.2,0.1,0.7,0.1,0.8
				c0,0.1-0.1,0.3-0.1,0.3s-0.1-0.4-0.3-0.6c-0.2-0.2-0.3-0.2-0.4-0.2c-0.1,0-0.2,0.4-0.2,0.7c-0.4,0.2-0.3,0.6-0.2,0.8
				c-0.1,0.2-0.2,0.6-0.1,0.7c0.1,0.1,0.3,0,0.6-0.1c0.2-0.1,0.3-0.3,0.5-0.3c0.1,0,0.2,0.2,0.2,0.2s-0.5,1-1.2,1
				c-0.5,0-0.7-0.2-0.7-0.2c-0.3-0.2-0.3-0.5-0.3-0.5s0.4-0.1,0.5-0.7c0-0.4-0.2-0.7-0.4-0.7c-0.3,0-0.6,0.2-0.6,0.6
				c-0.1,0.6,0.3,0.8,0.3,0.8s-0.2,0.7-1,0.6c-0.4,0-0.5-0.1-0.8-0.3c-0.4-0.3-0.4-1.1-0.4-1.1s0.2-0.1,0.3-0.1
				c0.1,0,0.2,0.3,0.4,0.4c0.2,0.2,0.4,0.4,0.7,0.3c0.1,0,0.2-0.5,0.1-0.8c0.2-0.2,0.3-0.6,0.1-0.9c0,0,0.2-0.5,0-0.7
				c0,0-0.2-0.1-0.5,0.1c-0.3,0.1-0.7,0.5-0.7,0.5s-0.1-0.2,0-0.3c0.1-0.1,0.3-0.6,0.4-0.8c0.1-0.2,0.1-0.5,0-0.5
				c-0.2,0-0.4,0-0.6,0.1c-0.1-0.1-0.2-0.2-0.4-0.2l0,0c0,0,0,0,0,0h0l0,0c-0.2,0-0.3,0.1-0.4,0.2c-0.2-0.1-0.4-0.1-0.6-0.1
				c-0.2,0-0.1,0.3,0,0.5c0.1,0.2,0.3,0.7,0.4,0.8c0.1,0.1,0,0.3,0,0.3s-0.4-0.4-0.7-0.5c-0.3-0.1-0.5-0.1-0.5-0.1
				c-0.1,0.2,0,0.7,0,0.7c-0.2,0.3-0.2,0.7,0.1,0.9c-0.1,0.3,0,0.8,0.1,0.8c0.2,0,0.5-0.2,0.7-0.3c0.2-0.2,0.3-0.4,0.4-0.4
				c0.1,0,0.3,0.1,0.3,0.1s0,0.8-0.4,1.1c-0.3,0.2-0.5,0.3-0.8,0.3c-0.8,0.1-1-0.6-1-0.6s0.4-0.2,0.3-0.8c-0.1-0.3-0.3-0.6-0.6-0.6
				c-0.2,0-0.5,0.3-0.4,0.7c0.1,0.6,0.5,0.7,0.5,0.7s0,0.3-0.3,0.5c0,0-0.2,0.2-0.7,0.2c-0.6,0-1.2-1-1.2-1s0.1-0.1,0.2-0.2
				c0.1,0,0.3,0.2,0.5,0.3C206-9,206.3-9,206.3-9c0.1-0.1,0-0.5-0.1-0.7c0.1-0.2,0.1-0.6-0.2-0.8c0-0.3-0.1-0.7-0.2-0.7
				c-0.1,0-0.2,0-0.4,0.2c-0.2,0.2-0.3,0.6-0.3,0.6s-0.1-0.2-0.1-0.3c0-0.1,0.2-0.6,0.1-0.8c0-0.2-0.1-0.5-0.2-0.4
				c-0.1,0-0.3,0.1-0.5,0.2c0,0-0.2-0.1-0.3,0l0,0c-0.2,0.1-0.3,0.2-0.3,0.2c-0.2,0-0.4,0.1-0.5,0.1c-0.1,0.1,0,0.3,0.1,0.5
				c0.1,0.2,0.5,0.4,0.5,0.5c0.1,0.1,0.1,0.3,0.1,0.3s-0.4-0.1-0.6-0.2c-0.3,0-0.4,0-0.4,0.1c0,0.2,0.3,0.6,0.3,0.6
				c-0.1,0.5,0.1,0.7,0.4,0.7c0,0.3,0.2,0.6,0.3,0.6c0.1,0,0.3-0.2,0.3-0.4c0.1-0.2,0.1-0.4,0.2-0.5c0.1-0.1,0.3,0,0.3,0
				s0.3,1.2-0.3,1.5c-0.7,0.3-1.1-0.3-1.1-0.3s0.2-0.2-0.1-0.7c-0.1-0.3-0.5-0.5-0.7-0.3c-0.2,0.1-0.3,0.3-0.1,0.7
				c0.2,0.5,0.6,0.4,0.6,0.4s0,0.2-0.1,0.5c-0.1,0.2-0.3,0.3-0.7,0.3c-0.4,0-0.8-0.5-0.8-0.5c0-0.1,0.1-0.2,0.4-0.1
				c0.2,0,0.4,0.1,0.5,0.3c0,0.1,0.1,0,0.1,0c0,0,0.1-0.3,0-0.6c-0.1-0.1-0.3-0.3-0.3-0.3s0.1-0.4-0.2-0.7c-0.2-0.2-0.4-0.2-0.4-0.2
				s0-0.2-0.2-0.4c-0.2-0.2-0.4-0.2-0.4-0.2c0,0-0.1,0,0,0.1c0.2,0.1,0.1,0.5,0,0.6l-0.2,0.2c0,0-0.3-0.3-0.5-0.6
				c-0.3-0.3-0.4-0.3-0.7-0.3c-0.4,0-0.5,0.3-0.5,0.3s0.3-0.1,0.6,0.2c0.2,0.1,0.7,0.6,0.7,0.6c0,0.7,0.2,1.2,0.8,1.2l0.4,0.6h16.7
				l0.4-0.6c0.7-0.1,0.9-0.6,0.8-1.2c0,0,0.5-0.5,0.7-0.6c0.4-0.2,0.6-0.2,0.6-0.2S220.7-9.7,220.4-9.7z M201.3-7.6
				c0,0-0.3,0-0.5-0.3c-0.2-0.2-0.2-0.8-0.2-0.8s0.1,0.2,0.3,0.4c0.1,0.2,0.1,0.1,0.1,0.1s0.1-0.1,0.2-0.1c0.1,0,0.2,0,0.2,0
				s-0.1,0.1-0.2,0.2c0,0-0.1,0.1-0.1,0.1S201.4-7.7,201.3-7.6z M204.8-9.3c-0.1,0.1-0.3-0.3-0.3-0.3s-0.1,0-0.3,0
				c-0.1,0-0.3,0.1-0.3,0.1s0.1-0.2,0.3-0.3c0.1-0.1,0.2-0.1,0.2-0.1s0,0-0.1-0.3c-0.1-0.4,0-0.8,0-0.8s0.3,0.3,0.5,0.7
				c0.1,0.3,0.1,0.3,0.1,0.3s0.1,0,0.2-0.1c0.2,0,0.4,0.1,0.4,0.1s-0.2,0-0.3,0.1c-0.1,0.1-0.2,0.1-0.2,0.1S204.9-9.3,204.8-9.3z
				 M209.9-10c-0.1,0-0.2-0.5-0.2-0.5s-0.1,0-0.3-0.1c-0.2,0-0.4,0-0.4,0s0.1-0.2,0.4-0.3c0.2,0,0.3,0,0.3,0s0,0,0-0.3
				c0-0.4,0.2-0.8,0.2-0.8h0c0,0,0.2,0.4,0.2,0.8c0,0.3,0,0.3,0,0.3s0.1,0,0.2,0c0.3,0.1,0.4,0.3,0.4,0.3s-0.2,0-0.4,0
				c-0.1,0-0.3,0.1-0.3,0.1S210.1-10,209.9-10L209.9-10z M215-9.3c-0.1,0-0.1-0.5-0.1-0.5s-0.1-0.1-0.2-0.1
				c-0.1-0.1-0.3-0.1-0.3-0.1s0.2-0.1,0.4-0.1c0.2,0,0.2,0.1,0.2,0.1s0,0,0.1-0.3c0.1-0.4,0.5-0.7,0.5-0.7s0.1,0.4,0,0.8
				c-0.1,0.3-0.1,0.3-0.1,0.3s0.1,0,0.2,0.1c0.2,0.1,0.3,0.3,0.3,0.3s-0.2-0.1-0.3-0.1c-0.1,0-0.3,0-0.3,0S215.1-9.3,215-9.3z
				 M219.1-7.9c-0.2,0.2-0.5,0.3-0.5,0.3c-0.1,0,0.1-0.4,0.1-0.4s-0.1-0.1-0.1-0.1c0,0-0.2-0.2-0.2-0.2s0.1-0.1,0.3,0
				c0.1,0,0.2,0.1,0.2,0.1s0,0,0.1-0.1c0.2-0.2,0.3-0.4,0.3-0.4S219.3-8.1,219.1-7.9z"/>
			<path class="st1" d="M209.6-19.6v1.4c-0.5,0-1,0.1-1.4,0.2C208.3-18.8,208.9-19.4,209.6-19.6z"/>
			<path class="st1" d="M210.3-19.6c0.8,0.1,1.3,0.8,1.4,1.5c-0.5-0.1-0.9-0.2-1.4-0.2V-19.6z"/>
			<path class="st1" d="M211.6-17.4c-0.2,0.8-0.9,1.4-1.7,1.4c-0.8,0-1.5-0.6-1.7-1.4c0.5-0.1,1.1-0.2,1.7-0.2
				S211.1-17.6,211.6-17.4z"/>
		</g>
	</g>
	<g>
		<g>
			<path class="st1" d="M206.1,5.2c2,0,2.7,2.3,2.9,3.1c0.2-0.5,1.4-3,1.5-3.3c-0.2,0-0.8,0.2-1.2,0.3c-0.9-0.8-2-1.1-3.2-1.1
				c-3,0-5.5,2.8-5.5,6.3c0,3.5,2.2,6.3,5.4,6.3c2.5,0,3.9-1.5,4-3c0-0.4-0.1-1.2-0.9-1.5c-0.1,1.5-1,3.5-3,3.5
				c-2,0-3.1-2.2-3.1-5.3C203,7.3,204.2,5.2,206.1,5.2z M144.3,5.6l1.2-1.2c-0.3,0-2.4,0-2.7,0c-0.4,0-0.6,0.2-0.7,0.5
				c-0.1,0.2-2.1,4.8-2.6,5.8c-0.2-0.4-2.4-5.4-2.6-5.8c-0.2-0.3-0.2-0.5-0.7-0.5h-2.8c0.2,0.1,1,0.9,1.2,1.2c0,0.3-0.8,9-0.9,9.7
				l-1.3,1.2h3.8l-1.2-1.2c0-0.2,0.7-7.5,0.7-7.8c0.1,0.2,3.1,6.8,3.1,7c0.1,0.2,0.4,0.2,0.4,0c0-0.1,2.8-6.6,3-7
				c0,0.3,0.6,7.5,0.6,7.8l-1.3,1.2h4.6l-1.3-1.2C145.1,15,144.4,6.1,144.3,5.6z M153.8,4.2c-3,0-5.5,2.8-5.5,6.3
				c0,3.5,2.5,6.3,5.5,6.3c3,0,5.5-2.8,5.5-6.3C159.3,7,156.9,4.2,153.8,4.2z M153.8,15.7c-2,0-3.1-2.2-3.1-5.3
				c0-3.1,1.2-5.3,3.1-5.3c2,0,3.1,2.2,3.1,5.3C157,13.6,155.8,15.7,153.8,15.7z M269.3,4.2c-3,0-5.5,2.8-5.5,6.3
				c0,3.5,2.5,6.3,5.5,6.3c3,0,5.5-2.8,5.5-6.3C274.8,7,272.3,4.2,269.3,4.2z M269.3,15.7c-2,0-3.2-2.2-3.2-5.3
				c0-3.1,1.3-5.3,3.2-5.3c2,0,3.2,2.2,3.2,5.3C272.5,13.6,271.3,15.7,269.3,15.7z M164.3,3.7c0.5,0,0.9-0.4,0.9-0.9
				c0-0.5-0.4-0.9-0.9-0.9c-0.5,0-0.9,0.4-0.9,0.9C163.4,3.3,163.8,3.7,164.3,3.7z M166.9,3.7c0.5,0,0.9-0.4,0.9-0.9
				c0-0.5-0.4-0.9-0.9-0.9S166,2.4,166,2.8C166,3.3,166.4,3.7,166.9,3.7z M167.8,15.3h-3.1v-4.6h2.5c0,0,1.1,0.9,1.2,1V8.6l-1.2,1
				h-2.5c0,0,0-4,0-4.1h2.9c0.2,0,0.3,0,0.4,0.1c0,0,1.5,1.1,1.6,1.1c0,0-0.7-2-0.7-2.1c-0.1-0.2-0.1-0.3-0.5-0.3h-7.1
				c0,0,1.2,1.1,1.3,1.1c0,0,0,9.6,0,9.8l-1.3,1.2h7.7c0.3,0,0.4-0.1,0.4-0.3c0-0.1,0.7-2.2,0.7-2.3c0,0-1.7,1.2-1.9,1.3
				C168.1,15.3,168,15.3,167.8,15.3z M181.1,4.4c-0.2,0-8.2,0-8.3,0c-0.2,0-0.3,0.1-0.4,0.3c0,0.1-0.4,2.1-0.5,2.3
				c0.1-0.1,1.4-1.2,1.5-1.3c0.1-0.1,0.2-0.1,0.4-0.1c0.1,0,2,0,2.1,0c0,0,0,9.6,0,9.7c0,0-1.1,1-1.3,1.2h4.6l-1.3-1.2
				c0,0,0-9.6,0-9.8c0,0,2,0,2.1,0c0.2,0,0.2,0,0.4,0.1c0.1,0,1.3,1.1,1.5,1.2c0-0.1-0.4-2-0.5-2.2C181.5,4.5,181.3,4.4,181.1,4.4z
				 M193.7,14.8c0.5-0.6,1-1.3,1-2.4c0-0.9-0.4-1.4-0.7-1.7c-0.2-0.2-0.4-0.1-0.6,0.1c0,0.1-0.4,0.5-0.7,0.8c0.6,0.2,1,0.8,1,1.4
				c0,0.5-0.1,0.9-0.4,1.3c-0.6-0.7-4-4.3-4-5.9c0-0.7,0.4-1.2,1-1.2c0.7,0,1.1,0.7,1.1,1.2c0,0.8-0.3,1.3-1,1.8
				c0.1,0.1,0.2,0.3,0.3,0.4c0.6-0.3,2.1-0.9,2.1-2.2c0-0.8-0.8-1.8-2.4-1.8c-1.1,0-2.5,0.9-2.5,2.3c0,0.9,0.6,1.8,0.9,2.2
				c-0.7,0.4-2,1.3-2,2.9c0,1.6,1.4,2.8,3.2,2.8c1.4,0,2-0.4,2.7-0.8c0.2,0.2,0.4,0.4,0.8,0.7c0.2,0,2.2,0,2.4,0
				c0.1-0.1,0.4-0.4,0.5-0.6C194.9,16.1,194.4,15.5,193.7,14.8z M190.6,15.6c-1.7,0-2.2-1.3-2.2-2.3c0-0.8,0.3-1.4,0.7-1.6
				c0.5,0.9,2.3,3,2.9,3.6C191.7,15.3,191.3,15.6,190.6,15.6z M219,4.4c0,0,1.2,1.1,1.3,1.1v4h-4.2c0,0,0-3.7,0-4c0,0,1-0.9,1.3-1.1
				h-4.6c0,0,1.1,0.9,1.3,1.1v9.8c0,0-1,0.9-1.3,1.2c0,0,4.2,0,4.6,0c0,0-1-0.9-1.3-1.2v-4.6l4.2,0c0,0,0,4.3,0,4.6c0,0-1,1-1.3,1.2
				c0,0,4.2,0,4.5,0c0,0-1.1-1-1.2-1.1c0,0,0-9.4,0-9.8c0,0,1.1-1,1.2-1.1C223.6,4.4,219.3,4.4,219,4.4z M283.5,4.4l1.3,1.1v6
				c0,0-4.5-6.7-4.6-6.8c-0.1-0.2-0.3-0.3-0.7-0.3c-0.1,0-2.6,0-2.6,0l1.3,1.1v9.7l-1.3,1.2h3.8l-1.3-1.2V7.4l6.1,9.2
				c0.1,0.2,0.5,0.1,0.5-0.1V5.5l1.3-1.1H283.5z M257.1,4.7c-0.6-0.2-1.2-0.2-1.9-0.2c-0.4,0-4.6,0-4.6,0l1.2,1.1v9.8l-1.3,1.1
				c0,0,4.2,0,4.6,0c0.5,0,1.4-0.1,2-0.3c2.6-0.9,3.9-3.4,3.9-5.6C261.2,8.2,259.8,5.5,257.1,4.7z M255.5,15.4c-0.4,0-1.1,0-1.6,0
				c0-0.3,0-9.9,0-9.9c0.4,0,1.3,0,1.5,0c1.8,0,3.4,1.4,3.4,5C258.9,14.1,257.3,15.4,255.5,15.4z M231.8,4.4c0,0-1.9,0-1.9,0
				l-3.4,10.9l-1.3,1.2h3.9l-1.2-1.1l0.9-2.9l1.8,0.4l1.7-0.4l0.9,2.9l-1.1,1.1h4.6l-1.3-1.2L231.8,4.4z M229,11.5l1.4-4.7l1.5,4.7
				L229,11.5z M245.6,5.5v6c0,0-4.5-6.7-4.6-6.8c-0.1-0.2-0.3-0.3-0.7-0.3c-0.1,0-2.6,0-2.6,0l1.3,1.1v9.7l-1.3,1.2h3.8l-1.3-1.2
				V7.4l6.1,9.2c0.1,0.2,0.5,0.1,0.5-0.1V5.5l1.3-1.1h-3.8L245.6,5.5z"/>
		</g>
	</g>
	<g>
		<path class="st1" d="M209.9,34.3c0.2,0.7,1,3.1,1,3.1s2.5,0,3.2,0c-0.6,0.4-2.6,1.9-2.6,1.9s0.8,2.4,1,3.1
			c-0.6-0.4-2.6-1.9-2.6-1.9s-2,1.5-2.6,1.9c0.2-0.7,1-3.1,1-3.1s-2-1.5-2.6-1.9c0.7,0,3.2,0,3.2,0l0.6-2
			C209.6,35.4,209.8,34.7,209.9,34.3z"/>
	</g>
	<g>
		<path class="st1" d="M175.2-6.1h2.8v0.5h-2.2v0.7h1.9v0.5h-1.9v1.3h-0.6V-6.1z"/>
		<path class="st1" d="M181.1-6.2c1.3,0,1.8,0.8,1.8,1.6c0,0.6-0.4,1.6-1.8,1.6c-1.4,0-1.8-0.9-1.8-1.6
			C179.3-5.4,179.8-6.2,181.1-6.2z M182.3-4.6c0-0.7-0.5-1.1-1.2-1.1c-0.7,0-1.2,0.3-1.2,1.1c0,0.9,0.6,1.1,1.2,1.1
			C181.6-3.5,182.3-3.8,182.3-4.6z"/>
		<path class="st1" d="M184.4-6.1h0.6l2,2.2v-2.2h0.6v3h-0.5L185-5.3v2.2h-0.6V-6.1z"/>
		<path class="st1" d="M189.4-6.1h1.4c0.9,0,1.7,0.4,1.7,1.5c0,1-0.7,1.5-1.7,1.5h-1.5V-6.1z M190.6-3.6c1,0,1.4-0.3,1.4-1
			c0-0.7-0.4-1-1.4-1H190v2H190.6z"/>
		<path class="st1" d="M194.1-6.1h2.7v0.5h-2.1v0.7h1.8v0.5h-1.8v0.8h2.2v0.5h-2.7V-6.1z M195.4-6.9h0.6l-0.7,0.6H195L195.4-6.9z"/>
	</g>
	<g>
		<path class="st1" d="M223.2-6.1h2.6v0.5h-2v0.7h1.7v0.5h-1.7v0.8h2.1v0.5h-2.6V-6.1z"/>
		<path class="st1" d="M227.4-6.1h0.6l1.9,2.2v-2.2h0.5v3h-0.5l-2-2.2v2.2h-0.5V-6.1z"/>
		<path class="st1" d="M233.9-5.7c0.3,0,0.6-0.1,0.8-0.4h0.3v3.1h-0.5v-2.3h-0.6V-5.7z"/>
		<path class="st1" d="M238.6-5.6h-1.8v-0.5h2.5v0.3l-1.5,2.7h-0.6L238.6-5.6z"/>
		<path class="st1" d="M241.9-6.1h0.5v1.9h0.4v0.5h-0.4v0.6h-0.5v-0.6h-1.8v-0.5L241.9-6.1z M241.9-5.5l-1.2,1.3h1.2V-5.5z"/>
		<path class="st1" d="M245-4.9h0.4c0.4,0,0.7-0.1,0.7-0.4c0-0.3-0.3-0.4-0.7-0.4c-0.6,0-0.7,0.3-0.7,0.4h-0.5
			c0-0.2,0.1-0.9,1.2-0.9c0.8,0,1.2,0.3,1.2,0.9c0,0.4-0.3,0.6-0.4,0.6c0.1,0.1,0.5,0.2,0.5,0.7c0,0.5-0.4,0.9-1.3,0.9
			c-1.1,0-1.3-0.6-1.3-1h0.5c0,0.2,0.3,0.5,0.7,0.5c0.4,0,0.8-0.1,0.8-0.5c0-0.2-0.1-0.4-0.7-0.4H245V-4.9z"/>
	</g>
</g>
</svg>
