<?xml version="1.0" encoding="utf-8"?>
<!-- Generator: Adobe Illustrator 19.0.1, SVG Export Plug-In . SVG Version: 6.00 Build 0)  -->
<svg version="1.1" id="Layer_1" xmlns="http://www.w3.org/2000/svg" xmlns:xlink="http://www.w3.org/1999/xlink" x="0px" y="0px"
	 viewBox="100 -50 220 120" style="enable-background:new 100 -50 220 120;" xml:space="preserve">
<style type="text/css">
	.st0{fill:#EEEEEE;}
	.st1{fill:#808080;}
</style>
<rect x="100" y="-50" class="st0" width="220" height="120"/>
<g>
	<path class="st1" d="M185.1,21.6V3.5c0-2.5,0.3-3.5,1.6-3.8h0v-0.1h-6.6v0.1c1.3,0.3,1.6,1.2,1.6,3.8v18.1c0,2.5-0.3,3.5-1.6,3.8h0
		v0.1h6.6v-0.1h0C185.5,25.1,185.1,24.1,185.1,21.6L185.1,21.6z"/>
	<path class="st1" d="M245.3,29.7c2.9-0.3,3.1-1.9,3.1-6.5l0-31.9c-0.7,0.1-3.2-0.3-5,0.7c-1.9,1-2.7,3.2-3.6,4.7l-0.1,0l1.6-6.6
		h17.7l0.4,1.5l-0.1,0l0.1,0l1.3,5.1l-0.1,0c-0.6-1.2-1.5-3.2-2.8-4.3C256-9,253.1-8.5,252-8.6l0,31.9c0,4.5,0.2,6.1,3.1,6.5v0.1
		L245.3,29.7L245.3,29.7"/>
	<path class="st1" d="M217.9,12.1v0.1h0c2.6,0.4,2.9,1.8,2.9,5.5v3.4c0,0.6-0.2,3.2-2,3.9c-0.7,0.3-1.2,0.3-1.8,0.3
		c-0.4,0-1.5-0.4-2-0.8c-1-0.8-1.4-1.8-2-4.6c-0.4-1.8-0.7-4.7-0.7-7.8c0-3.1,0.4-6.1,0.9-7.8c0.9-2.9,2.5-4.5,4.5-4.5
		c1.7,0,4.5,0.7,6.4,5.1l0,0l0.1,0l-1.4-4.6l-0.2-0.8l-0.1,0c0,0.2,0,0.5-0.3,0.5c-0.3,0-0.7-0.3-0.8-0.4c-1-0.6-2.3-1-3.6-1
		c-2.2,0-9.2,0.7-9.2,13.4c0,12.9,6.5,14.3,8.5,14.3c0.8,0,1.8-0.3,2.6-0.6c0.5-0.2,1.2-0.6,2.7-0.6c0.5,0,1.1,0.2,1.9,0.2V12.1
		H217.9L217.9,12.1z"/>
	<path class="st1" d="M243.2,19.5c-1.4,3.5-3.5,4.8-8.3,4.8c-1.2,0-1.3,0-1.3,0V12.9c0,0,1.2,0,1.8,0c1.8,0,3.5-0.4,4.5,1.8l0,0
		l0.1,0l-1.6-6.4l-0.1,0l0,0c0.3,3-1.1,3.3-2.9,3.3c-0.6,0-1.8,0-1.8,0V0.8l2.3,0c3.7-0.1,5,0.3,6.4,3.6l0,0l0.1,0L241-0.4h-12.1
		v0.1h0c1.3,0.3,1.4,1.2,1.4,3.8v18.1c0,2.5-0.1,3.5-1.4,3.8v0.1l12.6,0L243.2,19.5L243.2,19.5L243.2,19.5z"/>
	<polyline class="st1" points="259.5,-8.3 259.5,-8.3 259.5,-8.3 259.5,-8.3 	"/>
	<polyline class="st1" points="259.5,-8.3 259.4,-8.3 259.5,-8.3 	"/>
	<path class="st1" d="M168.3-9.8h-9v0.1c2.8,0.3,3.1,1.7,3.1,6.4v26.5c0,4.7-0.3,6.2-3.1,6.5v0.1h9.8v-0.1c-2.8-0.3-3.1-1.7-3.1-6.5
		V10.9c0.6,0,1.1,0,1.7,0c5.5,0,10.2-2.6,10.2-10.3C177.8-7,174.6-9.8,168.3-9.8L168.3-9.8z M167.9-8.6c4.8,0,6.2,2.8,6.2,9.1
		c0,7.1-3.5,9.1-6.8,9.1c-0.5,0-1.3,0-1.3,0V-8.6H167.9L167.9-8.6z"/>
	<path class="st1" d="M208.1,25.5v-0.1h0c-1.5-0.4-2.2-1.1-2.9-3.3l-6.8-25.1l-7.2,24.9c-0.9,2.9-1.5,3.5-2.3,3.5c0,0,0,0.1,0,0.1
		l4.3,0v-0.1h0c-1.8-0.4-1.3-1.8-0.6-4.4l2.2-8h4.3l2.4,8.8c0.8,2.4-0.8,3.4-2.1,3.7h0v0.1H208.1L208.1,25.5z M195.2,11.7l1.8-6.4
		l1.8,6.4H195.2L195.2,11.7z"/>
</g>
</svg>
