<?xml version="1.0" encoding="utf-8"?>
<!-- Generator: Adobe Illustrator 19.0.1, SVG Export Plug-In . SVG Version: 6.00 Build 0)  -->
<svg version="1.1" id="Layer_1" xmlns="http://www.w3.org/2000/svg" xmlns:xlink="http://www.w3.org/1999/xlink" x="0px" y="0px"
	 viewBox="100 -50 220 120" style="enable-background:new 100 -50 220 120;" xml:space="preserve">
<style type="text/css">
	.st0{fill:#EEEEEE;}
	.st1{fill:#808080;}
</style>
<rect x="100" y="-49.9" class="st0" width="220" height="120"/>
<g>
	<g>
		<path class="st1" d="M142,2.8l-2.3-5.7l-2.2,5.7H142z M140.1-5.4c0-0.1,0.1-0.1,0.1-0.1h0.2c0.1,0.1,0.1,0.1,0.2,0.2L146,8.7
			c0.3,0.8,0.4,0.9,0.7,1.2c0.3,0.1,0.4,0.1,0.6,0.1c0.1,0,0.3,0,0.5,0v0.3c-0.1,0-0.2,0-0.3,0c-0.1,0-1.8-0.1-2.2-0.1
			c-0.3,0-1.6,0.1-1.9,0.1c-0.4,0-0.4,0-0.6,0V10c0.5,0.1,0.5,0.1,1.1,0c0.4-0.2,0.5-0.3,0.5-0.7c0-0.1,0-0.4-0.1-0.8l-2-5.2h-4.9
			l-1.6,4.1c-0.1,0.3-0.4,1.1-0.4,1.6c0,0.5,0.2,0.8,0.4,0.9c0.2,0.1,0.4,0.1,0.6,0.1h0.5v0.3c-0.2,0-0.2,0-0.6,0
			c-0.2,0-1.3-0.1-1.6-0.1c-0.5,0-1.3,0.1-1.6,0.1c-0.3,0-0.4,0-0.5,0V10c0.3,0.1,0.3,0.1,0.9,0c0.3-0.2,0.9-0.7,1.3-1.7L140.1-5.4"
			/>
		<path class="st1" d="M165.2,7.5c-0.9,1.4-2,2-2.8,2.3c-1.2,0.5-2.4,0.6-3.8,0.6c-5.6,0-8.3-4.2-8.3-7.5c0-7.1,5.7-8.6,8.2-8.6
			c1.1,0,1.7,0.2,2.9,0.6c0.7,0.2,0.9,0.3,1.5,0.3c0.5,0,0.7-0.1,1.1-0.2c0,1.1,0.5,1.7,0.5,3c0,0.5-0.1,0.9-0.2,1.3
			c-0.1,0-0.2,0-0.3-0.1c0.1-0.2,0.1-0.4,0.1-0.7c0-1.7-3.2-3.7-5.7-3.7c-2.6,0-6.2,2-6.2,7.1c0,3.7,1.8,7.8,6.9,7.8
			c0.5,0,1.4,0,2.9-0.5c1.3-0.4,2.4-1.2,2.9-2L165.2,7.5"/>
		<path class="st1" d="M188.1,12.2c-1.1,2.7-3.7,3.4-5.1,3.4c-1.7,0-2.8-0.6-4.7-2c-2.3-1.6-2.6-1.8-3.2-1.8c-1.1,0-1.4,0.5-1.6,0.8
			l-0.3-0.2c0.6-0.9,1.3-1.4,2.4-1.4c1,0,1.4,0.2,3.9,1.6c1.4,0.8,2.6,1.5,4.2,1.5c1.4,0,3.4-0.5,4.2-2H188.1z M177.7,10
			c3.8,0,6.3-2.7,6.3-6.5c0-2.7-1.7-8.6-6.8-8.6c-3.7,0-6.4,3.1-6.4,7.3C170.8,5.4,173,10,177.7,10 M177.5-5.6c4.8,0,8.2,3.1,8.2,8
			c0,3.4-2.8,8.1-8.1,8.1c-5.8,0-8.4-3.7-8.4-7.3C169.2-1.7,172.8-5.6,177.5-5.6"/>
		<path class="st1" d="M191.2-3.3c0-1.6-0.9-1.8-1.1-1.8c-0.2,0-0.5,0.1-0.9,0.1v-0.4c0.3-0.1,0.5-0.1,0.9-0.1
			c0.3,0,1.8,0.2,2.1,0.2c0.3,0,0.6,0,0.9,0c0.2,0,0.9-0.1,1.1-0.1c0.3,0,0.6,0,0.8,0.1V-5C194.7-5,194.6-5,194.2-5
			c-1.2,0-1.3,1.2-1.3,2.3l0,7.4c0,1.1,0,5.3,5,5.3c1.7,0,3.7-1.1,4.4-2.8c0.5-1.1,0.5-2.5,0.5-3.2v-6.7c0-0.8-0.2-1.8-1.1-2.2
			c0,0-0.3-0.1-0.5-0.1c-0.2,0-0.5,0.1-0.7,0.1v-0.4c0.2-0.1,0.4-0.1,0.7-0.1c0.5,0,1.2,0.2,1.7,0.2c0.5,0,1.3-0.2,1.6-0.2
			c0.3,0,0.5,0,0.6,0.1v0.4C205-5,204.7-5,204.6-5c-0.1,0-0.4,0-0.4,0.1c-0.8,0.6-0.9,1-0.9,2.9v5.2c0,2.5-0.1,4.2-1.6,5.7
			c-1.4,1.4-3.3,1.6-4.1,1.6c-3.9,0-6.3-1.9-6.3-5.5V-3.3"/>
		<path class="st1" d="M216.2,2.8L214-2.9l-2.2,5.7H216.2z M214.3-5.4c0-0.1,0.1-0.1,0.1-0.1h0.2c0.1,0.1,0.1,0.1,0.2,0.2l5.5,14.1
			c0.3,0.8,0.4,0.9,0.7,1.2c0.3,0.1,0.4,0.1,0.6,0.1c0.2,0,0.3,0,0.5,0v0.3c-0.1,0-0.2,0-0.3,0c-0.1,0-1.8-0.1-2.2-0.1
			c-0.3,0-1.6,0.1-1.9,0.1c-0.4,0-0.4,0-0.6,0V10c0.5,0.1,0.5,0.1,1.1,0c0.4-0.2,0.5-0.3,0.5-0.7c0-0.1,0-0.4-0.1-0.8l-2-5.2h-4.9
			l-1.6,4.1c-0.1,0.3-0.4,1.1-0.4,1.6c0,0.5,0.2,0.8,0.4,0.9c0.2,0.1,0.4,0.1,0.6,0.1h0.5v0.3c-0.2,0-0.2,0-0.6,0
			c-0.2,0-1.3-0.1-1.6-0.1c-0.5,0-1.3,0.1-1.6,0.1c-0.3,0-0.4,0-0.5,0V10c0.3,0.1,0.3,0.1,0.9,0c0.3-0.2,0.9-0.7,1.3-1.7L214.3-5.4"
			/>
		<path class="st1" d="M230,8.7c0,0.7,0.2,1.2,2.1,1.2c1.7,0,3-0.3,4.3-1.1c0.8-0.5,1.4-1,1.5-2h0.2c0,0.5,0,0.9-0.5,1.6
			c-0.2,0.3-1.1,1.5-1.2,2c-0.9,0-1.8-0.1-2.6-0.1h-6.3c-0.2,0-0.4,0.1-0.5,0.1c-0.2,0-0.4,0-0.5-0.1V10c0.2,0,0.4,0,0.5,0
			c1,0,1.3-0.5,1.3-1.4V-2.5c0-1.2,0-2.5-1.5-2.5c-0.2,0-0.3,0-0.5,0v-0.3c0.2,0,0.5-0.1,0.8-0.1c0.9,0,1.7,0.2,2,0.2
			c0.3,0,1.1-0.2,1.7-0.2c0.4,0,0.7,0,1.1,0.1V-5c-0.2,0-0.3,0-0.6,0c-0.5,0-0.7,0.1-0.9,0.2c-0.2,0.2-0.4,0.5-0.4,1V8.7"/>
		<path class="st1" d="M247.4-5c-0.2,0-0.4,0-0.6,0c-1.4,0-1.4,1.3-1.4,2V8.1c0,0.6,0,1.9,1.4,1.9c0.1,0,0.3,0,0.4,0v0.4h-1
			c-0.3,0-1.4-0.1-1.7-0.1c-0.2,0-1.2,0.1-1.4,0.1h-1.3V10c0.2,0,0.4,0,0.6,0c1.2,0,1.2-0.9,1.2-1.9V-3c0-1.1,0-2.1-1.3-2.1
			c-0.2,0-0.4,0-0.5,0v-0.4l0.5,0c0.7,0,1.7,0.1,2.3,0.1c0.3,0,1.8-0.1,2.1-0.1c0.3,0,0.4,0,0.6,0V-5"/>
		<path class="st1" d="M254.3-3.9l-0.6-0.6C253.2-5,253.1-5,252.5-5h-0.4v-0.3c0.2,0,0.5,0,1.1,0c0.8,0,1.5,0.1,1.7,0.2
			c0.2,0.1,0.5,0.3,0.6,0.5l10.9,12.7V-2.5c0-1.3-0.2-1.8-0.5-2.1c-0.2-0.3-0.7-0.4-1.1-0.4c-0.2,0-0.4,0-0.6,0v-0.4
			c0.1,0,0.7,0,1.1,0c0.3,0,0.8,0.1,1.4,0.1c0.6,0,1.1-0.1,1.5-0.1c0.2,0,0.4,0,0.6,0V-5c-0.2,0-0.3,0-0.4,0c-1.1,0-1.5,0.5-1.5,2.6
			v12.7c0,0.1,0,0.2-0.2,0.3c0,0-0.1,0-0.2,0c-0.1,0-0.2,0-0.3-0.1L254.9-3.2V7.4c0,1.3,0.2,1.8,0.5,2.1c0.2,0.3,0.7,0.5,1,0.5
			c0.2,0,0.4,0,0.6,0v0.4c-0.2,0-0.7,0-1.1,0c-0.3,0-0.8-0.1-1.4-0.1c-0.6,0-1.1,0.1-1.5,0.1c-0.2,0-0.4,0-0.6,0V10
			c0.1,0,0.3,0,0.5,0c1.1,0,1.5-0.5,1.5-2.6V-3.9"/>
		<path class="st1" d="M281.3,2.8l-2.3-5.7l-2.2,5.7H281.3z M279.4-5.4c0-0.1,0.1-0.1,0.1-0.1h0.2c0.1,0.1,0.1,0.1,0.2,0.2l5.5,14.1
			c0.3,0.8,0.4,0.9,0.7,1.2c0.3,0.1,0.4,0.1,0.6,0.1c0.2,0,0.3,0,0.5,0v0.3c-0.1,0-0.2,0-0.3,0c-0.1,0-1.8-0.1-2.2-0.1
			c-0.3,0-1.6,0.1-1.9,0.1c-0.4,0-0.4,0-0.6,0V10c0.4,0.1,0.5,0.1,1.1,0c0.4-0.2,0.5-0.3,0.5-0.7c0-0.1,0-0.4-0.1-0.8l-2-5.2h-4.9
			L275,7.4c-0.1,0.3-0.4,1.1-0.4,1.6c0,0.5,0.2,0.8,0.4,0.9c0.2,0.1,0.5,0.1,0.6,0.1h0.5v0.3c-0.2,0-0.2,0-0.6,0
			c-0.2,0-1.3-0.1-1.6-0.1c-0.5,0-1.3,0.1-1.6,0.1c-0.3,0-0.4,0-0.5,0V10c0.3,0.1,0.3,0.1,0.9,0c0.3-0.2,0.9-0.7,1.3-1.7L279.4-5.4"
			/>
		<path class="st1" d="M152.8,29.1c-0.5,0-0.8-0.5-1.2-1.1c0,0-0.4-0.6-0.6-1c-0.1-0.2-0.2-0.3-0.4-0.5c0.5-0.1,1.1-0.3,1.4-0.9
			c0.1-0.2,0.1-0.4,0.1-0.6c0-0.3-0.1-0.5-0.2-0.7c-0.4-0.6-1-0.7-1.6-0.7c-0.2,0-0.4,0-0.5,0c0,0-0.2,0-0.3,0c-0.1,0-0.1,0-0.2,0
			c0,0-0.1,0-0.1,0c-0.2,0-0.3-0.1-0.7-0.1c-0.2,0-0.2,0-0.3,0h0v0.2v0h0c0.1,0,0.2,0,0.3,0c0,0,0.1,0,0.1,0
			c0.2,0.1,0.2,0.2,0.2,0.6c0,0.1,0,0.2,0,0.3v3.5c0,0.1,0,0.2,0,0.3c0,0.3,0,0.5-0.2,0.6c0,0-0.1,0-0.1,0c-0.1,0-0.2,0-0.3,0
			l-0.1,0v0.2v0l0,0c0.2,0,0.1,0,0.4,0c0,0,0,0,0.1,0c0.3,0,0.4-0.1,0.6-0.1c0.2,0,0.3,0,0.6,0.1c0.1,0,0.2,0,0.2,0
			c0.1,0,0.1,0,0.2,0l0,0v-0.2V29l-0.1,0c-0.1,0-0.2,0-0.2,0c-0.1,0-0.2,0-0.3-0.1l0,0l0,0c-0.1-0.1-0.1-0.3-0.1-0.6
			c0-0.1,0-0.2,0-0.3v-1.8c0.1,0.1,0.2,0.1,0.3,0.1c0.2,0.2,0.4,0.5,0.7,0.9c0.1,0.2,0.2,0.4,0.4,0.6c0.4,0.6,0.7,1.3,1.4,1.4
			c0.1,0,0.1,0,0.2,0c0.1,0,0.2,0,0.2,0c0.1,0,0.4-0.1,0.4-0.1c0,0,0-0.1,0-0.1V29l-0.1,0C153,29.1,152.9,29.1,152.8,29.1 M151.5,25
			 M151.5,25.1c0,0.3-0.1,0.7-0.5,0.9c-0.2,0.1-0.4,0.2-0.6,0.2c-0.2,0-0.5-0.1-0.8-0.2v-1.9c0-0.1,0-0.1,0.1-0.2
			c0.1,0,0.2-0.1,0.4-0.1c0.3,0,0.7,0.1,0.8,0.2C151.3,24.2,151.4,24.6,151.5,25.1C151.5,25,151.5,25,151.5,25.1"/>
		<path class="st1" d="M157.9,28L157.9,28c0,0.3,0,0.3-0.3,0.5c-0.2,0.2-0.8,0.4-1.2,0.4c-0.2,0-0.3,0-0.5,0c-0.2,0-0.4,0-0.5-0.1v0
			c-0.2-0.1-0.2-0.2-0.2-0.7v-1.8h0.9c0.3,0,0.5,0.1,0.6,0.1c0.1,0.1,0.2,0.1,0.2,0.3c0,0,0,0.1,0,0.1c0,0.1,0,0.1,0,0.2l0,0.1h0.2
			h0l0,0c0-0.1,0-0.2,0-0.3c0-0.4-0.1-0.5-0.2-0.6c0-0.1,0-0.2,0-0.4c0-0.1,0-0.2-0.1-0.3l0,0h-0.2h-0.1l0,0.1
			c0.1,0.1,0.1,0.3,0.1,0.4c0,0,0,0.1,0,0.1c0,0.2-0.3,0.2-0.5,0.2h0h-0.9v-1.6c0-0.5,0-0.5,0.2-0.6c0.1-0.1,0.2-0.1,0.5-0.1
			c0.1,0,0.1,0,0.2,0c0.3,0,0.8,0.2,1.1,0.4c0.2,0.2,0.2,0.2,0.2,0.5l0,0h0.2h0.1l0-0.1c0-0.3-0.1-0.5-0.2-0.8
			c-0.1-0.2-0.2-0.4-0.2-0.4l0,0l0,0c0,0-0.9,0-1.6,0.1c-0.3,0-0.4,0-0.5,0c-0.1,0-0.1,0-0.2,0c-0.2,0-0.3-0.1-0.7-0.1
			c-0.2,0-0.2,0-0.3,0h0v0.2v0h0c0.1,0,0.2,0,0.3,0c0,0,0.1,0,0.1,0c0.2,0.1,0.2,0.2,0.2,0.6c0,0.1,0,0.2,0,0.3v1.6v1.9
			c0,0.1,0,0.2,0,0.3c0,0.3,0,0.5-0.2,0.6c0,0-0.1,0-0.1,0c-0.1,0-0.2,0-0.3,0h0v0.2v0h0c0.2,0,0.1,0,0.3,0c0.3,0,0.6-0.1,0.8-0.1
			c0.1,0,0.2,0,0.3,0c0.1,0,0.3,0,0.6,0c0.7,0,1.5,0.1,1.5,0.1h0l0,0c0-0.1,0.1-0.2,0.3-0.4c0.2-0.2,0.3-0.5,0.3-0.8l0-0.1H157.9
			L157.9,28z M155.5,28.9L155.5,28.9L155.5,28.9L155.5,28.9z"/>
		<path class="st1" d="M161,25.9l-0.3-0.3c-0.5-0.4-0.8-0.8-0.8-1.1c0-0.1,0-0.1,0-0.2c0.1-0.3,0.3-0.4,0.6-0.5c0.1,0,0.1,0,0.2,0
			c0.5,0,0.9,0.5,0.9,0.7c0,0,0,0,0,0.1c0,0.1,0,0.1,0,0.3l0,0l0.2,0l0,0l0,0c0-0.2,0.1-0.4,0.1-0.5s0-0.3-0.1-0.5
			c-0.5-0.2-0.8-0.4-1.2-0.4c-0.2,0-0.3,0-0.5,0.1c-0.4,0.2-0.6,0.6-0.7,0.9c0,0.1,0,0.1,0,0.2c0,0.6,0.4,0.9,1,1.4l0.3,0.2
			c0.7,0.6,1.1,1.1,1.1,1.6c0,0.1,0,0.1,0,0.2c-0.1,0.3-0.3,0.7-0.7,0.8c-0.1,0.1-0.3,0.1-0.4,0.1c-0.3,0-0.6-0.1-0.9-0.3
			c-0.4-0.3-0.5-0.6-0.5-1c0-0.1,0-0.1,0-0.2l0-0.1h-0.2h0l0,0c0,0.1,0,0.2,0,0.4c0,0.3,0.1,0.5,0.1,0.8c0,0,0,0.1,0,0.1
			c0,0.1,0,0.1,0,0.1l0,0l0,0c0.5,0,0.8,0.3,1.5,0.3c0.2,0,0.4,0,0.6-0.1c0.6-0.1,1-0.6,1.1-1.1c0-0.2,0-0.3,0-0.4
			C162.2,27,161.8,26.6,161,25.9"/>
		<path class="st1" d="M168.5,24.4L168.5,24.4c-0.6-0.7-1.6-0.9-2.3-0.9c-0.1,0-0.3,0-0.4,0c-0.3,0.1-0.7,0.2-0.9,0.3
			c-1,0.5-1.5,1.6-1.6,2.5c0,0.1,0,0.2,0,0.3c0,0.7,0.2,1.5,1,2.1c0.5,0.4,1.3,0.6,2.1,0.6c0.3,0,0.7,0,0.9-0.1
			c1.1-0.4,1.7-1.1,1.9-2.1c0.1-0.2,0.1-0.5,0.1-0.8C169.2,25.6,169,24.9,168.5,24.4L168.5,24.4z M163.9,26.3c0-0.7,0.3-1.6,1.1-2.2
			c0.1-0.1,0.3-0.2,0.4-0.2c0.2-0.1,0.4-0.1,0.6-0.1c0.4,0,1,0.1,1.3,0.4c0.8,0.6,1.1,1.8,1.1,2.6c0,0.1,0,0.2,0,0.3
			c-0.1,0.6-0.4,1.3-1.1,1.6c-0.3,0.2-0.7,0.2-1.1,0.2c-0.4,0-0.8-0.1-1.1-0.3C164.3,28.2,163.9,27.1,163.9,26.3L163.9,26.3
			L163.9,26.3C163.9,26.3,163.9,26.3,163.9,26.3"/>
		<path class="st1" d="M174.8,29.1c-0.5,0-0.8-0.5-1.2-1.1c0,0-0.4-0.6-0.6-1c-0.1-0.2-0.2-0.3-0.4-0.5c0.5-0.1,1.1-0.3,1.4-0.9
			c0.1-0.2,0.1-0.4,0.1-0.5c0-0.3-0.1-0.5-0.2-0.7c-0.4-0.6-1-0.7-1.6-0.7c-0.2,0-0.4,0-0.5,0c0,0-0.2,0-0.3,0c-0.1,0-0.1,0-0.2,0
			c0,0-0.1,0-0.1,0c-0.2,0-0.3-0.1-0.7-0.1c-0.2,0-0.2,0-0.3,0h0v0.2v0h0c0.1,0,0.2,0,0.3,0c0,0,0.1,0,0.1,0
			c0.2,0.1,0.2,0.2,0.2,0.6c0,0.1,0,0.2,0,0.3v3.5c0,0.1,0,0.2,0,0.3c0,0.3,0,0.5-0.2,0.6c0,0-0.1,0-0.1,0c-0.1,0-0.2,0-0.3,0
			l-0.1,0v0.2v0l0,0c0.2,0,0.1,0,0.4,0c0,0,0,0,0.1,0c0.3,0,0.4-0.1,0.6-0.1c0.2,0,0.3,0,0.6,0.1c0.1,0,0.2,0,0.2,0
			c0.1,0,0.1,0,0.2,0l0,0v-0.2V29l-0.1,0c-0.1,0-0.2,0-0.2,0c-0.1,0-0.2,0-0.3-0.1l0,0l0,0c-0.1-0.1-0.1-0.3-0.1-0.6
			c0-0.1,0-0.2,0-0.3v-1.8c0.1,0.1,0.2,0.1,0.3,0.1c0.2,0.2,0.4,0.5,0.7,0.9c0.1,0.2,0.2,0.4,0.4,0.7c0.4,0.6,0.7,1.3,1.4,1.4
			c0.1,0,0.1,0,0.2,0c0.1,0,0.2,0,0.2,0c0.1,0,0.4-0.1,0.4-0.1c0,0,0-0.1,0-0.1V29l-0.1,0C175,29.1,174.9,29.1,174.8,29.1
			 M173.5,25.1c0,0.3-0.1,0.7-0.5,0.9c-0.2,0.1-0.4,0.2-0.6,0.2c-0.2,0-0.5-0.1-0.8-0.2v-1.9c0-0.1,0-0.1,0.1-0.2
			c0.1,0,0.2-0.1,0.4-0.1c0.3,0,0.7,0.1,0.8,0.2C173.3,24.2,173.5,24.6,173.5,25.1L173.5,25.1z M173.5,25L173.5,25L173.5,25z"/>
		<path class="st1" d="M178.8,23.6c-0.2,0-0.4,0-0.6,0H176c-0.4,0-0.5,0-0.6-0.1l0,0l0,0c-0.1,0.3-0.3,0.4-0.4,1.1l0,0.1h0.2h0l0,0
			c0,0,0.1-0.2,0.1-0.3c0.1-0.2,0.2-0.2,0.4-0.3c0.2-0.1,0.3-0.2,0.5-0.2h0.5c0.2,0,0.2,0.1,0.2,0.4v3.9c0,0.1,0,0.2,0,0.3
			c0,0.3,0,0.5-0.2,0.6c0,0-0.1,0-0.1,0c-0.1,0-0.2,0-0.3,0l-0.1,0v0.2v0l0,0c0.2,0,0.1,0,0.3,0c0,0,0,0,0.1,0
			c0.3,0,0.4-0.1,0.6-0.1c0.2,0,0.3,0,0.6,0.1c0.1,0,0.2,0,0.3,0c0.1,0,0.1,0,0.2,0l0,0v-0.2V29l-0.1,0c-0.1,0-0.2,0-0.2,0
			c-0.1,0-0.2,0-0.3-0.1c-0.1-0.1-0.1-0.3-0.1-0.6c0-0.1,0-0.2,0-0.3v-3.8c0-0.3,0-0.4,0.2-0.4h1c0.1,0,0.2,0.1,0.2,0.3
			c0,0.1,0,0.3-0.2,0.5l0,0l0.1,0.1l0,0l0,0c0,0,0.2-0.2,0.2-0.3c0.1-0.2,0.1-0.3,0.1-0.4c0-0.1,0-0.2-0.1-0.2
			C179.2,23.6,179,23.6,178.8,23.6"/>
		<path class="st1" d="M186.3,26.4L186.3,26.4c0.5-0.4,0.7-0.7,0.9-1.3c0.1-0.2,0.1-0.3,0.1-0.5c0-0.1,0-0.2-0.1-0.2
			c-0.1-0.1-0.2-0.1-0.3-0.1c0,0,0,0,0,0c-0.3,0-0.5,0.3-0.7,0.6l0,0.1l0.2,0l0,0l0,0c0.1-0.1,0-0.1,0.2-0.2c0,0,0.1,0,0.1,0
			c0,0,0.1,0,0.1,0c0.1,0,0.1,0.1,0.1,0.2c0,0.3-0.5,1-1,1.3c-0.9,0.6-1.3,1-1.3,1.5c0,0,0,0.1,0,0.1c0,0.3,0.2,0.4,0.4,0.5
			c0.1,0,0.1,0,0.2,0c0.3,0,0.5-0.2,0.7-0.5l0,0l-0.1-0.1l0,0l0,0c-0.2,0.2-0.3,0.2-0.4,0.3c0,0-0.1,0-0.1,0c-0.1,0-0.2,0-0.2-0.1
			c-0.1-0.1-0.1-0.1-0.1-0.2c0-0.1,0-0.1,0-0.2c0.1-0.4,0.5-0.7,0.9-0.8c0.1,0,0.2,0,0.3,0c0.2,0,0.5,0.1,0.7,0.3
			c0.2,0.2,0.3,0.5,0.3,0.8c0,0.1,0,0.2,0,0.2c-0.1,0.4-0.3,0.7-0.8,0.8c-0.2,0.1-0.5,0.1-0.8,0.1c-0.5,0-1-0.1-1.3-0.4
			c-0.5-0.4-0.7-0.9-0.7-1.3c0,0,0-0.1,0-0.1c0.1-0.9,0.9-1.3,1.7-1.7l0,0v-0.1v-0.1l-0.1,0c-0.1,0-0.3,0-0.4,0
			c-0.3,0-0.5-0.1-0.7-0.3c-0.1-0.1-0.1-0.3-0.1-0.5c0-0.1,0-0.3,0.1-0.3c0.1-0.3,0.4-0.4,0.7-0.4c0,0,0.1,0,0.1,0
			c0.5,0,0.9,0.4,1,0.5c0,0,0,0.1,0,0.1c0,0,0,0.1-0.1,0.2l0,0l0.2,0l0,0l0,0c0.1-0.2,0.1-0.3,0.1-0.4c0-0.2-0.1-0.3-0.2-0.6l0,0
			l0,0c-0.1,0-0.1,0-0.2,0c-0.1,0-0.1,0-0.3,0c-0.2-0.1-0.4-0.1-0.7-0.1c-0.3,0-0.6,0.1-0.9,0.3c-0.3,0.2-0.5,0.6-0.5,0.9
			c0,0.1,0,0.1,0,0.2c0.1,0.5,0.4,0.7,0.8,0.8c-0.6,0.3-1.1,0.6-1.3,1.3c0,0.1-0.1,0.3-0.1,0.4c0,0.4,0.1,0.8,0.4,1.1
			c0.5,0.6,1.5,0.8,2.2,0.8c0.2,0,0.3,0,0.5,0c0.6-0.1,1.4-0.4,1.7-1.2c0.1-0.1,0.1-0.3,0.1-0.5c0-0.2-0.1-0.5-0.2-0.7
			C187.2,26.5,186.7,26.4,186.3,26.4"/>
		<path class="st1" d="M193.4,25.9l-0.3-0.3c-0.5-0.4-0.9-0.8-0.8-1.1c0-0.1,0-0.1,0-0.2c0.1-0.3,0.3-0.4,0.6-0.5c0.1,0,0.1,0,0.2,0
			c0.5,0,0.9,0.5,0.9,0.7c0,0,0,0,0,0.1c0,0.1,0,0.1,0,0.3l0,0l0.2,0l0,0l0,0c0-0.2,0.1-0.4,0.1-0.5c0-0.2,0-0.3-0.1-0.5
			c-0.5-0.2-0.8-0.4-1.2-0.4c-0.2,0-0.3,0-0.5,0.1c-0.4,0.2-0.6,0.6-0.7,0.9c0,0.1,0,0.1,0,0.2c0,0.6,0.4,0.9,1,1.4l0.3,0.2
			c0.7,0.6,1.1,1.1,1.1,1.6c0,0.1,0,0.1,0,0.2c-0.1,0.3-0.3,0.7-0.7,0.8c-0.1,0.1-0.3,0.1-0.4,0.1c-0.3,0-0.6-0.1-0.9-0.3
			c-0.4-0.3-0.5-0.6-0.5-1c0-0.1,0-0.1,0-0.2l0,0h-0.2h0l0,0c0,0.1,0,0.2,0,0.4c0,0.3,0.1,0.5,0.1,0.8c0,0,0,0.1,0,0.1
			c0,0.1,0,0.1,0,0.1l0,0l0,0c0.5,0,0.8,0.3,1.5,0.3c0.2,0,0.4,0,0.6-0.1c0.6-0.1,1-0.6,1.1-1.1c0-0.2,0.1-0.3,0.1-0.4
			C194.6,27,194.2,26.6,193.4,25.9"/>
		<path class="st1" d="M197.1,26.3c0.2,0.1,0.4,0.1,0.7,0.1c0,0,0,0,0.1,0c0.6,0,1.3-0.2,1.7-0.8c0.1-0.2,0.1-0.4,0.1-0.6
			c0-0.3-0.1-0.5-0.2-0.7c-0.4-0.5-1.2-0.6-1.8-0.6c-0.3,0-0.5,0-0.7,0l0,0l0,0c0,0,0,0-0.1,0c0,0-0.1,0-0.1,0
			c-0.2,0-0.3-0.1-0.7-0.1c-0.2,0-0.2,0-0.3,0h0v0.2v0h0c0.1,0,0.2,0,0.3,0c0,0,0.1,0,0.1,0c0.2,0.1,0.2,0.2,0.2,0.6
			c0,0.1,0,0.2,0,0.3v3.5c0,0.1,0,0.2,0,0.3c0,0.3,0,0.5-0.2,0.6c0,0-0.1,0-0.1,0c-0.1,0-0.2,0-0.3,0l-0.1,0v0.2v0l0,0
			c0.2,0,0.1,0,0.4,0c0,0,0,0,0.1,0c0.3,0,0.4-0.1,0.6-0.1c0.2,0,0.3,0,0.6,0.1c0.1,0,0.2,0,0.3,0c0.1,0,0.1,0,0.2,0l0,0v-0.2V29
			l-0.1,0c-0.1,0-0.2,0-0.2,0c-0.1,0-0.2,0-0.3-0.1l0,0l0,0c-0.1-0.1-0.1-0.3-0.1-0.6c0-0.1,0-0.2,0-0.3V26.3z M197.1,24.2
			c0-0.2,0-0.3,0.2-0.4c0.1,0,0.2,0,0.3,0c0.3,0,0.7,0.1,0.9,0.2c0.3,0.2,0.5,0.7,0.5,1c0,0.1,0,0.1,0,0.2c-0.1,0.4-0.3,0.7-0.8,0.8
			c-0.1,0-0.2,0.1-0.4,0.1c-0.2,0-0.4,0-0.7-0.2V24.2C197.1,24.3,197.1,24.2,197.1,24.2"/>
		<path class="st1" d="M204.5,29C204.5,29,204.5,29,204.5,29L204.5,29L204.5,29c-0.3,0-0.3-0.1-0.5-0.5l-1.9-4.8
			c0-0.1-0.1-0.2-0.2-0.2c-0.1,0-0.2,0.1-0.2,0.2l-1.6,4.3c-0.2,0.6-0.4,0.9-0.5,1c-0.1,0-0.1,0-0.2,0c0,0-0.1,0-0.2,0l-0.1,0v0.2v0
			l0,0c0.1,0,0.1,0,0.2,0c0,0,0.1,0,0.2,0c0.2,0,0.3,0,0.4,0c0.1,0,0.3,0.1,0.6,0.1h0.1c0.2,0,0.1,0,0.3,0l0,0V29V29l-0.1,0
			c-0.1,0-0.2,0-0.3,0c-0.1,0-0.1,0-0.2,0c-0.1-0.1-0.1-0.2-0.2-0.4c0-0.2,0.1-0.4,0.2-0.7l0.5-1.2h1.6l0.6,1.4
			c0.1,0.4,0.2,0.6,0.2,0.7c0,0,0,0.1,0,0.1c-0.1,0.1-0.1,0.1-0.3,0.1c-0.1,0-0.1,0-0.2,0l-0.1,0v0.2v0l0,0c0.1,0,0.2,0,0.3,0
			c0.1,0,0.1,0,0.2,0c0.2,0,0.2-0.1,0.4-0.1c0.2,0,0.2,0.1,0.5,0.1h0.1c0.2,0,0.2,0,0.3,0l0,0V29V29l-0.1,0
			C204.7,29,204.6,29,204.5,29 M202.5,26.4h-1.4l0.7-1.8L202.5,26.4z"/>
		<path class="st1" d="M213.5,24.4L213.5,24.4L213.5,24.4c-0.6-0.7-1.6-0.9-2.3-0.9c-0.1,0-0.3,0-0.4,0c-0.3,0.1-0.7,0.2-0.9,0.3
			c-1,0.5-1.5,1.6-1.6,2.5c0,0.1,0,0.2,0,0.3c0,0.7,0.2,1.5,1,2.1c0.5,0.4,1.3,0.6,2.1,0.6c0.3,0,0.7,0,0.9-0.1
			c1.1-0.4,1.7-1.1,1.9-2.1c0.1-0.3,0.1-0.5,0.1-0.8C214.2,25.6,214,24.9,213.5,24.4L213.5,24.4z M208.9,26.3c0-0.7,0.3-1.6,1.1-2.2
			c0.1-0.1,0.3-0.2,0.4-0.2c0.2-0.1,0.4-0.1,0.6-0.1c0.4,0,1,0.1,1.3,0.4c0.8,0.6,1.1,1.8,1.1,2.6c0,0.1,0,0.2,0,0.3
			c-0.1,0.6-0.4,1.3-1.1,1.6c-0.3,0.2-0.7,0.2-1.1,0.2c-0.4,0-0.8-0.1-1.1-0.3C209.3,28.2,208.9,27.1,208.9,26.3L208.9,26.3
			L208.9,26.3C208.9,26.3,208.9,26.3,208.9,26.3"/>
		<path class="st1" d="M220.8,23.6c-0.2,0-0.3,0-0.4,0c-0.1,0-0.2-0.1-0.5-0.1c-0.2,0-0.2,0-0.4,0h0v0.2v0h0c0.1,0,0.2,0,0.3,0
			c0.1,0,0.1,0,0.2,0c0.2,0.1,0.3,0.6,0.3,1V25v3.2l-3.4-3.8c-0.5-0.6-0.6-0.8-1.2-0.8h-0.5h0v0.1v0h0.2c0.2,0,0.2,0,0.3,0.1
			l0.3,0.4l0,3.5c0,0.5,0,1.1-0.2,1.2c-0.1,0.1-0.2,0.1-0.3,0.1c-0.1,0-0.1,0-0.2,0h0v0.2v0h0h0.4c0.2,0,0.3,0,0.4,0
			c0.1,0,0.2,0.1,0.5,0.1c0.2,0,0.2,0,0.4,0h0V29v0h0c-0.1,0-0.2,0-0.3,0c-0.1,0-0.1,0-0.2,0c-0.2-0.1-0.3-0.6-0.3-1v-0.1v-3.2
			l4.1,4.6l0.2,0h0v-4.2c0-0.5,0-1.1,0.2-1.2c0.1-0.1,0.2-0.1,0.3-0.1c0.1,0,0.1,0,0.2,0h0v-0.2v0h0H220.8z"/>
		<path class="st1" d="M228.5,23.6c-0.2,0-0.4,0-0.6,0h-2.2c-0.4,0-0.5,0-0.6-0.1l0,0l0,0c-0.1,0.3-0.3,0.4-0.4,1.1l0,0.1h0.2h0l0,0
			c0,0,0.1-0.2,0.1-0.3c0.1-0.2,0.2-0.2,0.4-0.3c0.2-0.1,0.3-0.2,0.5-0.2h0.5c0.2,0,0.2,0.1,0.2,0.4v3.8v0.3c0,0.3,0,0.5-0.2,0.6
			c0,0-0.1,0-0.1,0c-0.1,0-0.2,0-0.3,0l-0.1,0v0.2v0l0,0c0.2,0,0.1,0,0.3,0c0,0,0,0,0.1,0c0.3,0,0.4-0.1,0.6-0.1
			c0.2,0,0.3,0,0.6,0.1c0.1,0,0.2,0,0.3,0c0.1,0,0.1,0,0.2,0l0,0v-0.2V29l-0.1,0c-0.1,0-0.2,0-0.2,0c-0.1,0-0.2,0-0.3-0.1
			c-0.1-0.1-0.1-0.3-0.1-0.6c0-0.1,0-0.2,0-0.3v-3.8c0-0.3,0-0.4,0.2-0.4h1c0.1,0,0.2,0.1,0.2,0.3c0,0.1,0,0.3-0.2,0.5l0,0l0.1,0.1
			l0,0l0,0c0,0,0.2-0.2,0.2-0.3c0.1-0.2,0.1-0.3,0.1-0.4c0-0.1,0-0.2-0.1-0.2C228.9,23.6,228.7,23.6,228.5,23.6"/>
		<path class="st1" d="M235.2,23.6c-0.2,0-0.4,0.1-0.6,0.1c-0.2,0-0.3-0.1-0.7-0.1c-0.2,0-0.2,0-0.3,0h-0.1v0.2v0h0.1
			c0.1,0,0.2,0,0.3,0c0,0,0.1,0,0.1,0c0.2,0.1,0.2,0.2,0.2,0.6c0,0.1,0,0.2,0,0.3v1.5h-3v-1.4c0-0.1,0-0.2,0-0.3
			c0-0.3,0-0.5,0.1-0.6c0.1-0.1,0.2-0.1,0.3-0.1c0.1,0,0.2,0,0.3,0h0v-0.2v0h0h-0.4c-0.2,0-0.4,0.1-0.6,0.1c-0.2,0-0.3-0.1-0.7-0.1
			c-0.2,0-0.2,0-0.3,0h0v0.2v0h0c0.1,0,0.2,0,0.3,0c0,0,0.1,0,0.1,0c0.2,0.1,0.2,0.2,0.2,0.6c0,0.1,0,0.2,0,0.3v3.5
			c0,0.1,0,0.2,0,0.3c0,0.3,0,0.5-0.2,0.6c0,0-0.1,0-0.1,0c-0.1,0-0.2,0-0.3,0h0v0.2v0h0c0.2,0,0.1,0,0.3,0c0.3,0,0.5-0.1,0.7-0.1
			c0.2,0,0.3,0.1,0.6,0.1h0.4h0v-0.2v0h0c-0.1,0-0.2,0-0.3,0c-0.1,0-0.2,0-0.3-0.1c-0.1-0.1-0.1-0.3-0.1-0.6c0-0.1,0-0.2,0-0.3v-1.6
			h3v1.7c0,0.1,0,0.2,0,0.3c0,0.3,0,0.5-0.2,0.6c0,0-0.1,0-0.1,0c-0.1,0-0.2,0-0.3,0h-0.1v0.2v0h0.1c0.2,0,0.1,0,0.3,0
			c0.3,0,0.5-0.1,0.7-0.1c0.2,0,0.3,0.1,0.6,0.1h0.4h0v-0.2v0h0c-0.1,0-0.2,0-0.3,0c-0.1,0-0.2,0-0.3-0.1c-0.1-0.1-0.1-0.2-0.1-0.5
			c0-0.1,0-0.2,0-0.4v-3.3c0-0.1,0-0.3,0-0.4c0-0.3,0-0.4,0.1-0.5c0.1-0.1,0.2-0.1,0.3-0.1c0.1,0,0.2,0,0.3,0h0v-0.2v0h0H235.2z"/>
		<path class="st1" d="M240.5,28L240.5,28c0,0.3,0,0.3-0.3,0.5c-0.2,0.2-0.8,0.4-1.2,0.4c-0.2,0-0.3,0-0.5,0c-0.2,0-0.4,0-0.5-0.1
			c-0.2-0.1-0.2-0.2-0.2-0.7v-1.8h0.9c0.3,0,0.5,0.1,0.6,0.1c0.1,0.1,0.2,0.1,0.2,0.3c0,0,0,0.1,0,0.1c0,0.1,0,0.1,0,0.2l0,0.1h0.2
			h0l0,0c0-0.1,0-0.2,0-0.3c0-0.4-0.1-0.5-0.2-0.6c0-0.2,0-0.2,0-0.4c0-0.1,0-0.2-0.1-0.3l0,0h-0.2h-0.1l0,0.1
			c0.1,0.1,0.1,0.3,0.1,0.4c0,0,0,0.1,0,0.1c0,0.2-0.3,0.2-0.5,0.2h0h-0.9v-1.6c0-0.5,0-0.5,0.2-0.6c0.1-0.1,0.2-0.1,0.5-0.1h0.2
			c0.3,0,0.8,0.2,1.1,0.4c0.2,0.2,0.2,0.2,0.2,0.5l0,0h0.2h0.1l0-0.1c0-0.3-0.1-0.5-0.2-0.8c-0.1-0.2-0.2-0.4-0.2-0.4l0,0l0,0
			c0,0-0.9,0-1.6,0.1c-0.3,0-0.4,0-0.5,0c-0.1,0-0.1,0-0.2,0c-0.2,0-0.3-0.1-0.7-0.1c-0.2,0-0.2,0-0.3,0h0v0.2v0h0
			c0.1,0,0.2,0,0.3,0c0,0,0.1,0,0.1,0c0.2,0.1,0.2,0.2,0.2,0.6c0,0.1,0,0.2,0,0.3v1.6v1.9c0,0.1,0,0.2,0,0.3c0,0.3,0,0.5-0.2,0.6
			c0,0-0.1,0-0.1,0c-0.1,0-0.2,0-0.3,0h0v0.2v0h0c0.2,0,0.1,0,0.3,0c0.3,0,0.6-0.1,0.8-0.1c0.1,0,0.2,0,0.3,0c0.1,0,0.3,0,0.6,0
			c0.7,0,1.5,0.1,1.5,0.1l0,0l0,0c0-0.1,0.1-0.2,0.3-0.4c0.2-0.2,0.3-0.5,0.3-0.8l0-0.1H240.5L240.5,28z"/>
		<path class="st1" d="M246.9,26c0.4-0.2,0.8-0.4,1-0.9c0-0.1,0.1-0.2,0.1-0.4c0-0.3-0.1-0.5-0.2-0.7l0,0c-0.3-0.4-0.9-0.5-1.4-0.5
			c-0.3,0-0.5,0-0.6,0c-0.1,0-0.2,0-0.4,0c0,0-0.1,0-0.1,0c-0.2,0-0.3-0.1-0.7-0.1c-0.2,0-0.2,0-0.3,0h-0.1v0.2v0h0.1
			c0.1,0,0.2,0,0.3,0c0,0,0.1,0,0.1,0c0.2,0.1,0.2,0.2,0.2,0.6v0.3v1.6v1.9v0.3c0,0.3,0,0.5-0.2,0.6c0,0-0.1,0-0.1,0
			c-0.1,0-0.2,0-0.3,0h-0.1v0.2v0h0.1c0.2,0,0.1,0,0.3,0c0.3,0,0.5-0.1,0.7-0.1c0.2,0,0.5,0,0.5,0c0.2,0,0.4,0,0.6,0h0
			c0.6,0,1.3-0.1,1.8-0.8c0.2-0.3,0.3-0.6,0.3-0.9c0-0.2,0-0.3-0.1-0.5C248.1,26.4,247.5,26.1,246.9,26 M245.7,23.9
			c0.1-0.1,0.2-0.1,0.4-0.1c0,0,0.1,0,0.2,0c0.1,0,0.2,0,0.3,0c0.3,0.1,0.5,0.3,0.6,0.7c0,0.1,0,0.2,0,0.3c0,0.2-0.1,0.5-0.2,0.6
			c-0.3,0.3-0.8,0.4-1.2,0.4c-0.1,0-0.2,0-0.3,0v-1.3C245.6,24.1,245.5,24,245.7,23.9L245.7,23.9L245.7,23.9z M245.6,26.1
			c0,0,0.1,0,0.1,0c0.4,0,1.3,0,1.7,0.6c0.2,0.2,0.2,0.6,0.2,0.9c0,0.2,0,0.4-0.1,0.5c-0.1,0.4-0.4,0.7-0.8,0.8
			c-0.1,0-0.3,0.1-0.4,0.1c-0.2,0-0.5,0-0.8-0.1V26.1z"/>
		<path class="st1" d="M253.3,28L253.3,28c0,0.3,0,0.3-0.3,0.5c-0.2,0.2-0.8,0.4-1.2,0.4c-0.2,0-0.3,0-0.5,0c-0.2,0-0.4,0-0.5-0.1
			c-0.2-0.1-0.2-0.2-0.2-0.7v-1.8h0.9c0.3,0,0.5,0.1,0.6,0.1c0.1,0.1,0.2,0.1,0.2,0.3c0,0,0,0.1,0,0.1c0,0.1,0,0.1,0,0.2l0,0.1h0.2
			h0l0,0c0-0.1,0-0.2,0-0.3c0-0.4-0.1-0.5-0.2-0.6c0-0.1,0-0.2,0-0.4c0-0.1,0-0.2-0.1-0.3l0,0h-0.2H252l0,0.1
			c0.1,0.1,0.1,0.3,0.1,0.4c0,0,0,0.1,0,0.1c0,0.2-0.3,0.2-0.5,0.2c0,0,0,0,0,0h-0.9v-1.6c0-0.5,0-0.5,0.2-0.6
			c0.1-0.1,0.2-0.1,0.5-0.1h0.2c0.3,0,0.8,0.2,1.1,0.4c0.2,0.2,0.2,0.2,0.2,0.5l0,0h0.2h0.1l0-0.1c0-0.3-0.1-0.5-0.2-0.8
			c-0.1-0.2-0.2-0.4-0.2-0.4l0,0l0,0c0,0-0.9,0-1.6,0.1c-0.3,0-0.4,0-0.5,0c-0.1,0-0.1,0-0.2,0c-0.2,0-0.3-0.1-0.7-0.1
			c-0.2,0-0.2,0-0.4,0h0v0.2v0h0c0.1,0,0.2,0,0.3,0c0,0,0.1,0,0.1,0c0.2,0.1,0.2,0.2,0.2,0.6c0,0.1,0,0.2,0,0.3v1.6v1.9
			c0,0.1,0,0.2,0,0.3c0,0.3,0,0.5-0.2,0.6c0,0-0.1,0-0.1,0c-0.1,0-0.2,0-0.3,0h0v0.2v0h0c0.2,0,0.1,0,0.4,0c0.3,0,0.6-0.1,0.8-0.1
			c0.1,0,0.2,0,0.3,0c0.1,0,0.3,0,0.6,0c0.7,0,1.5,0.1,1.5,0.1l0,0l0,0c0-0.1,0.1-0.2,0.3-0.4c0.2-0.2,0.3-0.5,0.3-0.8l0-0.1H253.3
			L253.3,28z M250.9,28.9L250.9,28.9L250.9,28.9L250.9,28.9z"/>
		<path class="st1" d="M259.4,29C259.4,29,259.4,29,259.4,29L259.4,29L259.4,29c-0.3,0-0.3-0.1-0.5-0.5l-1.9-4.8
			c0-0.1-0.1-0.2-0.2-0.2c-0.1,0-0.2,0.1-0.2,0.2L255,28c-0.2,0.6-0.4,0.9-0.5,1c-0.1,0-0.1,0-0.2,0c0,0-0.1,0-0.2,0l-0.1,0v0.2v0
			l0,0c0.1,0,0.1,0,0.2,0c0,0,0.1,0,0.2,0c0.2,0,0.3,0,0.4,0c0.1,0,0.3,0.1,0.6,0.1h0.1c0.2,0,0.1,0,0.3,0l0,0V29V29l-0.1,0
			c-0.1,0-0.2,0-0.3,0c-0.1,0-0.1,0-0.2,0c-0.1-0.1-0.2-0.2-0.2-0.4c0-0.2,0.1-0.4,0.2-0.7l0.5-1.2h1.6l0.6,1.4
			c0.1,0.4,0.2,0.6,0.2,0.7c0,0,0,0.1,0,0.1c-0.1,0.1-0.1,0.1-0.3,0.1c-0.1,0-0.1,0-0.2,0l-0.1,0v0.2v0l0,0c0.1,0,0.2,0,0.3,0
			c0.1,0,0.1,0,0.2,0c0.2,0,0.2-0.1,0.4-0.1c0.2,0,0.2,0.1,0.5,0.1h0.1c0.2,0,0.2,0,0.3,0l0,0V29V29l-0.1,0
			C259.6,29,259.5,29,259.4,29 M257.4,26.4H256l0.7-1.8L257.4,26.4z"/>
		<path class="st1" d="M265.2,28.1L265.2,28.1c-0.5,0.7-1.3,0.9-1.9,0.9c-0.1,0-0.2,0-0.3,0c-0.6,0-1.2-0.2-1.7-0.9
			c-0.4-0.5-0.6-1.3-0.6-1.9c0-0.4,0.1-0.7,0.1-0.9c0.2-0.7,0.7-1.2,1.5-1.4c0.2,0,0.4-0.1,0.6-0.1c0.5,0,1.1,0.2,1.5,0.6
			c0.2,0.2,0.4,0.4,0.4,0.7c0,0,0,0.1,0,0.1l0,0.1h0.1h0l0,0c0-0.1,0-0.3,0-0.4c0-0.4-0.2-0.5-0.2-0.8c0-0.1,0-0.3,0-0.3l0-0.1
			l-0.1,0c-0.1,0.1-0.2,0.1-0.2,0.1c-0.1,0-0.1,0-0.2,0c-0.2,0-0.7-0.3-1.2-0.3c-0.1,0-0.2,0-0.3,0c-0.3,0-0.6,0-0.9,0.1
			c-0.9,0.3-1.6,1-1.9,1.9c-0.1,0.3-0.1,0.6-0.1,1c0,0.6,0.2,1.2,0.5,1.7c0.7,0.9,1.7,1.2,2.5,1.2h0.1c0.8,0,1.7-0.2,2.3-1.1l0,0
			L265.2,28.1L265.2,28.1z"/>
		<path class="st1" d="M271.9,23.6h-0.4c-0.2,0-0.4,0.1-0.6,0.1c-0.2,0-0.3-0.1-0.7-0.1c-0.2,0-0.2,0-0.3,0h0v0.2v0h0
			c0.1,0,0.2,0,0.3,0c0,0,0.1,0,0.1,0c0.2,0.1,0.2,0.2,0.2,0.6c0,0.1,0,0.2,0,0.3v1.5h-3v-1.4c0-0.1,0-0.2,0-0.3
			c0-0.3,0-0.5,0.1-0.6c0.1-0.1,0.2-0.1,0.3-0.1c0.1,0,0.2,0,0.3,0h0.1v-0.2v0h-0.1h-0.4c-0.2,0-0.4,0.1-0.6,0.1
			c-0.2,0-0.3-0.1-0.7-0.1c-0.2,0-0.2,0-0.3,0h0v0.2v0h0c0.1,0,0.2,0,0.3,0c0,0,0.1,0,0.1,0c0.2,0.1,0.2,0.2,0.2,0.6v0.3v3.5v0.3
			c0,0.3,0,0.5-0.2,0.6c0,0-0.1,0-0.1,0c-0.1,0-0.2,0-0.3,0h0v0.2v0h0c0.2,0,0.1,0,0.3,0c0.3,0,0.5-0.1,0.7-0.1
			c0.2,0,0.3,0.1,0.6,0.1h0.4h0.1v-0.2v0h-0.1c-0.1,0-0.2,0-0.3,0c-0.1,0-0.2,0-0.3-0.1c-0.1-0.1-0.1-0.3-0.1-0.6c0-0.1,0-0.2,0-0.3
			v-1.7h3v1.7v0.3c0,0.3,0,0.5-0.2,0.6c0,0-0.1,0-0.1,0c-0.1,0-0.2,0-0.3,0h0v0.2v0h0c0.2,0,0.1,0,0.3,0c0.3,0,0.5-0.1,0.7-0.1
			c0.2,0,0.3,0.1,0.6,0.1h0.4h0v-0.2v0h0c-0.1,0-0.2,0-0.3,0c-0.1,0-0.2,0-0.3-0.1c-0.1-0.1-0.1-0.2-0.1-0.5c0-0.1,0-0.2,0-0.4v-3.3
			c0-0.1,0-0.3,0-0.4c0-0.3,0-0.5,0.1-0.5c0.1-0.1,0.2-0.1,0.3-0.1c0.1,0,0.2,0,0.3,0h0L271.9,23.6L271.9,23.6L271.9,23.6z"/>
	</g>
	<path class="st1" d="M289.7,2.9c1.2,0,2.3,1,2.3,2.3c0,1.3-1,2.3-2.3,2.3c-1.3,0-2.3-1-2.3-2.3C287.5,3.9,288.5,2.9,289.7,2.9z
		 M289.7,7.1c1.1,0,1.9-0.9,1.9-1.9c0-1.1-0.9-1.9-1.9-1.9s-1.9,0.9-1.9,1.9C287.8,6.2,288.7,7.1,289.7,7.1z M289.2,6.5h-0.3V3.8h1
		c0.6,0,0.8,0.3,0.8,0.7c0,0.5-0.3,0.7-0.7,0.7l0.8,1.1h-0.4l-0.8-1.1h-0.5V6.5z M289.2,5h0.4c0.4,0,0.8,0,0.8-0.5
		c0-0.3-0.3-0.4-0.6-0.4h-0.6V5z"/>
</g>
</svg>
