<?xml version="1.0" encoding="utf-8"?>
<!-- Generator: Adobe Illustrator 19.0.1, SVG Export Plug-In . SVG Version: 6.00 Build 0)  -->
<svg version="1.1" id="Layer_1" xmlns="http://www.w3.org/2000/svg" xmlns:xlink="http://www.w3.org/1999/xlink" x="0px" y="0px"
	 viewBox="100 -50 220 120" style="enable-background:new 100 -50 220 120;" xml:space="preserve">
<style type="text/css">
	.st0{fill:#EEEEEE;}
	.st1{fill:#808080;}
</style>
<g>
	<rect x="99.8" y="-49.9" class="st0" width="220" height="120"/>
</g>
<g>
	<g>
		<path class="st1" d="M290,15.2c-3.5,1-6.8,1.8-10.1,1.8c-4.8,0-9.9-2.3-15.2-2.4c-2.6,0-5.1,0.6-7.6,1.2v1
			c2.7-0.6,5.1-0.7,7.6-0.6c4.8,0,9.9,2.3,15.2,2.4c3.5,0,6.9-1.1,10.1-2.3V15.2z"/>
		<path class="st1" d="M257.2,13.8c2.6-0.7,5.1-1.2,7.6-1.2c4.8,0,9.9,2.3,15.2,2.4c3.5,0,6.9-0.9,10.1-1.7v-1
			c-3.5,0.7-6.8,1.2-10.1,1.2c-4.8,0-9.9-2.3-15.2-2.4c-2.6,0-5.2,0.9-7.6,1.7V13.8z"/>
	</g>
	<g>
		<path class="st1" d="M133.1,13.6l-1.7,3.8h-2l7.2-15.8l7.2,15.8h-2l-1.7-3.8H133.1z M136.5,5.8l-2.7,6.1h5.4L136.5,5.8z"/>
		<path class="st1" d="M148.4,15.7h4.6v1.7h-6.5V2.3h1.9V15.7z"/>
		<path class="st1" d="M159.7,17.4h-1.9V4h-3.6V2.3h9.1V4h-3.6V17.4z"/>
		<path class="st1" d="M167.4,13.6l-1.7,3.8h-2l7.2-15.8l7.2,15.8h-2l-1.7-3.8H167.4z M170.8,5.8l-2.7,6.1h5.4L170.8,5.8z"/>
		<path class="st1" d="M183.9,7.4L183.9,7.4l-1.8,10h-1.9l3.1-15.8l5.2,11.9l5.2-11.9l3.1,15.8h-1.9l-1.8-10h0l-4.5,10.3L183.9,7.4z
			"/>
		<path class="st1" d="M202.6,13.6l-1.7,3.8h-2L206,1.6l7.2,15.8h-2l-1.7-3.8H202.6z M206,5.8l-2.7,6.1h5.4L206,5.8z"/>
		<path class="st1" d="M224.6,17.4h-2.3l-4.5-6.4h-0.8v6.4h-1.9V2.3h2.3c1.3,0,2.8,0,4,0.7c1.3,0.7,2,2.2,2,3.6c0,2.2-1.4,4-3.6,4.2
			L224.6,17.4z M217.1,9.4h0.6c1.9,0,4-0.4,4-2.8c0-2.4-2.2-2.7-4.1-2.7h-0.5V9.4z"/>
		<path class="st1" d="M228.1,2.3h8.1V4H230v4.2h6.1V10H230v5.7h6.2v1.7h-8.1V2.3z"/>
		<path class="st1" d="M242.5,13.6l-1.7,3.8h-2L246,1.6l7.2,15.8h-2l-1.7-3.8H242.5z M246,5.8l-2.7,6.1h5.4L246,5.8z"/>
	</g>
	<path class="st1" d="M260.4,6.2h1.5c-0.2,0.7-1,1.3-1.7,1.3c-1.1,0-2.1-1.1-2.1-2.2c0-1.2,0.9-2.2,2.1-2.2c0.6,0,1.3,0.3,1.7,0.9
		l0.2,0.2l0.9-0.8l-0.1-0.2c-0.6-0.8-1.6-1.2-2.6-1.2c-1.8,0-3.3,1.5-3.3,3.3c0,1.8,1.4,3.3,3.2,3.3c1.8,0,3-1.4,3-3.1V5.1h-2.8V6.2
		z M267.8,5.8c0.8-0.2,1.4-1,1.4-1.8c0-0.6-0.3-1.3-0.9-1.6c-0.5-0.3-1.5-0.3-2-0.3h-1.1v6.4h1.2V5.9l1.9,2.6h1.5l-0.3-0.4
		L267.8,5.8z M266.4,5L266.4,5l0-1.8c0.7,0,1.7,0,1.7,0.8C268,4.9,267.1,5,266.4,5z M274.2,2c-1.8,0-3.3,1.5-3.3,3.3
		c0,1.9,1.5,3.3,3.3,3.3c1.8,0,3.3-1.4,3.3-3.3C277.5,3.5,276,2,274.2,2z M274.2,7.5c-1.2,0-2.1-0.9-2.1-2.2c0-1.2,0.9-2.2,2.1-2.2
		c1.3,0,2.1,1,2.1,2.2C276.3,6.5,275.3,7.5,274.2,7.5z M282.9,5.9c0,0.9-0.2,1.6-1.2,1.6c-1,0-1.2-0.7-1.2-1.6V2.1h-1.2v4
		c0,1.4,0.9,2.5,2.4,2.5c1.5,0,2.4-1.1,2.4-2.5v-4h-1.2V5.9z M289.6,2.6c-0.4-0.4-1.4-0.5-2.4-0.5h-1.1v6.4h1.2V6h0.2
		c0.6,0,1.5-0.1,1.9-0.4c0.4-0.3,0.7-0.9,0.7-1.5C290.2,3.5,290.1,3,289.6,2.6z M287.4,4.9l0-1.7c0.7,0,1.7-0.1,1.7,0.8
		C289.1,5,288.2,5,287.4,4.9z"/>
</g>
</svg>
