<?xml version="1.0" encoding="utf-8"?>
<!-- Generator: Adobe Illustrator 19.2.0, SVG Export Plug-In . SVG Version: 6.00 Build 0)  -->
<svg version="1.1" id="Layer_1" xmlns="http://www.w3.org/2000/svg" xmlns:xlink="http://www.w3.org/1999/xlink" x="0px" y="0px"
	 viewBox="100 -50 220 120" style="enable-background:new 100 -50 220 120;" xml:space="preserve">
<style type="text/css">
	.st0{fill:#EEEEEE;}
	.st1{fill:#808080;}
</style>
<rect x="100" y="-49.9" class="st0" width="220" height="120"/>
<g>
	<g>
		<path class="st1" d="M173.7-6.4c0.3-0.9,0.5-1.1,0.6-1.1s0.3,0.1,0.6,1c0.4,1.1,4.9,12.9,6.7,17.3c1,2.6,1.9,3,2.5,3.2
			c0.4,0.1,0.9,0.2,1.1,0.2c0.2,0,0.3,0,0.3,0.2c0,0.2-0.3,0.2-0.6,0.2c-0.4,0-2.5,0-4.5-0.1c-0.5,0-0.9,0-0.9-0.2
			c0-0.1,0.1-0.2,0.2-0.2c0.2-0.1,0.3-0.3,0.2-0.8l-2.7-7.1c-0.1-0.1-0.1-0.2-0.3-0.2h-6.2c-0.1,0-0.2,0.1-0.3,0.2l-1.7,5.1
			c-0.3,0.7-0.4,1.4-0.4,1.9c0,0.6,0.6,0.8,1.1,0.8h0.3c0.2,0,0.3,0.1,0.3,0.2c0,0.2-0.2,0.2-0.4,0.2c-0.7,0-1.9-0.1-2.2-0.1
			c-0.3,0-1.9,0.1-3.2,0.1c-0.4,0-0.5-0.1-0.5-0.2c0-0.1,0.1-0.2,0.3-0.2c0.2,0,0.6,0,0.8-0.1c1.3-0.2,1.9-1.3,2.4-2.7L173.7-6.4z
			 M176.7,5.1c0.1,0,0.1-0.1,0.1-0.2l-2.7-7.7c-0.1-0.4-0.3-0.4-0.4,0l-2.5,7.7c-0.1,0.1,0,0.2,0.1,0.2H176.7z"/>
		<path class="st1" d="M186.6,14.3c-0.3-0.2-0.3-0.2-0.3-0.8c0-1.1,0.1-2,0.1-2.3c0-0.2,0.1-0.4,0.2-0.4c0.1,0,0.2,0.1,0.2,0.3
			c0,0.2,0,0.5,0.1,0.8c0.4,1.6,2.1,2.2,3.6,2.2c2.2,0,3.4-1.3,3.4-2.9c0-1.6-0.9-2.3-2.9-3.8l-1-0.8c-2.5-1.8-3.3-3.2-3.3-4.7
			c0-2.6,2-4.1,5-4.1c0.9,0,1.8,0.1,2.3,0.3c0.4,0.1,0.6,0.1,0.8,0.1c0.2,0,0.2,0,0.2,0.2c0,0.1-0.1,0.8-0.1,2.3
			c0,0.3,0,0.5-0.2,0.5c-0.2,0-0.2-0.1-0.2-0.3c0-0.3-0.2-0.9-0.3-1.1c-0.2-0.3-0.9-1.1-2.9-1.1c-1.7,0-3,0.8-3,2.4
			c0,1.4,0.7,2.2,2.9,3.7l0.6,0.4c2.8,1.9,3.7,3.4,3.7,5.3c0,1.3-0.5,2.7-2.1,3.7c-1,0.6-2.4,0.8-3.6,0.8
			C188.9,14.9,187.6,14.7,186.6,14.3z"/>
		<path class="st1" d="M200.2,14.3c-0.3-0.2-0.3-0.2-0.3-0.8c0-1.1,0.1-2,0.1-2.3c0-0.2,0.1-0.4,0.2-0.4c0.1,0,0.2,0.1,0.2,0.3
			c0,0.2,0,0.5,0.1,0.8c0.4,1.6,2.1,2.2,3.6,2.2c2.2,0,3.4-1.3,3.4-2.9c0-1.6-0.9-2.3-2.9-3.8l-1-0.8c-2.5-1.8-3.3-3.2-3.3-4.7
			c0-2.6,2-4.1,5-4.1c0.9,0,1.8,0.1,2.3,0.3c0.4,0.1,0.6,0.1,0.8,0.1c0.2,0,0.2,0,0.2,0.2c0,0.1-0.1,0.8-0.1,2.3
			c0,0.3,0,0.5-0.2,0.5c-0.2,0-0.2-0.1-0.2-0.3c0-0.3-0.2-0.9-0.3-1.1c-0.2-0.3-0.9-1.1-2.9-1.1c-1.7,0-3,0.8-3,2.4
			c0,1.4,0.7,2.2,2.9,3.7l0.6,0.4c2.8,1.9,3.7,3.4,3.7,5.3c0,1.3-0.5,2.7-2.1,3.7c-1,0.6-2.4,0.8-3.6,0.8
			C202.4,14.9,201.1,14.7,200.2,14.3z"/>
		<path class="st1" d="M219.1-1.6c0.3-0.7,0.4-0.9,0.5-0.9c0.2,0,0.3,0.3,0.5,0.8c0.4,0.9,4.1,10,5.4,13.3c0.8,2,1.4,2.2,1.9,2.4
			c0.3,0.1,0.7,0.1,0.9,0.1c0.1,0,0.3,0.1,0.3,0.2c0,0.1-0.3,0.2-0.5,0.2c-0.3,0-2,0-3.6-0.1c-0.4,0-0.8,0-0.8-0.2
			c0-0.1,0.1-0.1,0.2-0.2c0.1-0.1,0.4-0.2,0.2-0.6l-2-5c-0.1-0.1-0.1-0.1-0.2-0.1h-5.2c-0.1,0-0.2,0.1-0.2,0.2l-1.3,3.5
			c-0.2,0.5-0.3,1.1-0.3,1.5c0,0.4,0.4,0.6,0.8,0.6h0.2c0.2,0,0.2,0.1,0.2,0.2c0,0.1-0.1,0.2-0.3,0.2c-0.5,0-1.8-0.1-2-0.1
			c-0.2,0-1.4,0.1-2.3,0.1c-0.3,0-0.4-0.1-0.4-0.2c0-0.1,0.1-0.2,0.2-0.2c0.2,0,0.5,0,0.7-0.1c1-0.1,1.5-0.9,1.9-2L219.1-1.6z
			 M221.6,7.6c0.1,0,0.1-0.1,0.1-0.2l-2.2-6c-0.1-0.3-0.3-0.3-0.4,0l-2.1,6c0,0.1,0,0.2,0.1,0.2H221.6z"/>
		<path class="st1" d="M231.7,4.3c0-3.4,0-4-0.1-4.7c-0.1-0.7-0.2-1.1-0.9-1.2c-0.2,0-0.6-0.1-0.8-0.1c-0.1,0-0.2-0.1-0.2-0.2
			c0-0.1,0.1-0.2,0.4-0.2c1,0,2.5,0.1,2.6,0.1c0.2,0,4.9,0,5.4,0c0.4,0,0.9-0.1,1-0.1c0.1,0,0.2-0.1,0.3-0.1c0.1,0,0.1,0.1,0.1,0.2
			c0,0.2-0.1,0.4-0.2,1c0,0.2-0.1,1.2-0.1,1.4c0,0.1-0.1,0.2-0.2,0.2c-0.1,0-0.2-0.1-0.2-0.3c0-0.2,0-0.5-0.1-0.8
			c-0.2-0.4-0.4-0.5-1.6-0.7c-0.4-0.1-3-0.1-3.3-0.1c-0.1,0-0.1,0.1-0.1,0.2v6c0,0.2,0,0.2,0.1,0.2c0.3,0,3.3,0,3.8-0.1
			c0.5-0.1,0.9-0.1,1.1-0.3c0.2-0.2,0.3-0.3,0.3-0.3c0.1,0,0.1,0.1,0.1,0.2c0,0.1-0.1,0.5-0.2,1.2C239,6.5,239,7.4,239,7.5
			c0,0.2-0.1,0.4-0.2,0.4c-0.1,0-0.2-0.1-0.2-0.2c0-0.2,0-0.4-0.1-0.7c-0.1-0.3-0.3-0.6-1.2-0.7c-0.6-0.1-3-0.1-3.4-0.1
			c-0.1,0-0.2,0.1-0.2,0.2v1.8c0,0.7,0,3.3,0,3.7c0.1,1.5,0.5,1.8,2.7,1.8c0.6,0,1.7,0,2.3-0.2c0.6-0.3,0.9-0.6,1-1.5
			c0.1-0.3,0.1-0.3,0.2-0.3c0.1,0,0.2,0.2,0.2,0.3c0,0.2-0.2,1.7-0.3,2.1c-0.2,0.6-0.4,0.6-1.3,0.6c-1.7,0-3-0.1-4-0.1
			c-1-0.1-1.5-0.1-1.9-0.1c-0.1,0-0.5,0-1,0c-0.4,0-1,0.1-1.3,0.1c-0.2,0-0.4-0.1-0.4-0.2c0-0.1,0.1-0.2,0.2-0.2
			c0.2,0,0.5-0.1,0.7-0.1c0.4-0.1,0.5-0.5,0.6-1.2c0.1-0.9,0.1-2.6,0.1-4.8V4.3z"/>
		<path class="st1" d="M248,8.3c0,3.2,0.1,4.5,0.5,4.9c0.4,0.4,1.2,0.5,3,0.5c1.2,0,2.2,0,2.7-0.7c0.3-0.3,0.5-0.8,0.5-1.2
			c0-0.2,0.1-0.3,0.2-0.3c0.1,0,0.2,0.1,0.2,0.3c0,0.2-0.2,1.5-0.3,2.2c-0.2,0.5-0.2,0.6-1.4,0.6c-1.6,0-2.9,0-4-0.1
			c-1,0-1.8-0.1-2.5-0.1c-0.1,0-0.5,0-0.9,0c-0.5,0-1,0.1-1.3,0.1c-0.2,0-0.4-0.1-0.4-0.2c0-0.1,0.1-0.2,0.2-0.2
			c0.2,0,0.5-0.1,0.7-0.1c0.4-0.1,0.5-0.5,0.6-1.2c0.1-0.9,0.1-2.6,0.1-4.8V4.3c0-3.4,0-4-0.1-4.7c-0.1-0.7-0.2-1.1-0.9-1.2
			c-0.2,0-0.6-0.1-0.8-0.1c-0.1,0-0.2-0.1-0.2-0.2c0-0.1,0.1-0.2,0.4-0.2c1,0,2.5,0.1,2.6,0.1c0.1,0,1.8-0.1,2.5-0.1
			c0.2,0,0.4,0.1,0.4,0.2c0,0.1-0.1,0.2-0.2,0.2c-0.2,0-0.5,0-0.7,0.1c-0.7,0.1-0.8,0.5-0.9,1.2c0,0.7,0,1.3,0,4.7V8.3z"/>
	</g>
	<g>
		<path class="st1" d="M140.1,25.9c0,0.5,0,0.9,0,1.1c0,0.2,0,0.3,0.2,0.3c0.1,0,0.2,0,0.2,0c0,0,0,0,0,0c0,0,0,0-0.1,0
			c-0.3,0-0.6,0-0.6,0c0,0-0.4,0-0.5,0c-0.1,0-0.1,0-0.1,0c0,0,0,0,0,0c0,0,0.1,0,0.2,0c0.1,0,0.1-0.1,0.2-0.3c0-0.2,0-0.6,0-1.1
			v-2.2l-0.8,0c-0.3,0-0.5,0-0.5,0.2c-0.1,0.1-0.1,0.1-0.1,0.2c0,0,0,0.1-0.1,0.1c0,0,0,0,0,0c0-0.1,0.1-0.5,0.1-0.5
			c0,0,0-0.1,0.1-0.1c0,0,0.1,0.1,0.2,0.1c0.2,0,0.4,0,0.4,0h2c0.2,0,0.3,0,0.4,0c0.1,0,0.1,0,0.1,0c0,0,0,0,0,0.1
			c0,0.2,0,0.5,0,0.6c0,0,0,0.1,0,0.1c0,0,0,0,0-0.1l0-0.1c0-0.2-0.1-0.3-0.6-0.3l-0.7,0V25.9z"/>
		<path class="st1" d="M145.8,25.9c0,0.5,0,0.9,0,1.1c0,0.2,0,0.3,0.2,0.3c0.1,0,0.2,0,0.2,0c0,0,0,0,0,0c0,0,0,0-0.1,0
			c-0.3,0-0.6,0-0.6,0c0,0-0.4,0-0.5,0c-0.1,0-0.1,0-0.1,0c0,0,0,0,0,0c0,0,0.1,0,0.2,0c0.1,0,0.1-0.1,0.2-0.3c0-0.2,0-0.6,0-1.1
			v-0.6c0,0,0,0,0,0h-2.2c0,0,0,0,0,0v0.6c0,0.5,0,0.9,0,1.1c0,0.2,0,0.3,0.2,0.3c0.1,0,0.2,0,0.2,0c0,0,0,0,0,0c0,0,0,0-0.1,0
			c-0.3,0-0.6,0-0.6,0c0,0-0.4,0-0.5,0c-0.1,0-0.1,0-0.1,0c0,0,0,0,0,0c0,0,0.1,0,0.2,0c0.1,0,0.1-0.1,0.2-0.3c0-0.2,0-0.6,0-1.1V25
			c0-0.8,0-1,0-1.1c0-0.2-0.1-0.3-0.2-0.3c0,0-0.1,0-0.2,0c0,0,0,0,0,0c0,0,0,0,0.1,0c0.2,0,0.6,0,0.6,0c0,0,0.4,0,0.5,0
			c0.1,0,0.1,0,0.1,0c0,0,0,0,0,0c0,0-0.1,0-0.1,0c-0.1,0-0.2,0.1-0.2,0.3c0,0.2,0,0.3,0,1.1v0.1c0,0,0,0,0,0h2.2c0,0,0,0,0,0V25
			c0-0.8,0-1,0-1.1c0-0.2-0.1-0.3-0.2-0.3c0,0-0.1,0-0.2,0c0,0,0,0,0,0c0,0,0,0,0.1,0c0.2,0,0.6,0,0.6,0c0,0,0.4,0,0.5,0
			c0.1,0,0.1,0,0.1,0c0,0,0,0,0,0c0,0-0.1,0-0.1,0c-0.1,0-0.2,0.1-0.2,0.3c0,0.2,0,0.3,0,1.1V25.9z"/>
		<path class="st1" d="M147.7,25c0-0.8,0-1,0-1.1c0-0.2-0.1-0.3-0.2-0.3c0,0-0.1,0-0.2,0c0,0,0,0,0,0c0,0,0,0,0.1,0
			c0.1,0,0.3,0,0.4,0l0.2,0c0,0,1.1,0,1.2,0c0.1,0,0.2,0,0.2,0c0,0,0,0,0.1,0c0,0,0,0,0,0c0,0,0,0.1,0,0.2c0,0.1,0,0.3,0,0.3
			c0,0,0,0.1,0,0.1c0,0,0,0,0-0.1c0,0,0-0.1,0-0.2c0-0.1-0.1-0.1-0.4-0.2c-0.1,0-0.7,0-0.7,0c0,0,0,0,0,0.1v1.5c0,0,0,0.1,0,0.1
			c0.1,0,0.7,0,0.8,0c0.1,0,0.2,0,0.2-0.1c0,0,0.1-0.1,0.1-0.1c0,0,0,0,0,0c0,0,0,0.1,0,0.3c0,0.1,0,0.3,0,0.3c0,0,0,0.1,0,0.1
			c0,0,0,0,0,0c0-0.1,0-0.1,0-0.2c0-0.1-0.1-0.2-0.3-0.2c-0.1,0-0.7,0-0.8,0c0,0,0,0,0,0v0.5c0,0.2,0,0.8,0,0.9
			c0,0.4,0.1,0.4,0.6,0.4c0.1,0,0.4,0,0.5-0.1c0.1-0.1,0.2-0.2,0.2-0.4c0-0.1,0-0.1,0-0.1c0,0,0,0,0,0.1c0,0,0,0.4-0.1,0.5
			c0,0.1-0.1,0.1-0.3,0.1c-0.4,0-0.7,0-0.9,0c-0.2,0-0.3,0-0.4,0c0,0-0.1,0-0.2,0c-0.1,0-0.2,0-0.3,0c-0.1,0-0.1,0-0.1,0
			c0,0,0,0,0,0c0,0,0.1,0,0.2,0c0.1,0,0.1-0.1,0.2-0.3c0-0.2,0-0.6,0-1.1V25z"/>
		<path class="st1" d="M156.6,26.7c0,0.2,0.1,0.5,0.3,0.6c0.2,0,0.3,0,0.3,0c0,0,0,0,0,0c0,0,0,0-0.1,0c-0.1,0-0.7,0-0.9,0
			c-0.1,0-0.1,0-0.1-0.1c0,0,0,0,0,0c0,0,0-0.1,0-0.2l-0.3-2.7h0l-1.3,2.7c-0.1,0.2-0.1,0.3-0.2,0.3c0,0-0.1-0.1-0.2-0.2
			c-0.1-0.3-0.6-1.2-0.6-1.2c0-0.1-0.6-1.4-0.7-1.5h0l-0.2,2.4c0,0.1,0,0.2,0,0.3c0,0.1,0.1,0.1,0.1,0.2c0.1,0,0.2,0,0.2,0
			c0,0,0,0,0,0c0,0,0,0-0.1,0c-0.2,0-0.4,0-0.5,0c0,0-0.3,0-0.4,0c-0.1,0-0.1,0-0.1,0c0,0,0,0,0.1,0c0,0,0.1,0,0.2,0
			c0.2,0,0.2-0.2,0.2-0.4l0.4-3.4c0-0.1,0-0.1,0.1-0.1c0,0,0.1,0,0.1,0.1l1.6,3.3l1.6-3.3c0,0,0-0.1,0.1-0.1s0.1,0,0.1,0.1
			L156.6,26.7z"/>
		<path class="st1" d="M159.7,23.4c1.2,0,2.1,0.7,2.1,2c0,1.2-0.8,2.2-2.1,2.2c-1.4,0-2-1.1-2-2.1C157.6,24.6,158.2,23.4,159.7,23.4
			z M159.8,27.3c0.5,0,1.5-0.3,1.5-1.8c0-1.3-0.8-1.9-1.6-1.9c-0.9,0-1.5,0.6-1.5,1.7C158.1,26.5,158.8,27.3,159.8,27.3z"/>
		<path class="st1" d="M162.7,27.4c-0.1,0-0.1-0.1-0.1-0.2c0-0.3,0-0.5,0-0.6c0-0.1,0-0.1,0-0.1c0,0,0,0,0,0.1c0,0,0,0.1,0,0.2
			c0.1,0.4,0.4,0.5,0.8,0.5c0.5,0,0.8-0.4,0.8-0.7c0-0.4-0.2-0.6-0.6-0.9l-0.2-0.2c-0.6-0.5-0.7-0.8-0.7-1.1c0-0.6,0.4-0.9,1.1-0.9
			c0.2,0,0.4,0,0.5,0.1c0.1,0,0.1,0,0.2,0s0.1,0,0.1,0c0,0,0,0.2,0,0.6c0,0.1,0,0.1,0,0.1c0,0,0,0,0-0.1c0-0.1,0-0.2-0.1-0.3
			c0-0.1-0.2-0.3-0.7-0.3c-0.4,0-0.6,0.2-0.6,0.6c0,0.3,0.1,0.5,0.6,0.9l0.1,0.1c0.6,0.5,0.8,0.8,0.8,1.2c0,0.2-0.1,0.6-0.4,0.9
			c-0.2,0.2-0.5,0.2-0.8,0.2C163.1,27.5,162.9,27.5,162.7,27.4z"/>
		<path class="st1" d="M167.1,25.9c0,0.5,0,0.9,0,1.1c0,0.2,0,0.3,0.2,0.3c0.1,0,0.2,0,0.2,0c0,0,0,0,0,0c0,0,0,0-0.1,0
			c-0.3,0-0.6,0-0.6,0c0,0-0.4,0-0.5,0c-0.1,0-0.1,0-0.1,0c0,0,0,0,0,0c0,0,0.1,0,0.2,0c0.1,0,0.1-0.1,0.2-0.3c0-0.2,0-0.6,0-1.1
			v-2.2l-0.8,0c-0.3,0-0.5,0-0.5,0.2c-0.1,0.1-0.1,0.1-0.1,0.2c0,0,0,0.1-0.1,0.1c0,0,0,0,0,0c0-0.1,0.1-0.5,0.1-0.5
			c0,0,0-0.1,0.1-0.1c0,0,0.1,0.1,0.2,0.1c0.2,0,0.4,0,0.4,0h2c0.2,0,0.3,0,0.4,0c0.1,0,0.1,0,0.1,0c0,0,0,0,0,0.1
			c0,0.2,0,0.5,0,0.6c0,0,0,0.1,0,0.1c0,0,0,0,0-0.1l0-0.1c0-0.2-0.1-0.3-0.6-0.3l-0.7,0V25.9z"/>
		<path class="st1" d="M175.3,26.7c0,0.2,0.1,0.5,0.3,0.6c0.2,0,0.3,0,0.3,0c0,0,0,0,0,0c0,0,0,0-0.1,0c-0.1,0-0.7,0-0.9,0
			c-0.1,0-0.1,0-0.1-0.1c0,0,0,0,0,0c0,0,0-0.1,0-0.2l-0.3-2.7h0l-1.3,2.7c-0.1,0.2-0.1,0.3-0.2,0.3c0,0-0.1-0.1-0.2-0.2
			c-0.1-0.3-0.6-1.2-0.6-1.2c0-0.1-0.6-1.4-0.7-1.5h0l-0.2,2.4c0,0.1,0,0.2,0,0.3c0,0.1,0.1,0.1,0.1,0.2c0.1,0,0.2,0,0.2,0
			c0,0,0,0,0,0c0,0,0,0-0.1,0c-0.2,0-0.4,0-0.5,0c0,0-0.3,0-0.4,0c-0.1,0-0.1,0-0.1,0c0,0,0,0,0.1,0c0,0,0.1,0,0.2,0
			c0.2,0,0.2-0.2,0.2-0.4l0.4-3.4c0-0.1,0-0.1,0.1-0.1c0,0,0.1,0,0.1,0.1l1.6,3.3l1.6-3.3c0,0,0-0.1,0.1-0.1s0.1,0,0.1,0.1
			L175.3,26.7z"/>
		<path class="st1" d="M177.7,23.6c0.1-0.2,0.1-0.2,0.1-0.2c0,0,0.1,0,0.1,0.2c0.1,0.2,0.9,2.4,1.2,3.2c0.2,0.5,0.3,0.6,0.5,0.6
			c0.1,0,0.2,0,0.2,0c0,0,0.1,0,0.1,0c0,0,0,0-0.1,0c-0.1,0-0.5,0-0.8,0c-0.1,0-0.2,0-0.2,0c0,0,0,0,0,0c0,0,0.1-0.1,0-0.1l-0.5-1.3
			c0,0,0,0,0,0h-1.1c0,0,0,0-0.1,0l-0.3,0.9c0,0.1-0.1,0.3-0.1,0.4c0,0.1,0.1,0.2,0.2,0.2h0.1c0,0,0.1,0,0.1,0c0,0,0,0-0.1,0
			c-0.1,0-0.4,0-0.4,0c-0.1,0-0.3,0-0.6,0c-0.1,0-0.1,0-0.1,0c0,0,0,0,0,0c0,0,0.1,0,0.2,0c0.2,0,0.3-0.2,0.4-0.5L177.7,23.6z
			 M178.2,25.7C178.2,25.7,178.2,25.7,178.2,25.7l-0.5-1.5c0-0.1-0.1-0.1-0.1,0l-0.5,1.4c0,0,0,0,0,0H178.2z"/>
		<path class="st1" d="M183.1,26.1c0-0.4,0-0.5-0.2-0.5c0,0-0.1,0-0.2,0c0,0,0,0,0,0c0,0,0,0,0.1,0c0.2,0,0.6,0,0.6,0
			c0,0,0.4,0,0.5,0c0.1,0,0.1,0,0.1,0c0,0,0,0,0,0c0,0-0.1,0-0.1,0c-0.1,0-0.2,0.1-0.2,0.3c0,0.2,0,0.3,0,0.5V27
			c0,0.2,0,0.2-0.1,0.3c-0.3,0.2-0.8,0.2-1.1,0.2c-0.4,0-1.1-0.1-1.7-0.6c-0.3-0.3-0.6-0.8-0.6-1.5c0-0.8,0.4-1.4,0.9-1.7
			c0.5-0.3,1-0.3,1.4-0.3c0.3,0,0.7,0.1,0.8,0.1c0.1,0,0.3,0,0.4,0.1c0.1,0,0.1,0,0.1,0c0,0.1,0,0.2,0,0.7c0,0.1,0,0.1,0,0.1
			c0,0,0,0,0-0.1c0-0.1,0-0.2-0.1-0.3c-0.1-0.2-0.6-0.4-1.2-0.4c-0.3,0-0.7,0-1.1,0.3c-0.3,0.2-0.5,0.7-0.5,1.3
			c0,0.7,0.4,1.3,0.6,1.5c0.4,0.4,0.9,0.6,1.4,0.6c0.2,0,0.5,0,0.6-0.1c0.1,0,0.1-0.1,0.1-0.2V26.1z"/>
		<path class="st1" d="M185.3,26.7c0,0.4,0.1,0.6,0.2,0.6c0.1,0,0.2,0,0.3,0c0,0,0,0,0,0c0,0,0,0-0.1,0c-0.3,0-0.5,0-0.6,0
			c0,0-0.3,0-0.5,0c-0.1,0-0.1,0-0.1,0c0,0,0,0,0,0c0,0,0.1,0,0.2,0c0.1,0,0.2-0.2,0.2-0.7l0-3c0-0.2,0-0.3,0.1-0.3
			c0,0,0.1,0.1,0.2,0.2c0.1,0.1,0.9,0.9,1.7,1.8c0.5,0.6,1.1,1.2,1.3,1.4l-0.1-2.7c0-0.3,0-0.5-0.2-0.5c-0.1,0-0.2,0-0.3,0
			c0,0,0,0,0,0c0,0,0,0,0.1,0c0.2,0,0.5,0,0.5,0c0.1,0,0.2,0,0.4,0c0.1,0,0.1,0,0.1,0c0,0,0,0-0.1,0c0,0-0.1,0-0.1,0
			c-0.2,0-0.2,0.2-0.2,0.5l0,3.1c0,0.3,0,0.4,0,0.4c0,0-0.1-0.1-0.4-0.3c-0.1-0.1-0.8-0.8-1.4-1.4c-0.6-0.7-1.2-1.3-1.4-1.5
			L185.3,26.7z"/>
		<path class="st1" d="M190.6,25.9c0,0.5,0,0.9,0,1.1c0,0.2,0,0.3,0.2,0.3c0.1,0,0.2,0,0.2,0c0,0,0,0,0,0c0,0,0,0-0.1,0
			c-0.3,0-0.6,0-0.6,0c0,0-0.4,0-0.5,0c-0.1,0-0.1,0-0.1,0c0,0,0,0,0,0c0,0,0.1,0,0.2,0c0.1,0,0.1-0.1,0.2-0.3c0-0.2,0-0.6,0-1.1V25
			c0-0.8,0-1,0-1.1c0-0.2-0.1-0.3-0.2-0.3c-0.1,0-0.1,0-0.2,0c0,0,0,0,0,0c0,0,0,0,0.1,0c0.2,0,0.5,0,0.5,0c0,0,0.4,0,0.5,0
			c0.1,0,0.1,0,0.1,0c0,0,0,0,0,0c0,0-0.1,0-0.1,0c-0.1,0-0.2,0.1-0.2,0.3c0,0.2,0,0.3,0,1.1V25.9z"/>
		<path class="st1" d="M192.5,25c0-0.8,0-1,0-1.1c0-0.2-0.1-0.3-0.2-0.3c0,0-0.1,0-0.2,0c0,0,0,0,0,0c0,0,0,0,0.1,0
			c0.1,0,0.3,0,0.4,0l0.2,0c0.1,0,1.2,0,1.3,0c0.1,0,0.2,0,0.2,0c0,0,0.1,0,0.1,0c0,0,0,0,0,0c0,0,0,0.1,0,0.2c0,0.1,0,0.3,0,0.3
			c0,0,0,0.1,0,0.1c0,0,0,0,0-0.1c0,0,0-0.1,0-0.2c0-0.1-0.2-0.2-0.4-0.2l-0.8,0c0,0,0,0,0,0.1v1.5c0,0,0,0,0,0l0.7,0
			c0.1,0,0.2,0,0.2,0c0.1,0,0.2,0,0.2-0.1c0,0,0-0.1,0.1-0.1c0,0,0,0,0,0c0,0,0,0.1,0,0.3c0,0.1,0,0.3,0,0.4c0,0,0,0.1,0,0.1
			c0,0,0,0,0,0c0-0.1,0-0.1,0-0.2c0-0.1-0.1-0.2-0.3-0.2c-0.1,0-0.7,0-0.8,0c0,0,0,0,0,0v0.4c0,0.5,0,0.9,0,1.1c0,0.2,0,0.3,0.2,0.3
			c0.1,0,0.2,0,0.2,0c0,0,0,0,0,0c0,0,0,0-0.1,0c-0.3,0-0.6,0-0.6,0c0,0-0.4,0-0.5,0c-0.1,0-0.1,0-0.1,0c0,0,0,0,0,0
			c0,0,0.1,0,0.2,0c0.1,0,0.1-0.1,0.2-0.3c0-0.2,0-0.6,0-1.1V25z"/>
		<path class="st1" d="M196,25.9c0,0.5,0,0.9,0,1.1c0,0.2,0,0.3,0.2,0.3c0.1,0,0.2,0,0.2,0c0,0,0,0,0,0c0,0,0,0-0.1,0
			c-0.3,0-0.6,0-0.6,0c0,0-0.4,0-0.5,0c-0.1,0-0.1,0-0.1,0c0,0,0,0,0,0c0,0,0.1,0,0.2,0c0.1,0,0.1-0.1,0.2-0.3c0-0.2,0-0.6,0-1.1V25
			c0-0.8,0-1,0-1.1c0-0.2-0.1-0.3-0.2-0.3c-0.1,0-0.1,0-0.2,0c0,0,0,0,0,0c0,0,0,0,0.1,0c0.2,0,0.5,0,0.5,0c0,0,0.4,0,0.5,0
			c0.1,0,0.1,0,0.1,0c0,0,0,0,0,0c0,0-0.1,0-0.1,0c-0.1,0-0.2,0.1-0.2,0.3c0,0.2,0,0.3,0,1.1V25.9z"/>
		<path class="st1" d="M197.9,26.9c-0.5-0.5-0.6-1.1-0.6-1.6c0-0.4,0.1-1,0.6-1.4c0.3-0.3,0.8-0.6,1.6-0.6c0.2,0,0.5,0,0.8,0.1
			c0.2,0,0.4,0.1,0.5,0.1c0.1,0,0.1,0,0.1,0.1c0,0,0,0.1,0,0.3c0,0.2,0,0.5,0,0.5c0,0.1,0,0.1,0,0.1c0,0,0,0,0-0.1
			c0-0.2-0.1-0.4-0.2-0.5c-0.2-0.2-0.6-0.3-1.1-0.3c-0.7,0-1,0.2-1.2,0.4c-0.4,0.4-0.5,0.8-0.5,1.4c0,1,0.8,1.9,1.9,1.9
			c0.4,0,0.7,0,0.9-0.3c0.1-0.1,0.2-0.3,0.2-0.4c0-0.1,0-0.1,0.1-0.1c0,0,0,0,0,0.1c0,0-0.1,0.5-0.1,0.7c0,0.1,0,0.1-0.1,0.2
			c-0.2,0.1-0.6,0.1-0.9,0.1C198.9,27.5,198.4,27.3,197.9,26.9z"/>
		<path class="st1" d="M202.2,25c0-0.8,0-1,0-1.1c0-0.2-0.1-0.3-0.2-0.3c0,0-0.1,0-0.2,0c0,0,0,0,0,0c0,0,0,0,0.1,0
			c0.1,0,0.3,0,0.4,0l0.2,0c0,0,1.1,0,1.2,0c0.1,0,0.2,0,0.2,0c0,0,0,0,0.1,0c0,0,0,0,0,0c0,0,0,0.1,0,0.2c0,0.1,0,0.3,0,0.3
			c0,0,0,0.1,0,0.1c0,0,0,0,0-0.1c0,0,0-0.1,0-0.2c0-0.1-0.1-0.1-0.4-0.2c-0.1,0-0.7,0-0.7,0c0,0,0,0,0,0.1v1.5c0,0,0,0.1,0,0.1
			c0.1,0,0.7,0,0.8,0c0.1,0,0.2,0,0.2-0.1c0,0,0.1-0.1,0.1-0.1c0,0,0,0,0,0c0,0,0,0.1,0,0.3c0,0.1,0,0.3,0,0.3c0,0,0,0.1,0,0.1
			c0,0,0,0,0,0c0-0.1,0-0.1,0-0.2c0-0.1-0.1-0.2-0.3-0.2c-0.1,0-0.7,0-0.8,0c0,0,0,0,0,0v0.5c0,0.2,0,0.8,0,0.9
			c0,0.4,0.1,0.4,0.6,0.4c0.1,0,0.4,0,0.5-0.1c0.1-0.1,0.2-0.2,0.2-0.4c0-0.1,0-0.1,0-0.1c0,0,0,0,0,0.1c0,0,0,0.4-0.1,0.5
			c0,0.1-0.1,0.1-0.3,0.1c-0.4,0-0.7,0-0.9,0c-0.2,0-0.3,0-0.4,0c0,0-0.1,0-0.2,0c-0.1,0-0.2,0-0.3,0c-0.1,0-0.1,0-0.1,0
			c0,0,0,0,0,0c0,0,0.1,0,0.2,0c0.1,0,0.1-0.1,0.2-0.3c0-0.2,0-0.6,0-1.1V25z"/>
		<path class="st1" d="M205.5,26.7c0,0.4,0.1,0.6,0.2,0.6c0.1,0,0.2,0,0.3,0c0,0,0,0,0,0c0,0,0,0-0.1,0c-0.3,0-0.5,0-0.6,0
			c0,0-0.3,0-0.5,0c-0.1,0-0.1,0-0.1,0c0,0,0,0,0,0c0,0,0.1,0,0.2,0c0.1,0,0.2-0.2,0.2-0.7l0-3c0-0.2,0-0.3,0.1-0.3
			c0,0,0.1,0.1,0.2,0.2c0.1,0.1,0.9,0.9,1.7,1.8c0.5,0.6,1.1,1.2,1.3,1.4l-0.1-2.7c0-0.3,0-0.5-0.2-0.5c-0.1,0-0.2,0-0.3,0
			c0,0,0,0,0,0c0,0,0,0,0.1,0c0.2,0,0.5,0,0.5,0c0.1,0,0.2,0,0.4,0c0.1,0,0.1,0,0.1,0c0,0,0,0-0.1,0c0,0-0.1,0-0.1,0
			c-0.2,0-0.2,0.2-0.2,0.5l0,3.1c0,0.3,0,0.4,0,0.4c0,0-0.1-0.1-0.4-0.3c-0.1-0.1-0.8-0.8-1.4-1.4c-0.6-0.7-1.2-1.3-1.4-1.5
			L205.5,26.7z"/>
		<path class="st1" d="M211.5,25.9c0,0.5,0,0.9,0,1.1c0,0.2,0,0.3,0.2,0.3c0.1,0,0.2,0,0.2,0c0,0,0,0,0,0c0,0,0,0-0.1,0
			c-0.3,0-0.6,0-0.6,0c0,0-0.4,0-0.5,0c-0.1,0-0.1,0-0.1,0c0,0,0,0,0,0c0,0,0.1,0,0.2,0c0.1,0,0.1-0.1,0.2-0.3c0-0.2,0-0.6,0-1.1
			v-2.2l-0.8,0c-0.3,0-0.5,0-0.5,0.2c-0.1,0.1-0.1,0.1-0.1,0.2c0,0,0,0.1-0.1,0.1c0,0,0,0,0,0c0-0.1,0.1-0.5,0.1-0.5
			c0,0,0-0.1,0.1-0.1c0,0,0.1,0.1,0.2,0.1c0.2,0,0.4,0,0.4,0h2c0.2,0,0.3,0,0.4,0c0.1,0,0.1,0,0.1,0c0,0,0,0,0,0.1
			c0,0.2,0,0.5,0,0.6c0,0,0,0.1,0,0.1c0,0,0,0,0-0.1l0-0.1c0-0.2-0.1-0.3-0.6-0.3l-0.7,0V25.9z"/>
		<path class="st1" d="M215.7,25c0-0.8,0-1,0-1.1c0-0.2-0.1-0.3-0.2-0.3c0,0-0.1,0-0.2,0c0,0,0,0,0,0c0,0,0,0,0.1,0
			c0.2,0,0.6,0,0.6,0c0.1,0,0.4,0,0.7,0c0.7,0,0.9,0.2,1,0.3c0.1,0.1,0.3,0.3,0.3,0.6c0,0.7-0.5,1.3-1.3,1.3c0,0-0.1,0-0.1,0
			c0,0-0.1,0-0.1,0c0,0,0,0,0.1,0c0.5,0,0.9-0.4,0.9-0.9c0-0.2,0-0.5-0.3-0.8c-0.3-0.3-0.6-0.3-0.7-0.3c-0.1,0-0.2,0-0.2,0
			c0,0,0,0,0,0.1v2.2c0,0.5,0,0.9,0,1.1c0,0.2,0,0.3,0.2,0.3c0.1,0,0.2,0,0.2,0c0,0,0,0,0,0c0,0,0,0-0.1,0c-0.3,0-0.6,0-0.6,0
			c0,0-0.3,0-0.5,0c-0.1,0-0.1,0-0.1,0c0,0,0,0,0,0c0,0,0.1,0,0.2,0c0.1,0,0.1-0.1,0.2-0.3c0-0.2,0-0.6,0-1.1V25z"/>
		<path class="st1" d="M219.1,25c0-0.8,0-1,0-1.1c0-0.2-0.1-0.3-0.2-0.3c0,0-0.1,0-0.2,0c0,0,0,0,0,0c0,0,0,0,0.1,0
			c0.1,0,0.3,0,0.4,0l0.2,0c0,0,1.1,0,1.2,0c0.1,0,0.2,0,0.2,0c0,0,0,0,0.1,0c0,0,0,0,0,0c0,0,0,0.1,0,0.2c0,0.1,0,0.3,0,0.3
			c0,0,0,0.1,0,0.1c0,0,0,0,0-0.1c0,0,0-0.1,0-0.2c0-0.1-0.1-0.1-0.4-0.2c-0.1,0-0.7,0-0.7,0c0,0,0,0,0,0.1v1.5c0,0,0,0.1,0,0.1
			c0.1,0,0.7,0,0.8,0c0.1,0,0.2,0,0.2-0.1c0,0,0.1-0.1,0.1-0.1c0,0,0,0,0,0c0,0,0,0.1,0,0.3c0,0.1,0,0.3,0,0.3c0,0,0,0.1,0,0.1
			c0,0,0,0,0,0c0-0.1,0-0.1,0-0.2c0-0.1-0.1-0.2-0.3-0.2c-0.1,0-0.7,0-0.8,0c0,0,0,0,0,0v0.5c0,0.2,0,0.8,0,0.9
			c0,0.4,0.1,0.4,0.6,0.4c0.1,0,0.4,0,0.5-0.1c0.1-0.1,0.2-0.2,0.2-0.4c0-0.1,0-0.1,0-0.1c0,0,0,0,0,0.1c0,0,0,0.4-0.1,0.5
			c0,0.1-0.1,0.1-0.3,0.1c-0.4,0-0.7,0-0.9,0c-0.2,0-0.3,0-0.4,0c0,0-0.1,0-0.2,0c-0.1,0-0.2,0-0.3,0c-0.1,0-0.1,0-0.1,0
			c0,0,0,0,0,0c0,0,0.1,0,0.2,0c0.1,0,0.1-0.1,0.2-0.3c0-0.2,0-0.6,0-1.1V25z"/>
		<path class="st1" d="M223.1,23.6c0.1-0.2,0.1-0.2,0.1-0.2c0,0,0.1,0,0.1,0.2c0.1,0.2,0.9,2.4,1.2,3.2c0.2,0.5,0.3,0.6,0.5,0.6
			c0.1,0,0.2,0,0.2,0c0,0,0.1,0,0.1,0c0,0,0,0-0.1,0c-0.1,0-0.5,0-0.8,0c-0.1,0-0.2,0-0.2,0c0,0,0,0,0,0c0,0,0.1-0.1,0-0.1l-0.5-1.3
			c0,0,0,0,0,0h-1.1c0,0,0,0-0.1,0l-0.3,0.9c0,0.1-0.1,0.3-0.1,0.4c0,0.1,0.1,0.2,0.2,0.2h0.1c0,0,0.1,0,0.1,0c0,0,0,0-0.1,0
			c-0.1,0-0.4,0-0.4,0c-0.1,0-0.3,0-0.6,0c-0.1,0-0.1,0-0.1,0c0,0,0,0,0,0c0,0,0.1,0,0.2,0c0.2,0,0.3-0.2,0.4-0.5L223.1,23.6z
			 M223.6,25.7C223.7,25.7,223.7,25.7,223.6,25.7l-0.5-1.5c0-0.1-0.1-0.1-0.1,0l-0.5,1.4c0,0,0,0,0,0H223.6z"/>
		<path class="st1" d="M226,25c0-0.8,0-1,0-1.1c0-0.2-0.1-0.3-0.2-0.3c0,0-0.1,0-0.2,0c0,0,0,0,0,0c0,0,0,0,0.1,0c0.2,0,0.6,0,0.6,0
			c0.1,0,0.5,0,0.6,0c0.3,0,0.7,0,1,0.2c0.1,0.1,0.4,0.4,0.4,0.7c0,0.4-0.2,0.8-0.6,1.2c0.4,0.6,0.8,1,1.1,1.4
			c0.3,0.3,0.5,0.4,0.6,0.4c0.1,0,0.2,0,0.2,0c0,0,0,0,0,0c0,0,0,0-0.1,0h-0.4c-0.3,0-0.4,0-0.6-0.1c-0.2-0.1-0.4-0.4-0.7-0.8
			c-0.2-0.3-0.5-0.6-0.6-0.8c0,0,0,0-0.1,0l-0.6,0c0,0,0,0,0,0v0.1c0,0.5,0,0.9,0,1.1c0,0.2,0,0.3,0.2,0.3c0.1,0,0.2,0,0.2,0
			c0,0,0,0,0,0c0,0,0,0-0.1,0c-0.3,0-0.6,0-0.6,0c0,0-0.3,0-0.5,0c-0.1,0-0.1,0-0.1,0c0,0,0,0,0,0c0,0,0.1,0,0.2,0
			c0.1,0,0.1-0.1,0.2-0.3c0-0.2,0-0.6,0-1.1V25z M226.4,25.4C226.4,25.5,226.5,25.5,226.4,25.4c0.1,0.1,0.4,0.1,0.6,0.1
			c0.1,0,0.3,0,0.4-0.1c0.2-0.1,0.3-0.4,0.3-0.8c0-0.7-0.3-1.1-0.9-1.1c-0.2,0-0.3,0-0.4,0c0,0,0,0,0,0.1V25.4z"/>
		<path class="st1" d="M230.4,25.9c0,0.8,0,1.1,0.1,1.2c0.1,0.1,0.2,0.1,0.6,0.1c0.3,0,0.5,0,0.6-0.2c0.1-0.1,0.1-0.2,0.1-0.3
			c0,0,0-0.1,0-0.1c0,0,0,0,0,0.1s0,0.4-0.1,0.5c0,0.1-0.1,0.1-0.3,0.1c-0.4,0-0.7,0-0.9,0c-0.2,0-0.4,0-0.5,0c0,0-0.1,0-0.2,0
			c-0.1,0-0.2,0-0.3,0c-0.1,0-0.1,0-0.1,0c0,0,0,0,0,0c0,0,0.1,0,0.2,0c0.1,0,0.1-0.1,0.2-0.3c0-0.2,0-0.6,0-1.1V25c0-0.8,0-1,0-1.1
			c0-0.2-0.1-0.3-0.2-0.3c0,0-0.1,0-0.2,0c0,0,0,0,0,0c0,0,0,0,0.1,0c0.2,0,0.6,0,0.6,0c0,0,0.4,0,0.6,0c0.1,0,0.1,0,0.1,0
			c0,0,0,0,0,0c0,0-0.1,0-0.2,0c-0.2,0-0.2,0.1-0.2,0.3c0,0.2,0,0.3,0,1.1V25.9z"/>
		<path class="st1" d="M232.8,27.4c-0.1,0-0.1-0.1-0.1-0.2c0-0.3,0-0.5,0-0.6c0-0.1,0-0.1,0-0.1c0,0,0,0,0,0.1c0,0,0,0.1,0,0.2
			c0.1,0.4,0.4,0.5,0.8,0.5c0.5,0,0.8-0.4,0.8-0.7c0-0.4-0.2-0.6-0.6-0.9l-0.2-0.2c-0.6-0.5-0.7-0.8-0.7-1.1c0-0.6,0.4-0.9,1.1-0.9
			c0.2,0,0.4,0,0.5,0.1c0.1,0,0.1,0,0.2,0c0,0,0.1,0,0.1,0c0,0,0,0.2,0,0.6c0,0.1,0,0.1,0,0.1c0,0,0,0,0-0.1c0-0.1,0-0.2-0.1-0.3
			c0-0.1-0.2-0.3-0.7-0.3c-0.4,0-0.6,0.2-0.6,0.6c0,0.3,0.1,0.5,0.6,0.9l0.1,0.1c0.6,0.5,0.8,0.8,0.8,1.2c0,0.2-0.1,0.6-0.4,0.9
			c-0.2,0.2-0.5,0.2-0.8,0.2C233.2,27.5,233,27.5,232.8,27.4z"/>
		<path class="st1" d="M238.3,25.9c0,0.5,0,0.9,0,1.1c0,0.2,0,0.3,0.2,0.3c0.1,0,0.2,0,0.2,0c0,0,0,0,0,0c0,0,0,0-0.1,0
			c-0.3,0-0.6,0-0.6,0c0,0-0.4,0-0.5,0c-0.1,0-0.1,0-0.1,0c0,0,0,0,0,0c0,0,0.1,0,0.2,0c0.1,0,0.1-0.1,0.2-0.3c0-0.2,0-0.6,0-1.1V25
			c0-0.8,0-1,0-1.1c0-0.2-0.1-0.3-0.2-0.3c-0.1,0-0.1,0-0.2,0c0,0,0,0,0,0c0,0,0,0,0.1,0c0.2,0,0.5,0,0.5,0c0,0,0.4,0,0.5,0
			c0.1,0,0.1,0,0.1,0c0,0,0,0,0,0c0,0-0.1,0-0.1,0c-0.1,0-0.2,0.1-0.2,0.3c0,0.2,0,0.3,0,1.1V25.9z"/>
		<path class="st1" d="M240.3,26.7c0,0.4,0.1,0.6,0.2,0.6c0.1,0,0.2,0,0.3,0c0,0,0,0,0,0c0,0,0,0-0.1,0c-0.3,0-0.5,0-0.6,0
			c0,0-0.3,0-0.5,0c-0.1,0-0.1,0-0.1,0c0,0,0,0,0,0c0,0,0.1,0,0.2,0c0.1,0,0.2-0.2,0.2-0.7l0-3c0-0.2,0-0.3,0.1-0.3
			c0,0,0.1,0.1,0.2,0.2c0.1,0.1,0.9,0.9,1.7,1.8c0.5,0.6,1.1,1.2,1.3,1.4l-0.1-2.7c0-0.3,0-0.5-0.2-0.5c-0.1,0-0.2,0-0.3,0
			c0,0,0,0,0,0c0,0,0,0,0.1,0c0.2,0,0.5,0,0.5,0c0.1,0,0.2,0,0.4,0c0.1,0,0.1,0,0.1,0c0,0,0,0-0.1,0c0,0-0.1,0-0.1,0
			c-0.2,0-0.2,0.2-0.2,0.5l0,3.1c0,0.3,0,0.4,0,0.4c0,0-0.1-0.1-0.4-0.3c-0.1-0.1-0.8-0.8-1.4-1.4c-0.6-0.7-1.2-1.3-1.4-1.5
			L240.3,26.7z"/>
		<path class="st1" d="M248,25.9c0,0.5,0,0.9,0,1.1c0,0.2,0,0.3,0.2,0.3c0.1,0,0.2,0,0.2,0c0,0,0,0,0,0c0,0,0,0-0.1,0
			c-0.3,0-0.6,0-0.6,0c0,0-0.4,0-0.5,0c-0.1,0-0.1,0-0.1,0c0,0,0,0,0,0c0,0,0.1,0,0.2,0c0.1,0,0.1-0.1,0.2-0.3c0-0.2,0-0.6,0-1.1
			v-2.2l-0.8,0c-0.3,0-0.5,0-0.5,0.2c-0.1,0.1-0.1,0.1-0.1,0.2c0,0,0,0.1-0.1,0.1c0,0,0,0,0,0c0-0.1,0.1-0.5,0.1-0.5
			c0,0,0-0.1,0.1-0.1c0,0,0.1,0.1,0.2,0.1c0.2,0,0.4,0,0.4,0h2c0.2,0,0.3,0,0.4,0c0.1,0,0.1,0,0.1,0c0,0,0,0,0,0.1
			c0,0.2,0,0.5,0,0.6c0,0,0,0.1,0,0.1c0,0,0,0,0-0.1l0-0.1c0-0.2-0.1-0.3-0.6-0.3l-0.7,0V25.9z"/>
		<path class="st1" d="M253.7,25.9c0,0.5,0,0.9,0,1.1c0,0.2,0,0.3,0.2,0.3c0.1,0,0.2,0,0.2,0c0,0,0,0,0,0c0,0,0,0-0.1,0
			c-0.3,0-0.6,0-0.6,0c0,0-0.4,0-0.5,0c-0.1,0-0.1,0-0.1,0c0,0,0,0,0,0c0,0,0.1,0,0.2,0c0.1,0,0.1-0.1,0.2-0.3c0-0.2,0-0.6,0-1.1
			v-0.6c0,0,0,0,0,0H251c0,0,0,0,0,0v0.6c0,0.5,0,0.9,0,1.1c0,0.2,0,0.3,0.2,0.3c0.1,0,0.2,0,0.2,0c0,0,0,0,0,0c0,0,0,0-0.1,0
			c-0.3,0-0.6,0-0.6,0c0,0-0.4,0-0.5,0c-0.1,0-0.1,0-0.1,0c0,0,0,0,0,0c0,0,0.1,0,0.2,0c0.1,0,0.1-0.1,0.2-0.3c0-0.2,0-0.6,0-1.1V25
			c0-0.8,0-1,0-1.1c0-0.2-0.1-0.3-0.2-0.3c0,0-0.1,0-0.2,0c0,0,0,0,0,0c0,0,0,0,0.1,0c0.2,0,0.6,0,0.6,0c0,0,0.4,0,0.5,0
			c0.1,0,0.1,0,0.1,0c0,0,0,0,0,0c0,0-0.1,0-0.1,0c-0.1,0-0.2,0.1-0.2,0.3c0,0.2,0,0.3,0,1.1v0.1c0,0,0,0,0,0h2.2c0,0,0,0,0,0V25
			c0-0.8,0-1,0-1.1c0-0.2-0.1-0.3-0.2-0.3c0,0-0.1,0-0.2,0c0,0,0,0,0,0c0,0,0,0,0.1,0c0.2,0,0.6,0,0.6,0c0,0,0.4,0,0.5,0
			c0.1,0,0.1,0,0.1,0c0,0,0,0,0,0c0,0-0.1,0-0.1,0c-0.1,0-0.2,0.1-0.2,0.3c0,0.2,0,0.3,0,1.1V25.9z"/>
		<path class="st1" d="M255.6,25c0-0.8,0-1,0-1.1c0-0.2-0.1-0.3-0.2-0.3c0,0-0.1,0-0.2,0c0,0,0,0,0,0c0,0,0,0,0.1,0
			c0.1,0,0.3,0,0.4,0l0.2,0c0,0,1.1,0,1.2,0c0.1,0,0.2,0,0.2,0c0,0,0,0,0.1,0c0,0,0,0,0,0c0,0,0,0.1,0,0.2c0,0.1,0,0.3,0,0.3
			c0,0,0,0.1,0,0.1c0,0,0,0,0-0.1c0,0,0-0.1,0-0.2c0-0.1-0.1-0.1-0.4-0.2c-0.1,0-0.7,0-0.7,0c0,0,0,0,0,0.1v1.5c0,0,0,0.1,0,0.1
			c0.1,0,0.7,0,0.8,0c0.1,0,0.2,0,0.2-0.1c0,0,0.1-0.1,0.1-0.1c0,0,0,0,0,0c0,0,0,0.1,0,0.3c0,0.1,0,0.3,0,0.3c0,0,0,0.1,0,0.1
			c0,0,0,0,0,0c0-0.1,0-0.1,0-0.2c0-0.1-0.1-0.2-0.3-0.2c-0.1,0-0.7,0-0.8,0c0,0,0,0,0,0v0.5c0,0.2,0,0.8,0,0.9
			c0,0.4,0.1,0.4,0.6,0.4c0.1,0,0.4,0,0.5-0.1c0.1-0.1,0.2-0.2,0.2-0.4c0-0.1,0-0.1,0-0.1c0,0,0,0,0,0.1c0,0,0,0.4-0.1,0.5
			c0,0.1-0.1,0.1-0.3,0.1c-0.4,0-0.7,0-0.9,0c-0.2,0-0.3,0-0.4,0c0,0-0.1,0-0.2,0c-0.1,0-0.2,0-0.3,0c-0.1,0-0.1,0-0.1,0
			c0,0,0,0,0,0c0,0,0.1,0,0.2,0c0.1,0,0.1-0.1,0.2-0.3c0-0.2,0-0.6,0-1.1V25z"/>
		<path class="st1" d="M263.8,26.7L263.8,26.7c0.2-0.5,0.6-2,0.8-2.7c0.1-0.2,0.1-0.3,0.1-0.3c0-0.1-0.1-0.2-0.3-0.2c0,0,0,0,0,0
			c0,0,0,0,0.1,0c0.3,0,0.5,0,0.5,0c0,0,0.3,0,0.4,0c0,0,0.1,0,0.1,0c0,0,0,0,0,0c0,0-0.1,0-0.2,0c-0.2,0.1-0.2,0.3-0.3,0.6
			c-0.2,0.7-0.8,2.3-1,2.9c-0.1,0.4-0.2,0.5-0.2,0.5c-0.1,0-0.1-0.1-0.2-0.3l-1-2.9h0c-0.2,0.5-0.9,2.4-1.1,2.9
			c-0.1,0.2-0.1,0.3-0.2,0.3c-0.1,0-0.1-0.1-0.2-0.4l-0.9-3.1c-0.1-0.3-0.2-0.4-0.3-0.4c-0.1,0-0.2,0-0.2,0c0,0,0,0,0,0
			c0,0,0,0,0.1,0c0.3,0,0.6,0,0.6,0c0,0,0.3,0,0.5,0c0.1,0,0.1,0,0.1,0c0,0,0,0-0.1,0c0,0-0.1,0-0.2,0c0,0-0.1,0.1-0.1,0.1
			c0,0.1,0,0.3,0.1,0.5c0.1,0.3,0.6,2.3,0.7,2.6h0l1.1-3c0.1-0.2,0.1-0.2,0.1-0.2c0,0,0.1,0.1,0.1,0.2L263.8,26.7z"/>
		<path class="st1" d="M267.8,23.4c1.2,0,2.1,0.7,2.1,2c0,1.2-0.8,2.2-2.1,2.2c-1.4,0-2-1.1-2-2.1C265.7,24.6,266.3,23.4,267.8,23.4
			z M267.9,27.3c0.5,0,1.5-0.3,1.5-1.8c0-1.3-0.8-1.9-1.6-1.9c-0.9,0-1.5,0.6-1.5,1.7C266.2,26.5,267,27.3,267.9,27.3z"/>
		<path class="st1" d="M271.1,25c0-0.8,0-1,0-1.1c0-0.2-0.1-0.3-0.2-0.3c0,0-0.1,0-0.2,0c0,0,0,0,0,0c0,0,0,0,0.1,0
			c0.2,0,0.6,0,0.6,0c0.1,0,0.5,0,0.6,0c0.3,0,0.7,0,1,0.2c0.1,0.1,0.4,0.4,0.4,0.7c0,0.4-0.2,0.8-0.6,1.2c0.4,0.6,0.8,1,1.1,1.4
			c0.3,0.3,0.5,0.4,0.6,0.4c0.1,0,0.2,0,0.2,0c0,0,0,0,0,0c0,0,0,0-0.1,0h-0.4c-0.3,0-0.4,0-0.6-0.1c-0.2-0.1-0.4-0.4-0.7-0.8
			c-0.2-0.3-0.5-0.6-0.6-0.8c0,0,0,0-0.1,0l-0.6,0c0,0,0,0,0,0v0.1c0,0.5,0,0.9,0,1.1c0,0.2,0,0.3,0.2,0.3c0.1,0,0.2,0,0.2,0
			c0,0,0,0,0,0c0,0,0,0-0.1,0c-0.3,0-0.6,0-0.6,0c0,0-0.3,0-0.5,0c-0.1,0-0.1,0-0.1,0c0,0,0,0,0,0c0,0,0.1,0,0.2,0
			c0.1,0,0.1-0.1,0.2-0.3c0-0.2,0-0.6,0-1.1V25z M271.6,25.4C271.6,25.5,271.6,25.5,271.6,25.4c0.1,0.1,0.4,0.1,0.6,0.1
			c0.1,0,0.3,0,0.4-0.1c0.2-0.1,0.3-0.4,0.3-0.8c0-0.7-0.3-1.1-0.9-1.1c-0.2,0-0.3,0-0.4,0c0,0,0,0,0,0.1V25.4z"/>
		<path class="st1" d="M275.6,25.9c0,0.8,0,1.1,0.1,1.2c0.1,0.1,0.2,0.1,0.6,0.1c0.3,0,0.5,0,0.6-0.2c0.1-0.1,0.1-0.2,0.1-0.3
			c0,0,0-0.1,0-0.1c0,0,0,0,0,0.1s0,0.4-0.1,0.5c0,0.1-0.1,0.1-0.3,0.1c-0.4,0-0.7,0-0.9,0c-0.2,0-0.4,0-0.5,0c0,0-0.1,0-0.2,0
			c-0.1,0-0.2,0-0.3,0c-0.1,0-0.1,0-0.1,0c0,0,0,0,0,0c0,0,0.1,0,0.2,0c0.1,0,0.1-0.1,0.2-0.3c0-0.2,0-0.6,0-1.1V25c0-0.8,0-1,0-1.1
			c0-0.2-0.1-0.3-0.2-0.3c0,0-0.1,0-0.2,0c0,0,0,0,0,0c0,0,0,0,0.1,0c0.2,0,0.6,0,0.6,0c0,0,0.4,0,0.6,0c0.1,0,0.1,0,0.1,0
			c0,0,0,0,0,0c0,0-0.1,0-0.2,0c-0.2,0-0.2,0.1-0.2,0.3c0,0.2,0,0.3,0,1.1V25.9z"/>
		<path class="st1" d="M278.2,25c0-0.8,0-1,0-1.1c0-0.2-0.1-0.3-0.2-0.3c0,0-0.1,0-0.2,0c0,0,0,0,0,0c0,0,0,0,0.1,0
			c0.2,0,0.6,0,0.6,0c0.1,0,0.4,0,0.7,0c0.5,0,1.5,0,2.1,0.6c0.3,0.3,0.5,0.7,0.5,1.3c0,0.7-0.3,1.2-0.6,1.5
			c-0.2,0.2-0.7,0.6-1.6,0.6c-0.2,0-0.5,0-0.7,0c-0.2,0-0.4,0-0.4,0c0,0-0.1,0-0.2,0c-0.1,0-0.2,0-0.3,0c-0.1,0-0.1,0-0.1,0
			c0,0,0,0,0,0c0,0,0.1,0,0.2,0c0.1,0,0.1-0.1,0.2-0.3c0-0.2,0-0.6,0-1.1V25z M278.7,25.5c0,0.6,0,1,0,1.1c0,0.1,0,0.3,0.1,0.4
			c0.1,0.1,0.3,0.2,0.9,0.2c0.5,0,0.9-0.2,1.3-0.5c0.3-0.3,0.4-0.8,0.4-1.3c0-0.7-0.3-1.1-0.5-1.3c-0.5-0.5-1.1-0.6-1.7-0.6
			c-0.1,0-0.3,0-0.3,0c0,0-0.1,0-0.1,0.1c0,0.2,0,0.7,0,1.1V25.5z"/>
	</g>
</g>
</svg>
