<?xml version="1.0" encoding="utf-8"?>
<!-- Generator: Adobe Illustrator 19.2.0, SVG Export Plug-In . SVG Version: 6.00 Build 0)  -->
<svg version="1.1" id="Layer_1" xmlns="http://www.w3.org/2000/svg" xmlns:xlink="http://www.w3.org/1999/xlink" x="0px" y="0px"
	 viewBox="100 -50 220 120" style="enable-background:new 100 -50 220 120;" xml:space="preserve">
<style type="text/css">
	.st0{fill:#EEEEEE;}
	.st1{fill:#808080;}
</style>
<g>
	<g>
		<rect x="100" y="-50" class="st0" width="220" height="120"/>
	</g>
	<g>
		<path class="st1" d="M134.1,5.2v-18.1h-2.5v-0.6h5.1c2.7,0,4.4,0,6,0.5c2.7,0.8,3.5,2.7,3.5,4.1c0,2.9-2.9,4.3-5,4.5
			c3.1,0.2,5.8,1.8,5.8,4.9c0,1.6-0.7,2.9-2,3.9c-1.8,1.3-3.9,1.3-6.6,1.3h-6.6V5.2H134.1z M137-4.5h0.7c1,0,2.3,0,2.9-0.2
			c1.7-0.5,2.3-1.9,2.3-4c0-2.1-0.7-3.1-1.4-3.6c-0.9-0.6-1.9-0.6-3.7-0.6H137V-4.5z M137,5.2h1c1.9,0,2.6,0,3.2-0.2
			c2.1-0.7,2.2-3.3,2.2-4.3c0-1.8-0.3-3.2-1.5-4c-0.9-0.6-1.9-0.7-4.6-0.7H137V5.2z"/>
		<path class="st1" d="M151.6-5.4V5.2h1.8v0.6h-6.2V5.2h1.9V-4.9h-1.9v-0.6H151.6z M150.2-13c0.9,0,1.6,0.7,1.6,1.6
			c0,0.9-0.7,1.6-1.6,1.6c-0.9,0-1.6-0.7-1.6-1.6C148.6-12.3,149.4-13,150.2-13z"/>
		<path class="st1" d="M163.9,5.8H154l6.9-10.7h-1.2c-2.1,0-3.1,0.1-3.9,2.6c-0.1,0.3-0.3,1.1-0.4,1.2H155v-4.4h9.3l-7,10.7h2
			c1.9,0,2.7-0.1,3.4-1.3c0.5-0.9,0.8-2.4,1-2.9h0.3V5.8z"/>
		<path class="st1" d="M175,5.8h-9.9L172-4.9h-1.2c-2.1,0-3.1,0.1-3.9,2.6c-0.1,0.3-0.3,1.1-0.4,1.2h-0.4v-4.4h9.3l-7,10.7h2
			c1.9,0,2.7-0.1,3.4-1.3c0.5-0.9,0.8-2.4,1-2.9h0.3V5.8z"/>
		<path class="st1" d="M180.7-5.4V5.2h1.8v0.6h-6.2V5.2h1.9V-4.9h-1.9v-0.6H180.7z M179.4-13c0.9,0,1.6,0.7,1.6,1.6
			c0,0.9-0.7,1.6-1.6,1.6c-0.9,0-1.6-0.7-1.6-1.6C177.7-12.3,178.5-13,179.4-13z"/>
		<path class="st1" d="M197.4,5.8l-1-1.6c-0.5,0.5-2,1.9-4.9,1.9c-3.9,0-4.8-2.9-4.8-4.3c0-2.9,3-4.5,4.7-5.3l-1.1-1.8
			c-0.3-0.6-0.7-1.3-0.7-2c0-1.6,1.6-2.8,4.1-2.8c2.6,0,3.8,1.3,3.8,2.6c0,2-2.4,3.1-3.5,3.5l3.8,5.8c1-1,1.6-3.4,1.6-5.2v-0.6h2.9
			v0.6h-2.3c-0.1,1-0.2,4-1.9,5.8l1.9,3h2.1v0.6H197.4z M191.7-3c-0.6,0.2-1.5,0.9-1.9,1.3c-0.5,0.4-0.7,0.9-0.7,1.6
			c0,0.8,0.4,1.7,0.8,2.5c0.8,1.6,1.8,2.7,3.4,2.7c0.4,0,0.7-0.1,1-0.2c0.6-0.2,1.3-0.7,1.8-1.2L191.7-3z M193.6-4.5
			c1.2-0.4,1.8-1.6,1.8-3.1c0-1.6-0.5-2-1.8-2c-0.7,0-2,0.1-2,1.3c0,0.7,0.4,1.3,0.8,2L193.6-4.5z"/>
		<path class="st1" d="M212.1-3.5v8.7h2.5v0.6h-7.9V5.2h2.4v-18.1h-2.5v-0.5h7.3c1.6,0,3,0,4.2,0.4c2.4,0.7,3.8,2.5,3.8,4.7
			c0,2.5-1.9,3.9-3.5,4.4c-1.4,0.5-3,0.5-4.6,0.5H212.1z M212.1-4.1h2c1.6,0,2.6,0,3.4-0.9c0.6-0.7,0.8-1.6,0.8-3.4
			c0-1.8-0.2-2.5-0.4-2.9c-0.7-1.4-2-1.4-4.5-1.4h-1.3V-4.1z"/>
		<path class="st1" d="M230.9,5.2c-0.3,0.3-0.9,0.9-2,0.9c-0.6,0-1.2-0.2-1.6-0.5c-0.6-0.5-0.7-1.2-0.8-1.7
			c-0.6,1.2-1.8,2.3-3.7,2.3c-1.7,0-3.1-1-3.1-2.7c0-1.7,1.3-2.8,3.1-3.4c1.2-0.4,2.7-0.5,3.7-0.5v-2.7c-0.1-0.8-0.1-2.1-1.9-2.1
			c-1.2,0-2.2,0.7-2.2,1.1c0,0.3,0.6,0.7,0.6,1.3c0,0.6-0.5,1.2-1.3,1.2c-0.7,0-1.2-0.6-1.2-1.3c0-1.3,1.8-2.9,4.5-2.9
			c1.3,0,2.6,0.4,3.3,1.1c0.8,0.8,0.8,1.7,0.8,2.7v5.7c0,0.9,0,1.6,0.6,1.6c0.4,0,0.7-0.3,0.8-0.5L230.9,5.2z M226.5,0.1
			c-2.1,0-4.2,0.7-4.2,2.9c0,1.3,0.8,1.9,1.7,1.9c0.8,0,1.3-0.4,1.5-0.6c0.9-0.8,0.9-1.8,1-3.2V0.1z"/>
		<path class="st1" d="M235.5-5.4v2.6c0.1-0.4,0.3-0.8,0.7-1.4c0.6-0.9,1.5-1.5,2.5-1.5c1,0,1.8,0.7,1.8,1.6c0,0.8-0.6,1.4-1.4,1.4
			c-0.7,0-1.2-0.5-1.3-1.2c-0.1-0.6-0.1-0.7-0.3-0.7c-0.1,0-0.6,0-1.1,1.4c-0.8,1.8-0.8,3.3-0.8,5.1v3.3h1.8v0.6h-6.2V5.2h1.9V-4.9
			h-1.9v-0.6H235.5z"/>
		<path class="st1" d="M241.8-4.9v-0.4c0.2-0.1,0.7-0.4,1.2-1.4c0.8-1.6,0.8-2.7,1-3.3h0.4v4.5h2.9v0.6h-2.9v8.1c0,0.8,0,2,1.3,2
			c1.4,0,1.6-1.1,1.6-1.6h0.6c-0.1,0.7-0.5,2.4-3.1,2.4c-1.3,0-2.4-0.5-2.8-1.6c-0.2-0.5-0.2-1.1-0.2-2.5V-4.9"/>
		<path class="st1" d="M248.2,5.8V5.2h1.8V-4.9h-1.8v-0.6h4.4v1.6c1.4-1.9,3.2-2,3.7-2c1.1,0,2.2,0.4,2.8,1.1c0.4,0.4,0.9,1,0.9,2.9
			v7h1.8v0.6h-6.1V5.2h1.7v-7.3c0-1.1-0.1-1.3-0.1-1.6C257-4.8,256.1-5,255.7-5c-0.6,0-1.2,0.2-1.7,0.7c-1.3,1.1-1.3,2.7-1.3,4.8
			v4.8h1.8v0.6H248.2z"/>
		<path class="st1" d="M264.8-0.7v1.2c0,1.6,0,2.2,0.1,2.7c0.1,0.4,0.4,2.3,2.6,2.3c2.1,0,3.6-1.8,3.9-3.5h0.7c-0.3,2-2,4.1-4.7,4.1
			c-2.7,0-5.6-2.4-5.6-5.9c0-3.1,2.4-6,5.5-6c2.1,0,4.8,1.4,5,5H264.8z M264.8-1.3h4.5v-1.1c0-1-0.1-2.8-2.1-2.8c-0.3,0-1,0-1.6,0.5
			c-0.8,0.6-0.8,1.5-0.8,2.3L264.8-1.3z"/>
		<path class="st1" d="M277.2-5.4v2.6c0.1-0.4,0.3-0.8,0.7-1.4c0.6-0.9,1.5-1.5,2.5-1.5c1,0,1.8,0.7,1.8,1.6c0,0.8-0.6,1.4-1.4,1.4
			c-0.7,0-1.2-0.5-1.3-1.2c-0.1-0.6-0.1-0.7-0.3-0.7c-0.1,0-0.6,0-1.1,1.4c-0.8,1.8-0.8,3.3-0.8,5.1v3.3h1.8v0.6h-6.2V5.2h1.9V-4.9
			h-1.9v-0.6H277.2z"/>
		<path class="st1" d="M282.7,5.8V1.5h0.5l0.4,1.3c0.5,1.6,1.7,2.6,3.3,2.6c1.6,0,2.6-1.1,2.6-2.2c0-1.3-1.3-1.6-2.3-1.8l-0.8-0.1
			c-0.8-0.1-1.5-0.3-2-0.6c-0.9-0.5-1.6-1.6-1.6-2.9c0-1.9,1.4-3.6,3.4-3.6c1.1,0,2.2,0.5,2.8,1.1l0.5-0.9h0.5v3.4h-0.5
			c-0.2-1.6-1.5-2.9-3.2-2.9c-1.5,0-2.4,1.1-2.4,2c0,1.3,1.7,1.4,2.3,1.6l1,0.2c1,0.2,3.5,0.7,3.5,3.7c0,2-1.4,3.8-3.7,3.8
			c-1.4,0-2.4-0.7-3.1-1.2l-0.7,0.9H282.7z"/>
		<path class="st1" d="M134.1,30.1V12h-2.3v-0.6h6.1c1.9,0,3.6,0,5.1,0.5c3.2,1,6,4.2,6,9.1c0,2.7-0.9,5.3-2.8,7.2
			c-2.4,2.5-5,2.5-7.2,2.5h-7.5v-0.6H134.1z M137.2,30h1.5c1.7,0,3.7,0,5.1-1.3c1.6-1.4,1.7-3.8,1.7-8c0-1.4,0-2.8-0.2-4.2
			c-0.1-0.8-0.3-2-1.2-3c-1.3-1.5-2.9-1.5-6.1-1.5h-0.8V30z"/>
		<path class="st1" d="M153.1,24.1v1.2c0,1.6,0,2.2,0.1,2.7c0.1,0.4,0.4,2.3,2.6,2.3c2.1,0,3.6-1.8,3.9-3.5h0.7
			c-0.3,2-2,4.1-4.7,4.1c-2.7,0-5.6-2.4-5.6-5.9c0-3.1,2.4-6,5.5-6c2.1,0,4.8,1.4,5,5H153.1z M153.1,23.6h4.5v-1.1
			c0-1-0.1-2.8-2.1-2.8c-0.3,0-1,0-1.6,0.5c-0.8,0.6-0.8,1.5-0.8,2.3L153.1,23.6z"/>
		<path class="st1" d="M167.4,31h-1L162,20h-1.1v-0.6h6V20h-2.1l1.1,2.7c0.3,0.8,0.6,1.6,0.9,2.4c0.4,0.9,0.8,1.9,1,2.8l3-7.9h-2.2
			v-0.6h4.1V20h-1.1L167.4,31z"/>
		<path class="st1" d="M175.5,24.1v1.2c0,1.6,0,2.2,0.1,2.7c0.1,0.4,0.4,2.3,2.6,2.3c2.1,0,3.6-1.8,3.9-3.5h0.7
			c-0.3,2-2,4.1-4.7,4.1c-2.7,0-5.6-2.4-5.6-5.9c0-3.1,2.4-6,5.5-6c2.1,0,4.8,1.4,5,5H175.5z M175.5,23.6h4.5v-1.1
			c0-1-0.1-2.8-2.1-2.8c-0.3,0-1,0-1.6,0.5c-0.8,0.6-0.8,1.5-0.8,2.3L175.5,23.6z"/>
		<path class="st1" d="M188,11.4v18.7h2.1v0.6h-6.7v-0.6h2V12h-2.1v-0.6H188z"/>
		<path class="st1" d="M196.1,31c-3.1,0-5.9-2.6-5.9-5.9c0-3.4,2.7-6,5.9-6c3,0,5.8,2.5,5.8,5.9C201.9,28.5,199.1,31,196.1,31z
			 M198,20.4c-0.4-0.4-1.1-0.7-1.9-0.7c-0.8,0-1.4,0.2-1.9,0.7c-1,0.8-1,1.8-1,5.3c0,2.1,0,3.2,1,4.1c0.4,0.4,1.1,0.7,1.9,0.7
			c1.2,0,1.8-0.6,1.9-0.7c0.7-0.7,0.8-1.5,0.8-4.6c0-0.7,0-1.5,0-2.2C198.7,22.1,198.7,21.1,198,20.4z"/>
		<path class="st1" d="M206.7,19.4v2c0.7-1.1,1.5-2.3,3.5-2.3c2.6,0,4.8,2.5,4.8,5.7c0,3.2-2.1,6.2-4.9,6.2c-1.8,0-2.9-1.3-3.4-2.5
			v9.3h2.1v0.6h-6.5v-0.6h1.8V20h-1.7v-0.6H206.7z M211.8,21.9c-0.1-1.3-0.6-2.2-1.9-2.2c-1.3,0-3.1,1.4-3.1,5.6
			c0,3.5,1.7,5.1,3.1,5.1c1.8,0,2-2,2-5.5C211.9,24.2,211.9,22.9,211.8,21.9z"/>
		<path class="st1" d="M236.4,30.7h-6.2v-0.6h1.7v-7.5c0-1.3,0-2.7-1.7-2.7c-1,0-1.6,0.5-2,1.1c-0.7,0.9-0.7,1.9-0.7,3.5v5.6h1.7
			v0.6H223v-0.6h1.8v-7.3c0-0.8,0-1.6-0.2-2c-0.1-0.2-0.5-0.8-1.4-0.8c-0.8,0-1.6,0.4-2.1,1.1c-0.6,0.8-0.7,1.8-0.7,3.4v5.6h1.7v0.6
			h-6.2v-0.6h1.9V20h-1.9v-0.6h4.4v1.2c0.4-0.3,1.1-0.8,1.2-0.8c0.8-0.5,1.7-0.7,2.6-0.7c1.4,0,2.6,0.5,3.2,1.7
			c0.5-0.5,1.7-1.7,4-1.7c1.3,0,2.2,0.5,2.6,1c0.6,0.7,0.7,1.6,0.7,2.3v7.7h1.8V30.7z"/>
		<path class="st1" d="M239.8,24.1v1.2c0,1.6,0,2.2,0.1,2.7c0.1,0.4,0.4,2.3,2.6,2.3c2.1,0,3.6-1.8,3.9-3.5h0.7
			c-0.3,2-2,4.1-4.7,4.1c-2.7,0-5.6-2.4-5.6-5.9c0-3.1,2.4-6,5.5-6c2.1,0,4.8,1.4,5,5H239.8z M239.8,23.6h4.5v-1.1
			c0-1-0.1-2.8-2.1-2.8c-0.3,0-1,0-1.6,0.5c-0.8,0.6-0.8,1.5-0.8,2.3L239.8,23.6z"/>
		<path class="st1" d="M248.1,30.7v-0.6h1.8V20h-1.8v-0.6h4.4V21c1.4-1.9,3.2-2,3.7-2c1.1,0,2.2,0.4,2.8,1.1c0.4,0.4,0.9,1,0.9,2.9
			v7h1.8v0.6h-6.1v-0.6h1.7v-7.3c0-1.1-0.1-1.3-0.1-1.6c-0.3-1.1-1.2-1.3-1.6-1.3c-0.6,0-1.2,0.2-1.7,0.7c-1.3,1.1-1.3,2.7-1.3,4.8
			v4.8h1.8v0.6H248.1z"/>
		<path class="st1" d="M262.4,20v-0.4c0.2-0.1,0.7-0.4,1.2-1.4c0.8-1.6,0.8-2.7,1-3.3h0.4v4.5h2.9V20H265v8.1c0,0.8,0,2,1.3,2
			c1.4,0,1.6-1.1,1.6-1.6h0.6c-0.1,0.7-0.5,2.4-3.1,2.4c-1.3,0-2.4-0.5-2.8-1.6c-0.2-0.5-0.2-1.1-0.2-2.5V20"/>
	</g>
</g>
</svg>
