<?xml version="1.0" encoding="utf-8"?>
<!-- Generator: Adobe Illustrator 19.0.1, SVG Export Plug-In . SVG Version: 6.00 Build 0)  -->
<svg version="1.1" id="Layer_1" xmlns="http://www.w3.org/2000/svg" xmlns:xlink="http://www.w3.org/1999/xlink" x="0px" y="0px"
	 viewBox="100 -50 220 120" style="enable-background:new 100 -50 220 120;" xml:space="preserve">
<style type="text/css">
	.st0{fill:#EEEEEE;}
	.st1{fill-rule:evenodd;clip-rule:evenodd;fill:#808080;}
</style>
<rect x="100" y="-50" class="st0" width="220" height="120"/>
<g>
	<path class="st1" d="M278.6,17.3c-0.8,0-1.4,0.6-1.4,1.4c0,0.8,0.6,1.4,1.4,1.4c0.8,0,1.4-0.6,1.4-1.4
		C280,17.9,279.3,17.3,278.6,17.3 M278.6,19.9c-0.7,0-1.2-0.5-1.2-1.2c0-0.7,0.5-1.2,1.2-1.2c0.7,0,1.2,0.5,1.2,1.2
		C279.7,19.4,279.2,19.9,278.6,19.9z"/>
	<path class="st1" d="M279.2,19.3l0-0.3c0-0.2-0.1-0.3-0.2-0.3c0.1-0.1,0.2-0.1,0.2-0.4c0-0.3-0.3-0.4-0.5-0.4h-0.7v1.6h0.2v-0.7
		h0.5c0.3,0,0.3,0.2,0.3,0.3c0,0.1,0,0.3,0,0.4h0.3v0C279.2,19.4,279.2,19.4,279.2,19.3 M278.6,18.6h-0.5v-0.5h0.5
		c0.1,0,0.3,0,0.3,0.3C279,18.6,278.8,18.6,278.6,18.6z"/>
	<path class="st1" d="M210.3,1c0-1.9,3-6,11.7-6c4.7,0,7.1,1.4,8.2,2.6c1,1.1,1.3,2.2,1.3,3c0,0.2,0.1,3.4-4.1,5.5
		c-4,2-7.3,2.3-9.8,2.4l-0.1,0l-1.2,2.2l0.1,0.1c1.3,2.4,5.4,7.4,7.2,9.3c3.1,3.3,10.6,7.4,17.4,2.5c0.1-0.1,0.2-0.1,0.3-0.2
		c-0.1,0.2-0.5,0.7-1.5,1.3c-1.5,1-4.7,1.9-8,1.9c-4.3,0-9.2-3.5-12.3-7.3c-2-2.4-3-4.2-3.6-5.5l-0.3-0.6l-0.2,0.5
		c-1.6,2.9-3.8,5.5-6.6,7.7C204,24,200.2,24,198.6,24l-0.2,0c-0.3,0-6.1,0-6.1-3.4c0-1.4,1.6-2,1.7-2c0,0,0.1,0,0.3,0
		c0,0-0.1,0-0.1,0l-0.3,0.2c-0.7,0.4-1.2,1-1.2,1.6c0,0.7,0.4,3,5.5,3c4.5,0,7.9-1.9,11.3-6.5c2.8-3.8,4.6-7.7,4.6-7.7
		c0-0.2-0.1-1.3-1.9-1.8c-0.9-0.3-1.5-0.8-1.6-1.1c0.1-0.1,0.4-0.2,1,0c0.8,0.3,1.1,0.5,1.4,0.7c0.3,0.3,0.7,0.6,1.6,0.9l0.2,0.1
		l0.1-0.2c0-0.1,3.5-6.6,5.8-8.5c2-1.6,3-1.7,3.5-1.7c0.3,0,0.5,0,0.6,0.1c-0.1,0-0.4,0.3-0.4,0.3c-1.6,0.8-2.9,2.3-3.9,4.6
		c0,0-2.5,5.6-2.5,5.6l0.4,0c1.2-0.1,4.2-0.6,6.5-2.2c2.1-1.4,3.5-3.8,3.5-5.8c0-1.2-0.7-2.3-1.8-2.9c-3.8-2.2-7.9-1.3-9.5-0.9
		c-2.8,0.8-4.5,3-4.5,4.5c0,0.8,0.3,1.2,0.6,1.4c0.6,0.3,1.4,0.3,2.4-0.2c0,0,0.1,0,0.2-0.1c-0.1,0.1-0.2,0.2-0.4,0.4
		c-0.3,0.4-1.1,0.9-2.1,0.9C211.8,3.3,210.3,2.9,210.3,1"/>
	<path class="st1" d="M140,10.1c0-10.5,12.3-15.7,19.2-15.7c3.2,0,5.5,1.1,6.2,2.8c0.6,1.5-0.3,3.4-2.4,5.1
		c-3.1,2.5-6.8,2.5-8.9,1.5c-1-0.5-1.7-1.2-1.7-1.9c0-0.6,0.3-1.2,0.8-1.7c1-1,2.8-1.4,3.5-1.4c0,0,0.3,0,0.3,0.1
		c-0.1,0-0.4,0.3-0.4,0.3l-0.3,0.2c-0.6,0.4-1.5,1-1.5,1.9c0,1,0.8,2.1,3,2.1c1.4,0,3-0.7,4-1.7c0.8-0.8,1.3-1.8,1.3-2.9
		c0-2.5-2.8-3.4-5.2-3.4c-3.5,0-13.6,3.6-13.6,14.7c0,10.6,7.4,11.4,9.7,11.4c3.5,0,6.8-2.2,8.3-3.5c0.5-0.5,0.8-0.5,0.8-0.5
		c0,0.1,0,0.4-0.5,0.9c-0.7,0.7-4.5,4-9.2,4C150.2,22.6,140,21.7,140,10.1"/>
	<path class="st1" d="M204.7,14.4c-1.1,1-2.7,1.9-3.7,1.2c-0.3-0.2-0.4-0.5-0.5-0.8c-0.1-0.7,0.5-1.3,0.5-1.3l2.2-3
		c0.7-0.9,0.9-1.6,0.7-2.1c-0.2-0.4-0.8-0.7-1.7-0.7c-1.7,0-4,1.7-4,1.7L198,9.6l-0.1-0.3c-0.2-0.7-0.5-1.1-1.1-1.3
		c-1.6-0.6-4.3,1-4.4,1l-0.6,0.4l0.2-0.7c0.4-0.9,0.3-1.7,0-2c-0.3-0.2-0.7-0.3-1.1-0.1c-0.9,0.4-0.4,2-0.4,2.1
		c0,0.1-0.3,2.3-2.2,4.2c-1.6,1.5-2.6,2.1-3.2,1.9c-0.4-0.2-0.6-0.6-0.6-1.3c0-1.2,2.4-4.6,3.2-5.8c-0.6,0-1.6,0-1.8,0
		c-0.2,0.3-0.9,1.6-3.2,4.2c-1.6,1.8-2.6,2.5-3.2,2.2c-0.2-0.1-0.3-0.3-0.3-0.6c0-0.2,0-0.4,0.1-0.6c0.3-1,2-3.5,2.9-5
		c0,0,0.1-0.1,0.1-0.1c0,0-2,0-2.2,0c-2.2,1.6-3.2,1.2-3.3,1.1l-0.1,0l0-0.1c-0.1-0.4-0.5-0.7-1.2-0.9c-1.3-0.5-3.6-0.5-6,1
		c-3.4,2.1-3.6,4.6-3.6,4.6l0,0.1l-0.1,0.1c-0.2,0.2-2.2,1.9-3.3,1.4c-0.4-0.2-0.6-0.6-0.6-1.3c0-2.9,3.5-5.7,4.1-6
		c0.1-0.1,0.5-0.3,0.5-0.6c-0.1-0.1-0.5,0-0.6,0.1c-2.9,1-4.5,0.5-5.2,0.2c-0.4-0.2-0.7-0.5-0.8-0.9c0-0.1-0.1-0.2-0.1-0.2
		c-0.1,0-0.1,0-0.2,0l-1.5,1c0,0-0.3,0.2-0.2,0.2l0.9,0.4l-0.2,0.2c-2.9,4.2-7.7,6.9-8.7,7.4c0.1,0.2,0.2,0.3,0.3,0.4
		c5.6-2.5,9.4-7.5,9.4-7.6l0.1-0.1l0.2,0.1c0.7,0.2,2.1,0.2,2.1,0.2l0.7,0L162.2,9c-4.4,3.9-4.3,5.8-4.1,6.5
		c0.3,0.7,1.1,1.2,2.2,1.2c2.7,0,5.3-2,5.3-2l0.2-0.2l0.1,0.3c0.8,1.6,2.3,1.4,2.4,1.4c4.7,0,8-5.7,8.1-5.8c1.4-1.1,1.8-1.1,2-0.9
		c0.2,0.2,0.4,0.4-1.5,3c-1,1.4-1.4,2.6-1.1,3.2c0.2,0.3,0.6,0.5,1.2,0.5c2,0,3.7-1.6,3.7-1.6l0.4-0.4l0,0.5c0,0.1,0,1.7,1.9,1.7
		c3.5,0,6.1-3.1,6.8-4.2c0.9-1.6,2.1-3.1,3.7-3.1c0.6,0,0.9,0.2,1.1,0.5c0,0.1,0.1,0.2,0.1,0.3c0,0.4-0.2,0.7-0.3,0.7
		c0,0-3.6,4.8-4.1,5.5c0.6,0,2.3,0,2.5,0c0.3-0.4,2.9-3.6,2.9-3.6c1.7-2.1,3.1-3.2,4.3-3.2c0.4,0,0.6,0.2,0.6,0.3
		c0.2,0.4-0.2,1-0.4,1.1l-1.4,1.9c-0.8,1.2-1.1,2.2-0.8,2.8c0.4,0.7,1.4,1.1,2.7,1.1c2.2,0,3.8-1.4,4.2-1.8
		C205,14.6,204.9,14.5,204.7,14.4 M174.8,10.6c0,0-1.3,3.9-4.4,3.9c-2.2,0-0.2-3.5,0.8-4.6c0.9-0.9,2.3-1.6,3.6-1.1
		C174.8,8.8,174,9.6,174.8,10.6z"/>
	<path class="st1" d="M241.9,14.2l-0.7,1.1c-3.9,6.2-6.1,6.3-8,6.2c-0.8,0-1.2-0.2-1.5-0.5c-0.3-0.4-0.1-1,0-1.2
		c0.1-0.2,0-0.4,0-0.4c0,0-0.2,0-0.5,0.2c-0.3,0.3-0.4,0.8-0.2,1.2c0.1,0.4,0.7,1.3,2.9,1.3c3.7,0,6.1-2.3,7.2-3.6
		c1.4-1.7,7-9.5,8.2-11.2c-0.6,0-2.2,0-2.4,0c-0.4,0.5-3.9,5.4-3.9,5.4c-0.1,0.1-1.5,1.5-3,2.2c-0.8,0.3-1.3,0.4-1.6,0.1
		c-0.2-0.3-0.2-0.8,0.2-1.4c0.6-1,1.5-2.2,3-3.9c0.6-0.6,0.7-1.2,0.5-1.6c-0.2-0.5-1.1-0.8-2.2-0.8c-2.1,0-4.2,1.5-4.2,1.5l-0.2,0.1
		l-0.1-0.2c-0.3-0.4-2.1-2.3-6.1-0.9c-3.7,1.2-6,4.2-6.1,4.3c-1.2,0.6-3,1.2-3.4,1.3c0,0.1,0,0.2,0,0.2c0,0.1,0,0.1,0,0.2
		c0.4-0.1,3.4-0.9,3.4-0.9l0,0.3c0,1.4,0.4,2.3,1.3,2.9c1.6,1,4.4,0.2,6.4-0.9c3.7-1.9,4.4-5.3,4.5-5.4c0.1-0.1,1.3-1.6,2.7-1.6
		c0.4,0,0.7,0.1,0.8,0.4c0.2,0.5-0.2,1.1-0.3,1.2l-2.4,3.1c-0.9,1.1-1.2,2.1-0.9,2.7c0.2,0.5,0.8,0.7,1.6,0.7c1.8,0,3.7-1.1,3.8-1.1
		C241,14.8,241.4,14.6,241.9,14.2 M233.1,10.7c0,0-0.6,2.1-2.6,3.7c-2,1.5-3.8,1.2-3.8-0.1c0-1.3,0.7-3.8,3.5-5.4c0,0,2.2-1.2,3.1,0
		C233.5,8.8,232.7,9.6,233.1,10.7z"/>
	<path class="st1" d="M268.2,19.2c-2.2,0-3-1-3-3.8c0-2.8,1.5-5.3,1.7-5.5c9.6-6.8,10.8-9.8,10.5-10.5c-0.8-1.8-3.9-2.1-8.9,3.6
		c-5.3,6.1-6,9.7-6,9.7l0,0.1l-0.1,0.1c-1.7,1.7-3.2,2.4-3.9,2c-0.3-0.2-0.4-0.5-0.4-0.9c0-0.3,0.1-0.7,0.3-1.1
		c0.7-1.7,3.1-4.5,4-5.6c-0.7,0-2.2,0-2.3,0c-0.1,0.1-1.1,1-1.1,1l-0.2-0.1c-0.8-0.7-2.2-1-3.7-0.8c-2.3,0.3-4.4,1.5-5.8,3.3
		c-1.5,1.9-2,3.6-1.5,4.6c0.3,0.6,0.9,0.9,1.8,0.9c2.2,0,4.9-1.8,5-1.8l0.3-0.2l0.1,0.3c0.2,0.7,0.5,1.2,1.1,1.4
		c2,0.8,5.8-1.8,5.9-1.8l0.4-0.3l0,0.5c-0.1,1.9,0.3,3.5,1.2,4.5c1.2,1.3,2.9,1.4,3.4,1.4c1.7,0,3.3-0.2,5.9-2.1
		c2.6-2,4.4-4.9,4.8-5.7c-0.1-0.1-0.1-0.1-0.3-0.1C273.3,18.5,269.6,19.2,268.2,19.2 M274.8-0.7c1.2,0-0.8,4.3-7,8.9
		C269,5.2,272.7-0.7,274.8-0.7z M256.6,11.1c-1.4,1.5-3.9,3.8-5.4,3.8c-0.4,0-0.6-0.3-0.6-0.8c0-0.5,1-3.8,4.4-5.7
		C257.9,6.8,258.3,9.2,256.6,11.1z"/>
</g>
</svg>
