<?xml version="1.0" encoding="utf-8"?>
<!-- Generator: Adobe Illustrator 19.0.1, SVG Export Plug-In . SVG Version: 6.00 Build 0)  -->
<svg version="1.1" id="Layer_1" xmlns="http://www.w3.org/2000/svg" xmlns:xlink="http://www.w3.org/1999/xlink" x="0px" y="0px"
	 viewBox="100 -50 220 120" style="enable-background:new 100 -50 220 120;" xml:space="preserve">
<style type="text/css">
	.st0{fill:#EEEEEE;}
	.st1{fill:#808080;}
</style>
<rect x="100" y="-50" class="st0" width="220" height="120"/>
<g>
	<g>
		<g>
			<g>
				<path class="st1" d="M244,1.9c-2.3,2.2-3.4,5-3.4,8.1c0,6.4,5.2,11.5,11.6,11.5c6.4,0,11.6-5,11.6-11.5c0-3.2-1.2-5.8-3.4-8.1
					c-2.3-2.3-5-3.4-8.2-3.4C249-1.5,246.2-0.4,244,1.9 M230.6,10.8h7.8V7.3h-7.8V2.4h8.5v-3.5h-12.1v22.3h12.2v-3.5h-8.5V10.8z
					 M177-1.1v22.3h3.7V-1.1H177z M161,21.2c4.1,0,7.2-0.9,9.4-2.8c2.4-2.2,3.6-4.9,3.6-8.3c0-3.5-1.2-6.3-3.7-8.5
					c-2.1-1.8-5.2-2.7-9.2-2.7h-4.8v22.3H161z M197.1,16.3l2,4.9h4.1l-9.5-22.4h-1.8l-9.7,22.4h4l2.1-5c0.1-0.1,0.1-0.2,0.1-0.3
					c0.1,0,0.2,0.1,0.4,0.2c1.2,0.5,2.6,0.7,4,0.7c1.4,0,2.7-0.3,3.5-0.6c0.4-0.1,0.5-0.2,0.7-0.3C197,16,197.1,16.2,197.1,16.3z
					 M220.7,5.7l2.8-2.4c-2.4-3.2-5.6-4.8-9.4-4.8c-6.4,0-11.6,5.1-11.6,11.5c0,6.3,5.2,11.5,11.4,11.5c1.6,0,3.1-0.3,4.6-1
					c1.4-0.6,2.7-1.5,3.7-2.7c1-1.1,1.6-2.3,2-3.7c0.3-1.1,0.5-2.5,0.4-4.2l0-0.7h-10v3.5h6.2c-0.2,1.4-0.9,2.6-2.1,3.6
					c-1.4,1.1-2.9,1.6-4.6,1.6c-2,0-3.8-0.8-5.5-2.5c-1.5-1.5-2.2-3.3-2.2-5.4c0-2.2,0.8-4.2,2.4-5.8c1.5-1.5,3.4-2.3,5.5-2.3
					C216.8,2,218.9,3.3,220.7,5.7z M257.7,4.3c1.6,1.5,2.3,3.4,2.3,5.7c0,2.2-0.8,4.1-2.3,5.7c-1.5,1.5-3.4,2.3-5.6,2.3
					c-4.4,0-7.9-3.6-7.9-8c0-2.2,0.8-4.1,2.3-5.7c1.5-1.5,3.4-2.3,5.6-2.3C254.3,2,256.2,2.8,257.7,4.3z M161.1,2.4
					c3.1,0,5.3,0.6,6.7,1.9c1.7,1.4,2.5,3.4,2.5,5.7c0,2.3-0.8,4.2-2.4,5.6c-1.4,1.3-3.6,2-6.8,2h-1V2.4H161.1z M189.7,12.8
					c0.1-0.1,0.2-0.4,0.2-0.5l2.8-6.8l2.8,6.9c0,0.1,0.1,0.3,0.2,0.5l-0.3,0.1c-0.8,0.2-1.7,0.3-2.6,0.3c-0.9,0-1.7-0.1-2.6-0.3
					C190,12.8,189.8,12.8,189.7,12.8z"/>
			</g>
		</g>
	</g>
</g>
</svg>
