<?xml version="1.0" encoding="utf-8"?>
<!-- Generator: Adobe Illustrator 19.0.1, SVG Export Plug-In . SVG Version: 6.00 Build 0)  -->
<svg version="1.1" id="Layer_1" xmlns="http://www.w3.org/2000/svg" xmlns:xlink="http://www.w3.org/1999/xlink" x="0px" y="0px"
	 viewBox="100 -50 220 120" style="enable-background:new 100 -50 220 120;" xml:space="preserve">
<style type="text/css">
	.st0{fill:#EEEEEE;}
	.st1{fill:#808080;}
</style>
<rect x="100" y="-50" class="st0" width="220" height="120"/>
<g>
	<polygon class="st1" points="203.2,12.3 185.5,12.3 185.5,7.7 203.2,7.7 203.2,3.3 185.5,3.3 185.5,-1.3 207.8,-1.3 207.8,21.3 
		203.2,21.3 	"/>
	<polygon class="st1" points="163.4,16.7 163.4,12.3 181.1,12.3 181.1,7.7 163.4,7.7 163.4,3.3 181.1,3.3 181.1,-1.3 158.8,-1.3 
		158.8,21.3 198.8,21.3 198.8,16.7 	"/>
	<polygon class="st1" points="234.5,12.3 234.5,7.7 216.8,7.7 216.8,3.3 234.5,3.3 234.5,-1.3 212.2,-1.3 212.2,21.3 216.8,21.3 
		216.8,12.3 	"/>
	<polygon class="st1" points="256.6,-1.3 256.6,7.7 243.4,7.7 243.4,-1.3 238.9,-1.3 238.9,12.3 256.6,12.3 256.6,16.7 221.2,16.7 
		221.2,21.3 261.2,21.3 261.2,-1.3 	"/>
</g>
</svg>
