<?xml version="1.0" encoding="utf-8"?>
<!-- Generator: Adobe Illustrator 19.0.1, SVG Export Plug-In . SVG Version: 6.00 Build 0)  -->
<svg version="1.1" id="Layer_1" xmlns="http://www.w3.org/2000/svg" xmlns:xlink="http://www.w3.org/1999/xlink" x="0px" y="0px"
	 viewBox="100 -50 220 120" style="enable-background:new 100 -50 220 120;" xml:space="preserve">
<style type="text/css">
	.st0{fill:#EEEEEE;}
	.st1{fill:#808080;}
</style>
<g>
	<rect x="100" y="-50" class="st0" width="220" height="120"/>
</g>
<g>
	<path class="st1" d="M207.7-7.6L207.7-7.6L207.7-7.6c-0.1,0-0.1,0.1-0.1,0.2c0,0,0,0.1,0,0.1v0v0c0,0.1-0.1,0.1-0.1,0.1
		c-0.1,0-0.3-0.1-0.3-0.2c0-0.1,0.1-0.2,0.2-0.2l0,0l0,0c0-0.1,0-0.1,0-0.2v0l0,0c-0.1-0.1-0.1-0.1-0.2-0.1c0,0-0.1,0-0.1,0.1l0,0v0
		c0,0.2-0.2,0.4-0.3,0.6c0,0.1-0.1,0.1-0.1,0.2l-0.1,0h0l0,0c0,0-0.1,0.1-0.1,0.1v0l0,0c0.1,0.1,0.2,0.2,0.3,0.2h0v0
		c0.1,0,0.1-0.1,0.1-0.2c0,0,0,0,0,0l0.1-0.2c0.1,0,0.2,0.1,0.3,0.1c0,0,0,0,0.1,0.1c0,0.1,0,0.2-0.1,0.2c0,0,0,0,0,0
		c0,0-0.1,0-0.1,0.1c0,0,0,0,0,0.1v0l0,0c0.1,0.1,0.2,0.2,0.4,0.1h0l0,0c0,0,0-0.1,0-0.1c0,0,0,0,0,0c0.1-0.2,0.2-0.4,0.4-0.6
		c0,0,0,0,0,0c0,0,0.1,0,0.1,0c0,0,0,0,0-0.1C208-7.5,207.9-7.6,207.7-7.6"/>
	<path class="st1" d="M206.1-8.4L206.1-8.4L206.1-8.4c0.1-0.1,0.1,0,0.2,0l0,0c0.2,0,0.3,0.3,0.3,0.5v0l0,0c0.1,0,0.1,0,0.1,0
		c0,0,0,0,0,0c0.1-0.1,0-0.2,0-0.2c0,0,0,0,0,0v0v0c-0.1-0.2-0.2-0.3-0.3-0.3c-0.2-0.1-0.6-0.1-0.8,0c-0.1,0.1-0.2,0.3-0.1,0.6
		c0.1,0.3,0.4,0.5,0.7,0.6c0,0,0.2,0,0.2-0.1c0,0,0,0,0,0c0,0,0-0.1,0-0.1l0,0l0,0c-0.2,0-0.4-0.1-0.5-0.2c-0.1-0.1-0.1-0.2,0-0.3
		C206-8.3,206-8.4,206.1-8.4"/>
	<path class="st1" d="M205.3-9.1c0,0-0.1,0-0.1,0h0l0,0c0,0,0,0-0.1,0.1c0,0,0,0.1,0,0.1c0,0,0,0.1,0,0.1l0,0v0c0,0.1,0,0.1,0,0.2
		c0,0.2-0.1,0.3-0.2,0.4l0,0l0,0c0,0,0,0.1,0,0.1l0,0l0,0c0,0,0.1,0,0.1,0c0.1,0,0.2,0.1,0.3,0l0,0v0c0,0,0,0,0-0.1c0,0,0,0,0,0
		c0-0.2,0.1-0.4,0.2-0.6c0,0,0,0,0-0.1c0,0,0.1-0.1,0.1-0.1l0,0l0,0C205.5-9.1,205.4-9.1,205.3-9.1"/>
	<path class="st1" d="M217.6-17.1L217.6-17.1c0.1-0.3,0-0.6-0.1-0.9v0v0c-0.1-0.2-0.2-0.4-0.4-0.5l-0.1-0.1c-0.2-0.1-0.5-0.1-0.7,0
		c0,0,0,0,0,0.1v0v0c0.1,0.3,0,0.5-0.1,0.8c-0.1,0.3-0.4,0.6-0.6,0.9c-0.1,0.1-0.2,0.3-0.3,0.4c0,0,0,0,0,0.1c0,0.1-0.1,0.1-0.1,0.2
		c0.1-0.2,0.3-0.4,0.5-0.5c0.2-0.1,0.3-0.3,0.4-0.5l0,0c0.2-0.3,0.4-0.6,0.4-1v0v0c0,0,0-0.1,0-0.1c0,0,0-0.1,0-0.1l0,0l0,0
		c0.2,0,0.3,0,0.5,0.1l0,0h0c0.3,0.2,0.3,0.4,0.4,0.6l0,0l0,0l0,0c0,0-0.3-0.2-0.7-0.2v0c0,0,0,0,0,0c0.1,0,0.3,0.1,0.4,0.2l0,0
		c0.2,0.1,0.4,0.5,0.3,0.8c0,0.1,0,0.2-0.1,0.2c-0.1,0-0.1-0.1-0.1-0.1c0,0,0,0,0,0c0,0,0,0,0,0c0-0.1-0.2-0.2-0.3-0.2l0,0
		c-0.1,0-0.1-0.1-0.2-0.1c0,0,0,0,0,0c0,0,0,0,0,0c0,0,0,0,0,0c0.4,0.3,0.6,0.6,0.5,0.8c-0.1,0.2-0.3,0.3-0.4,0.3h0v0
		c0-0.1,0-0.3-0.1-0.4c-0.1-0.2-0.4-0.3-0.6-0.3c0,0,0,0,0,0c0,0,0,0,0.1,0c0,0,0.1,0,0.1,0c0.2,0.1,0.3,0.3,0.3,0.5
		c0,0.1-0.1,0.4-0.4,0.5l0,0h0c0,0,0,0,0,0c0,0-0.1,0-0.1,0l0,0l0,0c0-0.1,0-0.3,0-0.4c0-0.1-0.2-0.2-0.3-0.2c0,0,0,0,0,0
		c0,0,0,0,0,0c0.2,0.2,0.2,0.5,0.1,0.7v0l0,0c0,0.1-0.2,0.2-0.3,0.2l0,0l0,0c0-0.2-0.1-0.3-0.1-0.3c0,0,0,0,0,0c0,0,0,0,0,0
		c0.1,0.2,0,0.4-0.1,0.5c-0.1,0.1-0.1,0.2-0.1,0.3c0,0,0,0.1,0,0.1c0,0-0.1,0-0.1,0c0,0-0.1,0-0.1,0h0l0,0c-0.5-0.2-1.1-0.7-1.1-1.3
		c0-0.4,0.2-0.7,0.5-0.9l0,0l0.3-0.1c-0.2,0-0.4,0.1-0.6,0.2l-0.1,0c-0.3,0.3-0.4,0.7-0.3,1.1c0,0.1,0.1,0.2,0.1,0.3v0v0
		c0,0,0,0.1,0,0.1l0,0l0,0l-0.4,0.1c0,0,0,0-0.1,0c0,0,0,0-0.1,0c0.1,0,0.1,0,0.2,0c0.2,0,0.4,0,0.5,0.1c0,0,0,0,0,0c0,0,0,0,0,0
		l0,0l0,0c-0.2,0.1-0.3,0.1-0.5,0.1c-0.1,0-0.3,0-0.4,0.1c0,0,0,0,0,0c0,0,0,0,0,0c0,0,0.1,0,0.1,0l0,0h0c0.3,0,0.5,0,0.5,0
		c0,0,0,0,0,0v0v0c0,0.1-0.1,0.2-0.2,0.2c0,0,0,0-0.1,0l0,0c-0.1,0-0.1,0-0.2,0c-0.1,0-0.3,0.1-0.4,0.1h0c0.1,0,0.2,0,0.3,0
		c0,0,0.1,0,0.1,0c0,0,0,0,0,0c0,0,0.1,0,0.1,0l0,0l0,0c-0.1,0.3-0.3,0.3-0.6,0.4c-0.1,0-0.2,0-0.3,0.1l0,0l0,0
		c0-0.1-0.1-0.1-0.1-0.2c0,0,0-0.1,0-0.1l0,0l0,0c0.1-0.4,0.4-0.8,0.6-1.2v0l0,0c0-0.1,0.1-0.1,0.1-0.2c0.1-0.1,0.1-0.2,0.2-0.3
		c0-0.1,0-0.1,0-0.2c0,0,0-0.1,0-0.1l-0.1-0.2v0v0c-0.2-0.5-0.2-1,0.2-1.4c0.3-0.4,0.9-0.5,1.3-0.4c-0.2-0.1-0.5-0.1-0.7-0.1
		c-0.3,0.1-0.6,0.3-0.8,0.6c-0.2,0.3-0.2,0.6-0.1,1.4v0l0,0c0,0,0,0,0,0c0,0,0,0.1-0.1,0.1l0,0l0,0c0,0,0-0.1,0-0.1c0,0,0-0.1,0-0.1
		c0,0.1,0,0.1,0,0.2c0,0.1,0,0.2,0,0.3v0l0,0c0,0.1-0.1,0.1-0.1,0.2c-0.1,0.1-0.1,0.2-0.2,0.3l0,0l0,0c-0.1-0.1-0.1-0.2-0.1-0.3
		c0-0.1,0-0.1-0.1-0.2l0,0c0,0.1,0,0.3,0,0.4l0,0.1v0v0c0,0,0,0.1,0,0.1c0,0.1,0,0.3-0.1,0.3l0,0l0,0c-0.1-0.4-0.2-0.5-0.2-0.5
		c0,0,0,0,0,0c0,0.1,0,0.4,0.1,0.6c0,0.1,0,0.1,0,0.1c0,0.1,0,0.3-0.1,0.4l0,0l0,0c0-0.1-0.1-0.2-0.1-0.3c0-0.1,0-0.2-0.1-0.2
		c0,0,0,0,0,0c0,0.1,0,0.1,0,0.2v0l0,0c0,0.1,0,0.3,0,0.4v0l0,0c-0.1,0.1-0.2,0.3-0.2,0.4l0,0l0,0c-0.1-0.1-0.2-0.2-0.2-0.3h0
		c0,0,0,0,0,0c0,0,0,0.1,0,0.1c0,0.1,0,0.1,0,0.2l0,0l0,0c-0.1-0.1-0.3-0.1-0.4-0.2h0v0c0,0-0.1,0-0.1,0c0,0-0.1,0-0.1,0l0,0v0
		c0.1-0.4,0.2-0.8,0.3-1.1c0,0,0-0.1,0-0.1c0-0.1,0-0.1,0.1-0.2l0,0l0,0l0,0.2c0.1,0.3,0.2,0.7,0.3,1v0v0c0,0,0,0,0,0c0,0,0,0,0,0
		c0-0.1,0-0.2,0-0.4c0-0.1,0-0.1,0-0.2c0-0.2-0.1-0.3-0.1-0.5c-0.1-0.1-0.1-0.3-0.1-0.4v0v0c0-0.4,0.2-0.7,0.3-1c0,0,0-0.1,0-0.1
		c0.2-0.4,0.4-0.7,0.6-1.1l0.1-0.1l0,0v0.1v0v0c-0.1,0.6,0,1.1,0.1,1.5c0,0,0,0.1,0,0.1c0,0.1,0,0.2,0,0.2c0,0,0,0,0,0c0,0,0,0,0,0
		c0-0.2,0.1-0.4,0.1-0.6v0c0-0.2,0-0.4,0-0.7c0-0.3-0.1-0.6,0-0.9c0-0.2,0.1-0.4,0.2-0.6c0,0,0,0,0,0c0.4-0.6,1-0.9,1.6-0.9
		c0.7,0,1.3,0.4,1.4,0.9l0,0l0,0c0,0,0,0,0,0c0,0,0,0.1,0,0.1l0,0l0,0c0,0-0.1,0-0.1-0.1c0,0-0.1,0-0.1-0.1l0,0c0,0-0.1,0-0.1,0
		c0,0,0,0,0.1,0.1c0.2,0.1,0.3,0.3,0.3,0.5l0,0l0,0c0,0-0.1,0-0.1-0.1c-0.1,0-0.1-0.1-0.2-0.1c0,0,0,0,0,0c0,0,0.1,0.1,0.1,0.1
		c0.1,0.1,0.3,0.2,0.3,0.4c0,0,0,0.1,0,0.1c0,0,0,0,0,0c0,0-0.1,0-0.1-0.1c0,0-0.1-0.1-0.1-0.1c0,0,0,0.1,0.1,0.1
		c0,0,0.1,0.1,0.1,0.1c0,0,0,0.1,0,0.1c0,0,0,0.1,0,0.1c0.1-0.1,0.2-0.3,0.2-0.5c0,0,0-0.1,0-0.1c0.1-0.4,0-0.9-0.3-1.2
		c-0.2-0.3-0.7-0.5-1.2-0.5c-0.6,0-1.2,0.2-1.6,0.6c-0.4,0.4-0.6,0.6-0.7,0.9c0,0.1-0.1,0.2-0.1,0.3c0,0.1-0.1,0.2-0.2,0.4
		c-0.3,0.4-0.5,1-0.7,1.6c0,0,0,0.1,0,0.1c0,0,0,0.1,0,0.1v0l0,0c0,0,0,0,0,0c0,0,0,0,0,0h0c0,0,0,0,0,0c0,0.2-0.1,0.4-0.1,0.5
		c0,0.1-0.1,0.2-0.1,0.3l0,0c0-0.2,0-0.5,0.1-0.8c0,0,0-0.1,0-0.1c0-0.1,0.1-0.2,0-0.2v0v0c0.1-0.2,0.1-0.4,0.1-0.7
		c0-0.3,0.1-0.5,0.2-0.8c0-0.2,0.1-0.4,0.2-0.6c0,0,0,0,0,0c0,0,0,0,0,0c0,0,0,0-0.1,0h0l0,0c0.1-0.3,0.2-0.6,0.2-0.9v0v0
		c0-0.1,0-0.1,0.1-0.2c0-0.2,0.1-0.3,0.2-0.5h0l0,0c0.3-0.2,0.4-0.6,0.5-1c0-0.2,0-0.4,0-0.6c0-0.1-0.1-0.3,0-0.4
		c0-0.6-0.3-1.1-0.8-1.2c-0.5-0.2-1.1-0.1-1.6,0.4l0,0l0,0l-0.2-0.1c-0.1-0.1-0.3,0-0.4,0.1l0,0l0,0l0,0c-0.6-0.6-1.4-0.6-1.9-0.3
		c-0.5,0.3-0.8,0.7-0.8,1.3c0,0.1,0.1,0.1,0.1,0.1h0l0,0l-0.1,0.3c-0.1,0.6,0.1,1.1,0.5,1.4c0.2,0.1,0.2,0.4,0.2,0.6
		c0,0.1,0,0.2,0.1,0.3v0v0c0,0,0,0.1,0,0.1c0,0.1,0,0.1,0,0.2c0,0.2,0.1,0.4,0.2,0.6l0.1,0.2l0.1,0.4c0.1,0.5,0.2,0.9,0.3,1.3l0,0v0
		c0,0,0,0,0,0c0,0,0,0,0,0c0,0.1,0,0.2,0.1,0.4c0.1,0.3,0.1,0.6,0.1,1l0,0.1l0,0c0,0,0-0.1-0.1-0.1c0,0-0.1-0.1-0.1-0.1l0,0l0,0
		c0-0.1-0.1-0.2-0.1-0.3c0-0.1-0.1-0.3-0.1-0.4c0,0,0,0,0,0c0,0,0,0,0,0l0,0v0c0-0.2-0.1-0.4-0.2-0.6c0-0.1,0-0.1-0.1-0.2l-0.1-0.3
		c-0.1-0.3-0.2-0.6-0.4-0.8l-0.1-0.3c-0.1-0.2-0.2-0.4-0.2-0.6v0c0,0.1,0,0.1,0,0.2l0,0l0,0c0-0.2-0.1-0.3-0.3-0.5
		c0-0.1-0.1-0.1-0.1-0.2c-0.2-0.4-0.8-0.6-1.4-0.7c-0.6,0-1.1,0.1-1.5,0.5c-0.2,0.3-0.3,0.5-0.4,0.8c-0.1,0.7,0.3,1.4,0.8,2
		c0,0,0,0.1,0,0.1c0,0,0,0.1,0.1,0.1c0,0,0,0,0,0.1c-0.1-0.2-0.2-0.4-0.3-0.5c-0.1-0.2-0.2-0.4-0.3-0.5c-0.3-0.5-0.3-1.3,0.1-1.7
		c0.3-0.4,0.7-0.6,1.1-0.6c0.4,0,0.7,0.1,1.1,0.3c0.3,0.2,0.4,0.4,0.5,0.6c0.1,0.2,0.1,0.5,0.1,0.8c0,0.2,0,0.4,0,0.6l0-0.5v0l0,0
		c0.1-0.1,0.1-0.2,0.1-0.3v0v0c0,0,0-0.1,0-0.1c0-0.1,0-0.1,0-0.2l0,0l0,0c0.1,0.1,0.1,0.2,0.1,0.2l0,0v0c0,0.3,0,0.5-0.1,0.8
		c0,0.3-0.1,0.5-0.1,0.8c0,0.1,0,0.2,0,0.2c0,0.1,0,0.3,0.1,0.4c0-0.1,0-0.2,0-0.4c0-0.2,0-0.4,0-0.6c0,0,0-0.1,0-0.1
		c0.1-0.4,0.1-0.6,0.1-0.6c0,0,0,0,0,0c0,0,0,0,0,0.1c0,0,0,0,0,0l0,0v0c0.1,0.3,0.1,0.5,0,0.8c0,0.1,0,0.2-0.1,0.3l0,0
		c0,0,0,0,0,0.1c0,0,0,0.1,0,0.1c0-0.1,0.1-0.2,0.1-0.2v0v0c0-0.1,0-0.1,0.1-0.2c0-0.1,0.1-0.2,0.1-0.3l0,0l0,0
		c0.2,0.2,0.1,0.5,0,0.8c0,0.1,0,0.2-0.1,0.2c0,0.1,0,0.1,0,0.2c0,0.1,0,0.1,0,0.2c0,0,0-0.1,0-0.1c0-0.1,0.1-0.3,0.1-0.4
		c0,0,0-0.1,0-0.1c0-0.1,0.1-0.2,0.1-0.2l0,0l0,0c0,0,0.1,0.1,0.1,0.1c0,0,0,0.1,0,0.1l0,0v0c0,0.2-0.1,0.4-0.1,0.6
		c-0.1,0.1-0.1,0.3-0.1,0.4c0,0,0,0,0,0c0,0,0,0,0,0c0.1-0.3,0.2-0.5,0.3-0.7l0,0l0,0l0,0l0,0l0,0c0,0,0,0.1,0,0.1
		c0,0.1,0.1,0.2,0.1,0.3v0v0c-0.2,0.3-0.3,0.6-0.3,1c0,0,0,0.1,0,0.1c0,0.1,0,0.1,0,0.2l0,0l0,0c0,0-0.1-0.1-0.1-0.1
		c0,0-0.1-0.1-0.1-0.1l0,0v0c0-0.1-0.1-0.2-0.1-0.3c0-0.1-0.1-0.3-0.2-0.4v0l0,0c-0.1-0.3-0.3-0.7-0.5-1c-0.1-0.1-0.2-0.3-0.2-0.4
		c-0.1-0.1-0.1-0.3-0.1-0.4c0-0.1,0-0.2,0-0.3l0,0v0c0-0.1,0-0.1,0-0.2c0-0.1,0-0.2,0-0.3c0.1-0.3,0-0.6-0.1-0.9c0,0,0-0.1,0-0.1
		c0,0,0,0,0,0l0,0l0,0l0,0c0,0,0,0,0,0c0,0,0,0,0-0.1c0,0,0,0,0,0h0c-0.2-0.3-0.6-0.5-1-0.6c-0.4-0.1-0.7,0-0.9,0.2c0,0,0,0,0,0
		c0.1,0,0.2-0.1,0.4-0.1h0h0c0.5,0,0.8,0.2,1.1,0.4c0.2,0.2,0.3,0.4,0.3,0.7v0l0,0c-0.1-0.1-0.2-0.2-0.3-0.3l-0.1-0.1
		c-0.4-0.3-1.1-0.3-1.5-0.1l0,0c0.6-0.1,0.9-0.1,1.3,0.2c0.3,0.2,0.4,0.5,0.3,0.6l0,0l0,0c-0.4-0.2-0.7-0.3-1-0.2c0,0,0,0,0,0
		c0.3,0,0.5,0.1,0.8,0.2c0.3,0.2,0.5,0.4,0.5,0.7c0,0.2,0,0.3-0.1,0.4l0,0l0,0c-0.1-0.3-0.5-0.6-0.8-0.7c-0.2-0.1-0.4,0-0.5,0
		c0.3-0.1,0.6,0.1,0.8,0.4c0.2,0.3,0.2,0.5,0.2,0.7l0,0c0,0-0.1,0.1-0.1,0.1l0,0l0,0c-0.1-0.2-0.4-0.5-0.6-0.6
		c0.3,0.2,0.4,0.5,0.5,0.7c0,0.2,0,0.3,0,0.4l-0.1,0.1l0,0l0,0c-0.1-0.2-0.2-0.4-0.4-0.5l0,0v0c0,0,0,0,0,0v0
		c0.1,0.1,0.1,0.2,0.1,0.2c0.1,0.3,0.1,0.5-0.1,0.6c-0.1,0-0.2,0.1-0.2,0.1l0,0c-0.1,0-0.2,0.1-0.3,0.1l0,0l0,0
		c0-0.2-0.1-0.3-0.2-0.4c0,0-0.1,0-0.1-0.1c-0.1-0.1-0.2-0.1-0.3-0.1c-0.2-0.1-0.4-0.1-0.6-0.3v0v0c-0.2-0.2-0.2-0.6-0.1-0.8
		c0,0,0-0.1,0.1-0.1c0,0,0-0.1,0.1-0.1c-0.1,0-0.1,0.1-0.2,0.2c0,0,0,0,0,0.1c-0.2,0.3,0,0.7,0.1,0.9c0.1,0.2,0.4,0.3,0.6,0.4l0.1,0
		c0.1,0,0.4,0.1,0.5,0.3c0,0.1,0,0.1,0,0.2c0.2,0.1,0.3,0,0.5-0.1c0,0,0.1,0,0.1,0c0,0,0.1,0,0.1-0.1c0.1-0.1,0.2-0.1,0.3-0.1h0l0,0
		c0.2,0.1,0.3,0.3,0.4,0.4c0.1,0.1,0.1,0.2,0.2,0.3l0,0v0l0,0.2c0.1,0.1,0.2,0.3,0.3,0.4c0.1,0.1,0,0.2,0,0.3c0,0.3,0.1,0.5,0.3,0.6
		l0,0v0c0.1,0.2,0.2,0.5,0.2,0.8v0l0,0c-0.1,0.1-0.2,0.1-0.3,0.1h0h0c0,0-0.1,0-0.1,0c-0.1,0-0.3-0.1-0.4-0.2v0v0c0,0,0,0,0.1,0
		c0.1,0,0.1,0,0.2,0c0.1,0,0.1,0.1,0.2,0c0,0,0,0,0-0.1c0-0.1,0.1-0.1,0-0.2c-0.2-0.3-0.4-0.6-0.4-0.9c-0.1,0-0.1,0-0.2,0
		c0,0-0.1,0-0.1,0c0,0.1,0,0.1,0,0.2c0,0.1,0,0.2-0.1,0.3l0,0h0c0,0,0,0,0,0c0,0,0,0,0,0l0,0v0c0-0.2,0-0.3,0.1-0.4c0,0,0,0,0-0.1
		c0-0.1-0.1-0.1-0.2-0.1c-0.2,0.1-0.4,0.2-0.6,0.4c0,0,0,0.1,0,0.1c0,0,0,0,0,0c0.1,0.1,0.1,0.2,0.2,0.2c0,0.1,0.1,0.2,0.2,0.2l0,0
		v0c0,0.2,0.1,0.3,0.2,0.4l0,0l0,0c0.1,0.1,0.1,0.2,0.2,0.4c0.1,0.1,0.1,0.2,0.2,0.4c0,0.1,0,0.2,0,0.3c0,0.1,0,0.2,0,0.3
		c0.1,0,0.1,0,0.2,0.1c0.1,0,0.1,0,0.2,0.1c0.1,0,0,0.1,0,0.2c0,0,0,0.1,0,0.1v0v0c0,0.3,0.2,0.3,0.4,0.4c0.1,0,0.1,0,0.2,0.1l0,0
		l0,0c0,0.1,0,0.3,0,0.4c0,0.1,0,0.1,0,0.2v0l0,0c0,0,0,0,0,0c0,0,0,0.1-0.1,0.1l0,0c-0.5-0.2-1-0.3-1.4-0.2c-0.1,0-0.1,0.1-0.1,0.1
		c0,0.2-0.1,0.4-0.1,0.6c0,0.1-0.1,0.2-0.1,0.3v0l0,0l0,0.1c-0.1,0.3-0.3,0.6-0.2,0.8c0.2,0.3,0.5,0.5,0.8,0.6c0,0,0,0,0.1,0
		c0.1,0,0.1,0,0.2,0l0-0.1c0.1-0.2,0.1-0.3,0.2-0.5l0,0c0,0,0.1,0,0.1,0c0,0,0,0,0,0h0l0,0l0.5,0.4l0,0v0l0,0.1l0,0l0,0l-0.1,0.2
		c-0.1,0.3-0.2,0.5-0.4,0.8c-0.1,0.2-0.2,0.5-0.2,0.7c0,0,0,0,0,0c0,0,0,0,0,0c0,0,0.1-0.1,0.1-0.1c0.1-0.1,0.2-0.1,0.2-0.2
		c0.1-0.2,0.2-0.3,0.3-0.5c0.1-0.2,0.2-0.4,0.3-0.6l0,0h0l0,0h0l0,0l0.4,0.3l0.1,0c0.2,0.1,0.4,0.2,0.7,0.2c0.1,0,0.1-0.1,0.2-0.1
		c0.1-0.2,0.2-0.4,0.3-0.7l0,0v0c0,0,0.1-0.1,0.1-0.1c0.1-0.1,0.1-0.2,0.2-0.2l0,0l0,0l0,0.1c0.1,0.1,0.1,0.2,0.2,0.3
		c0.1,0.1,0.1,0.2,0.2,0.2c0.1,0.1,0.2,0.2,0.3,0.3v0v0c0,0.3,0,0.6,0,1c0,0.3,0,0.6,0,1c0,0,0,0.1,0,0.1c0,0.1,0,0.2,0.1,0.2
		c0.1-0.1,0.1-0.3,0.2-0.4c0,0,0-0.1,0-0.1v-1.7v0v0c0.1-0.2,0.2-0.3,0.3-0.4c0.1-0.1,0.3-0.3,0.3-0.4c0,0,0-0.1,0.1-0.1
		c0,0,0.1,0,0.1,0v0c0.3,0.3,0.4,0.6,0.6,0.9l0.1,0.1c0,0,0.1,0,0.1,0c0,0,0.1,0,0.1,0c0.2-0.1,0.5-0.2,0.7-0.3c0,0,0.1,0,0.1-0.1
		c0.1-0.1,0.2-0.1,0.3-0.1h0l0,0l0.1,0.4c0,0.1,0.1,0.2,0.1,0.3c0.1,0.1,0.1,0.3,0.2,0.4l0,0v0c0,0.1,0.1,0.2,0.2,0.2
		c0,0,0.1,0.1,0.1,0.1c0,0,0,0,0,0c0,0,0.1,0,0.1,0c0,0,0,0,0,0c0.1-0.2,0-0.4-0.1-0.5c0-0.1-0.1-0.1-0.1-0.2
		c-0.1-0.1-0.1-0.3-0.2-0.4c-0.1-0.2-0.2-0.4-0.3-0.6l0,0l0,0c0.1-0.1,0.2-0.2,0.3-0.3c0,0,0.1,0,0.1-0.1c0,0,0,0,0.1,0
		c0.1,0,0.1-0.1,0.2-0.1h0l0,0c0.1,0.1,0.1,0.2,0.2,0.3c0,0.1,0,0.1,0.1,0.2c0,0.1,0.1,0.2,0.1,0.2c0.3,0,0.7-0.2,0.8-0.5
		c0.1-0.1,0.1-0.3,0.1-0.5c-0.2-0.4-0.4-0.8-0.4-1.2c0-0.1,0-0.1,0-0.2c0-0.1,0-0.2-0.1-0.2c-0.5-0.2-1.1-0.1-1.6,0.2l0,0h0l0,0h0
		l0,0c-0.1-0.2-0.1-0.4-0.1-0.7c0-0.1,0-0.1,0-0.2v0l0,0c0.1,0,0.2-0.1,0.3-0.1c0.1,0,0.3-0.1,0.3-0.2l0,0v0c0.1,0,0-0.1,0-0.2
		c0-0.1,0-0.2,0.1-0.2h0l0,0l0,0c0.1,0,0.2-0.1,0.3-0.1c0-0.1,0-0.3,0-0.4l0-0.1v0l0,0c0-0.1,0.1-0.2,0.2-0.3
		c0.1-0.1,0.1-0.1,0.1-0.2c0-0.1,0.2-0.2,0.3-0.3c0,0,0.1,0,0.1-0.1c0-0.1,0.1-0.1,0.1-0.2c0-0.1,0-0.2,0.1-0.3c0,0,0.1-0.1,0.1-0.1
		c0.1-0.1,0.1-0.1,0.1-0.2c-0.1-0.1-0.2-0.2-0.3-0.2c-0.1-0.1-0.1-0.1-0.2-0.2c-0.1,0-0.2,0-0.2,0.1c0,0.1,0,0.1,0,0.2
		c0,0.1,0,0.2,0,0.3l0,0l0,0c-0.1-0.1-0.1-0.2-0.1-0.3c0,0,0-0.1,0-0.1c-0.1,0-0.2,0-0.2,0l0,0c-0.1,0.3-0.2,0.5-0.3,0.7
		c0,0.1-0.1,0.1-0.1,0.2c0,0-0.1,0.1-0.1,0.2c0,0,0,0.1,0.1,0.1c0,0,0,0,0.1,0c0.1,0,0.1,0,0.1,0c0.1,0,0.1-0.1,0.2-0.1
		c0,0,0,0,0.1,0c0,0,0,0,0,0v0l0,0c-0.2,0.2-0.4,0.2-0.7,0.2h0c-0.1,0-0.1-0.1-0.1-0.2c0,0,0-0.1,0-0.1l0,0l0,0c0-0.1,0-0.1,0-0.2
		c0-0.2,0.1-0.4,0.2-0.5v0l0,0c0.1-0.1,0.2-0.2,0.2-0.3v0l0,0c0-0.1,0-0.1,0-0.2c0,0,0-0.1,0-0.2v0v0c0-0.2,0.2-0.3,0.3-0.5
		c0.1-0.1,0.2-0.2,0.2-0.3v0c0,0,0,0,0,0c0,0,0,0-0.1,0l0,0l0,0c0-0.1,0.1-0.2,0.2-0.2c0.1-0.1,0.1-0.1,0.1-0.2l0,0l0,0l0,0
		c0.1-0.1,0.2-0.2,0.3-0.2l0,0l0,0c0.2,0.2,0.5,0.2,0.7,0.3l0,0c0,0,0.1,0,0.1,0c0.1,0,0.1,0,0.2,0c0-0.1,0-0.3,0.1-0.4
		c0.1-0.1,0.3-0.1,0.4-0.2c0.3-0.1,0.6-0.3,0.8-0.6l0,0l0,0c0.2-0.1,0.4-0.2,0.6-0.3C217.6-16.3,217.7-16.7,217.6-17.1L217.6-17.1
		 M212.3-14.5c0.1-0.4,0.4-0.8,0.6-1.2l0.1-0.2l0,0v0c0,0,0,0,0-0.1c0,0,0.1-0.1,0.1-0.1h0c0,0,0.1,0,0.1,0.1c0,0,0,0,0,0l0,0l0,0
		c0,0.1-0.1,0.2-0.2,0.3c0,0-0.1,0.1-0.1,0.1c-0.2,0.3-0.4,0.7-0.5,1l-0.1,0.1l0,0l0,0C212.4-14.4,212.4-14.4,212.3-14.5L212.3-14.5
		L212.3-14.5 M211.9-12.9c0-0.1,0-0.3,0-0.4c0-0.1,0-0.3,0-0.4c0-0.2,0.2-0.4,0.4-0.5h0c0,0,0,0,0.1,0c0,0,0,0,0.1,0.1c0,0,0,0,0,0
		l0,0l0,0c0.1,0.3,0,0.6-0.2,0.9c-0.1,0.1-0.1,0.2-0.2,0.4l0,0l0,0C212-12.9,211.9-12.9,211.9-12.9L211.9-12.9L211.9-12.9
		 M212.1-12.7L212.1-12.7L212.1-12.7L212.1-12.7c0.1,0.1,0.1,0.1,0.1,0.1v0l0,0c-0.1,0-0.2,0-0.2-0.1c-0.1,0-0.2-0.1-0.4-0.1h0l0,0
		c0,0,0,0,0,0c0,0,0,0,0.1,0C211.8-12.9,212-12.8,212.1-12.7 M212.3-12.7L212.3-12.7C212.3-12.7,212.3-12.7,212.3-12.7
		c0-0.1,0-0.1,0-0.1v0c0-0.1,0.1-0.1,0.2-0.1c0.1,0,0.1,0,0.1,0.1l0,0c0,0,0,0.1,0,0.1c0,0,0,0,0,0.1c0,0,0,0,0,0c0,0,0,0,0.1,0
		c0.1,0,0.1,0,0.2,0l0,0l0,0l-0.1,0.3l0,0l0,0c0,0,0-0.1-0.1-0.1c0-0.1-0.1-0.1-0.1-0.2c0,0,0,0-0.1,0.1c0,0-0.1,0.1-0.2,0.1l0,0
		l0,0c-0.1-0.1,0-0.1,0-0.2C212.3-12.6,212.4-12.6,212.3-12.7 M212.7-11.9C212.6-11.9,212.6-11.9,212.7-11.9
		C212.6-11.9,212.6-11.9,212.7-11.9L212.7-11.9L212.7-11.9c-0.1-0.1-0.1-0.1,0-0.1c0,0,0,0,0-0.1l0,0
		C212.7-12.1,212.7-12,212.7-11.9 M212.7-11.5L212.7-11.5L212.7-11.5C212.7-11.5,212.7-11.5,212.7-11.5c0,0.1,0,0.1-0.1,0.1
		c0,0-0.1,0-0.1,0c0,0,0,0,0,0c0-0.1,0-0.1,0.1-0.1c0,0,0,0,0,0l0,0l0,0C212.6-11.5,212.6-11.5,212.7-11.5
		C212.7-11.5,212.7-11.5,212.7-11.5 M212.3-12.3c0.1,0,0.2,0,0.2-0.1l0,0l0,0c0,0,0,0.1,0,0.1v0h0c-0.1,0.1-0.1,0.1-0.2,0.1h0
		c-0.1,0-0.2-0.1-0.2-0.2v0l0,0c0,0,0,0,0-0.1c0,0,0-0.1,0-0.1l0,0l0,0C212.1-12.4,212.2-12.3,212.3-12.3 M210.9-12.4L210.9-12.4
		L210.9-12.4C210.9-12.4,210.9-12.4,210.9-12.4C210.9-12.4,210.8-12.4,210.9-12.4L210.9-12.4L210.9-12.4c-0.2-0.2-0.1-0.4-0.1-0.7
		l0,0l0,0c0,0,0.1,0,0.1,0.1c0,0,0.1,0.1,0.1,0.1l0,0l0,0c0,0,0.1,0.1,0.2,0.1c0,0,0-0.1,0-0.1c0-0.1,0-0.2,0.1-0.2v0h0
		c0.1,0,0.1,0,0.2,0.1v0v0c0,0,0,0,0,0c0,0,0,0.1,0,0.1v0l0,0c-0.1,0-0.1,0.1-0.1,0.1c0,0.1,0,0.1-0.1,0.1l0,0l0,0c0,0,0,0,0-0.1
		c0,0,0-0.1,0-0.1h0h0c0,0-0.1,0-0.1,0c0,0,0,0,0,0C210.9-12.7,210.9-12.6,210.9-12.4 M211.1-12.7L211.1-12.7L211.1-12.7
		C211.1-12.7,211.1-12.6,211.1-12.7c0.1,0.1,0.1,0.1,0.1,0.1l0,0l0,0c0.1,0.1,0.1,0,0.2,0l0,0c0,0,0,0,0.1,0c0,0,0.1,0,0.1,0h0l0,0
		c0,0.1-0.1,0.1-0.1,0.1l0,0l0,0c0,0,0,0,0,0c-0.1,0-0.1,0.1-0.2,0.1c-0.1,0-0.1,0-0.2-0.1C211.1-12.5,211.1-12.6,211.1-12.7
		 M211-13.7c0.2-0.1,0.4,0,0.5,0.1v0l0,0c0.2,0.2,0.2,0.4,0.2,0.6v0l0,0c0,0,0,0,0,0c0,0,0,0-0.1,0l0,0l0,0c0-0.1-0.1-0.3-0.3-0.4
		l0,0c-0.1,0-0.1,0-0.2,0c0,0.1-0.1,0.1-0.1,0.2l0,0l0,0c-0.1-0.1-0.2-0.2-0.2-0.4v0C210.9-13.6,210.9-13.7,211-13.7 M211.6-19.4
		c-0.1,0.3-0.4,0.5-0.6,0.6c-0.1,0-0.2,0.1-0.3,0.1c-0.1,0.1-0.3,0.2-0.4,0.4l0,0c0.2-0.2,0.5-0.3,0.8-0.5c0.2-0.1,0.3-0.1,0.5-0.2
		l0,0v0c0,0.2-0.2,0.3-0.3,0.4c0,0,0,0-0.1,0v0v0c-0.1,0-0.2,0.1-0.2,0.1c-0.2,0.1-0.4,0.2-0.6,0.5c0,0,0.1,0,0.1-0.1
		c0,0,0.1-0.1,0.1-0.1v0l0.1,0c0.2-0.1,0.4-0.3,0.7-0.4l0,0l0,0c0,0.3-0.3,0.5-0.6,0.6c-0.1,0.1-0.3,0.1-0.4,0.2
		c-0.2,0.2-0.4,0.4-0.4,0.6c0,0,0,0,0,0c0.4-0.5,1-0.8,1.2-0.9l0,0l0,0c0,0.1-0.1,0.2-0.2,0.3c-0.1,0.1-0.3,0.2-0.4,0.3
		c-0.2,0.2-0.4,0.3-0.6,0.5l0,0l0,0c0,0,0,0,0,0c0,0,0,0,0,0c0.1-0.2,0.3-0.3,0.4-0.4c0,0,0.1-0.1,0.1-0.1h0l0.3-0.2l0,0l0,0
		c0.1,0.1,0,0.2-0.1,0.3l0,0l0,0l-0.4,0.3c-0.1,0.1-0.4,0.3-0.4,0.4c0,0,0,0,0,0c0,0,0,0,0,0c0,0,0.1-0.1,0.1-0.1
		c0,0,0.1-0.1,0.1-0.1c0.3-0.2,0.6-0.3,0.6-0.3l0,0l0,0c-0.1,0.3-0.3,0.4-0.5,0.6c-0.2,0.1-0.3,0.3-0.4,0.4c0,0,0,0,0,0c0,0,0,0,0,0
		c0.2-0.2,0.4-0.4,0.8-0.6l0,0l0,0c0,0.1,0,0.2,0,0.2v0l0,0c-0.1,0.1-0.1,0.1-0.2,0.2c-0.3,0.3-0.7,0.6-0.8,1c0,0,0,0,0,0
		c0,0,0,0,0,0c0,0,0.1-0.1,0.1-0.1c0,0,0.1-0.1,0.1-0.1c0.1-0.1,0.2-0.2,0.3-0.3c0.1-0.1,0.2-0.2,0.3-0.3c0,0,0,0,0,0l0,0l0,0.1
		c0,0.2-0.1,0.4-0.2,0.5v0h0c-0.2,0.1-0.4,0.3-0.5,0.5c0,0,0,0,0,0c0.1-0.2,0.4-0.3,0.6-0.4l0,0l0,0c0,0.3-0.1,0.5-0.5,0.8l0,0l0,0
		c0-0.1-0.1-0.2-0.1-0.3c0,0-0.1,0-0.1,0c-0.1,0-0.1,0-0.2,0v0v0c0-0.3,0-0.6,0-0.9c0-0.8,0.1-1.5,0-2.3c0-0.1,0-0.1,0-0.2
		c0-0.1,0-0.1,0-0.2v0v0c0-0.1,0-0.1,0-0.2c0-0.1,0-0.2,0.1-0.3c0.2-0.1,0.4-0.2,0.6-0.3c0.2-0.1,0.3-0.1,0.5-0.3l0,0h0
		c0.1,0,0.1-0.1,0.2-0.1c0,0,0.1-0.1,0.1-0.1h0l0,0C211.4-19.4,211.5-19.4,211.6-19.4L211.6-19.4L211.6-19.4L211.6-19.4 M210.7-14.2
		l0,0.3l0,0l0,0c0,0-0.1,0-0.1-0.1c-0.1,0-0.1-0.1-0.1,0c-0.1,0.1-0.2,0.2-0.3,0.2c0,0-0.1,0.1-0.1,0.1l0,0h0l-0.1,0h0v0
		c0-0.2,0.2-0.3,0.2-0.3l0,0l0,0c0,0,0,0,0,0.1c0,0,0,0.1,0,0.1c0.1-0.1,0.2-0.3,0.4-0.4l0,0h0C210.6-14.2,210.6-14.2,210.7-14.2
		C210.6-14.2,210.7-14.2,210.7-14.2C210.7-14.2,210.7-14.2,210.7-14.2L210.7-14.2 M210.6-11.8C210.6-11.8,210.6-11.9,210.6-11.8
		c-0.1-0.1-0.1-0.1-0.1-0.1c0,0,0,0,0.1,0c0,0,0.1,0,0.1,0c0,0,0,0,0,0.1C210.7-11.9,210.7-11.9,210.6-11.8
		C210.7-11.8,210.7-11.8,210.6-11.8C210.7-11.8,210.6-11.8,210.6-11.8 M210.7-11.6C210.7-11.6,210.7-11.6,210.7-11.6
		c0,0.1,0,0.1,0,0.1c0,0,0,0,0,0c-0.1,0-0.1,0-0.1,0l0,0v0C210.5-11.6,210.5-11.6,210.7-11.6C210.6-11.6,210.6-11.6,210.7-11.6
		 M209.8-13.3c0,0.1,0,0.1,0,0.2v0h0c-0.1,0.1-0.2,0.1-0.3,0c-0.1,0-0.1-0.1-0.1-0.1l0,0c0-0.1,0-0.1,0-0.2c0,0,0,0,0,0l0,0l0,0
		c0,0,0.1-0.1,0.2,0C209.7-13.4,209.7-13.4,209.8-13.3L209.8-13.3L209.8-13.3C209.8-13.3,209.8-13.3,209.8-13.3 M209.8-13.7
		c0,0,0,0.1-0.1,0.1l0,0l0,0c-0.1,0-0.2,0-0.2,0l0,0l0,0c0,0,0-0.1-0.1-0.1c-0.1-0.2-0.1-0.3-0.3-0.4l-0.1-0.1l0,0v0v0v0l0,0
		c0.3,0.1,0.6,0.1,0.9,0h0l0,0c0,0,0,0,0.1,0c0,0,0,0,0,0v0l0,0c0,0.1-0.1,0.1-0.1,0.2c0,0-0.1,0.1-0.1,0.1
		C209.8-13.8,209.8-13.8,209.8-13.7 M209.1-13.1c-0.2,0-0.3,0.2-0.4,0.3l0,0l0,0v0c0-0.1,0-0.2,0-0.3c0-0.1,0-0.2,0-0.3
		c0-0.1,0-0.1,0-0.2c0-0.1,0-0.2-0.1-0.3l0,0l0,0c0,0,0,0,0.1,0c0,0,0.1,0,0.1,0.1c0,0,0,0.1,0.1,0.1l0,0l0,0
		c0.1,0.1,0.2,0.2,0.3,0.2c0,0,0.1,0,0.1,0.1l0,0l0,0c0,0.1,0,0.1,0,0.2C209.2-13.2,209.2-13.2,209.1-13.1 M209.2-12.9L209.2-12.9
		c-0.1,0.2-0.3,0.4-0.5,0.5v0h0c0,0,0,0,0,0c0,0-0.1,0-0.1,0l0,0l0,0c0-0.1,0-0.2,0-0.2l0,0l0,0c0,0,0.1,0,0.1,0c0,0,0.1,0,0.1,0
		c0,0,0.1-0.1,0.1-0.1C209-12.9,209-13,209.2-12.9L209.2-12.9L209.2-12.9L209.2-12.9L209.2-12.9 M209.5-17.5c0-0.3,0-0.5,0-0.8
		c0-0.1,0-0.1,0-0.2l0,0l0,0c0,0,0,0,0,0c0,0,0,0,0,0l0,0h0c0,0,0.1,0,0.1-0.1l0,0l0,0c0,0.5,0,1.1,0,1.6c0,0.6,0,1.1,0,1.8
		c0,0.1,0,0.2,0,0.3c0,0.2,0,0.3,0,0.5l0,0l0,0c0,0,0,0,0,0c0,0-0.1,0-0.1,0l0,0l0,0c0-0.1,0-0.1,0-0.2c0-0.1,0-0.1,0-0.2l0,0v0
		c0-0.4,0-0.7,0-1.1c0-0.4,0-0.7,0-1.1C209.5-17.1,209.5-17.3,209.5-17.5 M209.9-13.4L209.9-13.4L209.9-13.4c0.2,0,0.3-0.1,0.4-0.2
		c0.1-0.1,0.1-0.1,0.2-0.2l0,0l0,0c-0.1,0.3-0.1,0.6,0,1l0,0l0,0c-0.1,0-0.1-0.1-0.2-0.2l0,0c-0.1-0.1-0.1-0.1-0.2-0.1
		c-0.1,0-0.1-0.1-0.2-0.1l0,0l0,0C209.9-13.2,209.9-13.3,209.9-13.4 M209.9-12.9C209.9-12.9,210-12.9,209.9-12.9
		C210-12.9,210-12.9,209.9-12.9c0.1,0,0.1,0,0.1,0h0l0,0c0,0,0,0,0,0c0.1,0,0.1,0.1,0.2,0.1l0,0c0.1,0.1,0.1,0.1,0.2,0.1l0,0
		c0,0,0,0,0,0c0,0,0.1,0,0.1,0v0v0c0,0,0,0.2-0.1,0.3l0,0h0C210.3-12.4,210-12.6,209.9-12.9L209.9-12.9L209.9-12.9 M208.1-17
		c0-0.1-0.1-0.3-0.1-0.4c0-0.2-0.1-0.3-0.1-0.5l0,0l0,0c0,0,0.1,0.1,0.1,0.1c0,0,0.1,0.1,0.1,0.1v0v0c0.1,0.1,0.3,0.3,0.5,0.4
		c0.2,0.1,0.4,0.3,0.6,0.5c0,0,0-0.1,0-0.1c0,0,0,0,0-0.1c-0.2-0.4-0.5-0.6-0.9-0.9c-0.1-0.1-0.3-0.2-0.4-0.3
		c-0.2-0.2-0.2-0.4-0.3-0.6l-0.1-0.6v0l0,0c0,0,0,0,0,0c0,0,0-0.1,0.1-0.1c0,0,0,0,0.1,0c0,0,0.1,0,0.1,0c0-0.1,0-0.1-0.1-0.2
		c0-0.1-0.1-0.1-0.1-0.2c0,0-0.1,0-0.1-0.1c0,0-0.1,0-0.1,0c-0.3-0.1-0.4-0.3-0.5-0.6c-0.1-0.2-0.1-0.5-0.1-0.8
		c0-0.4,0.3-0.7,0.6-0.9v0h0c0.3-0.2,0.7-0.2,1-0.1v0c-0.3-0.2-0.9-0.2-1.2,0.1l-0.2,0.2l0,0l0,0c0-0.4,0.4-0.7,0.7-0.9
		c0.3-0.1,0.7-0.1,1,0c0.2,0.1,0.5,0.2,0.5,0.4l0,0l0,0c-0.1,0-0.1,0-0.2-0.1c0,0-0.1,0-0.1-0.1c0,0-0.1,0-0.1,0c-0.1,0-0.1,0-0.2,0
		c0,0,0,0.1,0.1,0.1c0,0,0.1,0,0.1,0c0.2,0.1,0.5,0.3,0.5,0.5v0l0,0c-0.1,0-0.1,0-0.2,0c0,0-0.1,0-0.2,0l0,0c-0.1,0-0.3,0-0.4,0.1
		c0,0,0,0,0,0c0,0,0,0,0,0l0,0h0c0.4,0,0.7,0.1,0.8,0.3c0,0,0,0,0,0c0,0,0,0-0.1,0h0c-0.2-0.1-0.5,0-0.6,0.2c0,0,0,0,0,0
		c0,0,0,0,0,0c0.2-0.1,0.5-0.2,0.6,0v0l0,0c0,0.1,0.1,0.1,0.1,0.2v0l0,0c-0.2,0-0.4,0.1-0.5,0.2c0,0,0.1,0,0.1,0c0,0,0,0,0,0l0,0
		l0,0c0.1,0,0.3,0,0.3,0.1l0,0v0c0,0.1-0.1,0.2-0.1,0.2c-0.1,0-0.1,0.1-0.1,0.1c0,0,0,0,0.1,0c0,0,0.1,0,0.1,0h0
		c0.1,0,0.1,0.1,0.2,0.1l0,0v0c0,0.1,0,0.1,0,0.2c0,0.1,0,0.2,0.1,0.3c0,0,0,0,0,0c0,0,0,0,0,0c0,0,0,0,0,0c0-0.6,0-1.6-0.1-2.5v0v0
		c0-0.1,0.1-0.1,0.2-0.1c0.1,0,0.2,0,0.2,0.1v0v0c0,0.2,0,0.3-0.1,0.5c0,0.3-0.1,0.5,0,0.8v0c0,0,0,0,0,0c0,0,0,0,0,0
		c0.1-0.5,0.2-1.2,0.8-1.5l0.1,0c0.1-0.1,0.3-0.1,0.4-0.1c0.2,0,0.4,0,0.5,0.1l0,0l0,0l0,0l0,0l0,0c-0.1,0-0.1,0-0.2,0
		c-0.1,0-0.3,0-0.4,0.1c0,0,0,0,0,0c0,0,0,0,0,0c0,0,0,0,0,0c0.1,0,0.3,0,0.5,0c0.3,0,0.6,0.2,0.7,0.6l0,0l0,0l0,0l0,0l0,0
		c-0.4-0.2-0.9-0.4-1.4-0.2c0,0-0.1,0-0.1,0.1c0.4-0.1,0.9-0.1,1.3,0.2c0.1,0.1,0.2,0.2,0.3,0.4l0,0l0,0c-0.2-0.1-0.5-0.2-0.7-0.2
		c0,0,0,0,0,0c0,0,0,0,0,0l0,0c0.3,0.1,0.6,0.2,0.8,0.5c0.1,0.1,0.2,0.3,0.1,0.5l0,0l0,0h0h0l0,0c-0.2-0.4-0.5-0.6-0.8-0.6
		c0,0,0,0,0,0c0,0,0,0,0,0c0.3,0.1,0.7,0.5,0.7,0.9c0,0.2,0,0.3-0.2,0.4l0,0l0,0c-0.1-0.4-0.4-0.8-0.8-1c0,0,0,0,0,0
		c0,0,0.1,0.1,0.1,0.1c0.1,0.1,0.2,0.2,0.3,0.3c0.1,0.2,0.2,0.5,0.1,0.7c0,0.1-0.1,0.1-0.2,0.1h0v0c0-0.4-0.1-0.7-0.3-0.9
		c0,0-0.1,0-0.1-0.1c-0.2-0.1-0.4-0.3-0.7-0.2c0,0,0,0,0,0c0,0,0,0,0,0c0,0,0.1,0,0.1,0c0,0,0.1,0,0.1,0h0c0.3,0.1,0.6,0.4,0.7,0.8
		l0,0v0c0,0.2,0,0.4-0.1,0.5l0,0l0,0c0-0.1,0-0.1,0-0.2c0,0,0-0.1,0-0.1c0,0,0,0,0-0.1c0-0.1-0.1-0.2-0.2-0.3c0,0,0,0,0,0
		c0,0,0,0,0,0.1c0,0,0,0,0,0c0.1,0.2,0.1,0.5,0,0.7v0l0,0c0,0,0,0,0,0.1c0,0.1-0.1,0.2-0.2,0.2l0,0l0,0l0,0l0,0v0
		c0-0.3-0.1-0.5-0.2-0.6h0c0.1,0.3,0.1,0.6,0,0.7c-0.1,0.1-0.1,0.1-0.2,0.1h0v0v0c0-0.1,0-0.3-0.2-0.4l0,0c0.1,0.2,0.1,0.3,0,0.5
		c-0.1,0.1-0.1,0.2-0.2,0.2c-0.1,0.1-0.2,0.2-0.2,0.2l0,0h0h0h0l0,0c-0.2-0.3-0.5-0.4-0.8-0.5c-0.3-0.1-0.7-0.3-0.8-0.6
		c-0.1-0.4,0-0.8,0.3-1.1c-0.2,0.1-0.4,0.4-0.5,0.7c0,0.4,0,0.7,0.3,1c0.2,0.2,0.5,0.3,0.7,0.4l0.2,0.1l0,0c0,0,0.1,0,0.1,0.1
		c0.1,0.1,0.3,0.2,0.3,0.4c0,0,0,0.1,0,0.1c0,0,0,0,0,0l0,0c-0.2-0.2-0.4-0.3-0.7-0.4c0,0,0,0,0,0c0,0,0,0,0,0c0,0,0,0,0,0
		c0.1,0.1,0.1,0.1,0.2,0.2c0.2,0.2,0.4,0.3,0.5,0.5v0l0,0c0,0,0,0.2,0,0.2l0,0l0,0c-0.2-0.2-0.4-0.3-0.6-0.4
		c0.3,0.2,0.6,0.5,0.7,0.8v0v0c0,0.1,0,0.2,0,0.4c0,0.1,0,0.2,0,0.3l0,0l0,0c-0.1,0-0.2-0.1-0.2-0.1c-0.1,0-0.1-0.1-0.2-0.1l0,0l0,0
		h0c0,0,0,0,0,0c0,0.1,0.1,0.1,0.2,0.2c0.1,0.1,0.1,0.1,0.2,0.2h0v0c0,0,0,0.1,0,0.1c0,0.1,0.1,0.2,0.1,0.3l0,0l0,0l0,0l0,0l0,0
		c-0.1-0.2-0.3-0.3-0.4-0.4c0,0,0,0,0,0c0,0,0,0,0.1,0.1c0,0,0,0,0.1,0l0,0c0.2,0.2,0.3,0.4,0.4,0.6v0v0c0,0,0,0,0,0.1
		c0,0,0,0.1,0,0.1l0,0l0,0c-0.1-0.1-0.1-0.1-0.2-0.2c-0.1-0.1-0.1-0.1-0.2-0.2l0,0c0,0,0,0.1,0.1,0.1c0,0,0,0.1,0.1,0.1
		c0.1,0.2,0.2,0.4,0.3,0.6v0v0l0,0.5v0l0,0c-0.1,0-0.1,0-0.2,0c-0.1,0-0.2,0-0.2,0.1c0,0,0,0,0,0c0,0-0.1,0.1,0,0.1
		c0.1,0.1,0.3,0.2,0.3,0.4l0,0l0,0c0,0-0.1,0-0.1,0c0,0,0,0-0.1,0l0,0l0,0l-0.2-0.3c0,0-0.1,0-0.1,0c0,0-0.1,0.1-0.1,0l0,0l0,0
		l0-0.1v0v0c0-0.3,0-0.6-0.1-0.9c0-0.2,0-0.4,0-0.6v-0.1v0l0,0c0.1,0.1,0.3,0.3,0.4,0.4l0.2,0.2l0,0l0,0c0,0.1,0.1,0.2,0.2,0.2
		c0,0,0,0,0.1,0.1c0,0,0,0,0,0c-0.1-0.4-0.4-0.7-0.8-1c-0.1-0.1-0.2-0.1-0.3-0.2l0,0l0,0c0-0.1-0.1-0.2-0.1-0.3
		C208.2-16.5,208.1-16.8,208.1-17 M208-12.8c0,0-0.1,0-0.1,0.1c0,0.1-0.1,0.1-0.2,0.1l0,0v0c0,0,0,0,0-0.1c0-0.1,0-0.1,0-0.2
		c0,0,0,0-0.1,0c0,0-0.1-0.1-0.1-0.1v0h0c0-0.1,0.1-0.1,0.1-0.1c0.1,0,0.1,0,0.1,0.1c0,0,0,0.1,0,0.1C207.9-13,207.9-12.9,208-12.8
		c0-0.1,0.1-0.2,0.1-0.2c0,0,0.1-0.1,0.1-0.1l0,0l0,0l0,0l0,0v0c0,0,0,0.1,0,0.1c0,0.2,0,0.4,0,0.5l0,0h0c0,0-0.1,0-0.1,0
		c0,0,0,0,0,0v0l0,0C208.2-12.6,208.2-12.7,208-12.8 M208.1-12.6L208.1-12.6c0,0.1-0.1,0.2-0.1,0.2c-0.1,0.1-0.2,0-0.4,0l0,0l0,0
		l-0.1-0.1l0,0v0v0v0l0,0c0.1,0.1,0.2,0.1,0.3,0.1h0c0,0,0.1,0,0.1-0.1C208-12.6,208-12.6,208.1-12.6L208.1-12.6L208.1-12.6
		L208.1-12.6L208.1-12.6 M208.2-13.6L208.2-13.6L208.2-13.6c0.1,0.1,0.1,0.3,0,0.4c0,0.1-0.1,0.1-0.1,0.1l0,0l0,0
		c0-0.1-0.1-0.2-0.2-0.3c-0.2,0-0.3,0.1-0.3,0.2l0,0v0c0,0,0,0.1,0,0.1c0,0.1,0,0.1-0.1,0.1l0,0l0,0c-0.1-0.2,0.1-0.4,0.2-0.6l0,0
		c0.1-0.1,0.2-0.1,0.3-0.1C208-13.8,208.1-13.7,208.2-13.6 M207.4-14C207.4-14.1,207.4-14.1,207.4-14c0.1-0.1,0.1-0.2,0.1-0.2
		c0.1-0.2,0.2-0.4,0.2-0.6l0.1-0.3l0,0l0,0l0,0l0,0l0,0c0,0.1,0,0.1,0.1,0.2c0,0.1,0.1,0.2,0,0.4c0,0.1-0.1,0.2-0.1,0.3
		c0,0.1-0.1,0.2-0.1,0.3c0,0,0-0.1,0.1-0.1c0.1-0.1,0.1-0.3,0.2-0.3l0,0l0,0l0,0c0.1,0.1,0.1,0.3,0,0.4l0,0l0,0
		c-0.1,0-0.2,0-0.3,0.1l0,0l0,0c0,0,0,0-0.1,0c0,0,0,0,0,0.1c0,0,0,0.1-0.1,0.1c0,0,0,0-0.1,0.1c0,0,0,0.1-0.1,0.1h0l0,0
		c0-0.1,0-0.2,0-0.3C207.3-14,207.3-14,207.4-14L207.4-14L207.4-14 M207.3-12.9L207.3-12.9L207.3-12.9c0.1,0,0.2,0,0.3,0l0,0v0v0v0
		l0,0c-0.2,0-0.4,0.1-0.6,0.2l0,0l0,0l0,0l0,0l0,0c0-0.1,0.1-0.2,0.2-0.2C207.2-12.9,207.3-12.9,207.3-12.9L207.3-12.9 M206.6-12.7
		C206.6-12.7,206.5-12.8,206.6-12.7l-0.1-0.1l0,0c0,0,0,0,0,0c0,0,0-0.1,0-0.1c0.1,0,0.2,0,0.3,0.1l0,0v0c0,0,0,0.1,0,0.1
		c0,0.1-0.1,0.2,0,0.2l0,0v0c0,0,0,0.1,0,0.1c0,0,0,0,0,0l0,0l0,0c0,0-0.1,0-0.1,0c0,0-0.1,0-0.1,0c0,0,0,0,0,0.1l0,0.1l0,0l0,0
		c-0.1,0-0.1-0.1-0.1-0.1c0,0,0,0,0-0.1l0,0l0,0c0,0,0.1,0,0.1,0C206.6-12.6,206.7-12.6,206.6-12.7
		C206.6-12.7,206.6-12.7,206.6-12.7 M206.7-12.3L206.7-12.3C206.7-12.3,206.7-12.3,206.7-12.3c0.2,0,0.3,0,0.4-0.1l0,0l0,0
		c0,0,0,0,0-0.1c0,0,0-0.1,0.1-0.1l0,0l0,0l0,0.1v0v0c0,0.1-0.1,0.2-0.2,0.2v0c0,0,0,0,0,0c-0.1,0-0.1,0-0.2,0
		C206.7-12.2,206.7-12.2,206.7-12.3L206.7-12.3 M207.2-13.9c0.1,0.2,0.1,0.4,0.1,0.6c0,0.1,0,0.2,0,0.3v0l0,0c0,0,0,0,0,0
		c0,0,0,0,0,0l0,0h0h-0.1h0l0,0c0-0.1-0.1-0.2-0.2-0.3c-0.1-0.2-0.3-0.3-0.3-0.6v0c0,0,0-0.1,0-0.1c0-0.1,0-0.2,0.1-0.3l0,0l0,0
		C207-14.3,207.1-14.1,207.2-13.9 M205.9-16.2L205.9-16.2L205.9-16.2c0.1,0,0.1,0.1,0.2,0.1c0,0,0,0,0,0v0h0
		c0.1,0.1,0.1,0.2,0.2,0.3c0.2,0.3,0.3,0.5,0.4,0.8c0,0.1,0.1,0.1,0.1,0.2c0,0.1,0,0.1,0.1,0.2l0,0l0,0c0,0-0.1,0-0.1,0c0,0,0,0,0,0
		h0l0,0c-0.1-0.1-0.1-0.2-0.1-0.3c0-0.1-0.1-0.2-0.1-0.3h0v0c-0.1-0.2-0.2-0.3-0.3-0.5c-0.1-0.1-0.1-0.2-0.2-0.4l0,0v0c0,0,0,0,0,0
		C205.9-16.1,205.9-16.2,205.9-16.2 M205.9-14l-0.1-0.1c-0.1-0.2-0.2-0.3-0.4-0.5l-0.1-0.1c-0.1-0.1-0.2-0.2-0.3-0.4v0v0l0-0.1l0,0
		l0,0c0,0,0.1-0.1,0.1-0.1c0.1-0.1,0.1-0.2,0.2-0.2l0,0l0,0c0.1,0,0.1,0,0.2,0c0.1,0,0.2,0,0.3,0c0,0,0,0,0,0
		c-0.1-0.1-0.2-0.2-0.3-0.2c0,0-0.1,0-0.1-0.1l0,0v0c0-0.1,0.1-0.2,0.2-0.3c0,0,0,0,0,0l0,0l0,0c0.2,0.2,0.3,0.5,0.5,0.8l0,0l0,0
		c-0.2,0-0.5-0.1-0.7,0c0.1,0,0.2,0.1,0.3,0.1c0.1,0,0.2,0,0.3,0.1c0.1,0.1,0.3,0.2,0.3,0.4l0,0h0c-0.1,0-0.2,0-0.3,0
		c-0.1,0-0.2,0-0.3,0c0,0-0.1,0-0.1,0c0,0-0.1,0-0.1,0l0,0c0.1,0,0.2,0,0.3,0.1c0.2,0,0.5,0.1,0.6,0.3l0,0v0c0,0.1,0,0.1-0.1,0.1
		l0,0l0,0c-0.1,0-0.1,0-0.2,0c-0.1,0-0.2,0-0.3,0c0,0,0,0,0,0c0,0,0,0,0,0h0l0,0c0.1,0,0.1,0,0.2,0c0.1,0,0.2,0.1,0.3,0.1l0,0v0
		c0.1,0.4,0.1,0.6,0,0.6l0,0l0,0c-0.2-0.1-0.3-0.1-0.4-0.1h0h0l0,0c0,0-0.1-0.1-0.1-0.2C205.9-13.9,205.9-14,205.9-14 M206-12.9
		L206-12.9c-0.1-0.1-0.1-0.2,0-0.3l0,0v0c0.1-0.1,0.2-0.1,0.3-0.1h0c0.3,0,0.5,0.2,0.7,0.4v0c0,0,0,0,0,0c0,0,0,0.1,0,0.1l0,0l0,0
		c-0.2-0.2-0.4-0.2-0.5-0.2c0,0-0.1,0-0.1,0.1c0,0.1,0,0.1,0,0.2l0,0h0C206.3-12.7,206.1-12.8,206-12.9 M205.2-12.5
		c0.1-0.1,0.1-0.3,0.2-0.4c0-0.1,0-0.1,0.1-0.2l0,0l0,0c0,0,0.1,0.1,0.1,0.1c0,0,0,0,0,0v0c0,0.3,0.2,0.5,0.4,0.7l0,0v0c0,0,0,0,0,0
		c0,0-0.1,0-0.1,0c-0.1-0.1-0.2-0.1-0.3-0.1c-0.1,0-0.1,0-0.2,0h0l0,0c0,0-0.1-0.1-0.1-0.1C205.2-12.4,205.2-12.4,205.2-12.5
		L205.2-12.5L205.2-12.5 M204.8-12.5L204.8-12.5L204.8-12.5l-0.1-0.1c-0.1-0.1-0.1-0.2-0.2-0.2l0,0l0,0c0-0.1,0.1-0.2,0.2-0.2
		c0,0,0.1,0,0.1-0.1l0,0h0h0l0,0l0,0c0,0.1-0.1,0.3,0,0.5v0v0c0,0,0,0,0,0c0,0,0,0.1,0,0.1v0l0,0C204.9-12.5,204.8-12.5,204.8-12.5
		 M205-12.1c-0.1,0-0.1-0.1-0.1-0.1c0,0,0,0,0,0l0,0l0,0c0-0.1,0.1-0.2,0.1-0.2h0c0,0,0.1,0,0.1,0c0,0,0.1,0,0.1,0.1
		c0,0.1,0,0.1,0,0.2c0,0,0,0,0,0v0l0,0C205.1-12.1,205-12.1,205-12.1 M205.5-11.4L205.5-11.4l-0.4-0.6h0v0c0,0,0,0,0,0c0,0,0,0,0,0
		c0,0,0,0,0,0l0,0l0,0c0,0,0.1,0.1,0.1,0.1c0.2,0.1,0.3,0.3,0.6,0.3c0.5,0,1-0.2,1.2-0.6c0,0,0-0.1,0-0.1c0-0.1,0.1-0.2,0.1-0.3v0
		l0,0c0-0.1,0.1,0,0.1,0l0,0l0,0c0.2,0.4,0.7,0.5,1.1,0.4c0.2,0,0.8-0.2,0.9-0.6c0,0,0-0.1,0.1-0.1c0,0,0,0,0,0l0,0l0,0
		c0,0,0,0,0.1,0c0.1,0,0.2,0,0.2,0.1v0c0.1,0.4,0.5,0.6,0.8,0.7l0,0h0l0.1,0l0,0l0,0c0,0-0.1,0.1-0.1,0.1c0,0.1,0,0.2,0.1,0.3l0,0
		l0,0c-0.1,0-0.1,0.2-0.1,0.3l0.1,0.1l0,0l0,0c-0.2,0-0.3,0-0.5,0c-1-0.1-2,0.1-3.2,0.4h0l0,0c-0.1,0.1-0.3,0.1-0.4,0.2
		c-0.1,0-0.2,0.1-0.3,0.1l0,0l0,0c0,0,0,0,0,0c0,0,0,0,0-0.1v0l0,0c0-0.1,0.1-0.1,0.1-0.2c0.1-0.1,0.1-0.2,0.1-0.4
		c0-0.1-0.1-0.1-0.2-0.1c0,0-0.1,0-0.1,0c-0.1,0-0.1,0-0.2,0C205.6-11.3,205.6-11.3,205.5-11.4L205.5-11.4 M205.8-10.9
		C205.8-10.9,205.8-10.9,205.8-10.9c0,0.1,0,0.1,0,0.2l0,0h0c-0.1,0-0.2,0-0.2,0l0,0l0,0c0-0.1,0-0.3,0-0.4l0,0l0,0
		c0.1-0.1,0.2,0,0.4,0c0,0,0.1,0,0.1,0l0,0C205.9-11.1,205.8-11.1,205.8-10.9C205.7-11,205.7-10.9,205.8-10.9 M205.4-7.5L205.4-7.5
		c0,0.2-0.1,0.3-0.2,0.4l0,0h0c-0.2,0-0.3-0.1-0.4-0.2c0-0.1,0-0.2,0-0.3v0c0,0,0,0,0,0c0,0,0.1-0.1,0.2-0.1
		C205.1-7.7,205.3-7.7,205.4-7.5L205.4-7.5L205.4-7.5 M206.4-6.6L206.4-6.6c-0.1,0.2-0.2,0.5-0.4,0.8c0,0.1-0.1,0.2-0.2,0.3
		c0,0,0,0,0,0.1l0,0l0,0c0-0.1,0-0.2,0-0.2c0,0,0,0,0-0.1l0,0v0c0.1-0.2,0.2-0.4,0.3-0.6l0.1-0.3C206.3-6.7,206.3-6.7,206.4-6.6
		C206.4-6.7,206.4-6.7,206.4-6.6L206.4-6.6 M208.6-7.5c-0.1,0-0.1,0.1-0.1,0.1v0l0,0c-0.2,0.3-0.3,0.5-0.5,0.8l-0.1,0.2l0,0l0,0
		c-0.2,0-0.3,0-0.4-0.1c0,0-0.1,0-0.1-0.1h0l0,0c0,0-0.1,0-0.1-0.1c-0.2-0.1-0.3-0.2-0.5-0.3c-0.1-0.1-0.3-0.2-0.4-0.3
		c-0.3-0.2-0.6-0.5-0.9-0.6c-0.2-0.1-0.6-0.3-0.8,0c-0.1,0.1-0.1,0.2-0.1,0.3c0.1,0.3,0.4,0.5,0.7,0.5h0l0,0c0,0,0,0,0,0.1v0l0,0
		c-0.3,0-0.6-0.2-0.7-0.4c-0.1-0.1-0.1-0.3-0.1-0.4v0l0,0c0.3-0.5,0.4-1,0.5-1.5l0,0l0,0c0.3-0.1,0.6,0,0.9,0.1
		c0.3,0.1,0.5,0.2,0.7,0.4h0c0.1,0.1,0.3,0.2,0.4,0.3c0.4,0.3,0.8,0.7,1.3,0.9v0h0c0.1,0,0.1,0,0.2,0c0.1-0.1,0-0.2,0-0.3
		c0,0-0.1-0.1-0.1-0.1c-0.1-0.2-0.3-0.3-0.4-0.5l-0.1-0.1l0,0v0c0,0,0-0.1,0-0.1c0,0,0,0,0,0c0.1,0,0.1,0,0.1,0.1c0,0,0,0,0,0
		c0.3,0.3,0.5,0.6,0.6,0.9C208.7-7.5,208.7-7.5,208.6-7.5 M206.5-9.7L206.5-9.7c0.1,0.1,0.1,0.1,0.2,0.2c0.1,0.1,0.1,0.1,0.2,0.2
		c0,0,0,0,0,0c0,0,0,0,0,0c0,0,0,0,0,0h0c0,0.1,0,0.2-0.1,0.3l0,0l0,0c-0.1,0-0.1-0.1-0.1-0.1c0,0,0-0.1-0.1-0.1c0,0,0,0.1,0,0.1
		c0,0,0,0.1,0,0.1l0,0l0,0c0,0,0,0-0.1,0c-0.1,0-0.2-0.1-0.2-0.2v0v0c0-0.1,0-0.2,0-0.3C206.5-9.5,206.5-9.6,206.5-9.7 M207.6-10.5
		c0-0.1,0-0.2,0.1-0.2c0,0,0,0,0,0c0.2-0.1,0.4-0.1,0.5-0.1l0,0l0,0c-0.1,0.1-0.2,0.1-0.2,0.2c-0.1,0.1-0.2,0.1-0.2,0.2l0,0
		c0.1,0,0.1-0.1,0.2-0.1c0,0,0.1,0,0.1-0.1l0,0h0c0,0,0,0,0,0c0,0,0.1,0,0.1,0l0,0l0,0l-0.1,0.3l0,0c-0.1,0.1-0.2,0.2-0.2,0.2
		c-0.1,0-0.2,0.1-0.2,0.2c0,0,0.1,0,0.2-0.1c0.1,0,0.2-0.1,0.2-0.1l0,0v0c0,0.2-0.2,0.3-0.4,0.4c-0.1,0-0.2,0.1-0.2,0.1l0,0l0,0l0,0
		l0,0v0c0-0.1,0-0.2,0-0.3C207.5-9.9,207.5-10.2,207.6-10.5C207.6-10.4,207.6-10.4,207.6-10.5 M208.4-10.3c0-0.1,0.1-0.3,0.2-0.3
		c0.1,0,0.1,0.1,0.1,0.3c0,0.3,0,1.6,0,1.9v0l0,0C208.4-8.5,208-8.9,208-9v0v0C208.1-9.4,208.3-10.2,208.4-10.3 M207.4-9.2
		c0.1-0.1,0.2-0.1,0.3-0.1c0.1,0,0.1-0.1,0.2-0.1l0,0l0,0c0,0.1-0.1,0.2-0.1,0.3l0,0l0,0l-0.3,0.2c0,0,0,0,0,0c0,0,0.1,0,0.1,0
		c0.1,0,0.1,0,0.2,0l0,0l0,0l0,0c0,0.1,0,0.2-0.1,0.2h0v0c0,0-0.1,0-0.1,0c-0.1,0-0.1,0.1-0.2,0.1c0,0,0.1,0,0.1,0c0,0,0,0,0.1,0
		l0,0v0c0,0,0,0.1,0,0.1l0,0l0,0c-0.1,0-0.2-0.1-0.3-0.2l0,0l0,0l0,0c0-0.1,0-0.2,0.1-0.2C207.3-8.9,207.3-9.1,207.4-9.2L207.4-9.2
		L207.4-9.2L207.4-9.2 M207.8-8.5c0.1,0,0.2,0.2,0.3,0.3c0,0,0,0.1,0.1,0.1v0l0,0c0,0.1,0,0.1,0,0.2l0,0l0,0
		c-0.2,0.1-0.4-0.1-0.5-0.2c0,0-0.1-0.1-0.1-0.1l0,0l0,0C207.7-8.3,207.7-8.4,207.8-8.5L207.8-8.5L207.8-8.5 M207.4-10.4
		c0,0.6-0.2,1.2-0.3,1.7v0v0c0,0,0,0,0,0c0,0,0,0,0,0l0,0v0c0-0.1,0-0.2,0-0.3c0-0.1,0-0.2,0.1-0.2v0l0,0c0.1-0.2,0.1-0.5,0.1-0.7
		c0-0.1,0-0.3,0.1-0.4v0C207.3-10.4,207.3-10.5,207.4-10.4C207.4-10.4,207.4-10.4,207.4-10.4 M207.1-10.2L207.1-10.2L207.1-10.2
		c-0.1,0-0.1-0.1-0.2-0.1c0,0,0,0,0,0l0,0l0,0c0,0,0.1-0.1,0.2-0.1c0,0,0,0,0.1,0l0,0v0C207.2-10.4,207.2-10.3,207.1-10.2
		 M206.9-10.3C206.9-10.2,207-10.2,206.9-10.3c0.1,0.2,0.2,0.4,0.1,0.5l0,0l0,0c-0.1,0-0.1-0.1-0.1-0.1c0,0-0.1-0.1-0.1-0.1l0,0
		c0,0.1,0,0.1,0.1,0.2c0.1,0.1,0.1,0.3,0.1,0.4l0,0l0,0c0,0,0-0.1-0.1-0.1c0,0,0-0.1-0.1-0.1v0c0-0.1-0.1-0.1-0.1-0.2
		c-0.1-0.1-0.2-0.1-0.2-0.2l0,0v0l0-0.3v0l0,0c0,0,0,0,0.1,0c0.1,0,0.2-0.1,0.2-0.1C206.9-10.4,206.9-10.3,206.9-10.3 M209.2-7.8
		c0,0,0.1,0.1,0.1,0.1c0.1,0.1,0.1,0.1,0.2,0.2v0v0l0,0.3l0,0l0,0c-0.1,0-0.1-0.1-0.2-0.1c0,0-0.1-0.1-0.1-0.1c0,0,0,0.1,0,0.1
		c0,0,0,0,0,0.1c0,0,0,0.1,0.1,0.1c0.1,0.1,0.2,0.3,0.1,0.5l0,0l0,0c-0.4-0.2-0.5-0.6-0.5-1.1c0,0,0-0.1,0-0.1c0,0,0-0.1,0-0.1l0,0
		v0c0-0.1,0-0.3,0-0.4c0-0.1,0-0.1,0-0.2v0l0,0c0.1,0.1,0.3,0.3,0.4,0.3l0,0l0,0c0.1,0.1,0.2,0.2,0.1,0.4l0,0.1l0,0l0,0
		c-0.1,0-0.2-0.1-0.3-0.2l0,0L209.2-7.8 M209.1-10.5L209.1-10.5c0,0,0.1,0.1,0.1,0.1c0.1,0.1,0.2,0.2,0.2,0.3l0,0v0
		c0,0.1,0,0.3,0,0.4c0,0.1,0,0.2,0,0.3l0,0l0,0c-0.1,0-0.1,0-0.2-0.1c0,0,0,0-0.1,0v0c0,0,0,0,0,0c0,0,0,0-0.1-0.1c0,0,0,0,0,0
		c0,0,0,0,0,0l0,0h0c0,0,0.1,0.1,0.1,0.1c0.2,0.1,0.3,0.3,0.3,0.5l0,0h0c0,0-0.1,0-0.1-0.1c0,0,0,0-0.1,0c0,0-0.1,0-0.1-0.1
		c0,0-0.1-0.1-0.1-0.1c0,0,0,0,0,0c0,0,0.1,0.1,0.1,0.2c0,0,0.1,0.1,0.1,0.1c0.1,0.2,0.2,0.3,0.2,0.6l0,0l0,0c0,0-0.1-0.1-0.1-0.1
		c0,0,0-0.1-0.1-0.1c0,0-0.1-0.1-0.1-0.1c-0.1-0.1-0.2-0.2-0.3-0.2l0,0l0,0c0-0.4,0-0.8,0-1.2c0,0,0-0.1,0-0.1c0,0,0-0.1,0-0.1l0,0
		l0,0l0,0l0,0l0,0c0.1,0.2,0.3,0.3,0.6,0.5c0,0,0,0,0,0c-0.1-0.2-0.3-0.4-0.5-0.6l-0.1-0.1l0,0l0,0c0-0.1,0-0.1,0-0.2
		c0,0,0-0.1,0-0.1v0l0,0c0-0.1,0.1-0.1,0.2,0c0,0,0.1,0,0.1,0l0,0h0c0.1,0,0.2,0.1,0.3,0.2c0,0,0.1,0.1,0.1,0.1l0,0l0,0
		c0,0.1,0,0.2,0,0.2l0,0l0,0c0,0-0.1-0.1-0.2-0.1C209.2-10.5,209.1-10.5,209.1-10.5C209.1-10.5,209.1-10.5,209.1-10.5
		C209.1-10.5,209.1-10.5,209.1-10.5 M209.3-10.8C209.3-10.8,209.3-10.9,209.3-10.8L209.3-10.8L209.3-10.8c0-0.1,0.1-0.1,0.1,0
		c0,0,0,0,0,0.1v0l0,0C209.4-10.8,209.4-10.8,209.3-10.8C209.4-10.8,209.3-10.8,209.3-10.8L209.3-10.8L209.3-10.8L209.3-10.8
		 M209.7-10.5c0,1.5,0,2.9,0,4.3c0,0.2,0,0.4,0,0.6c0,0.4,0,0.7,0,1.1v0l0,0c0,0,0,0,0,0c0,0,0,0.1,0,0.1l0,0l0,0
		c-0.1-0.2-0.1-0.5-0.1-0.7c0-0.1,0-0.3,0-0.4c0-0.3,0-0.5,0-0.8c0-0.3,0-0.5,0-0.8c0-0.4,0-0.8,0-1.2l0,0v0v0c0-0.2,0-0.4,0-0.5v0
		v0c0-0.2,0-0.3,0-0.5c0-0.1,0-0.2,0-0.3c0-0.2,0-0.3,0-0.5c0-0.2,0-0.4,0-0.6l0,0l0,0c0.1,0,0.1,0,0.1,0c0,0,0,0.1,0,0.2
		C209.7-10.6,209.7-10.5,209.7-10.5L209.7-10.5L209.7-10.5 M210-9.3c0.1-0.1,0.2-0.2,0.3-0.2l0,0l0,0c0.1,0.2-0.1,0.4-0.2,0.5
		c-0.1,0.1-0.1,0.1-0.1,0.2c0,0,0,0,0,0v0c0,0,0.1,0,0.1-0.1c0.1,0,0.1-0.1,0.2-0.1l0,0l0,0c0,0.1,0,0.2,0,0.2c0,0,0,0,0,0v0l0,0
		c-0.2,0.1-0.3,0.3-0.4,0.4c0,0,0,0,0,0c0,0,0,0,0,0c0.1,0,0.1-0.1,0.2-0.2c0,0,0.1-0.1,0.1-0.1l0,0l0,0c0,0,0,0.1,0,0.2
		c0,0,0,0,0,0v0v0c-0.1,0.1-0.1,0.2-0.2,0.3c-0.1,0.1-0.2,0.2-0.2,0.3c0,0,0,0,0,0c0,0,0.1-0.1,0.1-0.1c0.1-0.1,0.2-0.2,0.3-0.2l0,0
		v0c0,0.2-0.1,0.4-0.3,0.5c0,0-0.1,0.1-0.1,0.1l0,0c0,0,0.1,0,0.1-0.1c0,0,0.1-0.1,0.1-0.1l0,0l0,0c0.1,0.2-0.1,0.4-0.2,0.5
		c0,0-0.1,0.1-0.1,0.1l0,0l0,0c0-0.1,0-0.2,0-0.2c0-0.1,0-0.2,0-0.3c0-0.1,0-0.3,0-0.4v0v0c0,0,0-0.1,0-0.1c0,0,0-0.1,0-0.1
		c0-0.2,0-0.3,0-0.5c0-0.2,0-0.3,0-0.5c0-0.4,0-1.6,0-1.9v0l0,0c0,0,0.1,0,0.2,0l0,0l0,0c0,0,0,0.1,0,0.1c0,0,0,0,0,0l0,0
		c0,0,0.1,0,0.1,0c0.1-0.1,0.2-0.1,0.3,0l0,0l0,0c-0.1,0.2-0.3,0.3-0.4,0.4c0,0,0,0,0,0c0,0,0,0,0,0c0,0,0.1,0,0.1-0.1
		c0.1,0,0.2-0.1,0.3-0.1l0,0l0,0c0,0.1,0,0.2,0,0.3l0,0l0,0c-0.2,0.1-0.3,0.3-0.4,0.5c0,0,0,0,0,0c0,0,0,0,0,0l0.1,0
		c0.1-0.1,0.2-0.1,0.3-0.2l0,0l0,0c0,0.1,0,0.1,0,0.2c0,0,0,0,0,0v0v0c0,0.1-0.1,0.2-0.2,0.3C210.1-9.4,210.1-9.4,210-9.3
		C210-9.3,210-9.3,210-9.3 M213.1-6.1c0.1,0.2,0.2,0.4,0.2,0.6l0,0l0,0c-0.1,0-0.2-0.1-0.2-0.2c0,0,0-0.1-0.1-0.1
		c-0.1-0.3-0.2-0.5-0.3-0.8l0,0v0c0,0,0-0.1,0.1-0.1c0,0,0.1,0,0.1,0h0C212.9-6.5,213-6.3,213.1-6.1 M213.9-7.1L213.9-7.1L213.9-7.1
		c-0.1-0.2-0.2-0.3-0.2-0.4l0,0l0,0c0.1-0.1,0.3-0.2,0.5-0.2c0.1,0,0.1,0.1,0.1,0.1c0,0,0,0,0,0l0,0c0,0.1,0.1,0.2,0,0.3l0,0l0,0
		C214.2-7.2,214.1-7.1,213.9-7.1 M214.2-9.2L214.2-9.2L214.2-9.2L214.2-9.2L214.2-9.2L214.2-9.2c0,0.1,0.1,0.1,0.1,0.2
		c0,0.1,0,0.2,0.1,0.4l0,0v0c0,0.2,0,0.3,0.1,0.4c0,0.1,0,0.1,0.1,0.2c0,0,0,0.1,0,0.1c0.1,0.2,0.2,0.4,0,0.6
		c-0.1,0.2-0.4,0.3-0.6,0.4l0,0l0,0l0,0l0,0l0,0c0.1,0,0.1-0.1,0.2-0.1c0.2-0.1,0.4-0.2,0.4-0.3c0-0.1,0-0.2,0-0.3
		c-0.1-0.2-0.3-0.2-0.5-0.2c-0.5,0.1-1,0.5-1.4,0.8c-0.4,0.3-0.7,0.6-1.2,0.7h0h0c0,0,0,0-0.1,0c-0.1,0-0.2,0-0.2-0.1
		c0-0.1-0.1-0.1-0.1-0.2c-0.2-0.3-0.3-0.7-0.7-0.8l0,0l0,0c-0.1-0.1,0-0.1,0-0.2c0,0,0-0.1,0-0.1v0v0c0.1-0.3,0.4-0.7,0.7-1l0,0h0
		c0,0,0,0,0,0c0,0,0,0,0,0l0,0c0,0.1-0.1,0.1-0.1,0.2c0,0-0.1,0.1-0.1,0.1c0,0.1-0.1,0.1-0.1,0.2c-0.1,0.2-0.2,0.3-0.3,0.5
		c0,0,0,0,0,0c0,0,0,0,0,0.1c0.2,0,0.3-0.1,0.5-0.2c0.1,0,0.1-0.1,0.2-0.1c0.1-0.1,0.2-0.1,0.3-0.2c0.1-0.1,0.1-0.1,0.2-0.2
		c0.1-0.1,0.3-0.2,0.4-0.3C212.8-9,213.4-9.4,214.2-9.2 M211.2-10.4C211.3-10.4,211.3-10.4,211.2-10.4c0.2,0.2,0.4,0.3,0.4,0.5v0v0
		v0.1v0l0,0c-0.1,0-0.2-0.1-0.2-0.1c0,0,0,0,0,0v0c0,0,0,0,0,0c0,0,0,0,0,0c0.2,0.2,0.3,0.3,0.3,0.6l0,0c-0.1-0.2-0.4-0.3-0.6-0.4
		c-0.1,0-0.1-0.1-0.1-0.1c0,0,0-0.1,0-0.1l0,0v0c0-0.2,0-0.3-0.1-0.5c0-0.1,0-0.1,0-0.2v0v0c0,0,0-0.1,0-0.1c0,0,0.1,0,0.1,0
		c0,0,0.1,0,0.1,0l0,0c0.1,0,0.2,0,0.3,0.1l0,0l0,0c0,0.1,0,0.1,0,0.2v0l0,0l0,0l0,0l0,0c0,0-0.1,0-0.1,0
		C211.3-10.4,211.3-10.4,211.2-10.4C211.2-10.5,211.2-10.4,211.2-10.4L211.2-10.4 M212.1-10.3c0.1-0.1,0.2-0.1,0.2-0.1h0l0,0
		c0,0,0.1,0.1,0.1,0.1v0l0,0c0,0.1-0.1,0.2-0.1,0.2c0,0,0,0.1-0.1,0.1c0,0,0.1,0,0.1,0c0,0,0.1-0.1,0.1,0c0,0,0,0,0,0.1
		c0.1,0.1,0,0.2-0.1,0.3c0,0-0.1,0.1-0.1,0.2c0,0,0,0,0,0.1c0,0.1-0.1,0.1,0,0.2l0,0c0-0.1,0.1-0.2,0.3-0.3l0,0l0,0c0,0,0,0.1,0,0.1
		c0,0.1,0,0.2,0,0.2c0,0,0,0,0,0.1c0,0-0.1,0.1-0.1,0.1c0,0,0,0,0.1,0c0,0,0.1-0.1,0.1,0c0,0,0,0,0.1,0.1l0,0v0
		c0,0.1-0.1,0.2-0.2,0.2c0,0-0.1,0-0.1,0l0,0h0c0,0,0,0-0.1-0.1c0,0,0,0,0,0l0,0v0c0-0.2-0.1-0.4-0.1-0.5c-0.1-0.3-0.1-0.7-0.1-1
		l0,0l0,0c0,0,0,0,0.1,0c0,0,0.1,0,0.1,0.1h0v0C212.1-10.4,212.1-10.4,212.1-10.3C212.1-10.3,212.1-10.3,212.1-10.3
		C212.1-10.3,212.1-10.3,212.1-10.3 M212.1-8.7L212.1-8.7L212.1-8.7C212.1-8.6,212.1-8.6,212.1-8.7L212.1-8.7L212.1-8.7
		c-0.2,0-0.2-0.1-0.2-0.2c0,0,0-0.1,0-0.1c-0.1-0.4-0.2-0.8-0.2-1.2l0-0.2v0l0,0c0,0,0,0,0,0c0,0,0-0.1,0-0.1h0
		c0.1,0,0.1,0.1,0.1,0.2c0,0,0,0.1,0,0.1l0,0l0,0C211.9-9.7,212-9.2,212.1-8.7 M211.7-8.5C211.8-8.4,211.8-8.4,211.7-8.5L211.7-8.5
		L211.7-8.5c0,0.1,0,0.1,0,0.1c0,0-0.1,0.1-0.1,0l0,0l0,0c-0.1-0.1-0.1-0.2-0.1-0.3c0-0.1,0-0.1-0.1-0.2c0-0.1-0.1-0.2-0.1-0.3
		c0-0.1-0.1-0.3-0.1-0.4l0,0h0h0l0,0l0,0c0.1,0.1,0.2,0.2,0.3,0.2c0.1,0.1,0.3,0.2,0.3,0.4l0,0l0,0v0v0l0,0c0,0,0,0-0.1,0
		c0,0-0.1,0-0.1,0c0,0,0.1,0.1,0.1,0.1c0.1,0.1,0.2,0.2,0.2,0.4l0,0l0,0C211.9-8.5,211.8-8.5,211.7-8.5
		C211.7-8.5,211.7-8.5,211.7-8.5C211.7-8.5,211.7-8.5,211.7-8.5 M211.4-8.2L211.4-8.2L211.4-8.2L211.4-8.2L211.4-8.2
		c-0.1,0.1-0.3,0.2-0.4,0.3l0,0l0,0l0,0c0,0,0,0,0,0c0,0-0.1,0-0.1-0.1v0l0,0c0-0.2,0.1-0.4,0.3-0.5c0-0.1,0.1-0.1,0.1-0.1l0,0l0,0
		C211.3-8.4,211.4-8.3,211.4-8.2L211.4-8.2 M211-9.6c0.1,0.2,0.1,0.4,0.2,0.6v0v0c0,0.1-0.1,0.1-0.1,0.1c-0.1,0.1-0.3,0.4-0.5,0.5
		l0,0v0c0-0.2,0-0.8,0-1.1l0-0.3c0-0.2,0-0.4,0-0.4c0-0.1,0-0.1,0.1-0.1c0,0,0.1,0,0.1,0.1C210.8-10.1,210.9-9.8,211-9.6
		 M213.2-10.2L213.2-10.2L213.2-10.2c0,0-0.1,0.1-0.1,0.1c0,0-0.1,0-0.1,0l0,0l0,0c0,0,0,0,0-0.1c0,0,0,0,0,0c0,0,0,0,0,0
		c-0.4-0.2-0.9-0.4-1.4-0.5l0,0l0,0c0,0-0.1,0-0.1,0c0,0-0.1,0-0.1,0c-1.6-0.4-3.6-0.2-5.1,0.5l0,0c-0.1,0-0.1,0.1-0.1,0.2l0,0l0,0
		l0,0c-0.1,0-0.1,0-0.2-0.1v0v0c0,0,0-0.1,0-0.1c0.2-0.2,0.4-0.2,0.6-0.3l0,0c0.7-0.3,1.4-0.4,2.2-0.5c0.6-0.1,1.3,0,1.8,0
		c0.7,0.1,1.4,0.3,2.2,0.6h0l0,0c0,0,0.1,0,0.1,0.1C213.1-10.4,213.2-10.4,213.2-10.2 M213.6-11L213.6-11L213.6-11
		C213.5-11,213.5-11,213.6-11c-0.1,0-0.2-0.1-0.2,0l0,0c0,0.1-0.1,0.1-0.1,0.2l0,0l0-0.1c-0.1-0.1-0.1-0.2-0.1-0.3l0,0l0,0
		c0.1,0,0.2,0,0.3,0c0,0,0.1,0,0.2,0h0l0,0l0,0l0,0l0,0C213.6-11.1,213.6-11.1,213.6-11C213.6-11,213.6-11,213.6-11 M214.2-13.1
		L214.2-13.1L214.2-13.1C214.2-13.2,214.2-13.2,214.2-13.1l0.4,0.3l0,0v0c0,0.1-0.1,0.2-0.1,0.3c0,0-0.1,0.1-0.1,0.1l0,0h0
		c0,0-0.1,0-0.1,0c0,0,0,0,0,0l0,0l0,0c0-0.1,0-0.1,0-0.2c0-0.1,0-0.2,0-0.2C214.2-13,214.2-13.1,214.2-13.1 M214.1-12.4
		c0.1,0,0.1,0,0.2,0c0,0,0,0,0.1,0.1v0v0c0,0.1,0,0.1-0.1,0.2v0c0,0-0.1,0-0.2,0c0,0-0.1,0-0.1-0.1c0,0,0,0,0,0l0,0v0
		C213.9-12.3,214-12.4,214.1-12.4 M213.3-12.1L213.3-12.1L213.3-12.1c0-0.1,0-0.1,0.1-0.2c0,0,0.1-0.1,0.1-0.1
		c0.1-0.2,0.2-0.4,0.3-0.7l0,0l0,0c0,0,0,0.1,0,0.1c0,0,0,0.1,0,0.1v0v0c0,0.1,0.1,0.3,0.2,0.3l0,0v0c0,0,0,0.1,0,0.1
		c0,0,0,0.1,0,0.1l0,0l0,0C213.6-12.2,213.4-12.2,213.3-12.1 M213.8-11.9L213.8-11.9c0-0.1,0.1-0.1,0.2-0.1l0,0l0,0l0,0.1v0l0,0
		c-0.1,0.1-0.1,0.2-0.2,0.3c-0.1,0.1-0.1,0.2-0.2,0.3l0,0l0,0c-0.1,0-0.1,0-0.2,0c-0.1,0-0.3,0-0.4,0.1c0,0.1,0,0.2,0.1,0.3
		c0,0.1,0.1,0.2,0.1,0.3l0,0l0,0c-0.1,0-0.1,0-0.2,0c0,0,0,0-0.1,0c-0.1,0-0.2-0.1-0.2-0.1c-0.1-0.1-0.3-0.1-0.4-0.2h0
		c-0.5-0.2-1-0.3-1.4-0.3h0l-0.1,0l0,0l0,0c0,0,0,0,0.1,0c0,0,0.1,0,0.1-0.1l0,0v0c0-0.1,0-0.1,0-0.2c0,0,0,0,0,0c0,0,0,0-0.1-0.1v0
		l0,0c0.1,0,0.1-0.1,0.1-0.2v0v0c0-0.1,0-0.1-0.1-0.2c0,0,0,0-0.1-0.1l0,0l0,0l0.1,0c0.4,0,0.8-0.1,1-0.4l0,0l0,0c0,0,0.1,0,0.1,0
		c0,0,0,0,0,0h0l0,0c0,0.1,0,0.1,0.1,0.2c0,0,0,0.1,0,0.1v0v0c0,0.1,0,0.1,0.1,0.2c0,0,0,0.1,0.1,0.1c0.2,0.1,0.3,0.2,0.5,0.3l0,0
		c-0.1,0-0.1,0.1-0.2,0.1c0,0.1,0,0.2,0,0.2l0,0l0,0c0,0-0.1,0.1-0.2,0.1c0,0.1,0,0.2,0.1,0.2c0.1,0,0.1,0,0.2,0
		c0.1,0,0.1-0.1,0.1-0.2l-0.1-0.1l0,0l0,0c0.1,0,0.1,0,0.2-0.1v0c0-0.1,0-0.2,0-0.2l0,0C213.1-11.6,213.5-11.6,213.8-11.9
		 M212.6-11.1C212.6-11.1,212.6-11.1,212.6-11.1c0,0.1,0,0.2,0,0.2l0,0l0,0c0,0-0.1,0-0.1,0c0,0,0,0,0-0.1v0v0
		C212.4-11.1,212.4-11.2,212.6-11.1L212.6-11.1L212.6-11.1C212.5-11.2,212.5-11.2,212.6-11.1 M213-12.9L213-12.9L213-12.9
		C213-12.8,213-12.8,213-12.9c-0.1,0.1-0.2,0.1-0.3,0.1l0,0v0c0-0.1,0-0.2,0-0.2c-0.1-0.1-0.2-0.1-0.4,0c0,0-0.1,0-0.1,0.1
		c0,0-0.1,0.1-0.1,0.1h0l0,0c0-0.1,0.1-0.2,0.2-0.3c0.1,0,0.1-0.1,0.1-0.1l0,0l0,0c0.1-0.1,0.3-0.1,0.4-0.1c0.1,0,0.2,0.1,0.2,0.1
		l0,0C213.1-13.1,213.1-13,213-12.9 M213.3-13.9l-0.3,0.4l0,0h0c0,0-0.1,0-0.1,0c-0.1,0-0.3,0-0.4,0.1l0,0l0,0
		c0-0.1,0.1-0.1,0.1-0.2c0,0,0,0,0.1-0.1l0,0h0c0,0,0.1,0,0.1-0.1c0.1,0,0.1-0.1,0.2-0.1c0,0,0.1,0,0.1,0
		C213.2-13.9,213.2-13.9,213.3-13.9L213.3-13.9L213.3-13.9z"/>
	<path class="st1" d="M215.5-18.7L215.5-18.7L215.5-18.7c0-0.1-0.1-0.2-0.2-0.3c0,0-0.1,0-0.1-0.1h0l0,0c-0.4-0.2-0.9-0.2-1.4,0
		c-0.5,0.3-0.8,0.7-0.8,1.3v0l0,0c0,0,0,0,0,0c0,0,0,0,0,0.1c0,0,0,0,0,0h0l0,0c0,0,0.1-0.1,0.1-0.1c0,0,0-0.1,0.1-0.1l0,0v0
		c0.1-0.5,0.4-0.9,0.9-1c0.5-0.2,0.9-0.1,1.2,0.1h0v0c0,0,0,0,0.1,0C215.4-18.7,215.4-18.7,215.5-18.7L215.5-18.7L215.5-18.7
		L215.5-18.7z"/>
	<path class="st1" d="M212.1-11.8L212.1-11.8c-0.1-0.2-0.3-0.3-0.6-0.3h0c-0.2,0-0.3,0.1-0.4,0.3c0,0.1,0,0.3,0.1,0.4l0,0l0,0
		c0.1,0.1,0.3,0.2,0.5,0.2c0.1,0,0.3,0,0.4-0.2C212.2-11.5,212.1-11.7,212.1-11.8 M211.8-11.7C211.8-11.6,211.8-11.6,211.8-11.7
		c-0.1,0.1-0.2,0.1-0.3,0c0,0,0,0,0-0.1c0,0,0-0.1-0.1-0.1l0,0l0,0c0,0,0,0,0,0c0,0,0,0,0,0c0,0,0,0,0.1-0.1c0,0,0,0,0,0
		c0.1,0,0.3-0.1,0.4,0C211.8-11.8,211.8-11.7,211.8-11.7"/>
	<path class="st1" d="M211.9-7.7L211.9-7.7L211.9-7.7c-0.3-0.1-0.6,0.1-0.9,0.3l0,0l0,0l0,0l0,0.1l0,0v0c0,0,0.1,0.1,0.1,0.1
		c0,0,0,0,0.1,0c0.1,0.1,0.1,0.2,0.2,0.3c0,0.1,0.1,0.1,0.1,0.2c0,0,0,0.1,0,0.1c0,0,0,0.1,0,0.1l0,0l0,0c0.1,0,0.1,0,0.1-0.1
		c0,0,0,0,0,0c0.2-0.1,0.4-0.2,0.5-0.2l0,0l0,0c0.1-0.2,0.2-0.4,0.1-0.6C212.1-7.6,212-7.7,211.9-7.7 M211.8-6.9L211.8-6.9
		L211.8-6.9c0,0-0.1,0.1-0.1,0.1c-0.1-0.1-0.2-0.2-0.3-0.4c0-0.1-0.1-0.1-0.1-0.2c0-0.1,0.1-0.1,0.1-0.1c0,0,0,0,0,0
		c0.2,0,0.3,0.1,0.4,0.3C211.9-7.1,211.9-7,211.8-6.9"/>
	<path class="st1" d="M212.3-8.2C212.4-8.2,212.4-8.2,212.3-8.2c0.2,0.2,0.3,0.4,0.4,0.6v0v0c0,0,0,0,0,0.1c0,0,0,0.1,0,0.1h0
		c0.1,0,0.1,0,0.2,0l0,0l0,0c0.1-0.1,0.2-0.2,0.4-0.3l0,0l0,0c0,0,0,0,0,0c0,0,0,0,0-0.1l0,0c0-0.1-0.1-0.2-0.1-0.2c0,0,0,0,0,0
		c0,0-0.1,0.1-0.1,0.1c0,0,0,0.1-0.1,0.1h0v0c-0.1,0-0.1,0.1-0.2,0.1c0,0,0,0,0-0.1c0,0-0.1-0.1-0.1-0.1c0.1-0.1,0.1-0.1,0.3-0.1
		l0,0v0c0-0.1-0.1-0.2-0.1-0.2l0,0l0,0c-0.1,0-0.1,0-0.1,0.1c0,0,0,0,0,0l0,0c-0.1,0.1-0.1,0.1-0.2,0.1c0,0-0.1-0.1-0.1-0.1
		c0.1-0.1,0.2-0.2,0.3-0.2l0,0v0c0-0.1,0-0.1-0.1-0.2h0c-0.1,0-0.1,0-0.2,0.1c0,0,0,0-0.1,0.1h0v0c0,0-0.1,0.1-0.2,0.1
		C212.4-8.5,212.3-8.4,212.3-8.2L212.3-8.2L212.3-8.2C212.3-8.2,212.3-8.2,212.3-8.2"/>
	<path class="st1" d="M213.1-8.7L213.1-8.7c0.2,0,0.2,0.1,0.3,0.3l0,0c0,0,0,0.1,0,0.1c0.1,0.1,0.1,0.2,0,0.3c0,0,0,0,0,0
		c0,0,0,0,0,0c0,0,0,0,0.1,0h0c0,0,0.1,0,0.1,0c0.1,0,0.1,0,0.2-0.1c0,0,0,0,0,0c0,0,0,0,0,0c-0.1-0.1-0.2-0.2-0.2-0.4l0,0
		c0,0,0,0,0,0l0.6,0.4c0,0,0.1,0,0.1,0c0,0,0,0,0,0v0v0c0-0.1-0.1-0.2-0.1-0.2c0-0.1-0.1-0.2-0.1-0.3v0l0,0c0-0.1,0-0.1,0-0.2
		c0,0,0-0.1,0-0.1l0,0l0,0c-0.1,0-0.2,0-0.3,0l0,0v0c0,0.1,0,0.1,0.1,0.2c0,0,0.1,0.1,0.1,0.1c0,0,0,0.1,0,0.1c0,0,0,0.1,0,0.1
		c-0.1,0-0.2-0.1-0.3-0.2c-0.1-0.1-0.2-0.1-0.3-0.2h0c-0.1,0-0.2,0-0.2,0.1l0,0l0,0C213-8.8,213-8.8,213.1-8.7L213.1-8.7z"/>
	<path class="st1" d="M211.9-8.1C211.9-8.1,211.9-8.1,211.9-8.1L211.9-8.1L211.9-8.1c-0.1,0.1-0.1,0.1-0.1,0.2l0,0l0,0l0,0
		c0.2,0,0.2,0.2,0.3,0.3c0,0.1,0.1,0.1,0.1,0.2l0,0v0c0,0,0,0.1,0.1,0.2c0,0,0,0.1,0,0.1l0,0l0,0c0,0,0.1,0,0.1,0l0,0h0c0,0,0,0,0,0
		c0.1-0.1,0.2-0.1,0.2-0.2l0,0l0,0c-0.1-0.1-0.2-0.2-0.3-0.4c0-0.1-0.1-0.1-0.1-0.1c0,0,0,0,0-0.1c0-0.1-0.1-0.1,0-0.2l0,0l0,0l0,0
		l0,0l0,0C212.1-8.2,212-8.2,211.9-8.1"/>
	<path class="st1" d="M209.4-11.6c0,0,0.1,0.1,0.1,0.1l0,0h0c0.1,0,0.3-0.1,0.4-0.2c0,0,0,0,0.1,0v0l0,0c0,0,0-0.1,0.1-0.1
		c0.1,0,0.1-0.1,0.1-0.2v0l0,0l-0.2-0.2c-0.1-0.1-0.2-0.1-0.3-0.2l0,0l0,0c-0.2,0-0.3,0.1-0.4,0.2c0,0,0,0-0.1,0.1c0,0,0,0-0.1,0
		C209-12,209-12,209-11.9v0v0C209.1-11.7,209.2-11.6,209.4-11.6 M209.5-12.2c0.1,0,0.2,0,0.2,0.1c0,0,0.1,0,0.1,0c0,0,0,0,0,0
		c0,0,0.1,0.1,0.1,0.1v0c-0.1-0.1-0.1-0.1-0.2-0.1c0,0-0.1,0-0.1,0l0,0l0,0c0,0-0.1,0-0.1,0.1c0,0.1,0,0.1,0,0.2c0,0,0,0.1,0,0.1
		c0,0-0.1,0-0.1,0c-0.1,0-0.2-0.1-0.2-0.2C209.3-12,209.4-12.1,209.5-12.2"/>
	<path class="st1" d="M207-11.5L207-11.5c0,0.1,0.2,0.2,0.2,0.2l0,0c0.3,0.1,0.5,0,0.7-0.2l0,0l0,0l0,0c0.1-0.1,0.2-0.3,0.1-0.5h0
		c-0.1-0.1-0.2-0.1-0.3-0.2c-0.3-0.1-0.6,0.1-0.8,0.3C207-11.7,207-11.5,207-11.5L207-11.5 M207.2-11.8c0.1-0.1,0.4-0.2,0.6-0.1
		c0,0,0.1,0.1,0.1,0.1c0,0,0,0.1,0,0.1c0,0,0,0,0,0v0c-0.1-0.1-0.2-0.1-0.3-0.1h0l0,0c-0.1,0,0,0.1,0,0.1c0,0,0,0,0,0
		c-0.1,0.1-0.2,0.1-0.4,0h0h0c0,0,0,0-0.1,0.1c0,0,0,0,0,0C207.2-11.7,207.2-11.8,207.2-11.8"/>
	<path class="st1" d="M208.5-11.8C208.5-11.8,208.5-11.8,208.5-11.8C208.5-11.7,208.5-11.7,208.5-11.8
		C208.4-11.7,208.4-11.7,208.5-11.8L208.5-11.8L208.5-11.8c-0.1,0.2-0.1,0.3,0,0.4l0,0h0c0.1,0,0.2,0.1,0.2,0v0l0,0
		c0,0,0.1-0.1,0.1-0.2c0-0.1-0.1-0.1-0.1-0.2c0,0,0,0,0,0c0,0,0,0,0,0c0.1-0.1,0.1-0.1,0.1-0.2v0v0c0-0.1-0.1-0.1-0.1-0.1l0,0h0v0
		c-0.1,0-0.1,0-0.2,0c0,0.1-0.1,0.1-0.1,0.2C208.4-11.8,208.4-11.8,208.5-11.8 M208.7-11.6C208.7-11.6,208.7-11.6,208.7-11.6
		C208.7-11.6,208.7-11.5,208.7-11.6C208.6-11.5,208.6-11.5,208.7-11.6c-0.1,0.1-0.1,0.1-0.1,0c0,0,0,0,0,0c0,0,0,0,0,0
		C208.6-11.6,208.6-11.6,208.7-11.6L208.7-11.6L208.7-11.6C208.6-11.6,208.6-11.6,208.7-11.6 M208.5-12C208.5-12,208.5-12,208.5-12
		C208.6-12,208.6-12,208.5-12c0.1,0,0.1,0,0.1,0c0,0,0,0.1-0.1,0.1C208.5-11.9,208.5-11.9,208.5-12C208.5-12,208.5-12,208.5-12"/>
	<path class="st1" d="M206.9-11c0,0,0-0.1,0-0.2c0,0-0.1-0.1-0.2-0.1l0,0v0c0,0,0,0,0-0.1c0-0.1,0-0.1,0-0.2c0-0.1-0.1-0.1-0.1-0.1
		c0,0,0,0,0,0c-0.1,0-0.1,0-0.1,0.1c0,0,0,0.1,0,0.2c0,0,0,0,0.1,0c0,0,0.1,0,0.1,0l0,0l0,0c0,0-0.1,0.2,0,0.3l0,0v0
		c0,0,0.1,0,0.1,0.1c0,0,0,0,0,0l0,0l0,0C206.8-10.9,206.9-11,206.9-11 M206.5-11.4L206.5-11.4L206.5-11.4c0,0-0.1-0.1,0-0.1v0l0,0
		c0,0,0.1-0.1,0.2,0c0,0,0.1,0.1,0,0.1l0,0l0,0c0,0,0,0,0,0C206.6-11.4,206.6-11.4,206.5-11.4 M206.7-11L206.7-11L206.7-11
		c0,0-0.1-0.1,0-0.1l0,0h0c0,0,0.1-0.1,0.1,0c0,0,0.1,0.1,0,0.1l0,0l0,0c0,0,0,0,0,0C206.8-11,206.7-11,206.7-11"/>
	<path class="st1" d="M202.8-18.2c0-0.2,0-0.3,0-0.4l0-0.1l0,0c-0.2,0-0.6,0-0.9,0.2c-0.3,0.2-0.5,0.6-0.5,1c0,0.1,0,0.1,0,0.2
		c0,0.1,0,0.2,0.1,0.3c0,0,0,0,0,0c0,0,0,0,0,0l0,0l0,0c0.1-0.1,0.1-0.3,0.1-0.4c0-0.1,0-0.2,0-0.3c0.1-0.3,0.5-0.7,0.8-0.7
		c0,0,0,0,0,0c0,0,0,0,0.1,0l0,0l0,0c0,0,0,0,0,0.1c0,0.1,0,0.2,0,0.2l0,0c-0.1,0-0.4,0.2-0.4,0.3c0.1-0.1,0.2-0.2,0.4-0.2h0l0,0
		c0.1,0,0.1,0.1,0.1,0.1l0,0v0c0,0.1,0,0.1,0,0.1c0,0,0,0,0,0l0,0l0,0c-0.1,0.1-0.2,0.2-0.2,0.3h0c0.1-0.1,0.2-0.1,0.3-0.1h0v0
		c0.1,0,0.1,0.1,0.1,0.1l0,0c0,0,0.1,0.1,0.1,0.1l0,0C202.9-17.6,202.8-17.9,202.8-18.2"/>
	<path class="st1" d="M202.3-15.9c-0.2-0.1-0.5-0.4-0.5-0.6c-0.1-0.4,0-0.8,0.3-1.1l0,0c0,0,0.1,0,0.1-0.1c0,0,0.1,0,0.1,0
		c0,0-0.1,0-0.1,0l0,0c-0.2,0.1-0.5,0.4-0.5,0.7c-0.1,0.3-0.1,0.5,0,0.6c0.1,0.3,0.3,0.6,0.7,0.7c0,0,0,0,0.1,0c0,0,0.1,0,0.1,0
		C202.4-15.7,202.4-15.8,202.3-15.9C202.4-15.9,202.3-15.9,202.3-15.9"/>
	<path class="st1" d="M200.1-1.8h0.3c0.1,0,0.2,0.1,0.2,0.2c0,0.1-0.1,0.2-0.2,0.2h-0.3V-1.8z M199.8-1.2h0.6c0.2,0,0.4-0.1,0.4-0.4
		c0-0.2-0.1-0.3-0.2-0.3c0.1-0.1,0.2-0.1,0.2-0.3c0-0.2-0.2-0.3-0.4-0.3h-0.6V-1.2z M200.1-2.3h0.3c0.1,0,0.2,0,0.2,0.1
		c0,0.1-0.1,0.2-0.2,0.2h-0.3V-2.3z"/>
	<polygon class="st1" points="201.5,-1.2 201.7,-1.2 201.7,-1.7 202.2,-2.5 201.9,-2.5 201.6,-2 201.3,-2.5 201,-2.5 201.5,-1.7 	
		"/>
	<path class="st1" d="M202.8-1.2h0.3l0.1-0.3h0.5l0.1,0.3h0.3l-0.5-1.3h-0.3L202.8-1.2z M203.4-2.2L203.4-2.2l0.2,0.5h-0.3
		L203.4-2.2z"/>
	<path class="st1" d="M204.2-2.5h0.6c0.3,0,0.4,0.2,0.4,0.4c0,0.2-0.1,0.4-0.4,0.4h-0.3v0.4h-0.3V-2.5z M204.5-1.9h0.2
		c0.1,0,0.2,0,0.2-0.2c0-0.2-0.1-0.2-0.2-0.2h-0.2V-1.9z"/>
	<path class="st1" d="M205.4-1.2h0.3v-0.4h0.3c0.3,0,0.4-0.2,0.4-0.4c0-0.2-0.1-0.4-0.4-0.4h-0.6V-1.2z M205.7-2.3h0.2
		c0.1,0,0.2,0,0.2,0.2c0,0.2-0.1,0.2-0.2,0.2h-0.2V-2.3z"/>
	<path class="st1" d="M207.2-2.5c0.4,0,0.6,0.3,0.6,0.7c0,0.4-0.2,0.7-0.6,0.7c-0.4,0-0.6-0.3-0.6-0.7
		C206.6-2.2,206.9-2.5,207.2-2.5 M207.2-1.4c0.2,0,0.3-0.2,0.3-0.4c0-0.2-0.1-0.4-0.3-0.4s-0.3,0.2-0.3,0.4
		C206.9-1.6,207-1.4,207.2-1.4"/>
	<rect x="208.1" y="-2.5" class="st1" width="0.3" height="1.3"/>
	<polygon class="st1" points="208.7,-2.5 209,-2.5 209.5,-1.6 209.5,-1.6 209.5,-2.5 209.8,-2.5 209.8,-1.2 209.5,-1.2 209,-2.1 
		209,-2.1 209,-1.2 208.7,-1.2 	"/>
	<polygon class="st1" points="210.4,-1.2 210.6,-1.2 210.6,-2.3 211,-2.3 211,-2.5 210,-2.5 210,-2.3 210.4,-2.3 	"/>
	<polygon class="st1" points="211.2,-2.5 211.6,-2.5 211.9,-1.6 211.9,-1.6 212.2,-2.5 212.6,-2.5 212.6,-1.2 212.3,-1.2 
		212.3,-2.1 212.3,-2.1 212,-1.2 211.8,-1.2 211.5,-2.1 211.5,-2.1 211.5,-1.2 211.2,-1.2 	"/>
	<polygon class="st1" points="212.9,-2.5 213.8,-2.5 213.8,-2.3 213.2,-2.3 213.2,-2 213.8,-2 213.8,-1.8 213.2,-1.8 213.2,-1.5 
		213.8,-1.5 213.8,-1.2 212.9,-1.2 	"/>
	<polygon class="st1" points="214.1,-2.5 214.4,-2.5 214.9,-1.6 214.9,-1.6 214.9,-2.5 215.2,-2.5 215.2,-1.2 214.9,-1.2 
		214.4,-2.1 214.4,-2.1 214.4,-1.2 214.1,-1.2 	"/>
	<polygon class="st1" points="215.7,-2.3 215.4,-2.3 215.4,-2.5 216.4,-2.5 216.4,-2.3 216,-2.3 216,-1.2 215.7,-1.2 	"/>
	<polygon class="st1" points="217.4,-1.2 217.7,-1.2 217.7,-2.3 218.1,-2.3 218.1,-2.5 217.1,-2.5 217.1,-2.3 217.4,-2.3 	"/>
	<path class="st1" d="M218.5-1.9c0-0.2,0.1-0.4,0.3-0.4c0.2,0,0.3,0.2,0.3,0.4c0,0.2-0.1,0.4-0.3,0.4C218.6-1.4,218.5-1.6,218.5-1.9
		 M218.3-1.9c0,0.4,0.2,0.7,0.6,0.7c0.4,0,0.6-0.3,0.6-0.7c0-0.4-0.2-0.7-0.6-0.7C218.5-2.5,218.3-2.2,218.3-1.9"/>
	<polygon class="st1" points="195.9,-0.5 196.1,-0.5 196.1,0 196.6,0 196.6,-0.5 196.9,-0.5 196.9,0.7 196.6,0.7 196.6,0.2 
		196.1,0.2 196.1,0.7 195.9,0.7 	"/>
	<rect x="197.2" y="0.5" class="st1" width="0.3" height="0.3"/>
	<path class="st1" d="M197.8-0.5h0.7c0.2,0,0.4,0.2,0.4,0.3c0,0.1-0.1,0.3-0.2,0.3v0c0.1,0,0.2,0.2,0.2,0.3c0,0.1,0,0.2,0.1,0.3
		h-0.3c0-0.1,0-0.2,0-0.3c0-0.1-0.1-0.2-0.2-0.2h-0.3v0.5h-0.3V-0.5z M198.1,0h0.3c0.1,0,0.2-0.1,0.2-0.2c0-0.1-0.1-0.2-0.2-0.2
		h-0.3V0z"/>
	<rect x="199.1" y="0.5" class="st1" width="0.3" height="0.3"/>
	<polygon class="st1" points="199.7,0.7 200,0.7 200,0.2 200.5,0.2 200.5,0.7 200.7,0.7 200.7,-0.5 200.5,-0.5 200.5,0 200,0 
		200,-0.5 199.7,-0.5 	"/>
	<rect x="201" y="0.5" class="st1" width="0.3" height="0.3"/>
	<polygon class="st1" points="202.4,0.7 202.7,0.7 202.7,-0.3 203.1,-0.3 203.1,-0.5 202.1,-0.5 202.1,-0.3 202.4,-0.3 	"/>
	<polygon class="st1" points="203.3,-0.5 203.6,-0.5 203.6,0 204.1,0 204.1,-0.5 204.4,-0.5 204.4,0.7 204.1,0.7 204.1,0.2 
		203.6,0.2 203.6,0.7 203.3,0.7 	"/>
	<polygon class="st1" points="204.7,-0.5 205.6,-0.5 205.6,-0.3 205,-0.3 205,0 205.6,0 205.6,0.2 205,0.2 205,0.5 205.6,0.5 
		205.6,0.7 204.7,0.7 	"/>
	<path class="st1" d="M206.7-0.3h0.2c0.1,0,0.2,0,0.2,0.2c0,0.2-0.1,0.2-0.2,0.2h-0.2V-0.3z M206.4,0.7h0.3V0.3h0.3
		c0.3,0,0.4-0.2,0.4-0.4c0-0.2-0.1-0.4-0.4-0.4h-0.6V0.7z"/>
	<path class="st1" d="M207.7,0.7h0.3V0.2h0.3c0.1,0,0.2,0.1,0.2,0.2c0,0.1,0,0.2,0,0.3h0.3c0-0.1,0-0.2-0.1-0.3c0-0.1,0-0.3-0.2-0.3
		v0c0.1-0.1,0.2-0.2,0.2-0.3c0-0.2-0.1-0.3-0.4-0.3h-0.7V0.7z M208-0.3h0.3c0.1,0,0.2,0.1,0.2,0.2c0,0.1-0.1,0.2-0.2,0.2H208V-0.3z"
		/>
	<rect x="209" y="-0.5" class="st1" width="0.3" height="1.3"/>
	<polygon class="st1" points="209.6,0.7 209.9,0.7 209.9,-0.1 209.9,-0.1 210.4,0.7 210.7,0.7 210.7,-0.5 210.4,-0.5 210.4,0.3 
		210.4,0.3 209.9,-0.5 209.6,-0.5 	"/>
	<path class="st1" d="M211.8-0.1c0-0.1-0.1-0.2-0.3-0.2c-0.2,0-0.3,0.2-0.3,0.4c0,0.2,0.1,0.4,0.3,0.4c0.2,0,0.3-0.1,0.3-0.3h0.3
		c0,0.3-0.2,0.5-0.6,0.5c-0.4,0-0.6-0.3-0.6-0.7c0-0.4,0.2-0.7,0.6-0.7c0.3,0,0.5,0.2,0.5,0.5H211.8z"/>
	<polygon class="st1" points="212.4,-0.5 213.3,-0.5 213.3,-0.3 212.6,-0.3 212.6,0 213.2,0 213.2,0.2 212.6,0.2 212.6,0.5 
		213.3,0.5 213.3,0.7 212.4,0.7 	"/>
	<path class="st1" d="M214.3,0.1c0-0.2,0.1-0.4,0.3-0.4c0.2,0,0.3,0.2,0.3,0.4c0,0.2-0.1,0.4-0.3,0.4C214.4,0.5,214.3,0.3,214.3,0.1
		 M214.1,0.1c0,0.4,0.2,0.7,0.6,0.7c0.4,0,0.6-0.3,0.6-0.7c0-0.4-0.2-0.7-0.6-0.7C214.3-0.6,214.1-0.3,214.1,0.1"/>
	<polygon class="st1" points="215.6,-0.5 216.4,-0.5 216.4,-0.3 215.8,-0.3 215.8,0 216.4,0 216.4,0.2 215.8,0.2 215.8,0.7 
		215.6,0.7 	"/>
	<polygon class="st1" points="218.8,-0.5 218.5,-0.5 218.3,0.3 218.3,0.3 218.1,-0.5 217.8,-0.5 217.6,0.3 217.6,0.3 217.4,-0.5 
		217.1,-0.5 217.4,0.7 217.7,0.7 217.9,-0.1 217.9,-0.1 218.1,0.7 218.4,0.7 	"/>
	<path class="st1" d="M219.3-0.5h0.3l0.5,1.3h-0.3l-0.1-0.3h-0.5l-0.1,0.3h-0.3L219.3-0.5z M219.2,0.2h0.3l-0.2-0.5h0L219.2,0.2z"/>
	<polygon class="st1" points="220.2,-0.5 220.5,-0.5 220.5,0.5 221.1,0.5 221.1,0.7 220.2,0.7 	"/>
	<polygon class="st1" points="221.3,-0.5 222.2,-0.5 222.2,-0.3 221.6,-0.3 221.6,0 222.2,0 222.2,0.2 221.6,0.2 221.6,0.5 
		222.3,0.5 222.3,0.7 221.3,0.7 	"/>
	<path class="st1" d="M222.7,0.3c0,0.2,0.1,0.2,0.3,0.2c0.1,0,0.2,0,0.2-0.2c0-0.1-0.2-0.2-0.4-0.2c-0.2,0-0.4-0.1-0.4-0.4
		c0-0.3,0.2-0.4,0.5-0.4c0.3,0,0.5,0.1,0.5,0.4h-0.3c0-0.2-0.1-0.2-0.2-0.2c-0.1,0-0.2,0-0.2,0.1c0,0.1,0.1,0.1,0.4,0.2
		c0.1,0,0.4,0.1,0.4,0.4c0,0.2-0.2,0.4-0.5,0.4c-0.3,0-0.5-0.1-0.5-0.4H222.7z"/>
	<path class="st1" d="M198.1,2.3c0,0.2,0,0.4-0.4,0.4c-0.2,0-0.4-0.1-0.4-0.4V2.2h0.2v0.1c0,0.1,0,0.2,0.2,0.2
		c0.1,0,0.1-0.1,0.1-0.2V1.4h0.3V2.3z"/>
	<polygon class="st1" points="198.4,1.4 199.4,1.4 199.4,1.7 198.7,1.7 198.7,1.9 199.3,1.9 199.3,2.2 198.7,2.2 198.7,2.5 
		199.4,2.5 199.4,2.7 198.4,2.7 	"/>
	<polygon class="st1" points="200.8,2.7 200.6,2.7 200.4,1.8 200.4,1.8 200.1,2.7 199.9,2.7 199.5,1.4 199.8,1.4 200,2.3 200,2.3 
		200.2,1.4 200.5,1.4 200.7,2.3 200.7,2.3 200.9,1.4 201.2,1.4 	"/>
	<polygon class="st1" points="201.4,2.7 202.3,2.7 202.3,2.5 201.7,2.5 201.7,2.2 202.3,2.2 202.3,1.9 201.7,1.9 201.7,1.7 
		202.3,1.7 202.3,1.4 201.4,1.4 	"/>
	<polygon class="st1" points="202.6,1.4 202.9,1.4 202.9,2.5 203.5,2.5 203.5,2.7 202.6,2.7 	"/>
	<polygon class="st1" points="203.7,2.7 204.6,2.7 204.6,2.5 204,2.5 204,1.4 203.7,1.4 	"/>
	<polygon class="st1" points="204.8,2.7 205.8,2.7 205.8,2.5 205.1,2.5 205.1,2.2 205.7,2.2 205.7,1.9 205.1,1.9 205.1,1.7 
		205.7,1.7 205.7,1.4 204.8,1.4 	"/>
	<path class="st1" d="M206.3,1.7h0.3c0.1,0,0.2,0.1,0.2,0.2c0,0.1-0.1,0.2-0.2,0.2h-0.3V1.7z M206,2.7h0.3V2.2h0.3
		c0.1,0,0.2,0.1,0.2,0.2c0,0.1,0,0.2,0,0.3h0.3c0-0.1,0-0.2-0.1-0.3c0-0.1,0-0.3-0.2-0.3v0c0.1-0.1,0.2-0.2,0.2-0.3
		c0-0.2-0.1-0.3-0.4-0.3H206V2.7z"/>
	<path class="st1" d="M207.5,2.3c0,0.2,0.1,0.2,0.3,0.2c0.1,0,0.2,0,0.2-0.2c0-0.1-0.2-0.2-0.4-0.2c-0.2,0-0.4-0.1-0.4-0.4
		c0-0.3,0.2-0.4,0.5-0.4c0.3,0,0.5,0.1,0.5,0.4H208c0-0.1-0.1-0.2-0.2-0.2c-0.1,0-0.2,0-0.2,0.1c0,0.1,0.1,0.1,0.4,0.2
		c0.1,0,0.4,0.1,0.4,0.4c0,0.2-0.2,0.4-0.5,0.4c-0.3,0-0.5-0.1-0.5-0.4H207.5z"/>
	<path class="st1" d="M208.5,2.7h0.1c0,0.1,0,0.2-0.1,0.2V3c0.2,0,0.3-0.1,0.3-0.3V2.4h-0.3V2.7z"/>
	<path class="st1" d="M210.6,2.7h0.2V2h-0.5v0.2h0.3c0,0.2-0.1,0.3-0.3,0.3c-0.2,0-0.3-0.2-0.3-0.4c0-0.2,0.1-0.4,0.3-0.4
		c0.1,0,0.2,0.1,0.3,0.2h0.3c0-0.3-0.3-0.4-0.5-0.4c-0.4,0-0.6,0.3-0.6,0.7c0,0.4,0.2,0.7,0.6,0.7c0.1,0,0.2,0,0.3-0.2L210.6,2.7z"
		/>
	<path class="st1" d="M211.6,1.4c0.4,0,0.6,0.3,0.6,0.7c0,0.4-0.2,0.7-0.6,0.7c-0.4,0-0.6-0.3-0.6-0.7C211,1.7,211.3,1.4,211.6,1.4
		 M211.6,2.5c0.2,0,0.3-0.2,0.3-0.4c0-0.2-0.1-0.4-0.3-0.4c-0.2,0-0.3,0.2-0.3,0.4C211.3,2.3,211.4,2.5,211.6,2.5"/>
	<polygon class="st1" points="212.5,1.4 212.8,1.4 212.8,2.5 213.4,2.5 213.4,2.7 212.5,2.7 	"/>
	<path class="st1" d="M213.6,2.7h0.5c0.4,0,0.6-0.3,0.6-0.6c0-0.4-0.2-0.6-0.6-0.6h-0.5V2.7z M213.9,1.7h0.2c0.3,0,0.4,0.2,0.4,0.4
		c0,0.3-0.2,0.4-0.3,0.4h-0.2V1.7z"/>
	<path class="st1" d="M214.9,2.3c0,0.3,0.3,0.4,0.5,0.4c0.3,0,0.5-0.2,0.5-0.4c0-0.3-0.3-0.3-0.4-0.4c-0.3-0.1-0.4-0.1-0.4-0.2
		c0-0.1,0.1-0.1,0.2-0.1c0.1,0,0.2,0,0.2,0.2h0.3c0-0.3-0.2-0.4-0.5-0.4c-0.2,0-0.5,0.1-0.5,0.4c0,0.2,0.2,0.3,0.4,0.4
		c0.2,0,0.4,0.1,0.4,0.2c0,0.1-0.1,0.2-0.2,0.2c-0.1,0-0.3-0.1-0.3-0.2H214.9z"/>
	<polygon class="st1" points="216.2,2.7 216.5,2.7 216.5,1.8 216.5,1.8 216.8,2.7 217,2.7 217.3,1.8 217.3,1.8 217.3,2.7 217.6,2.7 
		217.6,1.4 217.2,1.4 216.9,2.3 216.9,2.3 216.6,1.4 216.2,1.4 	"/>
	<rect x="217.9" y="1.4" class="st1" width="0.3" height="1.3"/>
	<polygon class="st1" points="218.7,2.7 219,2.7 219,1.7 219.4,1.7 219.4,1.4 218.4,1.4 218.4,1.7 218.7,1.7 	"/>
	<polygon class="st1" points="219.6,2.7 219.9,2.7 219.9,2.1 220.4,2.1 220.4,2.7 220.7,2.7 220.7,1.4 220.4,1.4 220.4,1.9 
		219.9,1.9 219.9,1.4 219.6,1.4 	"/>
	<path class="st1" d="M221.2,2.3c0,0.2,0.1,0.2,0.3,0.2c0.1,0,0.2,0,0.2-0.2c0-0.1-0.2-0.2-0.4-0.2c-0.2,0-0.4-0.1-0.4-0.4
		c0-0.3,0.2-0.4,0.5-0.4c0.3,0,0.5,0.1,0.5,0.4h-0.3c0-0.1-0.1-0.2-0.2-0.2c-0.1,0-0.2,0-0.2,0.1c0,0.1,0.1,0.1,0.4,0.2
		c0.1,0,0.4,0.1,0.4,0.4c0,0.2-0.2,0.4-0.5,0.4c-0.3,0-0.5-0.1-0.5-0.4H221.2z"/>
	<path class="st1" d="M202.6,3.7c0,0.1-0.1,0.1-0.1,0.2c0-0.1-0.1-0.1-0.1-0.2c0-0.1,0.1-0.1,0.1-0.1C202.5,3.6,202.6,3.6,202.6,3.7
		 M202.6,4.4c-0.1,0.1-0.1,0.1-0.2,0.1c-0.1,0-0.2-0.1-0.2-0.2c0-0.1,0.1-0.2,0.2-0.2L202.6,4.4z M202.8,4.7h0.3l-0.3-0.3
		C203,4.3,203,4.2,203,4h-0.2c0,0,0,0.1,0,0.1L202.6,4c0.1-0.1,0.2-0.2,0.2-0.3c0-0.2-0.2-0.3-0.3-0.3c-0.2,0-0.3,0.1-0.3,0.3
		c0,0.1,0.1,0.2,0.1,0.3C202.1,4,202,4.1,202,4.3c0,0.2,0.2,0.4,0.4,0.4c0.1,0,0.3-0.1,0.4-0.2L202.8,4.7z"/>
	<path class="st1" d="M203.8,4.2c0,0.3,0.3,0.4,0.5,0.4c0.3,0,0.5-0.2,0.5-0.4c0-0.3-0.3-0.3-0.4-0.4c-0.3-0.1-0.4-0.1-0.4-0.2
		c0-0.1,0.1-0.1,0.2-0.1c0.1,0,0.2,0,0.2,0.2h0.3c0-0.3-0.2-0.4-0.5-0.4c-0.2,0-0.5,0.1-0.5,0.4c0,0.2,0.2,0.3,0.4,0.4
		c0.2,0,0.4,0.1,0.4,0.2c0,0.1-0.1,0.2-0.2,0.2c-0.1,0-0.3-0.1-0.3-0.2H203.8z"/>
	<rect x="205.1" y="3.4" class="st1" width="0.3" height="1.3"/>
	<polygon class="st1" points="205.7,3.4 206,3.4 206,4.4 206.6,4.4 206.6,4.7 205.7,4.7 	"/>
	<polygon class="st1" points="207.6,3.4 207.3,3.4 207.1,4.3 207.1,4.3 206.8,3.4 206.5,3.4 206.9,4.7 207.2,4.7 	"/>
	<polygon class="st1" points="207.8,4.7 208.7,4.7 208.7,4.4 208.1,4.4 208.1,4.1 208.7,4.1 208.7,3.9 208.1,3.9 208.1,3.6 
		208.7,3.6 208.7,3.4 207.8,3.4 	"/>
	<path class="st1" d="M209.3,3.6h0.3c0.1,0,0.2,0.1,0.2,0.2c0,0.1-0.1,0.2-0.2,0.2h-0.3V3.6z M209,4.7h0.3V4.2h0.3
		c0.1,0,0.2,0.1,0.2,0.2c0,0.1,0,0.2,0,0.3h0.3c0-0.1,0-0.2-0.1-0.3c0-0.1,0-0.3-0.2-0.3v0C210,4,210,3.9,210,3.7
		c0-0.2-0.1-0.3-0.4-0.3H209V4.7z"/>
	<path class="st1" d="M210.5,4.2c0,0.2,0.1,0.2,0.3,0.2c0.1,0,0.2,0,0.2-0.2c0-0.1-0.2-0.2-0.4-0.2c-0.2,0-0.4-0.1-0.4-0.4
		c0-0.3,0.2-0.4,0.5-0.4c0.3,0,0.5,0.1,0.5,0.4H211c0-0.2-0.1-0.2-0.2-0.2c-0.1,0-0.2,0-0.2,0.1c0,0.1,0.1,0.1,0.4,0.2
		c0.1,0,0.4,0.1,0.4,0.4c0,0.2-0.2,0.4-0.5,0.4c-0.3,0-0.5-0.1-0.5-0.4H210.5z"/>
	<polygon class="st1" points="211.6,3.4 211.9,3.4 212.2,4.3 212.2,4.3 212.5,3.4 212.9,3.4 212.9,4.7 212.6,4.7 212.6,3.8 
		212.6,3.8 212.3,4.7 212.1,4.7 211.8,3.8 211.8,3.8 211.8,4.7 211.6,4.7 	"/>
	<rect x="213.2" y="3.4" class="st1" width="0.3" height="1.3"/>
	<polygon class="st1" points="214.1,4.7 214.4,4.7 214.4,3.6 214.7,3.6 214.7,3.4 213.7,3.4 213.7,3.6 214.1,3.6 	"/>
	<polygon class="st1" points="214.9,3.4 215.2,3.4 215.2,3.9 215.7,3.9 215.7,3.4 216,3.4 216,4.7 215.7,4.7 215.7,4.1 215.2,4.1 
		215.2,4.7 214.9,4.7 	"/>
	<path class="st1" d="M216.5,4.2c0,0.2,0.1,0.2,0.3,0.2c0.1,0,0.2,0,0.2-0.2c0-0.1-0.2-0.2-0.4-0.2c-0.2,0-0.4-0.1-0.4-0.4
		c0-0.3,0.2-0.4,0.5-0.4c0.3,0,0.5,0.1,0.5,0.4H217c0-0.2-0.1-0.2-0.2-0.2c-0.1,0-0.2,0-0.2,0.1c0,0.1,0.1,0.1,0.4,0.2
		c0.1,0,0.4,0.1,0.4,0.4c0,0.2-0.2,0.4-0.5,0.4c-0.3,0-0.5-0.1-0.5-0.4H216.5z"/>
	<path class="st1" d="M200.9,6.5c-0.1,0.1-0.2,0.2-0.3,0.2c-0.4,0-0.6-0.3-0.6-0.7c0-0.4,0.2-0.7,0.6-0.7c0.3,0,0.5,0.2,0.5,0.4
		h-0.3c0-0.1-0.1-0.2-0.3-0.2c-0.2,0-0.3,0.2-0.3,0.4c0,0.2,0.1,0.4,0.3,0.4c0.2,0,0.3-0.1,0.3-0.3h-0.3V5.9h0.5v0.7h-0.2L200.9,6.5
		z"/>
	<path class="st1" d="M201.7,5.4h0.3l0.5,1.3h-0.3l-0.1-0.3h-0.5l-0.1,0.3h-0.3L201.7,5.4z M201.7,6.1h0.3l-0.2-0.5h0L201.7,6.1z"/>
	<path class="st1" d="M202.6,6.6h0.3V6.1h0.3c0.1,0,0.2,0.1,0.2,0.2c0,0.1,0,0.2,0,0.3h0.3c0-0.1,0-0.2-0.1-0.3c0-0.1,0-0.3-0.2-0.3
		v0c0.1-0.1,0.2-0.2,0.2-0.3c0-0.2-0.1-0.3-0.4-0.3h-0.7V6.6z M202.9,5.6h0.3c0.1,0,0.2,0.1,0.2,0.2c0,0.1-0.1,0.2-0.2,0.2h-0.3V5.6
		z"/>
	<path class="st1" d="M204,6.6h0.3V6.1h0.3c0.1,0,0.2,0.1,0.2,0.2c0,0.1,0,0.2,0,0.3h0.3c-0.1-0.1,0-0.2-0.1-0.3
		c0-0.1,0-0.3-0.2-0.3v0C205,6,205,5.9,205,5.7c0-0.2-0.1-0.3-0.4-0.3H204V6.6z M204.3,5.6h0.3c0.1,0,0.2,0.1,0.2,0.2
		c0,0.1-0.1,0.2-0.2,0.2h-0.3V5.6z"/>
	<path class="st1" d="M205.8,5.7L205.8,5.7l0.2,0.5h-0.3L205.8,5.7z M205.2,6.6h0.3l0.1-0.3h0.5l0.1,0.3h0.3l-0.5-1.3h-0.3
		L205.2,6.6z"/>
	<path class="st1" d="M206.6,6.6h0.3V6.1h0.3c0.1,0,0.2,0.1,0.2,0.2c0,0.1,0,0.2,0,0.3h0.3c0-0.1,0-0.2-0.1-0.3c0-0.1,0-0.3-0.2-0.3
		v0c0.1-0.1,0.2-0.2,0.2-0.3c0-0.2-0.1-0.3-0.4-0.3h-0.7V6.6z M206.9,5.6h0.3c0.1,0,0.2,0.1,0.2,0.2c0,0.1-0.1,0.2-0.2,0.2h-0.3V5.6
		z"/>
	<path class="st1" d="M207.9,5.4h0.5c0.3,0,0.6,0.2,0.6,0.6c0,0.4-0.2,0.6-0.6,0.6h-0.5V5.4z M208.2,6.4h0.2c0.2,0,0.3-0.1,0.3-0.4
		c0-0.3-0.1-0.4-0.4-0.4h-0.2V6.4z"/>
	<path class="st1" d="M210.7,6.6h0.3l-0.3-0.3c0.1-0.1,0.1-0.2,0.1-0.3h-0.2c0,0.1,0,0.1,0,0.2L210.4,6c0.1-0.1,0.2-0.2,0.2-0.3
		c0-0.2-0.2-0.3-0.3-0.3c-0.2,0-0.3,0.1-0.3,0.3c0,0.1,0.1,0.2,0.1,0.3c-0.1,0.1-0.3,0.2-0.3,0.4c0,0.2,0.2,0.4,0.4,0.4
		c0.1,0,0.3-0.1,0.4-0.2L210.7,6.6z M210.4,5.6c0,0.1-0.1,0.1-0.1,0.2c0-0.1-0.1-0.1-0.1-0.2c0-0.1,0.1-0.1,0.1-0.1
		C210.4,5.5,210.4,5.6,210.4,5.6 M210.4,6.3c-0.1,0.1-0.1,0.1-0.2,0.1c-0.1,0-0.2-0.1-0.2-0.2c0-0.1,0.1-0.2,0.2-0.2L210.4,6.3z"/>
	<path class="st1" d="M212.8,5.8c0-0.3-0.3-0.5-0.5-0.5c-0.4,0-0.6,0.3-0.6,0.7c0,0.4,0.2,0.7,0.6,0.7c0.3,0,0.5-0.2,0.6-0.5h-0.3
		c0,0.2-0.1,0.3-0.3,0.3c-0.2,0-0.3-0.2-0.3-0.4c0-0.2,0.1-0.4,0.3-0.4c0.1,0,0.3,0.1,0.3,0.2H212.8z"/>
	<path class="st1" d="M213.6,5.3c0.4,0,0.6,0.3,0.6,0.7c0,0.4-0.2,0.7-0.6,0.7c-0.4,0-0.6-0.3-0.6-0.7C213,5.6,213.2,5.3,213.6,5.3
		 M213.6,6.4c0.2,0,0.3-0.2,0.3-0.4c0-0.2-0.1-0.4-0.3-0.4c-0.2,0-0.3,0.2-0.3,0.4C213.3,6.2,213.4,6.4,213.6,6.4"/>
	<rect x="214.5" y="6.3" class="st1" width="0.3" height="0.3"/>
	<polygon class="st1" points="215.6,5.4 215.9,5.4 215.9,6.4 216.5,6.4 216.5,6.6 215.6,6.6 	"/>
	<polygon class="st1" points="216.8,6.6 217.1,6.6 217.1,5.6 217.5,5.6 217.5,5.4 216.4,5.4 216.4,5.6 216.8,5.6 	"/>
	<path class="st1" d="M217.9,5.6h0.2c0.3,0,0.4,0.2,0.4,0.4c0,0.3-0.2,0.4-0.3,0.4h-0.2V5.6z M217.7,6.6h0.5c0.4,0,0.6-0.3,0.6-0.6
		c0-0.4-0.2-0.6-0.6-0.6h-0.5V6.6z"/>
	<rect x="219" y="6.3" class="st1" width="0.3" height="0.3"/>
	<polygon class="st1" points="205.7,8.6 206.6,8.6 206.6,8.3 206,8.3 206,7.3 205.7,7.3 	"/>
	<path class="st1" d="M207.4,7.3c0.4,0,0.6,0.3,0.6,0.7c0,0.4-0.2,0.7-0.6,0.7s-0.6-0.3-0.6-0.7C206.8,7.6,207,7.3,207.4,7.3
		 M207.4,8.4c0.2,0,0.3-0.2,0.3-0.4c0-0.2-0.1-0.4-0.3-0.4s-0.3,0.2-0.3,0.4C207.1,8.2,207.2,8.4,207.4,8.4"/>
	<polygon class="st1" points="208.3,8.6 208.5,8.6 208.5,7.7 208.5,7.7 209.1,8.6 209.3,8.6 209.3,7.3 209.1,7.3 209.1,8.2 
		209.1,8.2 208.6,7.3 208.3,7.3 	"/>
	<path class="st1" d="M209.7,8.6h0.5c0.4,0,0.6-0.3,0.6-0.6c0-0.4-0.2-0.6-0.6-0.6h-0.5V8.6z M209.9,7.6h0.2c0.3,0,0.4,0.2,0.4,0.4
		c0,0.3-0.2,0.4-0.3,0.4h-0.2V7.6z"/>
	<path class="st1" d="M211.2,8c0-0.2,0.1-0.4,0.3-0.4c0.2,0,0.3,0.2,0.3,0.4c0,0.2-0.1,0.4-0.3,0.4C211.3,8.4,211.2,8.2,211.2,8
		 M211,8c0,0.4,0.2,0.7,0.6,0.7c0.4,0,0.6-0.3,0.6-0.7c0-0.4-0.2-0.7-0.6-0.7C211.2,7.3,211,7.6,211,8"/>
	<polygon class="st1" points="212.5,7.3 212.7,7.3 213.3,8.2 213.3,8.2 213.3,7.3 213.5,7.3 213.5,8.6 213.2,8.6 212.7,7.7 
		212.7,7.7 212.7,8.6 212.5,8.6 	"/>
	<path class="st1" d="M217.7,32.2h-3l-4.3-5.3H206v5.3h-2.4V20.5h9.6c2.5,0,4.2,1,4.2,3.1c0,2.1-2.1,3-4.3,3.2L217.7,32.2z
		 M215.1,23.6c0-1.2-1.1-1.9-2.4-1.9H206v3.8h6.7C214,25.6,215.1,24.8,215.1,23.6 M241.1,32.2l-6.5-11.7h-3L225,32.2h2.5l2.1-3.8
		h6.9l2.1,3.8H241.1z M235.9,27.1h-5.8l3-5.5L235.9,27.1z M263.5,32.2h-3l-4.3-5.3h-4.4v5.3h-2.4V20.5h9.6c2.5,0,4.2,1,4.2,3.1
		c0,2.1-2.1,3-4.2,3.2L263.5,32.2z M260.8,23.6c0-1.2-1.1-1.9-2.4-1.9h-6.7v3.8h6.7C259.7,25.6,260.8,24.8,260.8,23.6 M287.3,26.3
		c0-4.3-3.4-5.8-7-5.8h-8v11.7h8C284,32.2,287.3,30.1,287.3,26.3 M285,26.3c0,3-2.4,4.7-5.2,4.7h-5.1v-9.2h5.1
		C282.6,21.7,285,23.2,285,26.3"/>
	<path class="st1" d="M140.5,32.5c-4.1,0-7.9-1.8-7.9-6c0-4.2,3.6-6.2,8.1-6.2c3,0,5,0.5,6.6,1.2l-0.8,1.7c-1.4-0.9-2.9-1.6-5.8-1.6
		c-3.3,0-5.7,1.9-5.7,4.9c0,3.1,2.4,4.8,5.4,4.8c2,0,4.2-0.7,5.1-1.2v-3.2h2.1v4.4C145.7,32,143.4,32.5,140.5,32.5 M168.6,32.2
		l-2-3.8h-6.9l-2.1,3.8h-2.5l6.7-11.7h3l6.5,11.7H168.6z M163.2,21.7l-3,5.5h5.8L163.2,21.7z M190.6,32.2l-4.3-5.3h-4.4v5.3h-2.4
		V20.5h9.6c2.5,0,4.2,1,4.2,3.1c0,2.1-2.1,3-4.3,3.2l4.5,5.5H190.6z M188.6,21.7h-6.7v3.8h6.7c1.3,0,2.4-0.7,2.4-2
		C191,22.4,189.8,21.7,188.6,21.7"/>
	<rect x="143.5" y="26.8" class="st1" width="4.2" height="1.3"/>
	<polygon class="st1" points="169.4,43.1 169.4,40.1 172.4,40.1 172.4,40.6 169.9,40.6 169.9,41.4 171.6,41.4 171.6,41.8 
		169.9,41.8 169.9,42.7 172.5,42.7 172.5,43.1 	"/>
	<path class="st1" d="M174.5,40.5c-0.6,0-0.9,0.2-0.9,0.4c0,0.1,0.1,0.2,0.3,0.3c0.3,0.1,0.8,0.1,1.4,0.2c0.7,0.1,1.1,0.4,1.1,0.9
		c0,0.6-0.6,1-1.6,1c-0.8,0-1.3-0.2-1.8-0.5l0.3-0.4c0.5,0.3,1,0.4,1.5,0.4c0.7,0,1.1-0.2,1.1-0.5c0-0.4-0.5-0.4-1.4-0.5
		c-0.9-0.1-1.4-0.2-1.4-0.8c0-0.6,0.5-0.9,1.5-0.9c0.6,0,1.2,0.1,1.6,0.4l-0.3,0.3C175.4,40.6,174.9,40.5,174.5,40.5"/>
	<polygon class="st1" points="179.8,40.6 179.8,40.1 176.5,40.1 176.5,40.6 177.9,40.6 177.9,43.1 178.4,43.1 178.4,40.6 	"/>
	<path class="st1" d="M182.3,42h-1.5l0.8-1.4L182.3,42z M183.4,43.1l-1.6-3h-0.6l-1.6,3h0.5l0.3-0.7h2l0.3,0.7H183.4z"/>
	<path class="st1" d="M186.4,41.4h-1.9v-0.8h1.9c0.3,0,0.5,0.2,0.5,0.4C186.9,41.2,186.7,41.4,186.4,41.4 M187,41.6
		c0.3-0.2,0.4-0.3,0.4-0.6c0-0.5-0.4-0.8-1-0.8H184v3h2.4c0.7,0,1.1-0.3,1.1-0.8C187.5,42,187.3,41.7,187,41.6 M186.4,42.7h-1.9
		v-0.8h2c0.4,0,0.5,0.1,0.5,0.4C187,42.6,186.8,42.7,186.4,42.7"/>
	<polygon class="st1" points="191.3,43.1 191.3,42.7 189,42.7 189,40.1 188.5,40.1 188.5,43.1 	"/>
	<rect x="191.9" y="40.1" class="st1" width="0.5" height="3"/>
	<path class="st1" d="M194.7,40.5c-0.6,0-0.9,0.2-0.9,0.4c0,0.1,0.1,0.2,0.3,0.3c0.3,0.1,0.8,0.1,1.4,0.2c0.7,0.1,1.1,0.4,1.1,0.9
		c0,0.6-0.6,1-1.6,1c-0.8,0-1.3-0.2-1.8-0.5l0.3-0.4c0.5,0.3,1,0.4,1.5,0.4c0.7,0,1.1-0.2,1.1-0.5c0-0.4-0.5-0.4-1.4-0.5
		c-0.9-0.1-1.4-0.2-1.4-0.8c0-0.6,0.5-0.9,1.5-0.9c0.6,0,1.2,0.1,1.6,0.4l-0.3,0.3C195.7,40.6,195.2,40.5,194.7,40.5"/>
	<polygon class="st1" points="200.3,43.1 200.3,41.8 198,41.8 198,43.1 197.5,43.1 197.5,40.1 198,40.1 198,41.4 200.3,41.4 
		200.3,40.1 200.8,40.1 200.8,43.1 	"/>
	<polygon class="st1" points="201.9,43.1 201.9,40.1 205,40.1 205,40.6 202.4,40.6 202.4,41.4 204.2,41.4 204.2,41.8 202.4,41.8 
		202.4,42.7 205.1,42.7 205.1,43.1 	"/>
	<path class="st1" d="M207.9,42.7h-1.5v-2.1h1.4c0.7,0,1.1,0.4,1.1,1.1C209,42.3,208.5,42.7,207.9,42.7 M207.8,40.1h-1.9v3h2
		c0.4,0,0.8-0.1,1.1-0.4c0.3-0.3,0.5-0.6,0.5-1.1C209.5,40.7,208.9,40.1,207.8,40.1"/>
	<polygon class="st1" points="211.8,43.1 211.8,40.1 212.2,40.1 212.2,42.7 214.6,42.7 214.6,43.1 	"/>
	<path class="st1" d="M218.1,42.8c-0.3,0.2-0.8,0.4-1.3,0.4c-0.5,0-1-0.2-1.3-0.4c-0.4-0.3-0.6-0.7-0.6-1.2c0-0.5,0.2-0.9,0.6-1.2
		c0.3-0.3,0.8-0.4,1.3-0.4c0.5,0,1,0.2,1.3,0.4c0.4,0.3,0.6,0.7,0.6,1.2C218.7,42.1,218.5,42.5,218.1,42.8 M217.7,40.8
		c-0.2-0.2-0.6-0.3-1-0.3c-0.8,0-1.4,0.5-1.4,1.1c0,0.7,0.5,1.1,1.4,1.1c0.9,0,1.4-0.5,1.4-1.1C218.2,41.3,218,41,217.7,40.8"/>
	<polygon class="st1" points="222.4,43.1 220.1,40.7 220.1,43.1 219.6,43.1 219.6,40.1 220.2,40.1 222.5,42.6 222.5,40.1 223,40.1 
		223,43.1 	"/>
	<path class="st1" d="M226.1,42.7h-1.5v-2.1h1.4c0.7,0,1.1,0.4,1.1,1.1C227.1,42.3,226.7,42.7,226.1,42.7 M226,40.1h-1.9v3h2
		c0.4,0,0.8-0.1,1.1-0.4c0.3-0.3,0.5-0.6,0.5-1.1C227.7,40.7,227,40.1,226,40.1"/>
	<path class="st1" d="M231.8,41.6c0,0.7-0.5,1.1-1.4,1.1c-0.9,0-1.4-0.5-1.4-1.1c0-0.7,0.6-1.1,1.4-1.1c0.4,0,0.7,0.1,1,0.3
		C231.6,41,231.8,41.3,231.8,41.6 M232.3,41.6c0-0.5-0.2-0.9-0.6-1.2c-0.3-0.3-0.8-0.4-1.3-0.4c-0.5,0-1,0.2-1.3,0.4
		c-0.4,0.3-0.6,0.7-0.6,1.2c0,0.5,0.2,0.9,0.6,1.2c0.3,0.2,0.8,0.4,1.3,0.4c0.5,0,1-0.1,1.3-0.4C232.1,42.5,232.3,42.1,232.3,41.6"
		/>
	<polygon class="st1" points="236,43.1 233.7,40.7 233.7,43.1 233.2,43.1 233.2,40.1 233.8,40.1 236.1,42.6 236.1,40.1 236.6,40.1 
		236.6,43.1 	"/>
	<path class="st1" d="M239.2,43.1v-2.5l-0.5,0.2v-0.4c0.2-0.1,0.3-0.1,0.5-0.3h0.5v3H239.2z"/>
	<polygon class="st1" points="241.5,43.1 241,43.1 242.9,40.6 240.5,40.6 240.5,40.1 243.5,40.1 243.5,40.6 	"/>
	<path class="st1" d="M246.8,42.3c0,0.5-0.6,0.9-1.6,0.9c-0.7,0-1.1-0.2-1.5-0.6l0.3-0.3c0.4,0.3,0.8,0.5,1.3,0.5c0.7,0,1-0.2,1-0.5
		c0-0.3-0.4-0.4-1.2-0.4c-0.1,0-0.1,0-0.2,0v-0.4h0.5c0.5,0,0.8-0.2,0.8-0.4c0-0.3-0.3-0.4-0.8-0.4c-0.4,0-0.8,0.1-1.1,0.3l-0.3-0.3
		c0.5-0.3,0.9-0.5,1.4-0.5c0.8,0,1.3,0.3,1.3,0.8c0,0.3-0.2,0.5-0.5,0.6C246.6,41.7,246.8,42,246.8,42.3"/>
	<path class="st1" d="M249.2,41.2c0.9,0,1.5,0.4,1.5,1c0,0.6-0.6,1-1.5,1c-0.7,0-1.3-0.2-1.7-0.6l0.4-0.3c0.3,0.3,0.7,0.4,1.3,0.4
		c0.6,0,1-0.2,1-0.6c0-0.3-0.4-0.5-1-0.5c-0.4,0-0.7,0.1-1.1,0.3l-0.4-0.2l0.5-1.5h2.4v0.4h-2l-0.3,0.8
		C248.5,41.3,248.8,41.2,249.2,41.2"/>
</g>
</svg>
