<?xml version="1.0" encoding="utf-8"?>
<!-- Generator: Adobe Illustrator 19.2.0, SVG Export Plug-In . SVG Version: 6.00 Build 0)  -->
<svg version="1.1" id="Layer_1" xmlns="http://www.w3.org/2000/svg" xmlns:xlink="http://www.w3.org/1999/xlink" x="0px" y="0px"
	 viewBox="100 -50 220 120" style="enable-background:new 100 -50 220 120;" xml:space="preserve">
<style type="text/css">
	.st0{fill:#EEEEEE;}
	.st1{fill:#808080;}
	.st2{fill-rule:evenodd;clip-rule:evenodd;fill:#808080;}
</style>
<rect x="100" y="-50" class="st0" width="220" height="120"/>
<g>
	<g>
		<g>
			<path class="st1" d="M225.7-8.1c-0.2-0.7-0.1-1.3-0.1-1.3c-0.1,0.1-0.1-0.3-0.1-0.2c-0.1,0.3-0.2,0.7-0.1,1.3
				c0.1,0.9,0.4,1.6,0.8,2.4c1.3,2.6,0.3,4.9-0.8,5.4c0.6,1.8,1.6,3.5,1.8,5.5c0.2,1.9,0.5,3.1,0.9,4.6c-0.3-0.7-0.9-1.5-1.2-2.2
				c-0.9-2-1.4-4-1.9-4.9c-0.3-0.6-0.7-1.4-1.2-1.9c0.1,0.4,0,0.8-0.1,1c1,1.1,1.4,2.6,2.1,3.9c0,1.2,2.4,5.1,2.9,6
				c0.4,0.7,0.7,2.1,0.7,2.1s1.9,0,1.9,0c0-0.1-0.4-0.7-0.6-0.9c-0.2-0.3-1.1-1.1-1.3-1.3c-0.3-0.5-0.6-1-0.8-1.6
				c-0.5-1.2-0.8-2.6-0.8-3.9c0.1-1.9-0.8-3.5-1.2-5.3c-0.1-0.3-0.2-0.8-0.2-0.8c0.6-0.8,2-2.8,0.3-5.4
				C226.1-6.1,225.9-7.2,225.7-8.1z"/>
		</g>
		<path class="st1" d="M231.7-15.2c0.1-0.1,0.8-0.8,0.7-1c-0.1-0.1-0.6,0.1-1.2,0.4c-0.2-0.2-0.4-0.5-0.5-0.6c0,0,0,0,0,0
			c0.5-0.3,0.9-0.6,0.9-0.7c0-0.3-1-0.3-2-0.2c-5.4-3.5-13.1,0.7-13.4,7.1c0,0.1-0.6,0.1-0.6,0.2c0,0,0.2,0.3,0.2,0.3
			c0,0,0.4,0.1,0.4,0.1c0,0.3,0,0.2,0,0.5c0,0,0.4,0.5,0.4,0.5c0-0.2,0-0.4,0-0.6c0.3-5.8,6.2-10.1,11.2-7.7c0.9,0.4,1.5,1,2,1.6
			c0,0,0.1,1.2,0.1,1.1c0.1,0.5,0.1,0.4,0,0.9c0,0.2-0.3,0.3-0.5,1.1c-0.2,0.7-0.3,5.1-0.2,5.4c0.1,0.4-0.1,0.4-0.3,0.7
			c-0.2,0.2-0.3,0.4-0.6,0.5C228-5.5,228.1-6,227-6.1c-0.2,0-0.5-1.8-0.5-2.1c-0.2-2.1-2-4.2-2-4.5c0,0-0.1,0.8-0.1,0.8
			c0.1,0.2,1.4,2.4,1.5,2.7c0.2,0.5,0.3,0.9,0.4,1.4c0.1,0.3,0.2,1.8,0.4,1.9c0.2,0.2,0.5,0.3,0.8,0.4c0.2,0,0.4,0.5,0.8,0.5
			c0.5,0,0.6-0.5,0.8-0.6c0.7-0.5,0.4-1.7,0.5-2.1c0-1.2,0.3-3.5,0.3-3.8c0.2-1,0.3-0.4,0.5-0.8c0.1-0.2-0.1-1.6,0-1.7
			C230.5-14.5,231.4-14.9,231.7-15.2z"/>
		<g>
			<path class="st1" d="M207.3-17.9c0-0.2,0.3-0.2,0.5-0.3c0.2-0.1,0.2-0.3,0.2-0.6c0-0.6-0.2-1.3,0.2-1.9c0.4-0.5,0.9-1,1.5-1.2
				c0.8-0.3,1.7-0.7,2.5-1.1c0.2-0.1,0.3-0.2,0.5-0.2c0.2-0.1,0.4-0.1,0.6-0.2c0.4-0.1,0.8-0.3,1.2-0.4c0.2-0.1,0.3-0.2,0.5-0.3
				c0.1-0.1,0.3-0.2,0.4-0.1c0.1-0.1,0.1-0.3,0-0.4c-0.3-0.1-0.4,0.2-0.6,0.4c-0.2,0.2-0.5,0.3-0.8,0.5c-0.3,0.1-0.6,0.2-0.8,0.4
				c-0.3,0.1-0.7,0.2-1,0.4c-1,0.4-2.1,0.7-3,1.2c-0.4,0.2-0.9,0.6-1.1,1c-0.3,0.5-0.2,0.9-0.1,1.4c0,0.3,0.1,0.6-0.2,0.8
				C207.4-18.4,207.3-18.3,207.3-17.9z"/>
		</g>
		<path class="st1" d="M210.3-11.2c0,0-0.1,0.1-0.1,0.1c-0.2,0.3-0.6,0.1-0.9,0c-0.2,0-0.4,0-0.5,0.1c0.2-0.1,0.2-0.2,0.4-0.2
			c0.2,0,0.4,0,0.6-0.1c0.2-0.1,0.2-0.4,0.4-0.5c0.2-0.1,0.4-0.2,0.6-0.2c0.6-0.1,0.4-0.6,0.6-1c0.1-0.2,0.3-0.3,0.4-0.4
			c-0.2,0.1-0.2,0.6-0.2,0.8c-0.1,0.2-0.2,0.5-0.4,0.6C210.8-11.8,210.6-11.7,210.3-11.2z"/>
		<path class="st1" d="M212.9-24.2c-0.5,0.3-0.9,0.6-1.4,0.8c-1,0.4-2.1,0.7-3,1.2c-0.9,0.5-1.7,1.4-1.8,2.5
			c-0.1,0.4,0.3,1.1,0.2,1.4c-0.2,0.4-1,0.4-1.2,0.5c-0.8,0.2-1.3,0.7-1.2,1.3c0.1,0.6,0.1,0.7,0.1,1.1c-0.1,0.5-0.7,0.5-1,0.7
			c-0.5,0.4-0.5,0.6-0.6,1.2c-0.1,0.5-0.4,0.6-0.8,0.9c-0.3,0.4-0.2,0.6-0.3,1c-0.1,0.3-0.2,0.4-0.4,0.5c0,0,0,0,0,0
			c0.5,0.1,0.5-0.6,0.6-0.8c0.1-0.5,0.2-0.6,0.7-0.9c0.2-0.1,0.5-0.1,0.7-0.4c0.2-0.5-0.2-0.9,0.3-1.3c0.3-0.3,0.9-0.3,1.2-0.6
			c0.4-0.4,0.1-1,0-1.2c0-0.4,0-1,0.5-1.2c0.2-0.1,0.6-0.2,1-0.2c0.2,0,0.4,0,0.5-0.1c0.1,0,0.1-0.1,0.2-0.2
			c0.3-0.3,0.1-0.7,0.1-1.1c-0.1-1.4,0.7-2.6,2-3.2c0.8-0.3,1.7-0.7,2.5-1.1c0.5-0.3,1-0.6,1.5-0.9c0.4-0.2,1.1-0.6,1.6-0.2
			C214.8-25.4,213.2-24.4,212.9-24.2z"/>
		<path class="st1" d="M207.3-14.4c0.2,0,0.3,0,0.4-0.1c0.4-0.2,0.6-0.7,0.7-1.1c0.2-1.2,1.7-2.3,2.9-2.8c0.7-0.3,2-1.5,2.3-2.4
			c-1.5,0.6-3.4,1.5-4.5,3.1l-0.2,0.1c0.2-0.1,0.4-0.8,0.6-1c0.4-0.4,0.8-0.8,1.3-1.1c0.5-0.4,1.1-0.7,1.7-1
			c0.4-0.2,1.1-0.2,1.3-0.8c0.6,1-1.6,3-2.3,3.3c-1.5,0.7-2.6,1.2-3.1,2.6c-0.1,0.5-0.4,1-0.8,1.2c-0.1,0-0.4,0.1-0.6,0
			c-0.3-0.1-0.7-0.3-0.8-0.2c0.1-0.1,0.2-0.2,0.4-0.1C206.7-14.6,207.1-14.4,207.3-14.4z"/>
		<path class="st1" d="M206-16.2c0-0.1,0-0.2,0-0.2c0.1-0.4,0.4-0.6,0.7-0.6c0.4,0,0.7,0.2,1,0.2c0.2,0,0.3-0.1,0.5-0.3
			c0.2-0.2,0.4-0.6,0.5-0.9c0.2-1.2,1.6-2.4,2.9-2.9c1.5-0.5,2.4-1.8,2.3-2.4c-1.5,0.6-3.4,1.5-4.5,3.1l-0.2,0.1
			c0.2-0.1,0.4-0.8,0.6-1c0.4-0.4,0.8-0.8,1.3-1.1c0.5-0.4,1.1-0.7,1.7-1c0.4-0.2,1.1-0.2,1.3-0.8c0.6,1-0.6,2.6-2.3,3.3
			c-1.6,0.7-2.6,1.2-3.1,2.6c-0.1,0.5-0.4,1.1-1,1.3c-0.4,0.1-0.7-0.3-1.1-0.1c-0.3,0.1-0.4,0.5-0.4,0.8c-0.1,0.6-0.7,0.5-0.9,0.9
			c0-0.3,0.3-0.4,0.5-0.5C206-15.8,206-16,206-16.2z"/>
		<path class="st1" d="M206.7-14.1c0,0-0.1,0-0.2,0c0,0.1,0.2,0.1,0.3,0.2c0.1,0.1,0.2,0.2,0.4,0.3c0.1,0.1,0.3,0.2,0.5,0.2
			c0.4,0.1,0.8,0.1,1.1-0.1c0.1,0,0.1-0.1,0.2-0.1c2.6-2,2.5-4.1,4-5.8c-0.2,0.1-0.5,0.2-0.5,0.2c-0.5,0.5-1.4,3.7-3.6,5.3
			c-0.3,0.2-0.7,0.3-1,0.3c-0.2,0-0.3,0-0.4-0.1c-0.1-0.1-0.2-0.2-0.4-0.2c-0.1,0-0.1-0.1-0.2-0.1C206.8-14.1,206.7-14.1,206.7-14.1
			z"/>
		<path class="st1" d="M204.1-11.2c0.2-0.6,0.9-0.3,1.3-0.3c0.7,0,0.8-0.5,1-1.1c0.2-0.6,1.5-0.3,2-0.3c0.8,0,1,0.1,1.7-0.4
			c0.7-0.6,0.3-1.9,0.8-2.6c-0.2,0.4-0.6,0.4-0.7,0.9c-0.1,0.3-0.2,1.2-0.4,1.5c-0.5,0.6-0.8,0.5-1.5,0.5c-0.5,0-1.7-0.4-2,0
			c-0.4,0.5-0.3,1.1-0.9,1.2c-0.5,0.1-1.1-0.5-1.4,0.6C203.9-11.1,204-11.1,204.1-11.2z"/>
		<path class="st1" d="M206.2-11.2c-0.3,0.1-0.5,0-0.8-0.1c-0.1,0-0.2-0.1-0.4-0.2c-0.1-0.1-0.2-0.1-0.3-0.1c0-0.1,0.2,0,0.2,0
			c0.1,0,0.2,0,0.2,0.1c0.2,0.1,0.5,0.2,0.8,0.1c0.7-0.2,0.5-1.1,1.1-1.3c0.4-0.2,1,0,1.5,0.2c2.9,1,4.1-1.7,3-3.3
			c-0.1-0.1-0.2-0.7-0.1-1.1l0.4-0.7c-0.4,1-0.2,1.6-0.1,1.8c1.3,2.3-1.1,4.5-3.2,3.4c-0.4-0.2-1.1-0.4-1.5,0
			C206.6-12,206.9-11.4,206.2-11.2z"/>
		<path class="st1" d="M216.3-23.9c0.3,0.7,1.1,0.2,1.5,0.1c0.5-0.1,0.6,0.5,0.2,0.7c-0.4,0.2-0.2,0.4,0.2,0.6
			c0.4,0.1,0.2,0.6-0.2,0.8c-0.2,0.1,0,0.3,0.2,0.2c0.5-0.3,0.6-1,0.1-1.2c-0.1-0.1-0.1-0.2-0.1-0.3c0.2-0.3,0.2-1-0.5-1
			c-0.4,0-0.5,0.2-0.9,0.2c-0.2,0-0.4-0.1-0.5-0.4c-0.1-0.3-0.4-0.4-0.6-0.3c-0.1,0.1-0.2,0.2-0.3,0.4c0,0-0.1,0.2,0,0.2
			c0.1,0,0.1-0.1,0.1-0.2c0,0,0.1-0.1,0.1-0.1c0.1-0.1,0.4,0,0.4,0.1c0.1,0.7,0.3,1,0.5,1.3c0.1,0.2,0.3,0.6,0.3,0.8
			c0,0.3-0.3,0.5-0.5,0.6c-0.2,0.1-0.5,0.4-0.1,0.5c0.1,0,0.3,0,0.3-0.1c-0.1,0-0.2,0.1-0.3,0c-0.1-0.1,0-0.3,0.1-0.3
			c0.1-0.1,0.2-0.1,0.3-0.2c0.1-0.1,0.2-0.2,0.2-0.3c0.1-0.2,0.2-0.5,0.1-0.8c-0.1-0.2-0.1-0.3-0.3-0.5
			C216.6-23.3,216.4-23.6,216.3-23.9z"/>
		<path class="st1" d="M216.4-23.6c0.3,0.7,1,0.6,1.3,0.4c0.7-0.5,0.7-0.1,0.6,0.1l0.2,0c0.1-0.4-0.1-0.5-0.7-0.2
			c-0.4,0.2-1,0.1-1.4-0.6L216.4-23.6z"/>
		<path class="st1" d="M215.3-24.1c0,0-0.1,0.1-0.1,0.1c-0.1-0.1,0-0.2,0-0.3c0.4-0.5,1-0.2,1.5-0.2c0.4,0,0.3-0.3,0.4-0.5
			c0.1-0.2,0.4-0.1,0.5,0.1c0.1,0.2-0.1,0.6,0,0.6c0,0.2-0.2,0.2-0.3,0.1c-0.1-0.2,0.1-0.2,0.1-0.3c0-0.1,0-0.3-0.1-0.3
			c-0.2,0-0.1,0.2-0.2,0.3c-0.1,0.1-0.3,0.2-0.4,0.2c-0.3,0-0.5-0.1-0.7-0.1C215.7-24.5,215.5-24.3,215.3-24.1z"/>
		<path class="st1" d="M215.1-24.7c0.1-0.2,0.3-0.4,0.4-0.5c0.3-0.2,0.7-0.1,0.9,0c0.1,0.1,0.5,0.4,0.5,0.6c-0.3,0-0.3-0.3-0.4-0.4
			c-0.2-0.1-0.6-0.1-0.8,0.1c-0.1,0.1-0.3,0.2-0.3,0.3c0,0-0.2,0.4-0.2,0.4c0,0,0,0,0,0C215.1-24.3,215.1-24.5,215.1-24.7z"/>
		<path class="st1" d="M212.2-24.4c0.4-0.1,0.5-0.3,0.7-0.6c0.1-0.2,0.3-0.3,0.4-0.4c0.1-0.1,0.2-0.1,0.3-0.1c0.1,0,0.1,0.2,0.2,0.2
			c0.3,0,0.5-0.4,0.8-0.2c0.3,0.1,0.3,0.5,0.4,0.8c0,0.1,0.1,0.2,0.2,0.3c0.1-0.4,0.1-0.7-0.1-1c-0.2-0.3-0.5-0.3-0.8-0.2
			c-0.3,0.2-0.7-0.1-1,0.1c-0.2,0.1-0.4,0.4-0.5,0.6c-0.2,0.2-0.4,0.3-0.7,0.2c-0.3-0.1-0.6,0.2-0.7,0.5c0,0.2,0,0.7-0.3,0.8
			c0.3,0.1,0.4-0.2,0.5-0.4C211.6-24.1,211.8-24.3,212.2-24.4z"/>
		<path class="st1" d="M203.8-12.4c0.5,0,0.6-0.6,1.1-0.7c0.6-0.1,0.3-1,1.6-1c0.1,0,0.2,0.1,0.3,0.1c0.1,0,0.2,0.1,0.2,0.1
			c0,0,0.1,0.1,0.1,0.1c0,0.1,0,0.1,0,0.1c-0.3-0.2-0.8-0.3-1.1-0.1c-0.3,0.1-0.5,0.4-0.6,0.7c-0.2,0.6-0.4,0.3-0.7,0.5
			C204.4-12.5,204.2-12.2,203.8-12.4"/>
		<g>
			<path class="st1" d="M199.6-10c-0.1,0-0.3,0-0.4,0c-2.3-0.1-3-0.9-4.7-0.1c0,0-0.1,0-0.1,0.1c-1.7,0.9-1.1,2.4-2.2,3.4
				c-1,0.8-2.8,1.3-3.7,2c-0.5,0.4-0.7,1.1-0.8,1.4c-0.2,0.7-0.1,1.6,0.5,2.5c0.4,0.7-0.3,1.1-0.1,1.8c0.1-0.5,0.5-0.8,0.6-1.2
				c0.1-0.4-0.1-0.8-0.3-1.1c-0.3-0.4-0.4-1.3-0.3-1.8c0.1-0.6,0.8-1,1.5-1.3c1.7-0.7,3.4-1.7,3.8-3.4c0.6-2.6,3.1-2.5,4.8-2.2
				c-1.1,0-2.2,0.2-3.1,0.8c-1,0.6-1.3,2.1-1.7,2.5c-2,2.2-4.5,2.3-4.4,6.4c0,0.2-0.3,0.8-0.4,1.2c-0.1,0.3-0.2,0.6-0.2,0.9
				c0,0.1,0.1,0.5,0.4,0.7c-0.1-0.2-0.2-0.4-0.2-0.6c0-0.3,0.1-0.4,0.2-0.7c0.1-0.3,0.3-0.6,0.3-1c0.2-0.5,0.2-1.1,0.3-1.7
				c0.2-2.4,1.8-3.1,4-4.4c0.5-0.3,0.8-0.8,0.9-1.3c0.1-0.2,0.2-0.5,0.2-0.8c0-0.3,0.1-0.6,0.3-0.9c0.1-0.1,0.4-0.3,0.5-0.4
				c0.6-0.4,1.4-0.6,2.2-0.7c0.6-0.1,1.1-0.1,1.7-0.1c0.1,0,0.1,0,0.1,0c-0.9,0.1-1.8,0.2-2.8,0.6c-0.1,0.1-0.3,0.1-0.5,0.2
				c-0.1,0.1-0.2,0.1-0.4,0.2c-0.6,0.4-0.9,0.9-0.9,1.5c-0.1,0.7-0.3,1.4-1,1.8c-4.8,2.3-3.6,4.1-4.2,5.6c-0.4,0.9-0.7,1.6-0.5,2.5
				c0.2,0.6,1.2,2,3.7,2.3c-1.2-0.6-3.9-1.1-3.5-3.5c0.2-0.8,0.8-2.1,0.9-3.1c0-0.3,0.2-0.6,0.5-1c0.9-1.1,2.6-1.5,3.5-2.5
				c0.6-0.6,0.9-1.3,1.1-2c0.1-0.3,0.2-1.2,0.9-1.7c0.4-0.2,0.9-0.4,1.4-0.5c0.4-0.1,0.9-0.1,1.4-0.2c-0.1,0-0.2,0.1-0.3,0.1
				c-0.2,0-0.4,0.1-0.5,0.2c-0.3,0.1-0.7,0.3-1,0.4c-0.7,0.3-1.3,0.8-1.4,1.3c-0.5,3-2.9,3.6-4.6,5.5c-0.2,0.2-0.3,0.5-0.4,0.7
				c-0.1,0.3-0.1,0.5-0.3,0.9c-1.1,1.8-0.9,4.9,2.3,4.5c-1.4-0.2-2.8-1.2-2.7-2.6c0.2-0.9,0.8-1.7,1.1-2.4c0.3-0.7,0.4-1.1,0.9-1.4
				c2-1.4,3.8-2.5,3.9-4.5c0-0.8,0.6-1.4,1.2-1.7c0.6-0.3,1.1-0.5,1.7-0.7c-0.1,0.1-1.2,0.6-2,1.2c-0.4,0.3-0.8,1.3-0.9,2
				c-0.1,2.2-1.5,3-3.6,4.3c-1,0.6-1.7,2-1.8,3.1c-0.1,0.6,0,1.2,0.6,1.6c0.3,0.2,0.6,0.3,1,0.4c0.6,0.2,0.8,0.2,1.1,0.7
				c0.3,0.4,0.6,0.5,1.1,0.7c-0.5-0.5-0.5-1.1-0.9-1.6c-0.4-0.4-1-0.3-1.5-0.6c-0.5-0.3-0.6-0.7-0.7-1.2c-0.1-1.1,0.5-2.3,1.5-3.1
				c0.1-0.1,0.3-0.1,0.4-0.2c0.8-0.3,1.6-0.8,2.2-1.4c0.4-0.4,0.7-0.9,0.8-1.5c0.1-0.3,0.1-0.7,0.1-1c0-0.4,0-0.8,0.1-1.2
				c0.2-0.9,0.9-1.3,1.4-1.6c0.3-0.2,0.6-0.3,1-0.4c0.2,0,0.7-0.2,0.7-0.2s0.6-0.6,0.6-0.7C200.1-10,199.7-10,199.6-10z"/>
		</g>
		<path class="st1" d="M213.6,1.4c0,0,0.1-0.6,0.1-0.6c-1.6-0.1-4-0.6-5.1-0.9c-0.1,0-0.1-1.4-1.1-2.1c-0.1-0.1,0.1,0.4,0.2,0.9
			c0.1,0.7,0.1,1.6,0.1,1.6c0,1.8-0.9,5.3-0.9,5.4c0.1,0.6,0.1,1.1,1.1,1.7c1.5,1,4.2,3.7,4.2,3.9c-3-2.3-5.1-3.6-6.5-3.9
			c-0.4-0.1-0.9-5.4-3.3-7.2c-1.2-0.9-2.5-1.7-3-2.7c-1.5-2.9-0.6-6.6,3.3-8.1c3.1-1.2,7.5,0.2,9,0.7c0,0,0-0.3,0-0.4
			c-1.2-0.5-6-2-9.7-0.7c-4.2,1.5-5.3,5.5-3.1,9.1c1.4,2.3,4.8,2.6,5.2,6.8c0.1,0.9,0.2,1.5,0.2,1.9c0,0.8,0.6,1,1,1.1
			c1.2,0.2,7.5,3.5,7.9,5.3c0,0.1,0,0.4-0.1,0.5l2.2,0c0-0.2-0.5-0.9-0.7-1.2c-0.5-0.8-4.2-3.5-4.5-3.8c-2.2-2.1-2.4-3.6-2.4-3.9
			c0-0.1,0.6-4,0.7-4.3c0,0,0,0,0,0c0.1,0-0.1-1,0-1c0,0,0.3,1.1,0.3,1.1C209.7,0.9,212.6,1.4,213.6,1.4z"/>
		<path class="st1" d="M214.5,1.5l0.4-0.6c0,0,2.1,0.1,3.2-0.3c0,0,2.1,2.4,2.9,3.1c0.6,0.5,2.1,1.9,2.3,2.1
			c0.3,0.2,0.5,0.5,0.6,0.8c0,0.3-0.2,0.5-0.3,0.8c-0.1,0.3-0.8,1.6-0.9,1.9c0.2,0,2.2-2.5,1.9-3.1c-0.5-0.8-1-1.7-1.5-2.5
			c-0.3-0.5-0.7-1.1-1.1-1.6c-0.1-0.1,0.4-0.4,0.7-0.9c0.4-0.5,0.6-1.2,0.6-1.1c0,0,0.3,0.9,0.1,1.4c-0.1,0.2-0.5,0.7-0.5,0.7
			c0.7,1.1,1.4,2.8,1.7,3.2c0.2,0.3,0.6,0.7,0.6,1.1c0,0.6-1.5,2.4-1.9,2.8c-0.6,0.6-0.9,1.3-1.4,1.7c-0.3,0.2-2,1.2-2,1.2
			c0-0.2-0.1-1.9,0-2.1c0,0,1.7-0.2,1.8-0.3c0.5-0.5,0.9-1.4,1.2-2c0.2-0.3,0.5-0.7,0.5-1.1c0-0.4-0.4-0.7-0.7-0.9
			c-0.8-0.5-2.4-2-2.9-2.4c-0.5-0.4-1.8-1.7-2-2C216.7,1.6,214.5,1.5,214.5,1.5z"/>
		<path class="st1" d="M196.9,1.9C196.9,1.9,196.8,1.9,196.9,1.9L196.9,1.9z"/>
		<path class="st1" d="M198.4,2.8c-0.6,0-0.8,0.7-0.9,0.8c0,0-0.1,1.6-0.2,2.7c0,0.5-0.2,1.1-0.4,1.6c0.3-1.8-0.2-3.9-0.4-4.7
			c-0.1-0.5,0.2-1,0.3-1.1c0.4,0,2.1-1.3,3.1-2.6c0,0,1.4,0.5,1.9,1c0.5,0.5,1.2,1.3,1.2,1.3C201.8,3.1,200.7,2.9,198.4,2.8z
			 M203.2,2.1c-0.7-0.8-3.7-3.2-3.7-3.2c-0.1,0.2-0.2,0.5-0.4,0.7c-0.9,1.2-2.2,2-2.3,2c-0.3,0-0.6,0.2-0.7,0.4
			c-0.2,0.3-0.2,0.7-0.1,1c0.4,0.9,0.6,2.9,0.6,3.8c0,0.9,0.1,1.6-0.3,2.4c-0.4,1-2.1,0.9-2.3,1c0,0,0.9,2,0.9,2
			c0.1-0.1,1-0.7,1.2-1.1c0.3-0.8,0.4-0.8,0.6-1.4c0.1-0.4,0.9-2.1,1-2.7c0.2-0.9,0.2-1.8,0.2-2c0,0,0.1-0.8,0.1-0.9
			c0.1-0.1,0.2-0.3,0.4-0.4c0.2-0.1,1-0.2,1.3-0.1c0.2,0,2.2,0.2,3.3-0.8C202.9,2.9,203.5,2.4,203.2,2.1z"/>
		<g>
			<path class="st1" d="M227.2,11.8c0.5,0,0.9,0.4,0.9,0.9c0,0.5-0.4,0.9-0.9,0.9c-0.5,0-0.9-0.4-0.9-0.9
				C226.3,12.2,226.7,11.8,227.2,11.8L227.2,11.8z M227.2,12c-0.4,0-0.7,0.3-0.7,0.7c0,0.4,0.3,0.8,0.7,0.8c0.4,0,0.7-0.3,0.7-0.7
				C227.9,12.3,227.6,12,227.2,12L227.2,12z M227,13.3h-0.2v-1c0.1,0,0.2,0,0.3,0c0.1,0,0.2,0,0.3,0.1c0.1,0,0.1,0.1,0.1,0.2
				c0,0.1-0.1,0.2-0.2,0.2v0c0.1,0,0.1,0.1,0.2,0.2c0,0.2,0,0.2,0.1,0.2h-0.2c0,0,0-0.1-0.1-0.3c0-0.1-0.1-0.2-0.2-0.2H227V13.3z
				 M227,12.7h0.1c0.1,0,0.2,0,0.2-0.2c0-0.1-0.1-0.2-0.2-0.2c-0.1,0-0.1,0-0.1,0V12.7z"/>
		</g>
		<path class="st1" d="M218.4-15.8c0-0.1-0.1-0.3-0.1-0.4c0.1-0.2,0.1-0.5-0.1-0.8c0-0.3,0-0.6,0-0.9c0-0.4,0.1-0.9,0.1-1.2
			c0-0.6-0.2-1.1-0.4-1.3c-0.2-0.2-0.6-0.3-0.9-0.3c-0.6,0-1.1,0.5-1.2,1c0-0.3,0.1-0.6,0.1-0.9c0,0,0-0.1,0-0.1
			c0.3-0.4,0.4-1,0.4-1.2c0-0.6,0.2-1.6-0.9-2.1L215-24c1.3,0.3,1.1,1.2,1.2,2c0,0.3-0.2,0.9-0.4,1.2c0,0-0.4,0.3-0.4,0.3
			c0.1,0,0.2,0.1,0.3,0c-0.1,0.5-0.1,1,0.3,1.3c-0.1-0.1-0.1-0.2-0.2-0.4c0.2-0.5,0.7-0.7,1.2-0.8c0.2,0,0.4,0,0.6,0.2
			c0.2,0.2,0.4,0.6,0.4,1.2c0,0.3,0,0.7,0,1.1c0,0.2,0,0.4,0,0.6c-0.1-0.1-0.1-0.1-0.2-0.2c-0.1-0.1-0.2-0.2-0.2-0.6
			c0-0.4,0-0.6-0.5-1c0.3,0.3,0.2,0.6,0.2,1c0,0.5,0.1,0.6,0.3,0.8c0.1,0.1,0.2,0.2,0.3,0.3c0,0.1,0.1,0.2,0.1,0.3
			c0,0.1,0,0.2,0,0.2c0,0.3-0.1,0.6-0.2,0.6c-0.1,0.2-0.3,0.3-0.4,0.4c-0.2,0.2-0.3,0.3-0.5,0.6c-0.1,0.2-0.1,0.4-0.1,0.6
			c0,0.3-0.1,0.5-0.2,0.7c-0.1,0.2-0.7,1.7-0.7,2.1c0,0.4,0.2,0.8,0.1,1.2c0,0,0.2,0.6,0.2,0.7c0,0.1,0.1,0.1,0.1,0.1
			c0.2-0.4,0.2-1.2,0.1-1.8c-0.1-0.5,0.1-1.4,0.4-2c0.1-0.3,0.2-0.5,0.2-0.8c0-0.2,0.1-0.4,0.1-0.6c0.1-0.2,0.2-0.4,0.4-0.5
			c0.1-0.1,0.3-0.2,0.4-0.4c0,0.1,0.1,0.3,0.1,0.4l0,0.2l0.3-0.5L218.4-15.8z"/>
		<path class="st1" d="M213.4-14.9l-0.1,0.3c0,0,0,0,0,0c0-0.3,0-0.6,0-0.9C213.4-15.3,213.5-15.1,213.4-14.9z M216.2-17.1
			c-0.2,0.1-0.7,0.5-0.7,0.5c-0.1,0.2-0.1,0.3-0.2,0.5c-0.1,0.4-0.1,0.6-0.3,0.8c-0.1,0.1-1.1,0.7-1.5,1c0.1-0.1,0.1-0.3,0.1-0.4
			l0.1-0.3c0.1-0.3,0-0.7-0.2-0.9c-0.1-0.1-0.1-0.3-0.1-0.4c0-0.1,0-0.3,0-0.4c0-0.2-0.1-0.5-0.1-0.7c0,0.1-0.1,0.3-0.1,0.5
			c0,0.3-0.3,2.3,0,3.1c0.1,0.2,1.5-1,1.9-1.3c0.5-0.4,0.4-0.8,0.5-1.3C215.6-16.5,216.1-16.9,216.2-17.1c0.3-0.1,0.6-0.2,0.7-0.2
			C216.8-17.3,216.3-17.1,216.2-17.1z"/>
		<path class="st1" d="M216.1-15.9c-0.1,0.3-0.1,0.5-0.3,0.8c-0.6,0.8-2.9,2.7-3,2.6c-0.5-0.6-0.7-2.3-0.7-3.5
			c0-0.9,0.1-1.9,0.2-2.4c0.2-0.6,0.5-0.9,0.9-1.1c0.1,0,0.2,0,0.3,0c0.4,0,1.2,0.3,1.4,0.7c-0.1-0.3-0.3-0.5-0.6-0.7
			c0-0.3,0-1.3-0.2-1.9c0,0,0,0.1-0.1,0c-0.1,0-0.2-0.2-0.2-0.2c0.1,0.3,0.4,1.7,0.4,2c-0.3-0.1-0.7-0.2-1-0.1
			c-0.5,0.1-0.9,0.6-1.1,1.2c-0.2,0.6-0.3,1.8-0.3,2.8c0,1.1,0.2,3,0.8,3.7c0.3,0.3,3.1-2.6,3.3-3.2c0.1-0.2,0.2-0.5,0.4-0.9
			c0.2-0.3,0.3-0.9,0.5-1.2C216.7-17.2,216.3-16.3,216.1-15.9z"/>
		<path class="st1" d="M215.2-10.3c0.2,0.3,0.4,0.6,0.6,0.9c0.6,0.8,1.1,1.6,1.7,2.4c0.3,0.5,0.6,0.9,0.9,1.4c0.3,0.5,0.6,1,0.2,1.5
			c-0.2,0.3-0.4,0.5-0.6,0.8c-0.6,0.7-1.1,1.5-1.6,2.2c-0.7,1-1.5,2.1-2,3.2c0,0.1-0.3,1.7-0.4,2.1c-0.1,0.2-0.1,0.4-0.2,0.5
			c-0.1,0.3-0.2,0.6-0.3,0.8c0,0.1-0.1,0.2-0.1,0.4c0,0.1,0,0.1,0,0.2c0,0,0,0.1,0,0.1c0,0,0,0,0,0c0,0,0,0,0-0.1c0,0,0-0.1-0.1-0.1
			c0-0.1-0.1-0.2-0.1-0.2c0-0.3-0.2-1.5-0.3-1.7c-0.1-0.4-0.6-0.9-0.5-1.3c0.1-0.3,1.1-0.8,1.2-1.1c0.1-0.3,0.1-0.6,0.2-0.9
			c0.1-0.6,0.1-0.8,0.3-1.4c0.3-1.2,0.7-2.4,1.4-3.3c0.2-0.3,0.5-0.5,0.7-0.8c0.3-0.3-0.2-0.5-0.4-0.6c-0.3-0.2-0.6-0.4-0.8-0.7
			c-0.8-0.6-1.5-1.3-2.2-1.9c-2.1-2-0.7-4.3-0.1-4.8l0.4,0.5c-0.8,0.6-1.3,1.9-0.6,3.1c0.4,0.8,1.2,1.5,1.9,2.2
			c0.5,0.4,0.9,0.9,1.4,1.3c0.3,0.3,0.8,0.6,0.7,1c0,0.2-0.2,0.4-0.4,0.6c-0.1,0.2-0.3,0.4-0.4,0.6c-0.5,0.8-0.9,1.7-1.2,2.6
			c-0.3,0.8-0.5,1.6-0.7,2.4c0,0.1,0,0.1-0.1,0.2c0,0-0.3,0.3-0.4,0.4c-0.2,0.2-0.3,0.4-0.5,0.6c0,0,0,0,0,0c-0.2,0.3,0.2,0.6,0.2,1
			c0,0.2,0,0.5,0,0.7c0,0.3,0.1,0.6,0.1,0.9c0,0.2,0,0.3,0.1,0.5c0,0.1,0,0.1,0,0.2c0,0,0,0.1,0,0.1c0,0,0,0.1,0,0.1
			c0,0,0-0.1,0-0.1c0-0.1,0-0.1,0-0.2c0-0.1,0.1-0.3,0.1-0.4c0.1-0.3,0.2-0.7,0.3-1.1c0-0.1,0.1-0.3,0.1-0.4c0.2-0.9,0.4-2,0.6-2.3
			c0.1-0.2,0.2-0.3,0.2-0.5c0.6-1.1,1.2-2.1,1.8-3.2c0.3-0.5,0.7-1,1.1-1.5c0.3-0.4,1-0.9,0.8-1.4c0-0.1-0.1-0.2-0.1-0.3
			c-0.1-0.3-0.3-0.5-0.4-0.8c-0.5-0.8-1-1.6-1.5-2.4c-0.4-0.5-1-1.3-1.5-1.8L215.2-10.3z"/>
		<path class="st1" d="M216.1-23.2c-0.2,0.1-0.4,0.3-0.5,0.4c0,0.1,0,0.3,0.1,0.4c0.1,0.2,0.1,0.1,0.2,0.3c0-0.1-0.1-0.2-0.1-0.3
			c0-0.1,0-0.1,0-0.2c0-0.3,0.3-0.2,0.3-0.5"/>
	</g>
	<g>
		<g>
			<g>
				<g>
					<g>
						<g>
							<path class="st2" d="M188.7,17.1c4.8,0,8.7,3.1,8.7,8.1c0,4.8-3.6,8.8-8.8,8.8c-5.9,0-8.5-4.6-8.5-8.5
								C180.1,22,182.8,17.1,188.7,17.1 M189.2,33c1.9,0,5.7-1.2,5.7-7.2c0-4.6-2.9-7.8-6.3-7.8c-3.6,0-6.1,2.4-6.1,6.9
								C182.5,29.6,185.3,33,189.2,33z"/>
							<path class="st2" d="M202.8,32.1c0.1-0.9,0.1-2.6,0.1-4.7v-3.8c0-3.4,0-4,0-4.7l0-1.5c0.3,0,2.8-0.1,4.1-0.1
								c2.1,0,6.3-0.2,8.8,2.5c1.1,1.1,2.1,2.9,2.1,5.5c0,2.7-1.1,4.8-2.3,6.1c-0.9,1-3.1,2.5-6.7,2.5c-1.9,0-5.8-0.3-6.1-0.3
								L202.8,32.1 M205.1,26c0,2.3,0,4.3,0,4.7c0,0.5,0.1,1.3,0.3,1.5c0.3,0.4,0.8,0.9,3.4,0.9c2,0,3.6-0.6,4.9-1.9
								c1.1-1.1,1.7-3.2,1.7-5.2c0-2.7-1.2-4.5-2.1-5.4c-2-2.1-4.2-2.3-6.8-2.3c-0.4,0-1,0.1-1.2,0.2c-0.2,0.1-0.3,0.2-0.3,0.4
								c0,0.7,0,2.8,0,4.4V26z"/>
							<path class="st2" d="M223.3,32.1c0.1-0.9,0.1-2.6,0.1-4.7v-3.8c0-3.4,0-4,0-4.7l-0.1-1.6c0.3,0,0.8,0.1,1.3,0.1
								c0.3,0,0.9-0.1,1.2-0.1l0,1.6c0,0.7,0,1.3,0,4.7v3.8c0,2.1,0,3.8,0.1,4.7l0.1,1.6c-0.5,0-0.7-0.1-1.4-0.1
								c-0.6,0-0.9,0.1-1.3,0.1L223.3,32.1z"/>
							<path class="st2" d="M172.6,28.2c0-1.7,0-2.6,0-2.6c0.4,0,0.7,0.1,1.1,0.1c0.3,0,0.8-0.1,1.1-0.1l0,1.6c0,0.7,0,1.3,0,2.2
								v2.4c0,1,0,1-0.3,1.2c-1.4,0.7-3.5,1-4.8,1c-2,0-5.2-0.4-7.4-2.4c-1.3-1.2-2.6-3.4-2.6-6c0-3.5,1.7-5.9,3.6-7.1
								c1.9-1.2,4.3-1.4,6-1.4c1.4,0,3,0.3,3.4,0.4c0.5,0.1,1.2,0.2,1.7,0.2c0.2,0,0.3,0.1,0.3,0.2c0,0.3-0.1,0.2-0.2,2.3
								c0,0.2-0.2,0.1-0.5-0.1c0,0-0.3-0.2-0.5-0.4c-0.7-0.7-2.2-1.7-5-1.7c-1.4,0-2.8,0.1-4.4,1.3c-1.3,1-2.2,3-2.2,5.5
								c0,3,1.5,5.2,2.3,6c1.7,1.7,3.4,2.2,5.4,2.2c0.8,0,1.7-0.1,2.2-0.4c0.3-0.2,0.4-0.4,0.4-0.8V28.2z"/>
							<path class="st2" d="M243.9,17.4c0.1,0,0.7,0.1,0.9,0.1c0.1,0,0.2,0,0.8,0l-1,2.5c-0.2,0.6-1.4,3.2-2.5,5.8
								c-1.4,3.1-2.3,5.5-2.8,6.5c-0.6,1.3-0.7,1.6-1,1.6c-0.3,0-0.4-0.3-0.8-1.3l-5.4-13.2l-0.8-2c0.4,0,1.1,0.1,1.4,0.1
								c0.2,0,1.1-0.1,1.4-0.1c0,0,0.6,1.8,0.9,2.6l4,10.4c1.3-2.9,4-9.8,4.5-11.3C243.4,18.8,243.9,17.4,243.9,17.4z"/>
							<path class="st2" d="M257.5,32.8l-1.9-4.9c0-0.1-0.1-0.1-0.2-0.1h-4.6c-0.1,0-0.2,0.1-0.2,0.2l-1.3,3.4
								c-0.2,0.5-0.8,2.4-0.8,2.4s-0.4,0-0.7,0c-0.2,0-0.6,0-0.9,0l0.9-2.4l5.1-13.4c0.3-0.7,0.4-0.8,0.6-0.8c0.1,0,0.3,0.2,0.6,0.8
								c0.3,0.8,3.7,9.6,5,12.9l1.1,2.8c-0.3,0-0.9,0-2.4,0L257.5,32.8 M255.1,26.8c0.1,0,0.1-0.1,0.1-0.2l-2-5.8
								c-0.1-0.2-0.1-0.2-0.2,0l-1.9,5.8c0,0.1,0,0.2,0.1,0.2H255.1z"/>
						</g>
						<path class="st2" d="M226.8,37.9c0.1,0.1,0.1,0.2,0.1,0.4c0,0.2-0.1,0.3-0.2,0.4c-0.1,0.1-0.2,0.2-0.4,0.2
							c-0.2,0-0.3,0-0.4-0.1c-0.1-0.1-0.1-0.2-0.1-0.4c0-0.2,0.1-0.3,0.2-0.5c0.1-0.1,0.2-0.2,0.4-0.2
							C226.6,37.8,226.7,37.8,226.8,37.9z"/>
						<g>
							<path class="st2" d="M193,40.3c0-0.3-0.1-0.5-0.1-0.8c-0.1-0.3-0.1-0.5-0.3-0.7c-0.1-0.2-0.3-0.4-0.5-0.5
								c-0.2-0.1-0.5-0.2-0.8-0.2c-0.3,0-0.7,0.1-1,0.2c-0.3,0.2-0.6,0.4-0.8,0.6c-0.3,0.3-0.5,0.6-0.7,0.9
								c-0.2,0.4-0.4,0.7-0.5,1.1c-0.1,0.4-0.2,0.7-0.3,1.1c-0.1,0.4-0.1,0.7-0.1,1c0,0.3,0,0.6,0.1,0.8c0.1,0.3,0.2,0.5,0.3,0.7
								c0.1,0.2,0.3,0.3,0.6,0.5c0.2,0.1,0.5,0.2,0.8,0.2c0.3,0,0.7-0.1,0.9-0.2c0.3-0.1,0.6-0.3,0.8-0.5c0.3-0.2,0.5-0.4,0.7-0.7
								c0.2-0.3,0.4-0.5,0.6-0.8l0.2,0.1c-0.2,0.3-0.4,0.6-0.6,0.9c-0.3,0.3-0.6,0.6-0.9,0.8c-0.3,0.3-0.7,0.5-1,0.6
								c-0.4,0.2-0.7,0.2-1.1,0.2c-0.4,0-0.7-0.1-1-0.2c-0.3-0.1-0.6-0.3-0.8-0.5c-0.2-0.2-0.4-0.5-0.5-0.8c-0.1-0.3-0.2-0.6-0.2-1
								c0-0.7,0.1-1.4,0.4-2c0.3-0.7,0.7-1.2,1.1-1.8c0.5-0.5,1-0.9,1.7-1.2c0.6-0.3,1.3-0.5,2-0.5c0.2,0,0.5,0,0.8,0.1
								c0.3,0.1,0.5,0.1,0.7,0.3c-0.1,0.4-0.2,0.7-0.3,1.1c-0.1,0.4-0.2,0.7-0.2,1.1H193z"/>
							<path class="st2" d="M203.4,42.9c-0.1,0.3-0.2,0.6-0.4,0.8c-0.2,0.3-0.3,0.5-0.6,0.8c-0.2,0.2-0.4,0.4-0.7,0.6
								c-0.2,0.2-0.5,0.3-0.7,0.4c-0.3,0.1-0.5,0.2-0.8,0.2c-0.2,0-0.4,0-0.5-0.1c-0.1-0.1-0.2-0.1-0.3-0.2
								c-0.1-0.1-0.1-0.2-0.2-0.3c0-0.1,0-0.3,0-0.4c0-0.3,0.1-0.5,0.2-0.8c0.1-0.3,0.2-0.5,0.4-0.8c0.2-0.3,0.4-0.5,0.6-0.8
								c0.2-0.2,0.5-0.4,0.7-0.6c0.2-0.2,0.5-0.3,0.7-0.4c0.2-0.1,0.5-0.2,0.6-0.2c0.2,0,0.4,0,0.5,0.1c0.1,0.1,0.2,0.1,0.3,0.2
								c0.1,0.1,0.1,0.2,0.2,0.3c0,0.1,0,0.3,0,0.4C203.5,42.3,203.4,42.6,203.4,42.9 M201.4,41.6c-0.2,0.1-0.3,0.3-0.4,0.5
								c-0.1,0.2-0.2,0.4-0.3,0.7c-0.1,0.2-0.2,0.5-0.3,0.7c-0.1,0.2-0.1,0.5-0.2,0.7c0,0.2-0.1,0.4-0.1,0.5c0,0.4,0.2,0.7,0.6,0.7
								c0.2,0,0.3-0.1,0.5-0.2c0.2-0.1,0.3-0.3,0.4-0.5c0.1-0.2,0.2-0.4,0.3-0.7c0.1-0.3,0.2-0.5,0.3-0.8c0.1-0.2,0.1-0.5,0.2-0.7
								c0-0.2,0.1-0.4,0.1-0.5c0-0.4-0.2-0.7-0.6-0.7C201.8,41.4,201.6,41.4,201.4,41.6z"/>
							<path class="st2" d="M205,45.6c0.3,0,0.6-0.1,0.9-0.2c0,0,0.3-0.1,0.4-0.3c0.2-0.1,0.6-0.5,0.6-0.5c0,0,0-0.1-0.1-0.1
								c0,0-0.6,0.5-1,0.5l-0.1,0c-0.3,0-0.5-0.1-0.6-0.2l0-0.1c-0.1-0.1-0.1-0.3-0.1-0.5c0-0.1,0-0.3,0.1-0.5
								c0-0.2,0.1-0.4,0.1-0.6c0.1-0.2,0.1-0.4,0.2-0.6c0.1-0.2,0.2-0.4,0.3-0.6c0.1-0.2,0.2-0.3,0.4-0.4c0.1-0.1,0.3-0.2,0.4-0.2
								c0.1,0,0.3,0,0.4,0.1c0.1,0.1,0.2,0.1,0.2,0.3c0,0-0.1,0.1-0.1,0.1c0,0,0,0.1,0,0.2c0,0.1,0,0.2,0.1,0.3
								c0.1,0.1,0.2,0.1,0.3,0.1c0.2,0,0.3-0.1,0.4-0.2c0.1-0.1,0.1-0.3,0.1-0.5c0-0.2-0.1-0.4-0.2-0.5c-0.1-0.1-0.3-0.2-0.5-0.2
								c-0.3,0-0.7,0.1-1.1,0.3c-0.4,0.2-0.7,0.5-1,0.8c-0.3,0.3-0.5,0.7-0.7,1.1c-0.2,0.4-0.3,0.8-0.3,1.1c0,0.3,0.1,0.6,0.3,0.9
								c0.2,0.2,0.4,0.3,0.6,0.3C204.8,45.6,204.9,45.6,205,45.6z"/>
							<path class="st2" d="M211.8,42.9c-0.1,0.3-0.2,0.6-0.4,0.8c-0.2,0.3-0.3,0.5-0.5,0.8c-0.2,0.2-0.4,0.4-0.7,0.6
								c-0.2,0.2-0.5,0.3-0.7,0.4c-0.3,0.1-0.5,0.2-0.8,0.2c-0.2,0-0.4,0-0.5-0.1c-0.1-0.1-0.2-0.1-0.3-0.2
								c-0.1-0.1-0.1-0.2-0.2-0.3c0-0.1,0-0.3,0-0.4c0-0.3,0.1-0.5,0.2-0.8c0.1-0.3,0.2-0.5,0.4-0.8c0.2-0.3,0.4-0.5,0.6-0.8
								c0.2-0.2,0.5-0.4,0.7-0.6c0.2-0.2,0.5-0.3,0.7-0.4c0.2-0.1,0.5-0.2,0.6-0.2c0.2,0,0.4,0,0.5,0.1c0.1,0.1,0.2,0.1,0.3,0.2
								c0.1,0.1,0.1,0.2,0.2,0.3c0,0.1,0,0.3,0,0.4C212,42.3,211.9,42.6,211.8,42.9 M209.9,41.6c-0.2,0.1-0.3,0.3-0.4,0.5
								c-0.1,0.2-0.2,0.4-0.3,0.7c-0.1,0.2-0.2,0.5-0.3,0.7c-0.1,0.2-0.1,0.5-0.2,0.7c0,0.2-0.1,0.4-0.1,0.5c0,0.4,0.2,0.7,0.7,0.7
								c0.2,0,0.3-0.1,0.5-0.2c0.2-0.1,0.3-0.3,0.4-0.5c0.1-0.2,0.2-0.4,0.3-0.7c0.1-0.3,0.2-0.5,0.3-0.8c0.1-0.2,0.1-0.5,0.2-0.7
								c0-0.2,0.1-0.4,0.1-0.5c0-0.4-0.2-0.7-0.6-0.7C210.2,41.4,210.1,41.4,209.9,41.6z"/>
							<path class="st2" d="M231.7,41.1h0.9l-0.6,1.7l0,0c0.1-0.2,0.2-0.4,0.3-0.6c0.1-0.2,0.3-0.4,0.4-0.6c0.2-0.2,0.3-0.3,0.5-0.5
								c0.2-0.1,0.4-0.2,0.6-0.2c0.2,0,0.4,0.1,0.5,0.2c0.1,0.1,0.2,0.3,0.2,0.5c0,0.1,0,0.2,0,0.3c0,0.1-0.1,0.2-0.1,0.2
								c0,0.1-0.1,0.1-0.2,0.2c-0.1,0.1-0.2,0.1-0.3,0.1c-0.1,0-0.2,0-0.3-0.1c-0.1-0.1-0.1-0.2-0.1-0.3c0-0.1,0-0.1,0-0.2
								c0-0.1,0.1-0.1,0.1-0.2c-0.1-0.1-0.1-0.1-0.2-0.1c-0.1,0-0.2,0-0.2,0c-0.2,0-0.3,0.1-0.5,0.2c-0.2,0.2-0.3,0.4-0.5,0.6
								c-0.2,0.3-0.3,0.5-0.4,0.8c-0.1,0.3-0.3,0.6-0.4,0.9c-0.1,0.3-0.2,0.6-0.3,0.8c-0.1,0.2-0.1,0.4-0.2,0.6h-0.8L231.7,41.1z"/>
							<path class="st2" d="M198.8,44.6c0,0-0.5,0.6-1,0.6c-0.3,0-0.3-0.1-0.3-0.4c0-0.1,0-0.3,0.1-0.6c0.1-0.3,0.5-1.5,0.5-1.6
								c0.1-0.2,0.2-1-0.1-1.3c-0.1-0.1-0.4-0.3-0.6-0.3c-0.3,0-0.5,0.1-0.8,0.2c-0.2,0.1-0.5,0.3-0.7,0.5c-0.2,0.2-0.4,0.4-0.6,0.7
								c-0.2,0.2-0.3,0.5-0.4,0.7l0,0c0.4-0.9,1.8-4.9,2.2-5.8h-0.9l-2.9,8.2h0.8c0.1-0.2,0.4-1.2,0.6-1.6c0.1-0.3,0.3-0.6,0.5-0.8
								c0.2-0.3,0.3-0.5,0.5-0.7c0.2-0.2,0.4-0.4,0.6-0.5c0.4-0.3,0.9-0.2,1-0.1c0.1,0.1,0.1,0.2,0.1,0.4c-0.1,0.8-0.5,1.8-0.6,2.4
								c-0.1,0.4-0.1,0.8,0.1,1c0.1,0.1,0.3,0.2,0.5,0.2c0.2,0,0.3,0,0.5-0.1c0.2-0.1,0.3-0.2,0.5-0.3
								C198.5,45.1,198.9,44.7,198.8,44.6C198.9,44.6,198.9,44.6,198.8,44.6z"/>
							<path class="st2" d="M227.6,43.3c0.2,0,0.4-0.1,0.7-0.2c0.3-0.1,0.6-0.2,0.8-0.4c0.3-0.1,0.5-0.3,0.7-0.5
								c0.2-0.2,0.3-0.4,0.3-0.7c0-0.4-0.2-0.6-0.6-0.6c-0.2,0-0.4,0.1-0.7,0.2c-0.2,0.1-0.5,0.3-0.7,0.4c-0.2,0.2-0.5,0.4-0.7,0.6
								c-0.2,0.2-0.4,0.5-0.6,0.8c-0.2,0.3-0.3,0.5-0.4,0.8c-0.1,0.3-0.2,0.5-0.2,0.8c0,0.3,0.1,0.6,0.3,0.7
								c0.2,0.2,0.4,0.3,0.8,0.3c0.3,0,0.6-0.1,0.9-0.2c0,0,0.3-0.1,0.4-0.3c0.2-0.1,0.6-0.5,0.6-0.5c0,0,0-0.1-0.1-0.1
								c0,0-0.6,0.5-1,0.5l-0.1,0c-0.3,0-0.5-0.1-0.6-0.2c-0.1-0.2-0.2-0.4-0.2-0.7c0-0.1,0-0.3,0.1-0.5
								C227.5,43.6,227.5,43.4,227.6,43.3 M227.9,42.6c0.1-0.2,0.2-0.4,0.3-0.5c0.1-0.2,0.2-0.3,0.4-0.5c0.1-0.1,0.3-0.2,0.4-0.2
								c0.1,0,0.2,0,0.3,0.1c0.1,0,0.1,0.1,0.1,0.2c0,0.2-0.1,0.3-0.2,0.5c-0.1,0.2-0.3,0.3-0.4,0.4c-0.2,0.1-0.4,0.2-0.5,0.3
								c-0.2,0.1-0.4,0.1-0.5,0.2C227.7,43,227.8,42.8,227.9,42.6z"/>
							<path class="st2" d="M220.5,44.5c-0.1,0.3-0.1,0.8,0.1,1c0.1,0.1,0.3,0.2,0.5,0.2c0.2,0,0.3,0,0.5-0.1
								c0.2-0.1,0.3-0.2,0.5-0.3c0.2-0.1,0.6-0.5,0.6-0.5c0,0,0-0.1-0.1-0.1c0,0-0.5,0.6-1,0.6c-0.3,0-0.3-0.1-0.3-0.4
								c0-0.1,0-0.3,0.1-0.6l0.3-1c0.1-0.3,0.2-0.7,0.4-1c0.1-0.3,0.2-0.6,0.2-0.8h1.5l0.1-0.3h-1.5l0.6-1.9l-0.9,0.2
								c-0.1,0.4-0.3,0.8-0.4,1.2c-0.1,0.4-0.3,0.8-0.4,1.2c-0.1,0.4-0.3,0.8-0.4,1.1c-0.1,0.4-0.2,0.7-0.3,1L220.5,44.5z"/>
							<path class="st2" d="M220,44.6c0,0-0.5,0.6-1,0.6c-0.3,0-0.3-0.1-0.3-0.4c0-0.1,0-0.3,0.1-0.6l0.1-0.3
								c0.1-0.2,0.2-0.5,0.3-0.8c0.1-0.3,0.2-0.6,0.3-0.8c0.1-0.3,0.2-0.5,0.3-0.7c0.1-0.2,0.2-0.4,0.2-0.5l-0.8,0
								c0,0.1-0.1,0.2-0.2,0.4c0-0.1-0.1-0.2-0.2-0.3c-0.1-0.1-0.2-0.1-0.3-0.1c-0.2,0-0.3,0.1-0.6,0.2c-0.2,0.1-0.5,0.2-0.7,0.4
								c-0.2,0.2-0.5,0.4-0.7,0.6c-0.2,0.2-0.5,0.5-0.7,0.8c-0.2,0.3-0.4,0.6-0.5,0.8c-0.1,0.3-0.2,0.6-0.2,0.9c0,0.1,0,0.2,0,0.3
								c0,0.1,0.1,0.2,0.1,0.3c0.1,0.1,0.1,0.2,0.2,0.2c0.1,0.1,0.2,0.1,0.3,0.1c0.2,0,0.4-0.1,0.7-0.2c0.2-0.1,0.5-0.3,0.7-0.5
								c0.2-0.2,0.4-0.4,0.6-0.6c0.2-0.2,0.3-0.4,0.4-0.6l0,0c0,0.1-0.1,0.2-0.1,0.3c-0.1,0.1-0.1,0.2-0.2,0.4
								c-0.1,0.4-0.1,0.8,0.1,1c0.1,0.1,0.3,0.2,0.5,0.2c0.2,0,0.3,0,0.5-0.1c0.2-0.1,0.3-0.2,0.5-0.3
								C219.6,45.1,220.1,44.7,220,44.6C220.1,44.6,220,44.6,220,44.6 M218.3,43.2c-0.1,0.1-0.1,0.2-0.1,0.3
								c-0.1,0.1-0.2,0.3-0.3,0.5c-0.1,0.2-0.2,0.4-0.4,0.5c-0.2,0.2-0.3,0.3-0.5,0.4c-0.2,0.1-0.3,0.2-0.5,0.2
								c-0.1,0-0.3,0-0.4-0.1c-0.1-0.1-0.1-0.2-0.1-0.4c0-0.2,0-0.5,0.1-0.7c0.1-0.2,0.2-0.5,0.3-0.7c0.1-0.2,0.3-0.5,0.4-0.7
								c0.1-0.2,0.2-0.3,0.3-0.5c0.1-0.1,0.1-0.1,0.2-0.2c0.1-0.1,0.1-0.1,0.2-0.1c0,0,0.2-0.1,0.2-0.1c0.1,0,0.2,0,0.2,0
								c0.1,0,0.2,0,0.3,0c0.1,0,0.2,0.1,0.3,0.1c0.1,0.1,0.1,0.1,0.2,0.2c0,0.1,0.1,0.2,0.1,0.3c0,0,0,0.1-0.1,0.2
								c0,0.1-0.1,0.3-0.2,0.4C218.4,42.9,218.4,43.1,218.3,43.2z"/>
							<path class="st2" d="M223.8,44.5c-0.1,0.4-0.1,0.8,0.1,1c0.1,0.1,0.3,0.2,0.5,0.2c0.2,0,0.3,0,0.5-0.1
								c0.2-0.1,0.3-0.2,0.5-0.3c0.2-0.1,0.6-0.5,0.6-0.5c0,0,0-0.1-0.1-0.1c0,0-0.5,0.6-1,0.6c-0.3,0-0.3-0.1-0.3-0.4
								c0-0.1,0-0.3,0.1-0.6l0.1-0.2c0.1-0.3,0.2-0.7,0.4-1c0.2-0.4,0.3-0.7,0.4-1.1c0.1-0.4,0.2-0.6,0.3-0.8h-0.9
								c-0.2,0.6-0.4,1.1-0.5,1.5c-0.2,0.5-0.5,1.2-0.6,1.6L223.8,44.5z"/>
							<path class="st2" d="M212.6,44.1l-0.1,0.4c-0.1,0.4-0.1,0.8,0.1,1c0.1,0.1,0.3,0.2,0.5,0.2c0.2,0,0.3,0,0.5-0.1
								c0.2-0.1,0.3-0.2,0.5-0.3c0.2-0.1,0.6-0.5,0.6-0.5c0,0,0-0.1-0.1-0.1c0,0-0.5,0.6-1,0.6c-0.3,0-0.3-0.1-0.3-0.4
								c0-0.1,0.1-0.3,0.1-0.6l0.1-0.2l0.1-0.5c0.1-0.3,0.2-0.7,0.4-1.1c0.1-0.4,0.3-0.8,0.4-1.2c0.1-0.4,0.3-0.8,0.4-1.3
								c0.1-0.4,0.3-0.8,0.4-1.2c0.1-0.4,0.2-0.7,0.3-0.9c0.1-0.3,0.2-0.5,0.2-0.6h-0.9c-0.2,0.6-0.4,1.2-0.6,1.8
								c-0.2,0.6-0.4,1.2-0.6,1.7c-0.2,0.6-0.4,1.1-0.5,1.6c-0.2,0.5-0.3,0.9-0.4,1.3L212.6,44.1z"/>
						</g>
					</g>
				</g>
			</g>
		</g>
	</g>
</g>
</svg>
