<?xml version="1.0" encoding="utf-8"?>
<!-- Generator: Adobe Illustrator 19.0.1, SVG Export Plug-In . SVG Version: 6.00 Build 0)  -->
<svg version="1.1" id="Layer_1" xmlns="http://www.w3.org/2000/svg" xmlns:xlink="http://www.w3.org/1999/xlink" x="0px" y="0px"
	 viewBox="100 -50 220 120" style="enable-background:new 100 -50 220 120;" xml:space="preserve">
<style type="text/css">
	.st0{fill:#EEEEEE;}
	.st1{fill:#808080;}
</style>
<g>
	<rect x="100" y="-50" class="st0" width="220" height="120"/>
	<g>
		<path class="st1" d="M211.1-23.5L211.1-23.5L211.1-23.5z"/>
		<g>
			<path class="st1" d="M215-23c0.1-0.2,0.2-0.5,0.3-0.7c0.1,0.2,0.2,0.4,0.2,0.6h-0.1h-0.2C215.2-23,215.1-23,215-23L215-23"/>
			<path class="st1" d="M218.1-24.5l0.5-0.3l0.3-0.2c0,0,0.1-0.1,0.2-0.2c0.8,0.3,1.7,0.4,2.5,0.4c-0.5,0.2-0.9,0.5-1.4,0.8
				l-0.4,0.3l-0.4,0.3h-0.1l-0.3-0.2h-0.1l-0.4-0.1h-0.1c0,0-0.2,0-0.4,0c0-0.1-0.1-0.4-0.1-0.4v-0.1v-0.1l0,0
				C217.8-24.3,218.1-24.5,218.1-24.5"/>
		</g>
		<path class="st1" d="M218.4-23.7L218.4-23.7L218.4-23.7z"/>
		<g>
			<path class="st1" d="M216.3-24.1c0,0,0.8-0.2,1-0.3c0,0.1,0.2,1,0.3,1.1c-0.1,0-0.2,0.1-0.2,0.1h-0.1l0,0h-0.1l-0.7,0.2l-0.2,0.1
				c-0.1,0-0.2,0.1-0.3,0.1c0-0.1-0.2-0.8-0.2-0.8s-0.1-0.2-0.1-0.3C215.9-24,216.3-24.1,216.3-24.1"/>
			<path class="st1" d="M189.9,38.3l0.2,2c0,0-0.8-0.9-1.3-1.1c-0.4-0.2-1-0.5-1.8-0.4c-0.8,0-1.8,0.6-2.1,1.5
				c-0.4,0.8-0.3,2.1,0.2,2.8c0.6,0.8,1.2,1.2,2.4,1.2s1.7-0.7,1.9-1c0.2-0.3,0.3-1,0.5-1c0.1,0,0.2,0.4,0.2,0.6
				c0,0.2-0.1,0.5-0.3,0.8c-0.2,0.2-0.7,0.5-1,0.7c-0.3,0.1-1,0.3-1.4,0.4c-0.4,0-1.1-0.1-1.6-0.2c-0.4-0.1-1.1-0.4-1.8-1
				c-0.5-0.6-0.6-1.4-0.6-2s0.3-1.3,0.7-1.8c0.5-0.6,1.3-0.9,2-1.1c0.7-0.1,1.3-0.1,1.7-0.1c0.4,0,0.9,0.2,1.1,0.3
				c0.2,0,0.4,0,0.6-0.1C189.7,38.4,189.9,38.3,189.9,38.3"/>
			<path class="st1" d="M237.3,38.3l0.2,2c0,0-0.8-0.9-1.3-1.1s-1-0.5-1.8-0.4c-0.8,0-1.8,0.6-2.1,1.5c-0.4,0.8-0.3,2.1,0.2,2.8
				c0.6,0.8,1.2,1.2,2.4,1.2s1.7-0.7,1.9-1s0.3-1,0.5-1c0.1,0,0.2,0.4,0.2,0.6c0,0.2-0.1,0.5-0.3,0.8c-0.2,0.2-0.7,0.5-1,0.7
				c-0.3,0.1-1,0.3-1.4,0.4c-0.4,0-1.1-0.1-1.6-0.2c-0.4-0.1-1.1-0.4-1.8-1c-0.5-0.6-0.6-1.4-0.6-2s0.3-1.3,0.7-1.8
				c0.5-0.6,1.3-0.9,2-1.1c0.7-0.1,1.3-0.1,1.7-0.1c0.4,0.1,0.9,0.2,1.1,0.3c0.2,0,0.4,0,0.6-0.1C237.2,38.4,237.3,38.3,237.3,38.3"
				/>
			<path class="st1" d="M208.2,43.5c-0.3,0.3-0.8,0.6-1.5,0.6c-1.2,0-1.8-0.4-2.4-1.2c-0.5-0.7-0.6-2-0.2-2.8
				c0.4-0.8,1.3-1.4,2.1-1.5c0.8,0,1.4,0.2,1.8,0.4s1.3,1.1,1.3,1.1l-0.2-2c0,0-0.1,0.2-0.3,0.2c-0.2,0.1-0.4,0.1-0.6,0.1
				s-0.7-0.2-1.1-0.3c-0.4-0.1-1-0.1-1.7,0.1c-0.7,0.1-1.5,0.5-2,1.1c-0.4,0.5-0.7,1.2-0.7,1.8c0,0.7,0.1,1.5,0.6,2
				c0.6,0.7,1.4,0.9,1.8,1c0.5,0.1,1.2,0.2,1.6,0.2c0.4,0,1.2-0.2,1.5-0.3s0.6-0.2,0.7-0.3c0.2-0.1,0.4-0.2,0.4-0.2v-1.8l0.5-0.5
				h-2.1l0.5,0.5V43.5z"/>
			<path class="st1" d="M198.4,42.8c0.5-0.7,0.6-2,0.2-2.8c-0.4-0.8-1.3-1.4-2.1-1.4c-0.1,0-0.1,0-0.2,0c-0.1,0-0.1,0-0.2,0
				c-0.8,0-1.8,0.6-2.1,1.5c-0.4,0.8-0.3,2.1,0.2,2.8c0.4,0.7,1,1.1,2,1.1S197.8,43.5,198.4,42.8 M196.2,44.5c-0.4,0-1-0.1-1.4-0.2
				c-0.4-0.1-1.1-0.4-1.8-1c-0.5-0.6-0.6-1.4-0.6-2s0.3-1.3,0.7-1.8c0.5-0.6,1.3-0.9,2-1.1c0.4-0.1,0.7-0.1,1.1-0.1
				c0.3,0,0.7,0,1.1,0.1c0.7,0.1,1.5,0.5,2,1c0.4,0.5,0.7,1.2,0.7,1.8c0,0.7-0.1,1.5-0.6,2c-0.6,0.7-1.4,1-1.8,1.1
				C197.2,44.4,196.7,44.5,196.2,44.5"/>
			<path class="st1" d="M212.2,38.4c0,0,0.4,0.2,0.6,0.4c0.2,0.1,0.3,0.3,0.3,0.3V44l-0.6,0.5h1.8l-0.6-0.5v-4.3l5.2,4.8h0.4v-5.4
				l0.6-0.6H218l0.6,0.6v3.6l-4.6-4.3H212.2z"/>
			<path class="st1" d="M226.4,41.6l-1.3-1.9l-1.3,1.9H226.4z M221.1,44.4c0,0,0.3-0.2,0.5-0.4c0.2-0.2,0.5-0.6,0.5-0.6l2.7-4.1
				l-0.2-0.3l0.8-0.6l3.9,5.5c0,0,0.1,0.2,0.4,0.3c0.1,0,0.5,0.3,0.5,0.3h-2.7c0,0,0.4-0.2,0.4-0.3c0.1-0.1,0.1-0.1,0.1-0.2
				c0-0.1-0.1-0.2-0.1-0.2l-1.1-1.8h-3.2c0,0-1,1.5-1.1,1.6c0,0.1-0.1,0.2,0,0.3s0.5,0.5,0.5,0.5L221.1,44.4z"/>
			<path class="st1" d="M201.1-7.3l0.9,0.7l0.3,0.2l0.4,0.3c0,0,0.2,0.1,0.3,0.2c-0.8,0.5-2,1-3.3,1c-0.4,0-1-0.1-1.3-0.6
				c0-0.3-0.1-0.5-0.1-0.7s0.1-0.5,0.1-0.6c0.2-0.4,0.6-0.8,1.2-0.9C200.2-7.8,200.6-7.6,201.1-7.3"/>
			<path class="st1" d="M204-8.7c0.4,0,0.6,0.1,0.8,0.3l1.2,1.1l0.4,0.4l0.4,0.3c0,0,0.1,0.1,0.2,0.2c-0.4,0.2-0.9,0.3-1.5,0.4
				c-0.7,0.1-1.3,0-1.8-0.2s-0.9-0.5-1.4-0.8L202-7.3c-0.3-0.3-0.7-0.5-1.1-0.7C201.8-8.5,202.8-8.7,204-8.7"/>
			<path class="st1" d="M206.4-9.2L206.4-9.2c0.8-0.1,1.6-0.1,2.2,0.4l1.1,1.1l0.8,0.8l0.3,0.2c0,0,0.1,0.1,0.2,0.2
				c-0.3,0-0.8,0.1-0.8,0.1h-1.4h-0.1c-0.5,0-0.9-0.1-1.3-0.3c-0.2-0.1-0.4-0.3-0.6-0.5l-0.3-0.3l0,0l-0.4-0.4
				c-0.3-0.3-0.6-0.6-1-0.9C205.5-9,205.9-9.2,206.4-9.2"/>
			<path class="st1" d="M210.2-9.3h0.2c0.7,0,1.3,0.1,1.9,0.3c0.3,0.1,0.6,0.3,0.9,0.7l0.6,0.7c0.4,0.5,0.8,0.9,1.2,1.4
				c-0.5,0.1-1,0.1-1.7,0.1c-0.5,0-0.9-0.1-1.3-0.3c-0.4-0.1-0.7-0.4-1-0.8l-0.7-0.7L209.2-9l-0.1-0.1l0,0
				C209.4-9.2,209.8-9.3,210.2-9.3"/>
			<path class="st1" d="M213.4-9c0.9-0.1,1.9,0,2.9,0.3c0.3,0.1,0.5,0.2,0.6,0.4c0.4,0.5,0.7,1,1,1.5l0.7,1.1l0.1,0.1l0,0
				c-0.4,0-0.9-0.1-1.2-0.1c-0.5,0-0.9-0.1-1.3-0.3c-0.3-0.1-0.7-0.4-1-0.7l-0.7-0.9c-0.3-0.4-0.6-0.8-1-1.2
				C213.5-8.8,213.4-8.9,213.4-9C213.3-9,213.4-9,213.4-9"/>
			<path class="st1" d="M220.4-5c-0.7-0.2-1.2-0.6-1.6-1.3L218.4-7c-0.3-0.5-0.6-1.1-1.1-1.5c1.3,0.1,2.8,0.3,4.2,1.2
				c0.4,0.3,0.6,0.5,0.7,0.9c0,0.1,0,0.2,0,0.2c0,0.1,0,0.3-0.1,0.4C221.9-5,221.1-4.8,220.4-5"/>
			<path class="st1" d="M205.8-13.9c1.4,0.6,2.7,1.3,4,2.1l0.5,0.3c1.2,0.7,2.4,1.3,3.4,2.1l0,0l0,0l-0.9,0.1h-0.1
				c-0.7-0.3-1.5-0.4-2.1-0.5c-0.5,0-1,0-1.5,0.1l-0.3,0.1c-0.1,0.1-0.2,0.1-0.3,0.1c-0.4-0.2-0.8-0.2-1.2-0.2h-0.1
				c-0.7-0.1-1.3,0.1-1.9,0.2c-0.1-0.1-0.9-0.8-0.9-0.8c-0.6-0.5-1.1-1-1.7-1.6C203.7-12.6,204.6-13.3,205.8-13.9"/>
			<path class="st1" d="M204.2-14.1l0.3-0.1c0.3-0.1,0.5-0.3,0.8-0.3c0.1,0,0.2,0,0.2,0.1c0.1,0,0.1,0.1,0.1,0.2
				c-0.6,0.3-1.1,0.6-1.6,1s-1,0.7-1.5,1.1c-0.1,0-0.1,0.1-0.2,0.1c-0.1,0-0.3-0.1-0.4-0.2c0,0-0.1-0.1-0.1-0.2l0,0
				C202.5-13,203.3-13.6,204.2-14.1"/>
			<path class="st1" d="M203.9-13.3"/>
			<path class="st1" d="M200.3-14.1L200.3-14.1c-0.2-0.2-0.3-0.3-0.3-0.4v-0.1c0.5-0.5,0.9-1,1.5-1.4c0.1,0,0.5,0.1,0.5,0.1
				c0.9,0.3,1.8,0.7,2.6,1.1l0,0h-0.1l-1.3,0.8l-1,0.6c0,0-0.7,0.4-0.7,0.5C201.1-13.3,200.6-13.7,200.3-14.1"/>
		</g>
		<path class="st1" d="M203.2-14L203.2-14L203.2-14z"/>
		<g>
			<path class="st1" d="M201.6-16.5L201.6-16.5C201.7-16.5,201.7-16.5,201.6-16.5L201.6-16.5"/>
			<path class="st1" d="M202.2-16.7c0.2,0,0.4,0.1,0.6,0.2l0.4,0.2l0.7,0.3l0.2,0.1l0.2,0.1c0.5,0.2,0.9,0.4,1.2,0.8
				c-0.1,0-0.1,0.1-0.1,0.1c-0.2,0-0.4-0.1-0.6-0.2l-0.2-0.1c-1-0.5-1.9-0.9-2.9-1.2C201.8-16.6,202-16.7,202.2-16.7"/>
			<path class="st1" d="M203.2-17.3l0.3-0.2c0.7-0.5,1.3-0.9,1.9-1.3l0.1-0.1l1.8-1.1c0.7,0.5,1.2,1.1,1.6,1.6l0,0l0,0
				c-0.9,1-1.6,1.7-2.4,2.4l0,0l0,0l-0.3,0.2l-0.4,0.3c-1.1-0.7-2.1-1.2-3-1.7l0,0C202.9-17.1,203.1-17.2,203.2-17.3"/>
			<path class="st1" d="M198.9-20.1c0.1,0,0.2,0.2,0.2,0.3c0.1,0.3,0.2,0.5,0.2,0.8v0.1c-0.2,0.1-0.4,0.1-0.6,0.1
				c-0.2-0.2-0.3-0.5-0.3-0.8c0-0.1,0-0.2,0.1-0.3C198.5-20,198.9-20.1,198.9-20.1"/>
			<path class="st1" d="M201.6-20.4c0,0.1,0.1,0.3,0.1,0.3s0,0.2,0.1,0.3c-0.2,0-0.8,0.2-0.8,0.2s-1.2,0.3-1.4,0.3
				c0-0.2-0.1-0.5-0.1-0.5v-0.1c0.2,0,0.5-0.1,0.5-0.1S201.5-20.4,201.6-20.4"/>
			<path class="st1" d="M202-20.5c0-0.1,0-0.2,0-0.3c0,0,0.1-0.1,0.2-0.1h0.1l0,0h0.2c0.1,0,0.1,0.1,0.1,0.2
				c0.1,0.3,0.2,0.5,0.2,0.8c0,0.1,0,0.1,0,0.2c-0.1,0-0.5,0.1-0.5,0.1s0,0-0.1,0C202.2-19.9,202-20.2,202-20.5"/>
			<path class="st1" d="M204.4-21.1L204.4-21.1c0,0-0.3,0.7-0.3,0.8c-0.1,0-0.5,0.1-0.5,0.1s-0.2,0-0.3,0.1c0-0.1-0.1-0.3-0.1-0.3
				s-0.1-0.2-0.1-0.3c0.1,0,0.4-0.1,0.4-0.1h0.2l0,0C203.8-20.9,204.2-21.1,204.4-21.1"/>
			<path class="st1" d="M205.9-21.4l0.4-0.1c0,0,0.2,0,0.3-0.1c-0.1,0.2-0.2,0.5-0.2,0.5s-0.1,0.2-0.1,0.3c-0.1,0-0.8,0.2-0.8,0.2
				s-0.6,0.1-0.9,0.2c0.1-0.1,0.1-0.2,0.1-0.2s0.2-0.4,0.2-0.5C205-21.2,205.9-21.4,205.9-21.4"/>
		</g>
		<path class="st1" d="M205.8-21.6L205.8-21.6L205.8-21.6z"/>
		<g>
			<path class="st1" d="M211.6-23.9L211.6-23.9c0.1,0,0.2,0.4,0.2,0.4s0.3,0.7,0.4,0.7l0.2,1.3v0.1c-0.2,0.4-0.5,0.6-0.8,1l-0.4,0.4
				c-0.1,0.1-0.2,0.2-0.4,0.3l-0.2,0.1l-0.4,0.1l-0.4,0.2c0,0-0.1,0.1-0.2,0.1c-0.1-0.1-0.8-0.8-0.8-0.8l-0.1-0.1l-0.4-0.3l-0.5-0.5
				V-21c0-0.1,0-0.2-0.1-0.2l0,0c-0.4,0-0.7,0.1-1,0.2c0,0,0,0-0.1,0c0.1-0.2,0.2-0.4,0.3-0.6c0,0,0.1-0.1,0.1-0.2
				c0.1,0,0.4-0.1,0.4-0.1l0.4-0.1l0,0h0.1l0.2,0.2c0.1,0.1,0.3,0.3,0.5,0.4c0.2,0.1,0.4,0,0.6-0.1h0.1v0.3v0.3
				c0,0.1,0.1,0.2,0.1,0.2h0.1l0.1-0.1l0.2-0.4l0.2-0.4l0,0l0.5-0.1l0,0l0,0l0,0h0.1h0.3c0.3-0.1,0.4-0.5,0.5-0.8v-0.1l0,0l0.2-0.1
				v-0.1v-0.1l-0.1-0.1l-0.1-0.1c0-0.2-0.1-0.3-0.1-0.5C211.5-23.6,211.5-23.7,211.6-23.9C211.5-23.9,211.6-23.9,211.6-23.9"/>
			<path class="st1" d="M207.8-20.4C207.9-20.4,207.9-20.4,207.8-20.4l0.7,0.5l0.1,0.1c0.3,0.3,0.7,0.7,1,1.1l0,0c0,0,0,0,0,0.1
				c-0.1,0.1-0.1,0.1-0.2,0.1v-0.1c-0.3-0.4-0.7-0.8-1.1-1.1c0,0-0.5-0.4-0.6-0.5C207.7-20.4,207.7-20.4,207.8-20.4"/>
			<path class="st1" d="M210.9-21.9C210.9-22,210.9-22,210.9-21.9L210.9-21.9v-0.3v-0.2v-0.2v-0.3l-0.2-0.7v-0.2
				c0.1-0.1,0.3-0.1,0.4,0c0.1,0,0.1,0.1,0.1,0.2v0.1v0.1c0,0,0,0,0.1,0c0,0.2,0,0.9,0,0.9v0.1c0,0.2,0,0.3-0.1,0.4L210.9-21.9
				C211-21.9,210.9-21.9,210.9-21.9L210.9-21.9"/>
		</g>
		<path class="st1" d="M211.2-22.5L211.2-22.5L211.2-22.5z"/>
		<g>
			<path class="st1" d="M210.3-21.8l-0.2-0.8l-0.3-1v-0.1c0.1-0.1,0.3-0.2,0.4-0.1c0.1,0.1,0.2,0.3,0.2,0.5l0.1,0.3v0.1l0.1,0.4v0.2
				v0.4c0,0,0,0.1-0.1,0.1C210.3-21.8,210.3-21.8,210.3-21.8"/>
			<path class="st1" d="M208.9-23.5c0.3-0.1,0.3-0.1,0.4-0.1l0,0c0.2,0.4,0.3,0.8,0.4,1.2v0.1v0.2c0,0.1,0.1,0.2,0.1,0.2v0.1
				c0,0.1-0.1,0.1-0.1,0.1s-0.1,0-0.1-0.1v-0.1l-0.3-0.8l-0.1-0.3C209.1-22.9,208.9-23.5,208.9-23.5L208.9-23.5"/>
		</g>
		<path class="st1" d="M209.7-22.2L209.7-22.2L209.7-22.2z"/>
		<g>
			<path class="st1" d="M208.2-23.1c0-0.1,0.2-0.1,0.3-0.1l0,0l0,0l0.2,0.5L209-22c0,0.1,0.1,0.1,0.1,0.2l0,0c0,0,0,0-0.1,0.1h-0.1
				c-0.2-0.1-0.4-0.3-0.6-0.5l-0.1-0.2l0,0l-0.2-0.3v0.1C208.1-22.7,208.2-22.9,208.2-23.1"/>
			<path class="st1" d="M213-23.1L213-23.1c0,0.1,0,0.2,0,0.2v0.1l0,0l-0.1,0.2l-0.1,0.3l-0.1,0.1l0,0v-0.1v-0.2
				c0,0-0.1-0.2-0.1-0.3C212.7-23,213-23.1,213-23.1"/>
			<path class="st1" d="M214.2-23.4c0,0,0.3-0.1,0.5-0.1c-0.1,0.2-0.1,0.4-0.1,0.4s-0.1,0.3-0.1,0.4c-0.1,0-0.4,0.1-0.4,0.1h-0.2
				l0,0l-0.2,0.1c0,0-0.1,0-0.3,0.1c0.1-0.2,0.1-0.4,0.1-0.4s0.1-0.3,0.1-0.4S214.2-23.4,214.2-23.4"/>
			<path class="st1" d="M217-22.6c0,0,0.2-0.1,0.3-0.1c0,0.1,0.1,0.3,0.1,0.3l0.1,0.3c0.1,0.3,0.3,0.5,0.5,0.7
				c0,0.1-0.1,0.2-0.1,0.2l-0.2,0.2l-0.1,0.1l-0.2,0.5c0,0,0,0,0,0.1c-0.3-0.4-0.6-0.6-1.1-0.8c0-0.1,0.1-0.1,0.1-0.1l0.1-0.4
				c0-0.1,0-0.1,0-0.2c0-0.2,0-0.5-0.1-0.7C216.6-22.5,217-22.6,217-22.6"/>
			<path class="st1" d="M216.3-25.5C216.4-25.5,216.5-25.5,216.3-25.5c0-0.2,0-0.3,0-0.4c0,0,0.1-0.1,0-0.1
				c-0.1-0.1-0.2-0.2-0.1-0.3c0-0.1,0.1-0.1,0.2-0.1c0.1,0.1,0.1,0.2,0.2,0.2l0,0c0-0.1,0-0.1,0-0.2c0.1-0.2,0.1-0.4-0.1-0.5
				s-0.3,0-0.5,0c0.1-0.4-0.2-0.6-0.5-0.8c-0.2,0.3-0.3,0.6-0.1,0.9c-0.2,0-0.4,0.1-0.5,0.3c-0.1,0.2,0.1,0.4,0.3,0.5
				c0.1,0.1,0.1-0.1,0.1-0.2s0.1-0.1,0.2,0c0.1,0,0.1,0.1,0.1,0.2s0,0.1,0,0.2s0.2,0.1,0.2,0.2s-0.1,0.1,0,0.2c0,0.1,0.2-0.1,0.2,0
				c0.1,0,0.1,0.1,0.1,0.1C216.2-25.3,216.2-25.6,216.3-25.5 M214.8-28.2c0.9-0.3,1.9-0.4,2.9-0.3l1,0.2h0.1l0.4,0.1l0.2,0.1
				c0.1,0.1,0.3,0.1,0.4,0.2c-0.5,0.2-0.9,0.3-1.2,0.6c-0.4,0.3-0.8,0.7-1,1.1l-0.2,0.4l-0.1,0.7c0,0,0,0.1,0,0.2
				c-0.1,0-0.4,0.1-0.4,0.1l-0.3,0.1c0,0-0.8,0.2-0.9,0.2c-0.6-1.4-2.3-1.7-3.7-1.4C212.5-26.9,213.5-27.7,214.8-28.2"/>
			<path class="st1" d="M229.8,18.5c0,0,0-1.5-0.7-2.9c-0.7-1.4-1.8-1.7-2.4-1.7c-0.7,0-1.7,0.2-2.5,1.5c-0.9,1.3-1,3.1-1,3.1H229.8
				z M222.9,19.9c0,0-0.1,2.1,0.1,2.9c0.2,1.1,0.2,2.7,1.8,4.2c1.9,1.8,3.6,1.6,5.2,0.9c1.8-0.8,2.8-3.3,2.8-3.3h0.4
				c0,0,0,1.7-1.7,4.1c-1.6,2.2-3.9,2.6-5.6,2.6c-1.3,0-4.3-0.8-5.5-4.2c-1.3-3.3-1.1-5.7-0.4-8.6s3.6-6,7.2-6c2.6,0,4.1,1.3,5.3,3
				s1.1,4.4,1.1,4.4L222.9,19.9z"/>
			<path class="st1" d="M245.9,17.8l-0.2-5.1h-0.4c0,0-0.1,0.6-0.5,0.8c-0.4,0.2-0.5,0.1-0.9,0c-0.4-0.1-1.5-0.7-3-0.7
				s-3.1,0.6-4.2,1.6c-1.1,1.1-1.5,2.1-1.5,3.3c0,1.2,0.4,2.8,1.5,3.6c1.1,0.8,2.6,1.8,3.6,2.3c1.1,0.6,2.6,1.7,3,2.6
				c0.3,0.9,0.3,1.9-0.4,2.7c-0.6,0.8-1.5,1.3-3.1,0.8c-1.6-0.5-2.1-1-2.8-2.1c-0.7-1.1-1.1-2.4-1.1-2.4h-0.5l0.2,6h0.4
				c0,0,0.2-0.6,0.8-0.8c0.8-0.2,0.8,0,1.6,0.3c0.8,0.3,1.6,0.4,2.9,0.4s3.3-0.7,4.2-1.8c0.9-1,1.3-1.8,1.3-3.7
				c0-1.8-0.5-2.5-1.4-3.3c-0.8-0.8-2.4-1.9-3.9-2.8s-2.5-1.2-3.1-2.3c-0.6-1.1-0.3-1.9,0-2.4c0.3-0.4,1-1.1,2-1.1s1.8,0.4,2.6,0.9
				c1,0.7,1.2,1.1,1.8,2c0.3,0.4,0.5,0.9,0.5,0.9h0.6V17.8z"/>
			<path class="st1" d="M259,17.8l-0.2-5.1h-0.4c0,0-0.1,0.6-0.5,0.8s-0.5,0.1-0.9,0s-1.5-0.7-3-0.7s-3.1,0.6-4.2,1.6
				c-1.1,1.1-1.5,2.1-1.5,3.3c0,1.2,0.4,2.8,1.4,3.6c1.1,0.8,2.6,1.8,3.6,2.3c1.1,0.6,2.6,1.7,3,2.6c0.3,0.9,0.3,1.9-0.4,2.7
				c-0.6,0.8-1.5,1.3-3.1,0.8s-2.1-1-2.8-2.1c-0.7-1.1-1.1-2.4-1.1-2.4h-0.5l0.2,6h0.4c0,0,0.2-0.6,0.8-0.8c0.8-0.2,0.8,0,1.6,0.3
				s1.6,0.4,2.9,0.4s3.3-0.7,4.2-1.8c0.9-1,1.3-1.8,1.3-3.7c0-1.8-0.5-2.5-1.4-3.3s-2.4-1.9-3.9-2.8s-2.5-1.2-3.1-2.3
				c-0.6-1.1-0.3-1.9,0-2.4c0.3-0.4,1-1.1,2-1.1s1.8,0.4,2.6,0.9c1,0.7,1.2,1.1,1.8,2c0.3,0.4,0.5,0.9,0.5,0.9h0.7V17.8z"/>
			<path class="st1" d="M259.2,12.8h7.3v0.3c0,0-0.4,0-0.7,0.2c-0.2,0.1-0.6,0.3-0.7,0.6c0,0.2,0,0.6,0.1,0.8c0.1,0.2,3.7,11,3.7,11
				s3.5-9.9,3.6-10.3c0.1-0.5,0.2-1,0-1.3c-0.1-0.3-0.3-0.5-0.5-0.7c-0.2-0.1-0.5-0.1-0.5-0.1V13h5v0.3c0,0-0.5,0-0.9,0.3
				c-0.3,0.2-0.5,0.4-0.8,0.9c-0.3,0.5-0.6,1.3-0.8,1.7c-0.2,0.4-6.2,16.9-6.4,17.5c-0.4,0.9-1,1.8-2.2,2.6
				c-1.3,0.8-2.8,0.9-3.7,0.5c-0.9-0.4-1.2-0.9-1.2-1.6c0-0.6,0.7-1.2,1.7-1.2s1.2,0.5,1.6,0.6c0.3,0.1,0.7,0.3,1.2,0.1s1-0.7,1.5-2
				s0.6-1.7,0.6-1.7s-6-16.1-6.2-16.4c-0.2-0.3-0.4-0.7-0.7-0.9c-0.5-0.3-1-0.3-1-0.3V12.8z"/>
			<path class="st1" d="M160.3,18.2v10.6c0,0,0,0.7-0.5,1.2c-0.4,0.4-1.1,0.6-1.1,0.6v0.2h7.6v-0.2c0,0-0.7-0.1-1.1-0.6
				c-0.5-0.5-0.5-1.3-0.5-1.3V7.5c0,0,0-0.6,0.5-1.2c0.4-0.4,1.1-0.5,1.1-0.5V5.5h-7.6v0.2c0,0,0.7,0.1,1.1,0.5
				c0.5,0.5,0.5,1.2,0.5,1.2v8.9h-10.4V7.5c0,0,0-0.7,0.5-1.2c0.4-0.4,1.1-0.5,1.1-0.5V5.5h-7.6v0.2c0,0,0.7,0.1,1.1,0.5
				c0.5,0.5,0.5,1.2,0.5,1.2v21.3c0,0,0,0.7-0.5,1.2c-0.4,0.5-1.1,0.6-1.1,0.6v0.2h7.6v-0.2c0,0-0.7-0.2-1.1-0.6
				c-0.5-0.5-0.5-1.2-0.5-1.2V18.2H160.3z"/>
			<path class="st1" d="M178,18.2c0,0,0-1.5-0.7-2.9s-1.8-1.7-2.4-1.7c-0.6,0-1.7,0.2-2.5,1.5c-0.9,1.3-1,3.1-1,3.1H178z
				 M171.1,19.6c0,0-0.1,2.1,0.1,2.9c0.2,1.1,0.2,2.7,1.8,4.2c1.9,1.8,3.6,1.6,5.2,0.9c1.8-0.8,2.8-3.3,2.8-3.3h0.4
				c0,0,0,1.7-1.7,4.1c-1.6,2.2-3.9,2.6-5.6,2.6c-1.3,0-4.3-0.8-5.5-4.2c-1.3-3.3-1.1-5.7-0.4-8.6s3.6-6,7.2-6c2.6,0,4.1,1.3,5.3,3
				s1.1,4.4,1.1,4.4L171.1,19.6z"/>
			<path class="st1" d="M188,12.4h-0.4c0,0-1,1-2.5,1.6c-1.6,0.7-2.6,1-2.6,1v0.3c0,0,0.6-0.1,1.1,0.3c0.6,0.5,0.6,0.9,0.6,0.9v11.9
				c0,0,0,1-0.4,1.4c-0.6,0.7-1.1,0.6-1.1,0.6v0.2h6.8v-0.2c0,0-0.5,0.1-1.1-0.6c-0.4-0.4-0.4-1.4-0.4-1.4v-10c0,0-0.1-1.1,0.6-2.2
				c0.2-0.3,0.8-1.2,1.7-1.5c0.9-0.3,2.2-0.3,3.3,0.5c1.3,1,1.1,3,1.1,3v10.3c0,0,0,1-0.4,1.4c-0.6,0.7-1.1,0.6-1.1,0.6v0.2h6.8
				v-0.2c0,0-0.5,0.1-1.1-0.6c-0.4-0.5-0.4-1.4-0.4-1.4V17c0-0.3-0.1-2.2-1.4-3.3c-1.3-1.1-2.7-1.6-4.5-1.4
				c-1.8,0.2-2.8,0.9-3.4,1.4c-0.9,0.7-1.2,1.4-1.2,1.4V12.4z"/>
			<path class="st1" d="M206.4,12.4H206c0,0-1,1-2.5,1.6c-1.6,0.7-2.6,1-2.6,1v0.3c0,0,0.6-0.1,1.1,0.3c0.6,0.5,0.6,0.9,0.6,0.9
				v11.9c0,0,0,1-0.4,1.4c-0.6,0.7-1.1,0.6-1.1,0.6v0.2h6.8v-0.2c0,0-0.5,0.1-1.1-0.6c-0.4-0.5-0.4-1.4-0.4-1.4v-10
				c0,0-0.1-1.1,0.6-2.2c0.2-0.3,0.8-1.2,1.7-1.5c0.9-0.3,2.2-0.3,3.3,0.5c1.3,1,1.2,3,1.2,3v10.3c0,0,0,1-0.4,1.4
				c-0.6,0.7-1.1,0.6-1.1,0.6v0.2h6.8v-0.2c0,0-0.5,0.1-1.1-0.6c-0.4-0.5-0.4-1.4-0.4-1.4V17c0-0.3-0.1-2.2-1.4-3.3
				s-2.7-1.6-4.5-1.4c-1.8,0.2-2.8,0.9-3.4,1.4c-0.8,0.7-1.1,1.4-1.1,1.4v-2.7H206.4z"/>
			<path class="st1" d="M203.5,4.3c-0.5-0.1-0.8-0.2-1.8-0.2s-2,0.1-3.7,0.9c-0.9,0.4-1.3,0.6-1.7,0.7c-0.1-0.2-0.2-0.4-0.2-0.6l0,0
				c0-0.5,0.2-0.9,0.5-1.2c0.5-0.5,1.2-0.7,2.2-0.8c0.8,0,1.1,0.1,1.6,0.2l0.5,0.1V3.3l0,0c-0.5-0.2-1.1-0.4-2-0.4
				c-0.8,0-1.9,0.3-2.5,0.9c-0.4,0.4-0.5,0.8-0.5,1.3l0,0c0,0.2,0,0.4,0.1,0.6c-0.1,0-0.5,0-0.5,0c-0.8,0-1.4-0.3-1.8-0.9
				c-0.2-0.2-0.3-0.2-0.3-0.2s0,0-0.1,0c0,0,0,0.1,0.2,0.3c0.3,0.4,0.7,0.9,1.9,0.9c0,0,0.5,0,0.6,0c0.6,1,2.1,1,2.1,1
				c0.5,0,1.5-0.2,2.3-0.7c0.7-0.5,1.1-0.7,1.7-0.8l0,0V5.2l0,0c-0.6,0.1-1.2,0.4-1.6,0.7L200.4,6c-0.5,0.2-1.3,0.6-2.2,0.7
				c-0.6,0-1.4-0.2-1.8-0.8c0.6-0.2,1.1-0.4,1.8-0.6h0.1c0.8-0.3,2.3-0.9,3.4-0.9c0.9,0,1.3,0,1.8,0.1l0,0V4.3L203.5,4.3z"/>
			<path class="st1" d="M208,3c-0.1,0-0.1,0-0.2,0.1c-0.2,0.2-1.1,0.8-1.7,1.1l0,0v0.1h0.3l0,0c0.2-0.1,0.6-0.3,0.9-0.5
				c-0.3,0.2-0.9,0.9-0.9,0.9l-1.5,1.8l-0.1,0.1h0.7l0,0c0.5-0.9,1.9-2.7,2.4-3.4C208,3.1,208,3,208,3"/>
			<path class="st1" d="M210.4,3.3c0.1,0,0.2-0.1,0.2-0.2l0,0V3c-0.1-0.1-0.2,0-0.2,0.1l0,0c-0.1,0-0.3,0.2-0.5,0.2
				c-0.1,0-0.1,0-0.2-0.1c-0.1-0.1-0.2-0.1-0.3-0.1c-0.2,0-0.3,0.1-0.4,0.1l0.1-0.2H209h-0.2l0,0c-0.2,0.3-0.5,0.7-0.7,0.9L208,4
				h0.3l0,0c0.4-0.6,0.7-0.6,0.8-0.6h0.1c0.1,0,0.2,0.1,0.3,0.1c0.1,0,0.2,0,0.3-0.1c-1.2,1-2.3,2.3-2.5,2.9v0.1h0.1h0.6l0,0
				C208.1,5.6,209.5,4,210.4,3.3"/>
			<path class="st1" d="M215,2.8C215,2.8,214.9,2.8,215,2.8c-0.2,0-0.5,0.1-0.6,0.1c-0.1,0-0.5,0-0.6,0l0,0l0,0
				c-0.2,0.2-1.1,1.4-1.2,1.5l-0.1,0.1h0.3l0,0c0.1-0.1,0.2-0.2,0.5-0.2c0.2,0,0.3,0.1,0.3,0.4c0,0.2-0.4,1.7-1.4,1.7
				c-0.1,0-0.2,0-0.3-0.1c-0.1,0-0.1-0.1-0.1-0.2V5.9L211.7,6c-0.1,0.1-0.1,0.2-0.1,0.3c0.1,0.1,0.2,0.2,0.5,0.2
				c0.4,0,0.9-0.2,1.4-0.7c0.3-0.1,0.5-0.5,0.5-1c0-0.3-0.1-0.6-0.3-0.7s-0.5-0.1-0.6,0c0.2-0.2,0.6-0.7,0.6-0.7
				c0.3,0,1,0.1,1.3-0.3C215,3,215,2.9,215,2.8C215,2.9,215,2.9,215,2.8"/>
		</g>
		<path class="st1" d="M215,2.8L215,2.8L215,2.8z"/>
		<g>
			<path class="st1" d="M210.8,5.6c-0.2,0.3-0.7,0.9-1,0.9c-0.1,0-0.1,0-0.1-0.1c-0.1-0.2,0.1-0.7,0.5-1.2c0.4-0.6,0.9-0.8,1-0.8
				c0.1,0,0.1,0,0.1,0C211.3,4.6,211.1,5.1,210.8,5.6 M211.5,4.4c-0.1-0.1-0.2-0.2-0.3-0.2c-0.1,0-0.2,0-0.3,0.1
				c0.4-0.5,1.2-1,1.4-1.1h0.2h0.1h0.1h0.1V3.1C212.7,3,212.7,3,212.5,3h-0.2l0,0c-0.4,0.1-1.8,1-2.5,1.8c-0.5,0.6-0.5,1.3-0.4,1.6
				c0.1,0.2,0.2,0.2,0.4,0.2c0.5,0,1.1-0.3,1.4-0.9C211.5,5.4,211.7,4.7,211.5,4.4"/>
			<path class="st1" d="M227.2,4.1L227.2,4.1c-0.1,0-0.1,0-0.3,0.2c-0.5,0.6-1.1,0.9-1.8,0.9c0,0-0.4,0-0.5,0
				c0.1-0.2,0.1-0.4,0.1-0.5c0-0.5-0.2-1-0.6-1.3c-0.6-0.6-1.7-0.8-2.4-0.8c-0.9,0-1.5,0.2-2,0.5l0,0v0.1l0.5-0.2
				c0.4-0.1,0.8-0.2,1.6-0.2c1,0,1.7,0.2,2.2,0.7c0.3,0.3,0.5,0.8,0.5,1.3c0,0.2,0,0.4-0.1,0.5c-0.4-0.1-0.9-0.3-1.7-0.7
				c-1.8-0.8-2.8-0.8-3.7-0.8c-1,0-1.3,0.1-1.8,0.3l0,0v0.1l0,0c0.5-0.1,0.8-0.1,1.8-0.2c1.1,0,2.6,0.5,3.4,0.8h0.1
				c0.6,0.2,1.2,0.4,1.8,0.5c-0.3,0.7-1.1,1-1.8,1c-0.9,0-1.8-0.4-2.2-0.7l-0.1-0.1c-0.4-0.2-1.1-0.6-1.6-0.7l0,0v0.1l0,0
				c0.6,0.1,1,0.3,1.7,0.8c0.8,0.5,1.8,0.7,2.3,0.7c0,0,1.5,0,2.1-1h0.6c1.2,0,1.6-0.6,1.9-1C227.3,4.3,227.3,4.2,227.2,4.1"/>
			<path class="st1" d="M197.8-0.6c0,0.1,0,0.2-0.1,0.3c-0.5,0.6-1.3,1.4-1.3,1.5c-0.2,0.1-0.3,0.1-0.3,0.1s0,0,0-0.1
				c-0.1-0.2,0.5-0.8,0.7-1.1C197.2-0.4,197.7-0.8,197.8-0.6C197.8-0.7,197.8-0.6,197.8-0.6 M199.6,1.1c-0.1-0.1,0-0.2,0-0.2V0.8
				c0.1,0,0.2,0,0.4-0.1c0.1-0.1,0.1-0.2,0.1-0.3c0,0,0,0,0-0.1c0.1-0.1,0.6-0.6,0.8-0.8v0.1c-0.1,0.4-0.3,0.8-0.7,1.4
				c-0.1,0.1-0.2,0.2-0.4,0.2C199.7,1.2,199.7,1.2,199.6,1.1 M202.9,0.4c-0.1,0.2-0.7,0.8-1,0.8c-0.1,0-0.2,0-0.2,0
				c-0.1-0.1,0.1-0.5,0.6-1c0.7-0.9,1-0.8,1.1-0.8l0,0l0,0c0,0.1-0.1,0.3-0.1,0.4c-0.1,0-0.3,0.1-0.4,0.3
				C202.9,0.2,202.8,0.2,202.9,0.4C202.9,0.2,202.9,0.3,202.9,0.4 M206.7,0L206.7,0L206.7,0c-0.1-0.1-0.2,0-0.2,0
				c-0.1,0.1-0.7,0.7-1.1,1c-0.2,0.1-0.3,0.1-0.3,0.1l0,0c0-0.1,0.1-0.2,0.2-0.3l0.2-0.2c0.2-0.2,0.5-0.6,0.7-0.9
				c0.1-0.2,0.1-0.4,0-0.5c0-0.1-0.1-0.1-0.2-0.1c-0.3-0.1-0.6,0.1-1,0.4c0-0.1,0-0.1,0-0.2s0-0.2-0.1-0.3c-0.2-0.2-0.8,0.3-1.2,0.7
				c-0.1,0.2-0.2,0.3-0.2,0.3c0.1-0.2,0.2-0.5,0.2-0.6s0-0.1,0-0.2s-0.1-0.1-0.2-0.2c-0.2,0-0.5,0-0.8,0.2s-0.6,0.5-1,0.8
				c-0.2,0.2-0.3,0.3-0.5,0.4c0.1-0.2,0.1-0.4,0.1-0.8v-0.2v-0.1c0-0.2,0-0.2,0.2-0.3l0.1-0.1c0.1-0.1,0.1-0.1,0.1-0.2
				c0,0,0,0,0-0.1c-0.1-0.1-0.2,0.1-0.2,0.1c-0.5,0.5-1,1-1.6,1.5c-0.1,0-0.2,0.1-0.3,0.1c-0.1,0-0.1,0.1-0.2,0.3L199,0.9l-0.2,0.2
				c-0.2,0.2-0.3,0.2-0.3,0.2s0-0.2,0.1-0.3c0-0.2,1.1-1.4,1.4-1.8l0.1-0.1h-0.6l0,0c0,0-1.2,1.3-1.3,1.4l-0.1,0.1
				c-0.2,0.2-0.2,0.3-0.6,0.6c-0.2,0.1-0.3,0.1-0.3,0.1s0-0.2,0.1-0.3c0.1-0.1,1.2-1.4,1.5-1.8l0.1-0.1h-0.6l0,0l-0.1,0.1
				c-0.2,0-0.3-0.1-0.4-0.1c-0.2,0-0.3,0-0.6,0.2c-0.5,0.2-0.9,0.6-1.2,0.8l-0.2,0.3l-0.1,0.2c-0.1,0.1-0.4,0.4-0.7,0.6
				c-0.2,0.1-0.3,0.1-0.4,0.1l-0.1-0.1c0-0.4,1.2-1.8,2-2.6c1-1,1.2-1.1,1.6-1.4l0.2-0.2h-0.1c-1-0.1-2.6,1.4-3.8,2.6l-0.7,0.7
				c-0.4,0.2-0.9,0.6-1.3,0.8c0.9-0.7,1.6-1.4,2.1-2.3c0.8-1.2,1.2-1.4,1.6-1.6l0.1-0.1L196.1-3c-0.5-0.2-1.9,1-3.1,2
				c-0.6,0.5-1.2,1-1.6,1.2c-1,0.6-2.1,1.3-3.5,1.3c-1.1,0-1.7-0.4-1.8-1.1c0-0.3,0.1-0.6,0.4-0.9C187-0.9,188-1,188.3-1
				c0.3,0.1,1.1,0.2,1.4,0.2c0.5,0,0.9-0.1,1.3-0.3l0,0v-0.1l0,0c-0.3,0-0.8,0.1-1.2,0.1c-0.2,0-0.4,0-0.6-0.1
				c-0.2-0.1-0.5-0.1-0.8-0.1c-0.5,0-1.5,0.2-2.1,0.8c-0.3,0.2-0.4,0.5-0.4,0.9c0,0.8,0.7,1.3,2,1.3c1.2,0,2.3-0.4,3.7-1.3
				c0.7-0.5,1.4-1.1,2.1-1.6c0.3-0.4,0.7-0.7,1.1-1c-0.5,0.5-0.8,0.8-1.1,1.2l-0.3,0.4c-0.4,0.6-1.1,1.5-1.9,2.1l0,0v0.1l0,0
				c0.7-0.1,1.5-0.5,2.2-1.2l0.2-0.2c1.2-1.1,2.5-2.2,3.2-2.7c-0.6,0.5-1.1,1-1.5,1.4L195.5-1c-0.4,0.4-1,1-1.2,1.8V1
				c0,0.1,0,0.3,0.1,0.4c0.1,0.1,0.1,0.1,0.2,0.1c0.3,0,0.6-0.2,1.1-0.7c0,0.1-0.1,0.2-0.1,0.3s0,0.2,0.1,0.3
				c0.1,0.1,0.2,0.1,0.3,0.1c0.3,0,0.6-0.3,0.8-0.5v0.1c0,0.2,0.1,0.4,0.3,0.4c0.3,0.1,0.6-0.1,1.1-0.6c0,0.1,0,0.1,0,0.2
				s0,0.2,0.1,0.3c0,0.1,0.1,0.1,0.1,0.1c0.3,0.1,0.6-0.1,1-0.5c0,0.1,0,0.2,0.1,0.3s0.3,0.1,0.4,0.1c0.1,0,0.5,0,1-0.5
				c0,0,0.5-0.4,0.5-0.5c0,0.1-0.1,0.3-0.1,0.4s0,0.3,0.1,0.3c0.1,0.1,0.2,0.1,0.3,0.1c0.6,0,1.1-0.6,1.4-1c0.3-0.1,0.7-0.5,1-0.8
				l0.2-0.2c0.2-0.2,0.3-0.2,0.3-0.2l0,0c0,0,0,0.1-0.1,0.3c-0.1,0.1-1.2,1.4-1.5,1.7v0.4h0.6l0,0c0-0.1,1.1-1.3,1.2-1.4
				c0.2-0.2,0.3-0.3,0.6-0.6c0.2-0.1,0.4-0.1,0.4-0.1l0,0c0,0,0,0.1-0.1,0.1l-0.1,0.1c-0.2,0.2-0.6,0.5-0.8,0.9
				c-0.1,0.2-0.2,0.4-0.2,0.5s0,0.2,0.1,0.3c0.1,0.1,0.2,0.2,0.3,0.2c0.3,0,0.9-0.4,1.6-1.2C206.7,0.1,206.7,0.1,206.7,0"/>
			<path class="st1" d="M200.6-1.8c0-0.1,0-0.1-0.1-0.1c-0.1-0.1-0.2,0-0.3,0.1c0,0.1-0.1,0.1-0.1,0.2l0,0c0,0.1,0,0.1,0.1,0.1
				c0.1,0.1,0.2,0,0.3-0.1C200.6-1.7,200.6-1.8,200.6-1.8"/>
			<path class="st1" d="M224.6-0.2c0.6-0.7,1-0.8,1.1-0.8C225.7-0.9,225.3-0.4,224.6-0.2 M229.1-0.3C229.1-0.3,229.1-0.4,229.1-0.3
				c-0.1-0.1-0.2,0-0.2,0c-0.1,0.1-0.7,0.7-1.1,1c-0.2,0.1-0.3,0.1-0.3,0.1l0,0c0-0.1,0.1-0.2,0.2-0.3l0.2-0.2
				c0.1-0.3,0.5-0.6,0.7-1c0.1-0.2,0.1-0.4,0-0.5c0-0.1-0.1-0.1-0.2-0.1c-0.3-0.1-0.6,0.1-1.1,0.5c0-0.1,0-0.1,0-0.2s0-0.2-0.1-0.3
				c-0.3-0.3-0.9,0.3-1.2,0.7l-0.2,0.1l-0.1,0.1c-0.8,0.8-1.4,1.2-1.7,1.2c-0.1,0-0.1,0-0.1-0.1V0.6c0-0.1,0.1-0.4,0.4-0.7
				C225.4,0,226-0.6,226-1c0-0.2-0.1-0.3-0.2-0.3c-0.3,0-0.6,0.1-0.9,0.2c-0.4,0.2-0.9,0.6-1.1,1.2c-0.1,0.2-0.2,0.6,0,0.8
				c0.1,0.1,0.2,0.2,0.3,0.2c0.6,0,1.3-0.7,2-1.3c0.2-0.2,0.5-0.5,0.7-0.6c0.2-0.3,0.3-0.2,0.3-0.2l0,0c0,0,0,0.1-0.1,0.3
				c-0.1,0.1-1.2,1.4-1.5,1.7l-0.1,0.1L226,1l0,0c0-0.1,1.1-1.3,1.2-1.4c0.2-0.2,0.3-0.3,0.6-0.6c0.2-0.1,0.4-0.1,0.4-0.1l0,0
				c0,0,0,0.1-0.1,0.1L228-0.9c-0.2,0.2-0.6,0.5-0.8,0.9c-0.1,0.2-0.2,0.4-0.2,0.5s0,0.2,0.1,0.3c0.2,0.2,0.3,0.2,0.4,0.2
				C227.8,1,228.4,0.6,229.1-0.3L229.1-0.3"/>
			<path class="st1" d="M209.3,1.2 M209.6,0.7c0.2-0.6,0.8-0.9,1.1-1.1C210.5,0,210.1,0.4,209.6,0.7 M211.7-0.7
				c0.6-0.2,1.1-0.5,1.1-0.7l0,0c0-0.1,0.1-0.2,0.1-0.2v-0.1c0-0.1-0.1-0.1-0.2-0.1c-0.1,0-0.2,0.1-0.3,0.2c0,0.1-0.1,0.2-0.1,0.3
				v0.1c-0.1,0.1-0.2,0.2-0.4,0.2c0.1-0.1,0.2-0.2,0.2-0.2c0.5-0.8,0.7-0.9,0.9-1.2l0.2-0.2v-0.1l0,0c0.2,0,0.4,0,0.7,0
				c0.8,0,1.2-0.3,1.2-0.5c0-0.1,0-0.2,0-0.2s-0.1-0.1-0.2-0.1c-0.1,0-0.2,0.1-0.2,0.1v0.1v0.1C214.6-3.1,214.4-3,214-3
				c-0.1,0-0.3,0-0.5-0.1c-0.4-0.1-1.1-0.2-2.2-0.2c-1.3,0-2.5,0.3-3.2,1c-0.3,0.3-0.5,0.7-0.5,1.1c0,0.1,0,0.4,0.2,0.6
				s0.5,0.3,0.8,0.3c0.9,0,1.4-0.5,1.6-0.8c0.3-0.3,0.4-0.6,0.4-0.8s0-0.5-0.7-0.5c-0.9,0-1.4,0.7-1.5,0.9c0,0-0.1,0.1,0,0.2
				c0,0,0.1,0,0.2-0.1c0.4-0.6,1.3-0.8,1.6-0.7c0.1,0,0.2,0.1,0.2,0.3s-0.1,0.4-0.3,0.7c-0.4,0.4-1,0.7-1.4,0.7
				c-0.1,0-0.4,0-0.7-0.2c0-0.3,0-0.5,0-0.7c0-0.3,0.2-0.6,0.4-0.9c0.6-0.5,1.6-0.9,2.5-0.8c0.6,0,1,0.1,1.4,0.1
				c0.2,0,0.5,0.1,0.8,0.1l0,0c-0.8,0.6-1.2,1-1.6,1.5l-0.1,0.1l-0.3,0.4L211-0.7c-0.4,0.1-1.5,0.6-1.7,1.6L209,1
				c-0.3,0.1-1.6,0.3-1.9-0.3c0.1-0.1,0.2-0.2,0.2-0.3V0.3c0-0.1-0.1-0.2-0.2-0.2c-0.1,0-0.3,0.2-0.3,0.3c0,0.2,0.1,0.4,0.3,0.5
				c0.5,0.3,1.6,0.3,2.2,0V1c0,0.5,0.3,0.7,0.5,0.8c0.3,0.1,0.7-0.1,0.7-0.2s0-0.1,0-0.2h-0.1c0,0-0.3,0.2-0.6,0.1
				c-0.2-0.1-0.3-0.3-0.3-0.6V0.8l0,0C210.4,0.7,211.1,0.2,211.7-0.7"/>
			<path class="st1" d="M208.8-0.4"/>
			<path class="st1" d="M220.9-1.3l0.3-0.1l0.5-0.1c0.1,0,0.2-0.1,0.2-0.2s0-0.1-0.1-0.2c0,0-0.2-0.1-0.3,0L220.9-1.3L220.9-1.3
				L220.9-1.3z"/>
			<path class="st1" d="M212.9,0.2c-0.1,0.2-0.7,0.8-1,0.8c-0.1,0-0.2,0-0.2,0c-0.1-0.1,0.1-0.5,0.6-1c0.7-0.9,1-0.8,1.1-0.8l0,0
				l0,0c0,0.1-0.1,0.3-0.1,0.4c-0.1,0-0.3,0.1-0.4,0.3C212.9,0,212.8,0,212.9,0.2C212.9,0.1,212.9,0.2,212.9,0.2 M218.3-0.9
				c0,0.1-0.1,0.2-0.1,0.3c-0.6,0.6-1.3,1.5-1.4,1.5C216.7,1,216.6,1,216.5,1c0,0,0,0,0-0.1c0-0.2,0.5-0.9,0.7-1.1
				C217.6-0.7,218.2-1.1,218.3-0.9C218.3-1,218.3-0.9,218.3-0.9 M219.7-0.2c0.6-0.7,1-0.8,1.1-0.8C220.7-0.8,220.3-0.3,219.7-0.2
				 M222.6-1c0,0.2-0.5,0.7-1.1,0.8C222-0.8,222.5-1,222.6-1 M222.8-0.9L222.8-0.9c0-0.2-0.1-0.3-0.2-0.3c-0.2,0-0.6,0.1-0.9,0.2
				c-0.2,0.1-0.5,0.3-0.8,0.7l0,0c-0.7,0.8-1.4,1.3-1.7,1.3c-0.1,0-0.1,0-0.1-0.1V0.8c0-0.1,0.1-0.4,0.4-0.7c0.9-0.1,1.5-0.6,1.5-1
				l0,0c0-0.2-0.1-0.2-0.2-0.3c-0.3,0-0.6,0.1-0.9,0.2c-0.3,0.1-0.7,0.5-1,1l0,0c0,0,0,0-0.1,0.1c-0.2,0.2-0.5,0.5-0.9,0.8
				C217.8,1,217.7,1,217.7,1s0-0.2,0.1-0.3c0.1-0.1,2.8-3.3,3-3.6V-3h-0.1h-0.5l0,0c0,0-1.6,1.8-1.7,2c-0.1-0.1-0.2-0.2-0.3-0.2
				c-0.2,0-0.3,0-0.6,0.2c-0.5,0.2-0.9,0.6-1.1,0.9l-0.2,0.2l-0.1,0.2c-0.3,0.3-0.5,0.5-0.7,0.6S215.1,1,215.1,1l0,0
				c0-0.1,0.1-0.2,0.2-0.3l0.2-0.2c0.2-0.2,0.6-0.6,0.7-0.9c0.1-0.2,0.1-0.4,0-0.5c0-0.1-0.1-0.1-0.2-0.1c-0.2-0.2-0.6,0-1,0.4
				c0-0.1,0-0.1,0-0.2s0-0.2-0.1-0.3c-0.2-0.2-0.8,0.3-1.2,0.7c-0.1,0.1-0.2,0.2-0.2,0.2c0.1-0.2,0.2-0.5,0.2-0.6s0-0.1,0-0.2
				s-0.1-0.1-0.2-0.2c-0.2,0-0.5,0.1-0.8,0.2c-0.4,0.2-0.9,0.6-1.1,1.2c-0.1,0.3-0.1,0.6,0,0.8c0.1,0.1,0.2,0.2,0.4,0.2
				c0.5,0,1.1-0.6,1.4-1c0.3-0.1,0.7-0.5,1-0.8l0.2-0.2c0.2-0.2,0.3-0.2,0.3-0.2l0,0c0,0,0,0.1-0.1,0.3c-0.1,0.1-1.2,1.4-1.5,1.7
				L213,1.2h0.6l0,0c0-0.1,1.1-1.3,1.2-1.4c0.2-0.2,0.3-0.3,0.6-0.6c0.2-0.1,0.4-0.1,0.4-0.1l0,0c0,0,0,0.1-0.1,0.1l-0.1,0.1
				c-0.2,0.2-0.6,0.5-0.8,0.9c-0.1,0.2-0.2,0.4-0.2,0.5s0,0.2,0.1,0.3c0.1,0.1,0.2,0.2,0.3,0.2c0.3,0,0.6-0.2,1.1-0.7
				c0,0.1,0,0.2,0,0.3s0,0.2,0.1,0.3c0.1,0.1,0.2,0.1,0.3,0.1c0.3,0,0.6-0.3,0.8-0.5v0.1c0,0.2,0.1,0.4,0.3,0.4
				c0.3,0.1,0.7-0.2,1.2-0.7c0,0.1,0,0.1,0,0.1c0,0.2,0,0.3,0.1,0.4c0.1,0.1,0.2,0.2,0.3,0.2c0.5,0,1-0.4,1.4-0.8c0,0.1,0,0.2,0,0.3
				s0,0.3,0.1,0.3c0.1,0.1,0.2,0.2,0.4,0.2c0.5,0,1.1-0.4,1.8-1.2c0.1-0.1,0-0.1,0-0.2c0,0-0.1,0-0.2,0l0,0
				c-0.8,0.9-1.3,1.1-1.6,1.1c-0.1,0-0.1,0-0.1-0.1V0.7c0-0.1,0.1-0.4,0.4-0.7C222.3,0,222.8-0.6,222.8-0.9"/>
		</g>
	</g>
</g>
</svg>
