<?xml version="1.0" encoding="utf-8"?>
<!-- Generator: Adobe Illustrator 19.0.1, SVG Export Plug-In . SVG Version: 6.00 Build 0)  -->
<svg version="1.1" id="Layer_1" xmlns="http://www.w3.org/2000/svg" xmlns:xlink="http://www.w3.org/1999/xlink" x="0px" y="0px"
	 viewBox="100 -50 220 120" style="enable-background:new 100 -50 220 120;" xml:space="preserve">
<style type="text/css">
	.st0{fill:#EEEEEE;}
	.st1{fill:#808080;}
	.st2{fill:#F2F2F2;}
	.st3{fill:#FFFFFF;}
</style>
<rect x="100" y="-50" class="st0" width="220" height="120"/>
<g>
	<path class="st1" d="M180.1,27.8c-0.6,0-3.8,0-4.1,0c0.4-1.2,1.5-4.3,2-5.5C178.4,23.6,180,27.8,180.1,27.8 M181.3,19.5
		c-0.3-0.7-0.7-1-1.6-1c-0.1,0-4.1,0-4.1,0l-6,16.4c0,0,2.9,0,2.9,0c0.3,0,0.5,0,0.7-0.1c0.6-0.3,0.9-0.9,0.9-1.1
		c0,0,0.8-2.3,0.9-2.4c0.4,0,5.7,0,6.1,0c0.1,0.4,1.2,3.7,1.2,3.7h4l-2.5-8L181.3,19.5"/>
	<path class="st1" d="M209.9,31.4c-2.4,0-4.3-2.1-4.3-4.7c0-2.6,1.8-4.6,4.3-4.6c2.4,0,4.2,1.9,4.2,4.6
		C214.1,29.4,212.3,31.4,209.9,31.4 M209.8,18.4L209.8,18.4c-4.7,0-8.1,3.5-8.1,8.4c0,4.7,3.5,8.3,8.1,8.3c4.6,0,8.2-3.7,8.2-8.3
		C218,22.1,214.4,18.4,209.8,18.4"/>
	<path class="st1" d="M228.6,25.3l-0.2,0c0,0-1.5-0.5-1.5-0.5l-0.2-0.1c-1.2-0.5-2.1-0.8-2.1-1.6c0,0,0,0,0-0.1
		c0.1-1.2,2.4-1.2,2.4-1.2c1.2,0,2.2,0.2,3.4,0.7l0,0l0,0c0.3,0.1,0.5,0.1,0.7,0l0.3-0.1c0.5-0.3,1-1.7,1.1-2.2l0.1-0.2l-0.1-0.1
		c-0.1-0.1-0.4-0.3-1.7-0.8c-1.3-0.5-3.1-0.6-3.1-0.6l-0.9,0c-4.7,0-6.5,2.9-6.6,4.9c0,2,1.1,3,2.8,3.9c0.7,0.4,2,0.7,2.9,1
		c0,0,1,0.3,1,0.3c1.8,0.6,2.4,1.2,2.3,2.1c-0.1,0.3-0.7,0.8-2,0.8c-1,0-2-0.2-2.9-0.5c-0.5-0.2-0.9-0.4-1.5-0.7l0,0l0,0
		c-0.3-0.1-0.5-0.1-0.8-0.1l-0.4,0.1c-0.5,0.2-1.3,1.6-1.6,2.2l-0.1,0.2l0.2,0.2c0,0,0.9,0.7,1.6,1.1c0.8,0.5,1.8,0.8,2.9,1
		c0.4,0.1,1.2,0.2,2.3,0.2c3.7,0,6.3-1.9,6.6-4.6C233.6,27.9,232,26.3,228.6,25.3"/>
	<path class="st1" d="M236.4,18.5c-0.2,0-1,0-1.4,0.4c-0.2,0.2-0.3,0.5-0.3,0.7l0,2.6c0,0,4.4,0,5,0c0,0.6,0,12.6,0,12.6l4.1,0
		c0,0,0-12,0-12.6c0.5,0,3.2,0,3.2,0c0.2,0,1,0,1.4-0.4c0.2-0.2,0.3-0.5,0.3-0.7v-2.6L236.4,18.5"/>
	<g>
		<path class="st1" d="M166.2,31.2c0,0-3.4,0-4.6,0c0-0.6,0-11.2,0-11.2c0-0.5-0.1-0.8-0.4-1.1c-0.4-0.4-1.1-0.4-1.4-0.4l-2.4,0
			l0,16.4h10.2l0-2.6C167.7,32,167.5,31.2,166.2,31.2"/>
		<path class="st1" d="M195.5,22c1-0.1,1.8,0,2.6,0.2c0.4,0.1,0.8,0.2,1.1,0.1l0.3-0.1c0.5-0.3,0.8-1.7,0.9-2.5l0-0.2l-0.2-0.1
			c0,0-0.2-0.1-1.7-0.5c-1.4-0.4-2.6-0.4-3.1-0.4h-0.1c-3.4,0-8.5,2.2-8.6,8.4v0c0.1,6.2,5.3,8.4,8.6,8.4h0.1c0.6,0,1.8,0,3.1-0.4
			c1.5-0.4,1.6-0.5,1.7-0.5l0.2-0.1l0-0.2c-0.2-0.8-0.5-2.3-0.9-2.6h0h0h0l-0.3-0.1c-0.3-0.1-0.7-0.1-1.1,0.1
			c-0.8,0.2-1.6,0.3-2.6,0.2c-2.6-0.3-4.1-2-4.2-4.8C191.4,24,192.9,22.3,195.5,22"/>
	</g>
	<path class="st1" d="M260.9,34.9c0.6,0,1.7-0.4,1.7-1.6l0-2.1l-7.2,0c0,0,0-2.4,0-2.7c0.6,0,6,0,6,0l0-3.8c0,0-5.3,0-5.9,0
		c0-0.4,0-1.9,0-2.4c0.6,0,5.5,0,5.5,0c0.2,0,1,0,1.4-0.4c0.3-0.3,0.3-0.9,0.3-1.2v-2.2h-11.4l0,16.4L260.9,34.9"/>
	<path class="st2" d="M226,4.3c0,0,0-0.9-1-1.5c-1.6-1-0.8-1.6-0.8-1.6c0,0-1.6-1.3-4.3-0.3c-2.7,1-2.9,0.9-3.4,0.5
		c-0.5-0.4-1.7-0.2-1.5,0.5c0.2,0.7,0.6,3.5,4.1,1.7c3.5-1.8,0.8,3.1,7.6,3.8c6.8,0.8,10.9,0.4,6.4-1.2c-4.5-1.6-5.8-1.8-5.8-1.8
		L226,4.3"/>
	<path class="st3" d="M223.6-1.4c0,0,0-0.2-0.4-0.5c-0.8-0.5-1.2,0-1.2,0s-0.4,0.3-0.1,0.8C221.9-1.1,223.4-1.3,223.6-1.4"/>
	<g>
		<path class="st3" d="M225.1-2.2c0,0-0.2,0.3,0,0.4c0.1,0.1,0.9-0.2,1-0.2C226.1-2,225.7-3.1,225.1-2.2"/>
		<path class="st1" d="M225.6,1.8c0.3-0.1,0.6,0.5,1,0.4c0.4-0.1,0.1-0.8,0.5-0.9c0.4-0.1,0.6,0.5,0.9,0.4c0.4-0.1,0.1-0.8,0.5-0.9
			c0.4-0.1,0.6,0.5,1,0.4c0.4-0.1,0.1-0.8,0.5-0.9c0.3-0.1,0.6,0.5,1,0.4c0.3-0.1,0.1-0.8,0.5-0.9c0.4-0.1,0.6,0.5,1,0.4
			c0.3-0.1,0.1-0.8,0.5-0.9c0.3-0.1,0.6,0.5,1,0.4c0.3-0.1,0.1-0.8,0.5-0.9c0.4-0.1,0.6,0.5,1,0.4c0.3-0.1,0.1-0.7,0.5-0.9
			c0,0,0.6-0.2,0.6-0.6c0-0.1-0.1-1-1.1-1.2c-0.9-0.2-8.5,1.9-8.5,1.8c-0.7-1.4-1.6-1-1.7-1c-0.1,0-1,0.4-1.9,0
			c-1.8-0.8-3.3,1.3-4.3,1c-0.9-0.3-1.6-0.1-2,0c-0.4,0.1-0.9,0.6-2.1,0.2c-9.4-3.2-16.7-0.4-16.7-0.4c-4.1,1.4-4.7,0-4.7,0
			s-1.4-1.9,8.2-4.1c13.8-3.2,14.2-8.4,14-8.8c-0.2-0.5-0.3,0.1-0.8,0.6c-0.4,0.4-0.8,0.2-0.8,0.2c-0.4-0.2-0.7,0.3-0.7,0.3
			s-0.6,0.9-1.1,0.4c-0.5-0.5-1.1,0.6-1.3,0.6c-0.3,0-0.4-0.1-0.8-0.3c-0.6-0.3-1.2,0.8-1.5,0.9c-0.5,0.1-0.8-0.6-1.2-0.3
			c-1.2,0.8-1.4,1-1.7,0.6c-0.2-0.2-0.3-0.5-1.1,0.3c-0.7,0.7-1,0.8-1.3,0.4c-0.3-0.4-0.2-1-1.4,0.1c-0.6,0.5-0.9,0.6-1.2,0.3
			c-0.2-0.2-0.2-1.1-1.1-0.3c-0.8,0.7-1.3,1-1.6,0.4c-0.2-0.7-1.2,0.1-1.4,0.3c-0.2,0.2-0.7,0.7-1,0.2c-0.3-0.5-1.1,0.3-1.6,0.8
			c-0.4,0.4-0.7,0.1-1-0.2c-0.4-0.3-1.7,1.5-1.9,1.6c-0.1,0.1-0.2,0-0.5-0.2c-0.5-0.4-1.7,1.8-1.9,1.9c0,0-0.1,0.2-0.4-0.1
			c-0.5-0.5-3,2.9-4,6.7c-1.2,4.9,0.7,8.6,0.7,8.6s0.6,0,0.8-0.4l0.4-0.9c0.3-0.7,0.8-0.5,0.8-0.5l-1.2,3.6
			c-0.2,0.5-0.1,1.1,0.3,1.8c0.4,0.6,0.7,1.1,1,1.4c1,0.9,0.9-0.2,0.9-0.3c0.1-0.6,0.8-0.1,1.3,0.1c0.9,0.5,0.8-0.6,1-1
			c0.1-0.3,0.6-0.3,1.1,0.1c0.4,0.3,0.8-0.8,0.8-0.8c0.5-2.3-0.6-2.6-1.2-2.6l-1.2-0.1c0,0,0.1-0.3,0.2-0.7l0.1-0.2
			c1.3-3.3-0.9-4-1.6-3.9c-0.7,0.1-0.7-0.4-0.7-0.4s4-0.8,3.3,3.5c0,0-0.1,0.7-0.2,1.1l1.1,0.1c1,0.1,1.1,1.3,1.1,1.3
			s3.5,0.9,5.5,0.6c0,0,0.9-0.2,1.1-0.8c0,0,1.3-3,5-3.2c0,0,0.1,0.4-0.5,0.6c-0.7,0.2-3.1,0.4-3.6,3.2l0,0c-0.1,0.5,0.1,1.4,1,1.9
			c0.8,0.4,1.1,1.9,1.3,2.3c0.5,1.2,1.2,0.1,1.2,0.1s0.5-0.9,0.9-0.4c0.7,0.9,1,0.4,1.1-0.1c0.2-0.6,0.4-0.9,1.1-0.1
			c0.3,0.3,0.9,0.1,0.9-0.5c0.1-1.2,0.9-0.2,1-0.2c0.1,0.1,1-0.1,0.5-1.5c0,0-0.6-1.3-3.5-1.9c-0.7-0.1-0.6-0.6-0.6-0.6l0.6,0.1
			c0.2,0,1.9,0.2,2.1,0.2c7.1,0.7,12.4-1.7,12.6-1.9h0c5.5,1.1,12.9,0.7,14.3,0.2c1.4-0.5,1.5-1.3,1.3-1.5c-0.2-0.3-0.5-0.4-0.8-0.5
			c-0.2-0.1-0.2-0.3-0.4-0.4c-0.2-0.1-0.5,0.3-0.8,0.2c-0.3-0.1-0.2-0.6-0.5-0.7c-0.2-0.1-0.6,0.3-0.8,0.2c-0.2-0.1-0.2-0.6-0.4-0.6
			c-0.2-0.1-0.6,0.3-0.8,0.2c-0.2-0.1-0.2-0.6-0.4-0.6c-0.2-0.1-0.6,0.3-0.8,0.2c-0.2-0.1-0.2-0.6-0.4-0.6c-0.2-0.1-0.6,0.3-0.8,0.2
			c-0.2-0.1-0.3-0.6-0.5-0.6c-0.2-0.1-0.6,0.2-0.9,0.2c-2.1-0.2-3-1.6-3.1-1.2c-0.1,0.4,0.4,1.4,1.2,1.7c0.6,0.3,7,2,7.1,2.1
			c0.2,0.1,0.6,0.3,0.4,0.5c-0.2,0.3-0.8,0-1-0.1c-0.2-0.1-0.1-0.2-0.3-0.2c-0.3-0.1-0.5,0.5-0.9,0.5c-0.3-0.1-0.3-0.7-0.6-0.8
			c-0.4-0.1-0.5,0.5-0.9,0.5c-0.3-0.1-0.3-0.7-0.6-0.8c-0.4-0.1-0.5,0.5-0.9,0.5c-0.3-0.1-0.3-0.7-0.6-0.8c-0.3-0.1-0.6,0.5-0.9,0.5
			c-0.3-0.1-0.4-0.7-0.6-0.8c-0.3-0.1-0.5,0.3-0.9,0.3c0,0-1.1,0.3-2.9-1.5c-1.8-1.9-2.5-2.2-3.5-1.5c-1.6,1.2-2.7,0.4-3,0
			c-0.4-0.4,0-0.8,0-0.8s0.5,0.8,1.2,0.8c1.1,0,1.9-1.4,3.7-1.4c2.3-0.1,2.9,0.7,3.5,0.8C225,2.1,225.2,2,225.6,1.8L225.6,1.8"/>
	</g>
	<path class="st2" d="M223.6-1.4c0,0,0-0.2-0.5-0.5c-0.8-0.5-1.2,0-1.2,0s-0.4,0.3-0.1,0.8C221.9-1.1,223.4-1.3,223.6-1.4"/>
	<path class="st2" d="M225.1-2.2c0,0-0.2,0.3,0,0.4c0.1,0.1,0.9-0.2,1-0.2C226.1-2,225.7-3.1,225.1-2.2"/>
	<path class="st2" d="M208.8,2.1c0,0,1.1-0.6,1.4-0.4c0.2,0.2,0,1.2-0.2,1.1L208.8,2.1"/>
	<path class="st2" d="M209.2,0.2c0,0,1.1-0.6,1.3-0.4c0.2,0.2,0,1.2-0.2,1.1L209.2,0.2"/>
	<path class="st2" d="M211.5,0.6c0,0,1.1-0.6,1.3-0.4c0.2,0.2,0,1.2-0.2,1.1L211.5,0.6"/>
	<path class="st2" d="M209.7-1.8c0,0,1.1-0.6,1.4-0.4c0.2,0.2,0,1.2-0.2,1.1L209.7-1.8"/>
	<path class="st2" d="M206.8-0.2c0,0,1.1-0.6,1.3-0.4c0.2,0.2,0,1.2-0.2,1.1L206.8-0.2"/>
	<path class="st2" d="M206.5,1.8c0,0,1.1-0.6,1.3-0.4c0.2,0.2,0,1.2-0.2,1.1L206.5,1.8"/>
	<path class="st2" d="M204,1.8c0,0,1.1-0.6,1.3-0.4c0.2,0.2,0,1.2-0.2,1.1L204,1.8"/>
	<path class="st2" d="M204.4-0.3c0,0,1.1-0.6,1.4-0.4c0.2,0.2,0,1.2-0.2,1.1L204.4-0.3"/>
	<path class="st2" d="M204.8-2.4c0,0,1.1-0.6,1.4-0.4c0.2,0.2,0,1.2-0.2,1.1L204.8-2.4"/>
	<path class="st2" d="M201.9-0.2c0,0,1.1-0.6,1.3-0.4c0.2,0.2,0,1.2-0.2,1.1L201.9-0.2"/>
	<path class="st2" d="M202.3-2.3c0,0,1.1-0.6,1.3-0.4c0.2,0.2,0,1.2-0.2,1.1L202.3-2.3"/>
	<path class="st2" d="M199.8-2c0,0,1.1-0.6,1.4-0.4c0.2,0.2,0,1.2-0.2,1.1L199.8-2"/>
	<path class="st2" d="M199.3,0.1c0,0,1.1-0.6,1.3-0.4c0.2,0.2,0,1.2-0.2,1.1L199.3,0.1"/>
	<path class="st2" d="M199,2.2c0,0,1.1-0.6,1.3-0.4c0.2,0.2,0,1.2-0.2,1.1L199,2.2"/>
	<path class="st2" d="M201.6,1.7c0,0,1.1-0.6,1.4-0.4c0.2,0.2,0,1.2-0.2,1.1L201.6,1.7"/>
	<path class="st2" d="M196.4,3c0,0,1.1-0.6,1.3-0.4c0.2,0.2,0,1.2-0.2,1.1L196.4,3"/>
	<path class="st2" d="M196.8,0.9c0,0,1.1-0.6,1.4-0.4c0.2,0.2,0,1.2-0.2,1.1L196.8,0.9"/>
	<path class="st2" d="M197.2-1.3c0,0,1.1-0.6,1.3-0.4c0.2,0.2,0,1.2-0.2,1.1L197.2-1.3"/>
	<path class="st2" d="M194.7-0.7c0,0,1.1-0.6,1.3-0.4c0.2,0.2,0,1.2-0.2,1.1L194.7-0.7"/>
	<path class="st2" d="M194.3,1.4c0,0,1.1-0.6,1.3-0.4c0.2,0.2,0,1.2-0.2,1.1L194.3,1.4"/>
	<path class="st2" d="M193.8,3.4c0,0,1.1-0.6,1.3-0.4c0.2,0.2,0,1.2-0.2,1.1L193.8,3.4"/>
	<path class="st2" d="M191.7,1.6c0,0,1.1-0.6,1.3-0.4c0.2,0.2,0,1.2-0.2,1.1L191.7,1.6"/>
	<path class="st2" d="M191.1,3.7c0,0,1.1-0.6,1.3-0.4c0.2,0.2,0,1.2-0.2,1.1L191.1,3.7"/>
	<path class="st2" d="M189,2.7c0,0,1.1-0.6,1.3-0.4c0.2,0.2,0,1.2-0.2,1.1L189,2.7"/>
	<path class="st2" d="M192.1-0.2c0,0,1.1-0.6,1.3-0.4c0.2,0.2,0,1.2-0.2,1.1L192.1-0.2"/>
	<path class="st2" d="M189.5,0.5c0,0,1.1-0.6,1.4-0.4c0.2,0.2,0,1.2-0.2,1.1L189.5,0.5"/>
	<path class="st2" d="M187.3,1.3c0,0,1.1-0.6,1.3-0.4c0.2,0.2,0,1.2-0.2,1.1L187.3,1.3"/>
	<path class="st2" d="M190.9-1.8c0,0,1.1-0.6,1.3-0.4c0.2,0.2,0,1.2-0.2,1.1L190.9-1.8"/>
	<path class="st2" d="M188.7-1.2c0,0,1.1-0.6,1.3-0.4c0.2,0.2,0,1.2-0.2,1.1L188.7-1.2"/>
	<path class="st2" d="M186.4-0.4c0,0,1.1-0.6,1.4-0.4c0.2,0.2,0,1.2-0.2,1.1L186.4-0.4"/>
	<path class="st2" d="M191.2-3.9c0,0,1.1-0.6,1.3-0.4c0.2,0.2,0,1.2-0.2,1.1L191.2-3.9"/>
	<path class="st2" d="M188.9-3.2c0,0,1.1-0.6,1.3-0.4c0.2,0.2,0,1.2-0.2,1.1L188.9-3.2"/>
	<path class="st2" d="M186.6-2.4c0,0,1.1-0.6,1.3-0.4c0.2,0.2,0,1.2-0.2,1.1L186.6-2.4"/>
	<path class="st2" d="M192.1-5.5c0,0,1.1-0.6,1.4-0.4c0.2,0.2,0,1.2-0.2,1.1L192.1-5.5"/>
	<path class="st2" d="M189.7-5.3c0,0,1.1-0.6,1.3-0.4c0.2,0.2,0,1.2-0.2,1.1L189.7-5.3"/>
	<path class="st2" d="M192.8-7.6c0,0,1.1-0.6,1.3-0.4c0.2,0.2,0,1.2-0.2,1.1L192.8-7.6"/>
	<path class="st2" d="M194.8-8.2c0,0,1.1-0.6,1.4-0.4c0.2,0.2,0,1.2-0.2,1.1L194.8-8.2"/>
	<path class="st2" d="M190.8-6.9c0,0,1.1-0.6,1.3-0.4c0.2,0.2,0,1.2-0.2,1.1L190.8-6.9"/>
	<path class="st2" d="M187.7-4.5c0,0,1.1-0.6,1.3-0.4c0.2,0.2,0,1.2-0.2,1.1L187.7-4.5"/>
	<path class="st2" d="M207.3-2.2c0,0,1.1-0.6,1.3-0.4c0.2,0.2,0,1.2-0.2,1.1L207.3-2.2"/>
</g>
</svg>
