<?xml version="1.0" encoding="utf-8"?>
<!-- Generator: Adobe Illustrator 19.0.1, SVG Export Plug-In . SVG Version: 6.00 Build 0)  -->
<svg version="1.1" id="Layer_1" xmlns="http://www.w3.org/2000/svg" xmlns:xlink="http://www.w3.org/1999/xlink" x="0px" y="0px"
	 viewBox="100 -50 220 120" style="enable-background:new 100 -50 220 120;" xml:space="preserve">
<style type="text/css">
	.st0{fill:#EEEEEE;}
	.st1{fill:#808080;}
</style>
<rect x="100.2" y="-50.2" class="st0" width="220" height="120"/>
<g>
	<polygon class="st1" points="207.2,-22.2 207.2,-17.1 207.2,-11.9 207.2,-6.8 207.2,-1.7 212.3,-1.7 217.5,-1.7 217.5,-6.5 
		212.1,-6.5 212.1,-11.9 212.1,-17.1 212.1,-22.2 	"/>
	<path class="st1" d="M217.5-10.9c3.1,0,5.7-2.5,5.7-5.7c0-3.1-2.5-5.7-5.7-5.7"/>
	<path class="st1" d="M281.8,14.1v-2.8h4.7V9.8h-6.3v11.1h6.5v-1.5h-4.9v-3.7h3.6v-1.5H281.8z M266.8,15.3c0,3.3,2.4,5.7,5.7,5.7
		c1.7,0,3.3-0.8,4.3-2.1l-1.1-1c-0.6,0.7-1.7,1.6-3.2,1.6c-2.4,0-4.2-1.7-4.2-4.2c0-2.4,1.8-4.2,4-4.2c1.2,0,2.3,0.5,3,1.2l1.1-1
		c-1-1.1-2.5-1.7-4-1.7C269.2,9.6,266.8,12.1,266.8,15.3 M259.7,12.4l1.7,4.1H258L259.7,12.4z M263.2,20.9h1.6l-4.6-11.1h-1.1
		l-4.6,11.1h1.6l1.2-2.8h4.7L263.2,20.9z M246.6,9.8h-1.6v11.1h6.5v-1.5h-4.9V9.8z M238.4,16c1.1,0,1.8-0.3,2.3-0.7
		c0.7-0.6,1.1-1.4,1.1-2.4c0-0.9-0.4-1.8-1.1-2.4c-0.5-0.5-1.2-0.7-2.3-0.7h-4.2v11.1h1.6V16H238.4z M235.8,14.5v-3.2h2.5
		c0.8,0,1.2,0.2,1.5,0.5c0.3,0.3,0.4,0.7,0.4,1.1c0,0.4-0.2,0.8-0.4,1.1c-0.3,0.3-0.7,0.5-1.5,0.5H235.8z M221.5,13.4v7.4h1.6V9.8
		h-1.1l-4.3,6.7l-4.3-6.7h-1.1v11.1h1.6v-7.4l3.2,5.1h1.1L221.5,13.4z M203.4,12.4l1.7,4.1h-3.4L203.4,12.4z M206.9,20.9h1.6
		L204,9.8h-1.1l-4.6,11.1h1.6l1.2-2.8h4.7L206.9,20.9z M192.9,20.9h1.6V9.8h-1.6v4.3h-6.2V9.8h-1.6v11.1h1.6v-5.2h6.2V20.9z
		 M180.7,14.1h-4.7v1.5h3.2v2.8c-0.6,0.6-1.5,1-2.7,1c-2.4,0-4.2-1.7-4.2-4.2c0-2.4,1.8-4.2,4-4.2c1.2,0,2.3,0.5,3,1.2l1.1-1
		c-1-1.1-2.5-1.7-4-1.7c-3.2,0-5.6,2.5-5.6,5.7c0,3.3,2.4,5.7,5.7,5.7c1.7,0,3.3-0.9,4.3-2.1V14.1z M165.5,20.9h1.1V9.8H165v8.1
		l-6.6-8.1h-1.1v11.1h1.6v-8.1L165.5,20.9z M148.4,12.4l1.7,4.1h-3.4L148.4,12.4z M151.9,20.9h1.6L149,9.8h-1.1l-4.6,11.1h1.6
		l1.2-2.8h4.7L151.9,20.9z M135.3,9.8h-1.6v11.1h6.5v-1.5h-4.9V9.8z"/>
	<path class="st1" d="M244.3,34.4v-1.6h2.7v-0.9h-3.6v6.3h3.7v-0.9h-2.8v-2.1h2.1v-0.9H244.3z M238,38.3c0.8,0,1.5-0.3,1.9-0.8
		c0.4-0.4,0.7-1,0.7-1.9v-3.7h-0.9v3.7c0,0.6-0.1,1-0.4,1.2c-0.3,0.3-0.8,0.6-1.3,0.6c-0.5,0-1-0.2-1.3-0.6
		c-0.3-0.3-0.4-0.6-0.4-1.2v-3.7h-0.9v3.7c0,0.8,0.3,1.4,0.7,1.9C236.5,38,237.2,38.3,238,38.3 M231.9,38.2h0.6v-6.3h-0.9v4.6
		l-3.8-4.6h-0.6v6.3h0.9v-4.6L231.9,38.2z M222.2,34.4v-1.6h2.7v-0.9h-3.6v6.3h3.7v-0.9h-2.8v-2.1h2.1v-0.9H222.2z M219.1,31.9h-0.9
		l-1.8,4.7l-1.8-4.7h-0.9l2.5,6.3h0.6L219.1,31.9z M209.8,33.4l1,2.3h-1.9L209.8,33.4z M211.8,38.2h0.9l-2.6-6.3h-0.6l-2.6,6.3h0.9
		l0.7-1.6h2.6L211.8,38.2z M199.6,38.2h0.9v-6.3h-0.9v2.5h-3.5v-2.5h-0.9v6.3h0.9v-3h3.5V38.2z M188.7,32.8h1.7v5.4h0.9v-5.4h1.7
		v-0.9h-4.3V32.8z M184.2,34.4v-1.6h2.7v-0.9h-3.6v6.3h0.9v-3h2.1v-0.9H184.2z M179.6,38.2h0.9v-6.3h-0.9V38.2z M174.7,34.4v-1.6
		h2.7v-0.9h-3.6v6.3h0.9v-3h2.1v-0.9H174.7z"/>
</g>
</svg>
