<?xml version="1.0" encoding="utf-8"?>
<!-- Generator: Adobe Illustrator 19.2.0, SVG Export Plug-In . SVG Version: 6.00 Build 0)  -->
<svg version="1.1" id="Layer_1" xmlns="http://www.w3.org/2000/svg" xmlns:xlink="http://www.w3.org/1999/xlink" x="0px" y="0px"
	 viewBox="100 -50 220 120" style="enable-background:new 100 -50 220 120;" xml:space="preserve">
<style type="text/css">
	.st0{fill:#EEEEEE;}
	.st1{fill:#808080;}
</style>
<rect x="100" y="-50" class="st0" width="220" height="120"/>
<g>
	<g>
		<path class="st1" d="M209-5.5c0.4,1,1.2,2,0.6,3.2c-0.3,1.2-1.4,2.1-2.5,2.3c-1.2,0.1-2.4-0.1-3.3-0.8c-0.6-3.4,0.7-6.5,3.4-8.3
			L209-5.5z"/>
		<path class="st1" d="M213.6,4.7c-0.6,2-6.6,0.7-8.5-2.6c2.5,0.3,5.3-1.9,5.3-4.4L213.6,4.7z"/>
		<path class="st1" d="M216.1,4.5c0.3-0.1,0.8-0.4,1-1l-6.5-14c-0.4-0.1-0.7-0.1-1.3,0.3L216.1,4.5z"/>
		<path class="st1" d="M219,1.4c2.7-4.2,0.4-11-5.5-11.9L219,1.4z"/>
	</g>
	<path class="st1" d="M218.4,10.4c0.9-0.7,2.4-0.7,3.4-0.3c0.4,0.2,0.8,0.5,1.1,0.8l-1.9,3c-0.2-0.2-0.4-0.3-0.7-0.4
		c-0.9-0.4-1.9-0.2-2.5,0.3v8.6c0,1.5,0.2,2.9,1,3.6h-4.3c-0.9-0.7-1.1-1.8-1.2-2.8l0-11.5c0-0.9-0.2-1.3-0.6-1.9l4.5,0
		c0.4,0.3,0.4,0.7,0.6,1.1L218.4,10.4z"/>
	<path class="st1" d="M223.9,13.2c0-1.1,0.2-2.4-0.5-3.3h4.2c0.3,0.2,0.4,0.6,0.5,0.9c0.2,0.3,0.2,0.7,0.3,1.1l0,12.2
		c0.2,0.7,0.4,1.5,1,2l-4.4,0c-1.5-1.4-1-3.7-1.1-6.1L223.9,13.2z"/>
	<path class="st1" d="M230.4,13.3c0.4-1.2,1.9-1.9,2.9-2.5c1.6-0.6,3.3-2,5-0.8c1.5,1,2.7,2,3.7,3.5c0.2,0.6,0.3,1.2,0.5,1.8
		c0,0.8,0.2,1.4,0.2,2.2c0.1,0.9,0.1,1.7,0,2.5c-0.1,1.5-0.7,2.8-1.9,3.8c-1.7,1.5-3.9,3.3-6.3,2.1c-2.1-1-4.6-2.9-4.4-5.6
		c-0.1-1.9-0.2-3.5,0.1-5.4C230.2,14.4,230.1,13.8,230.4,13.3z M234.8,22c0.2,0.8,0.6,1.7,1.5,1.8c0.5,0,0.9-0.4,1.2-0.8
		c1-1.9,0.8-4,0.8-6.1c-0.3-1.6,0.1-3.8-1.7-4.8c-0.6-0.2-1.1,0.2-1.5,0.6c-0.7,1-0.8,2.2-0.8,3.5C234.2,18.2,234.5,19.9,234.8,22z"
		/>
	<path class="st1" d="M245.7,26.1c-1.3-0.7-1.5-2.7-1.5-7.5l0-7.4l-2.5,0l0.6-1.4h2V6.3l4.7-1.7l0,5.1l2.2,0l-0.6,1.5l-1.6,0l0,12.8
		c0.1,1,0.4,1.6,0.9,2.1H245.7z"/>
	<path class="st1" d="M202.5,11.8c0-0.9-0.2-1.3-0.6-1.9l4.5,0c0.4,0.3,0.4,0.7,0.6,1.1l0.8-0.6c0.9-0.7,2.4-0.7,3.4-0.3
		c0.4,0.2,0.8,0.5,1.1,0.8l-1.9,3c-0.2-0.2-0.4-0.3-0.7-0.4c-0.9-0.4-1.9-0.2-2.5,0.3v8.6c0,1.5,0.2,2.9,1,3.6h-4.3
		c-0.9-0.7-1.2-1.7-1.2-2.8L202.5,11.8z"/>
	<path class="st1" d="M168.3,16.3l-1.6,3.3c-1.1,2-2.7,4.4-5.1,5c-0.9,0.3-1.7,0-2.6,0l-2.9,4.7c0.2,0.2,0.5,0.4,0.8,0.5
		c5.1,1.9,7.1-0.1,12.1-11.4l4.7,10.1h6.3l-3-6.8l1.7-3.5l4.6,10.2l6,0L178.9,5.3L174,7.7l3.8,8.6l-1.7,3.4l-7-15l-5.1,2.6
		L168.3,16.3z"/>
	<path class="st1" d="M188,20.4c0.1-1.7,1-3.3,2.6-4.1c1.5-1,3.3-1.3,4.9-2.2c0.3-0.2,0.6-0.5,0.6-0.9c0-0.4-0.2-0.8-0.6-1
		c-2.4-0.5-4.4,1-6.2,2.5c0.2-1.1,0.4-2.3,0.9-3.4c0.3-0.3,0.4-0.7,0.8-0.9c1.7-0.8,3.9-1.1,5.8-1c1.6,0.1,3,1.2,3.6,2.7
		c0.3,0.7,0.3,1.4,0.3,2.1l0,9.4c0,0.8,0.4,1.6,0.9,2.2h-4.5c-0.5-0.5-0.8-1.1-1-1.9c-1.3,1.1-3.9,2.8-5.4,1.7
		C189.1,25.1,187.6,22.7,188,20.4z M195.9,17.1c0-0.6-0.5-0.7-0.8-0.7c-1.1,0.2-2,1.1-2.5,2c-0.5,0.8-0.6,1.5-0.6,2.2
		c0,0.8-0.1,1.3,0.3,1.9c0.2,0.4,0.6,0.6,0.9,0.7c0.7,0.1,1.3-0.1,1.9-0.4c1.3-0.7,1-2.1,1.1-3.4L195.9,17.1z"/>
	<path class="st1" d="M255.2,26c-1.3-0.7-1.5-2.7-1.5-7.5l0-7.4l-2.5,0l0.6-1.4h2V6.2l4.7-1.7l0,5.1l2.2,0l-0.6,1.5l-1.6,0l0,12.8
		c0.1,1,0.4,1.6,0.9,2.1H255.2z"/>
	<path class="st1" d="M262.3,25.7c-0.7,0-1.3-0.6-1.3-1.3c0-0.7,0.6-1.3,1.3-1.3c0.7,0,1.3,0.6,1.3,1.3
		C263.6,25.2,263.1,25.7,262.3,25.7z M262.3,26c0.9,0,1.6-0.7,1.6-1.6c0-0.9-0.7-1.6-1.6-1.6c-0.9,0-1.6,0.7-1.6,1.6
		C260.8,25.3,261.5,26,262.3,26z M262.3,24.5c0.1,0,0.2,0,0.3,0.1c0.1,0.1,0.1,0.2,0.1,0.4c0,0.1,0,0.2,0.1,0.3h0.4
		c-0.1-0.2-0.1-0.4-0.1-0.5c0-0.2-0.1-0.3-0.3-0.4v0c0.2,0,0.4-0.2,0.4-0.4c0-0.4-0.3-0.5-0.7-0.5h-0.6v1.8h0.3v-0.8H262.3z
		 M262,24.3v-0.5h0.3c0.2,0,0.3,0.1,0.3,0.2c0,0.1-0.1,0.3-0.3,0.3H262z"/>
</g>
</svg>
