<?xml version="1.0" encoding="utf-8"?>
<!-- Generator: Adobe Illustrator 19.0.1, SVG Export Plug-In . SVG Version: 6.00 Build 0)  -->
<svg version="1.1" id="Layer_1" xmlns="http://www.w3.org/2000/svg" xmlns:xlink="http://www.w3.org/1999/xlink" x="0px" y="0px"
	 viewBox="100 -50 220 120" style="enable-background:new 100 -50 220 120;" xml:space="preserve">
<style type="text/css">
	.st0{fill:#EEEEEE;}
	.st1{fill-rule:evenodd;clip-rule:evenodd;fill:#808080;}
</style>
<g>
	<rect x="100" y="-50" class="st0" width="220" height="120"/>
</g>
<g>
	<path class="st1" d="M264.6,10.3l6.3-9.3l-7,0.1l-3.1,3.7l-3.2-3.7h-7.3l6.8,9.3l-3.3,4.1l-7.4-13.4h-5.6l-5.4,10.3V1.3h-6.3
		l-4.3,4.9l-4.1-4.8h-6.5l-0.1,11.9l-6.3-11.9h-5.6l-6.5,13.9c0,0-1.7-2.1-2.3-2.9c2.3-0.8,3.3-2.4,3.7-4c0.2-1.3,0.3-2.6-0.6-4.1
		c-1.7-2.9-4.6-2.9-4.6-2.9h-11.7v17.6h6.8v-5.5l4.6,5.4h9.7l1.1-2.8h5.4l1.1,2.7h11.6V11l4.3,5.2l4.2-5.2v7.8h11l1.5-3.3h4.5
		l1.5,3.3h10.4l2.9-3.6l2.8,3.6l7.5-0.1L264.6,10.3z M189.6,9c-0.5,0-2.5,0-2.5,0V5.4c0,0,0.8,0,2.1,0c0.9,0,1.8,0.2,1.8,1.9
		C191,8.1,190.4,9,189.6,9z M204.4,11.7l0.9-3.6l1,3.5L204.4,11.7z M242.8,11.8l0.9-3.6l1,3.5L242.8,11.8z"/>
	<rect x="171.8" y="1.3" class="st1" width="6.7" height="17.6"/>
	<polygon class="st1" points="159.5,6.4 155.2,1.3 148.9,1.3 149,19 155.3,19 155.3,11.6 159.4,16.3 159.7,16.3 163.9,11.4 
		163.9,19 170.1,19 170.1,1.3 163.9,1.3 	"/>
</g>
</svg>
