<?xml version="1.0" encoding="utf-8"?>
<!-- Generator: Adobe Illustrator 19.1.0, SVG Export Plug-In . SVG Version: 6.00 Build 0)  -->
<svg version="1.1" id="Layer_1" xmlns="http://www.w3.org/2000/svg" xmlns:xlink="http://www.w3.org/1999/xlink" x="0px" y="0px"
	 viewBox="-487.2 387.8 220.5 19.2" style="enable-background:new -487.2 387.8 220.5 19.2;" xml:space="preserve">
<style type="text/css">
	.st0{fill:#D20037;}
</style>
<g>
	<polygon class="st0" points="-487.2,388.4 -472.6,388.4 -472.6,392.1 -477.8,392.1 -477.8,406.4 -482,406.4 -482,392.1 
		-487.2,392.1 	"/>
	<polygon class="st0" points="-449.3,388.4 -449.3,406.4 -453.5,406.4 -453.5,399 -460.7,399 -460.7,406.4 -465,406.4 -465,388.4 
		-460.7,388.4 -460.7,395.4 -453.5,395.4 -453.5,388.4 	"/>
	<polygon class="st0" points="-428.7,388.4 -428.7,392.1 -436.4,392.1 -436.4,395.4 -429.3,395.4 -429.3,399 -436.4,399 
		-436.4,402.7 -428.5,402.7 -428.5,406.4 -440.5,406.4 -440.5,388.4 	"/>
	<path class="st0" d="M-401.2,391.9c-2.8,0-4.6,2.2-4.6,5.5c0,3.3,1.8,5.5,4.6,5.5c2.8,0,4.7-2.2,4.7-5.5
		C-396.5,394.1-398.3,391.9-401.2,391.9z M-401.1,406.7c-5.2,0-8.9-3.9-8.9-9.3c0-5.4,3.6-9.3,8.9-9.3c5.3,0,8.9,3.9,8.9,9.3
		C-392.2,402.7-395.9,406.7-401.1,406.7z"/>
	<path class="st0" d="M-320.7,391.9c-2.8,0-4.6,2.2-4.6,5.5c0,3.3,1.8,5.5,4.6,5.5c2.8,0,4.7-2.2,4.7-5.5
		C-316,394.1-317.9,391.9-320.7,391.9z M-320.7,406.7c-5.2,0-8.9-3.9-8.9-9.3c0-5.4,3.6-9.3,8.9-9.3c5.3,0,8.9,3.9,8.9,9.3
		C-311.8,402.7-315.4,406.7-320.7,406.7z"/>
	<path class="st0" d="M-363.2,402.1v-2.2h-2.8v-3.4h6.6v7.7c-1.8,1.7-4.1,2.5-6.5,2.5c-5.5,0-9-3.8-9-9.2c0-5.6,3.9-9.3,9.4-9.3
		c2,0,3.9,0.6,5.2,1.4v4.1c-1.4-1.1-3-1.7-5.2-1.7c-3,0-5.2,2.1-5.2,5.4c0,3.3,1.9,5.5,4.9,5.5
		C-364.8,402.9-363.9,402.7-363.2,402.1z"/>
	<path class="st0" d="M-346.4,396.7h2.7c1.8,0,2.6-0.9,2.6-2.3c0-1.4-0.9-2.3-2.6-2.3h-2.7V396.7z M-341,399.7l5.2,6.7h-4.9
		l-4.8-6.3h-0.8v6.3h-4.2v-17.9h7.2c3.8,0,6.4,2.1,6.4,5.9c0,2.8-1.5,4.6-3.8,5.3C-340.8,399.7-340.9,399.7-341,399.7
		C-341.3,399.8-341,399.7-341,399.7z"/>
	<path class="st0" d="M-304,399.1v-10.7h4.2v10.3c0,2.8,1.3,4.2,3.4,4.2c2.1,0,3.4-1.4,3.4-4.2v-10.3h4.2v10.7c0,4.9-3,7.5-7.6,7.5
		C-301,406.7-304,404-304,399.1z"/>
	<path class="st0" d="M-273.4,392h-2.5v4.9h2.5c1.8,0,2.7-1,2.7-2.5C-270.8,393-271.6,392-273.4,392z M-276,400.5v5.9h-4.2v-17.9
		h7.1c3.8,0,6.4,2.1,6.4,6c0,3.9-2.6,6-6.4,6H-276z"/>
</g>
</svg>
