<?xml version="1.0" encoding="utf-8"?>
<!-- Generator: Adobe Illustrator 19.0.1, SVG Export Plug-In . SVG Version: 6.00 Build 0)  -->
<svg version="1.1" id="Layer_1" xmlns="http://www.w3.org/2000/svg" xmlns:xlink="http://www.w3.org/1999/xlink" x="0px" y="0px"
	 viewBox="100 -50 220 120" style="enable-background:new 100 -50 220 120;" xml:space="preserve">
<style type="text/css">
	.st0{fill:#EEEEEE;}
	.st1{fill:#808080;}
</style>
<g>
	<rect x="100" y="-50" class="st0" width="220" height="120"/>
</g>
<g>
	<g id="XMLID_23_">
		<polygon class="st1" points="223.8,-20.5 223.8,-9 216.1,-9 216.1,-6.6 223.8,-6.6 223.8,6.7 210.5,6.7 210.5,-2.9 208.5,-2.9 
			208.5,6.7 196.2,6.7 196.2,-20.5 		"/>
	</g>
	<g>
		<path id="XMLID_20_" class="st1" d="M140.5,27.2h-1.8v-0.5h5.6c2.4,0,4.1,0.5,4.1,3.3c0,2.2-1.4,2.8-3.2,3.1v0
			c2.8,0.3,3.7,0.7,3.9,3.7c0.1,2,0.2,3,1.4,3h0.5v0.5h-1.4c-2.3,0-2.5-0.9-2.7-3.6c-0.2-2.5-0.6-3.3-3-3.3h-1.2v6.4h1.7v0.5h-5.7
			v-0.5h1.8V27.2z M142.7,32.8h1.3c1.7,0,2.2-1.3,2.2-2.8c0-1.8-0.6-2.8-2.6-2.8h-1V32.8z"/>
		<path id="XMLID_18_" class="st1" d="M159.5,27.2h-1.8v-0.5h10.9l0.1,4.2h-0.5c-0.6-3.4-1.3-3.7-5.6-3.7h-0.9v5.9h1
			c2.2,0,2.4-0.8,2.3-2.9h0.6v6.5H165c0-2.4-0.1-3-2.3-3h-1v6.2h2.9c2.9,0,3.9-1.5,4.3-4.2h0.5l-0.2,4.7h-11.4v-0.5h1.8V27.2z"/>
		<path id="XMLID_16_" class="st1" d="M179.2,27.2h-1.8v-0.5h5.7v0.5h-1.8v12.6h1.8v0.5h-5.7v-0.5h1.8V27.2z"/>
		<path id="XMLID_14_" class="st1" d="M192.2,27.2h-1.7v-0.5h4.3l6.7,9.7h0v-9.2h-2.1v-0.5h4.4v0.5h-1.7v13.2l-0.4,0.1l-9-12.9h0
			v12.2h2.1v0.5h-4.4v-0.5h1.7V27.2z"/>
		<path id="XMLID_12_" class="st1" d="M220.2,27.2h-1.7v-0.5h5.7v0.5h-1.8v12.6h1.8v0.5h-5.7v-0.5h1.7v-6.3h-5.9v6.3h1.7v0.5h-5.7
			v-0.5h1.8V27.2h-1.8v-0.5h5.7v0.5h-1.7v5.9h5.9V27.2z"/>
		<path id="XMLID_9_" class="st1" d="M237.1,26.5c4.4,0,6.2,3.7,6.2,7c0,3.4-1.9,7-6.2,7c-4.4,0-6.2-3.6-6.2-7
			C230.9,30.1,232.7,26.5,237.1,26.5z M237.1,27.1c-3.3,0-3.7,3.1-3.7,6.4c0,3.3,0.4,6.4,3.7,6.4c3.3,0,3.7-3.1,3.7-6.4
			C240.9,30.2,240.4,27.1,237.1,27.1z"/>
		<path id="XMLID_7_" class="st1" d="M251.6,27.2h-1.8v-0.5h5.7v0.5h-1.7v12.6h3.2c2.2,0,3.4-0.8,4-4.5h0.5v5h-11.5v-0.5h1.8V27.2z"
			/>
		<path id="XMLID_4_" class="st1" d="M269.5,27.2h-1.7v-0.5h7.6c4,0,5.9,2.7,5.9,6.8c0,3.5-1.4,6.8-5.8,6.8h-7.6v-0.5h1.7V27.2z
			 M271.7,39.8h3.2c2.9,0,4-3,4-6.3c0-3.7-1-6.3-3.9-6.3h-3.3V39.8z"/>
	</g>
</g>
</svg>
