<?xml version="1.0" encoding="utf-8"?>
<!-- Generator: Adobe Illustrator 19.0.1, SVG Export Plug-In . SVG Version: 6.00 Build 0)  -->
<svg version="1.1" id="Layer_1" xmlns="http://www.w3.org/2000/svg" xmlns:xlink="http://www.w3.org/1999/xlink" x="0px" y="0px"
	 viewBox="100 -50 220 120" style="enable-background:new 100 -50 220 120;" xml:space="preserve">
<style type="text/css">
	.st0{fill:#EEEEEE;}
	.st1{fill-rule:evenodd;clip-rule:evenodd;fill:#808080;}
</style>
<g>
	<rect x="100" y="-50" class="st0" width="220" height="120"/>
</g>
<g>
	<g>
		<path class="st1" d="M148,17.4v4.8h1.7c0.4,0,1-0.2,1.5-0.7c0.4-0.4,0.7-1,0.7-1.8c0-0.8-0.2-1.4-0.7-1.9
			c-0.4-0.4-0.9-0.6-1.5-0.6L148,17.4L148,17.4L148,17.4 M144,15.9h6c1.3,0,2.5,0.3,3.3,1c0.8,0.7,1.3,1.7,1.3,2.9
			c0,0.9-0.4,1.7-1.1,2.4c-0.6,0.6-1.5,1-2.3,1.1v0.1c2.1,0.5,2.9,1.6,2.9,4.4c0,2.4,0.7,4,1.7,4.1v0h-3.5c-0.4-0.2-0.8-1.6-0.8-3.9
			c0-1.1,0-2.7-0.8-3.5c-0.3-0.3-0.8-0.5-1.3-0.5H148v5.4c0,0.8,0.2,1.5,0.7,2c0.3,0.3,0.6,0.4,0.9,0.4v0H144v0
			c0.9,0,1.5-1.1,1.5-2.4V18.2c0-0.7-0.3-1.4-0.7-1.9C144.6,16.1,144.3,15.9,144,15.9L144,15.9 M163.6,17.4l-2.7,0h0v4.9h2.7
			c0.6,0,1-0.3,1.2-0.5c0.3-0.3,0.4-0.6,0.4-0.8h0v4.2h0c-0.2-0.6-0.7-1.3-1.7-1.3h-2.6v0l0,3v3.4h2.5c1.8,0,2.8-0.5,3.1-1.4l0.1,0
			l-0.4,2.9h-9.4v0c0.9,0,1.5-1.1,1.5-2.4V18.2c0-0.7-0.3-1.4-0.7-1.9c-0.3-0.2-0.5-0.4-0.9-0.4v0l3.9,0h0l0,0l0.7-1.9h2.3l-1.5,1.9
			l-0.1,0.1h3.4l0.5,2.7l-0.1,0C165.7,17.8,164.9,17.4,163.6,17.4 M175.4,24L175.4,24L175.4,24l3.7-8.2h3.5v0
			c-0.8,0.1-1.3,1.2-1.3,2.3v11.1c0,1.4,0.6,2.4,1.5,2.4v0h-5.6v0c0.3,0,0.6-0.1,0.9-0.4c0.4-0.4,0.7-1.2,0.7-2v-8.8l-0.1,0
			l-3.7,8.5l-3.8-8.1l-0.1,0l0,4.2l0,4.2c0,0.8,0.2,1.6,0.7,2c0.2,0.2,0.5,0.4,0.9,0.4v0H168v0c0.9,0,1.5-1,1.5-2.4V18.2
			c0-0.7-0.3-1.4-0.7-1.9c-0.2-0.2-0.5-0.4-0.9-0.4v0l3.6,0L175.4,24 M188.4,15.9c-0.4,0-0.7,0.2-0.8,0.4c-0.2,0.4-0.1,0.9,0.1,1.3
			l2.7,5l0,0.1l0-0.1c0,0,2.1-3.6,2.7-4.8c0.4-0.8,0.5-1.3,0.3-1.6c-0.1-0.2-0.3-0.3-0.6-0.3v0h3.7v0c-0.5,0-0.9,0.6-1.3,1.4
			l-0.2,0.4l-3.9,6.8l0,0v0l0,3.4V29c0,0.7,0.2,1.3,0.5,1.8c0.3,0.5,0.7,0.8,1.1,0.8v0h-5.6v0c0.9,0,1.5-0.9,1.5-2.3l0-2.2v-2.6l0,0
			l-3.7-6.9l-0.2-0.4c-0.3-0.6-0.7-1.2-1.4-1.3v0L188.4,15.9L188.4,15.9 M210,24L210,24L210,24l3.7-8.2h3.6v0
			c-0.4,0-0.8,0.3-1.1,0.7c-0.2,0.4-0.4,1-0.4,1.5v11.1c0,1.4,0.7,2.4,1.6,2.4v0h-5.6v0c0.3,0,0.6-0.1,0.9-0.4
			c0.4-0.4,0.7-1.2,0.7-2v-8.8l-0.1,0l-3.8,8.5l-3.8-8.1l-0.1,0v4.2l0,4.2c0,0.8,0.3,1.6,0.7,2c0.2,0.2,0.5,0.4,0.9,0.4v0h-4.6v0
			c0.9,0,1.6-1,1.6-2.4V18.2c0-0.7-0.3-1.4-0.7-1.9c-0.2-0.2-0.5-0.4-0.9-0.4v0l3.6,0L210,24 M224,19.4l-1.7,6.3l0,0.1h0l3.5,0h0.1
			l0-0.1L224,19.4l0-0.1L224,19.4 M223.4,15.9l2.3,0l3.7,13.3c0.5,1.5,0.8,2.5,1.8,2.5v0h-5.6v0c0.4,0,0.7-0.2,1-0.5
			c0.4-0.4,0.4-1.1,0.3-1.9l-0.5-2l0,0h-4.4v0l-0.6,2.2c-0.2,0.8,0.1,1.4,0.3,1.7c0.2,0.3,0.6,0.5,0.9,0.6v0H218v0
			c0.7,0,1.4-0.9,1.8-2.2C219.7,29.5,223.2,16.6,223.4,15.9 M235.6,17.4v4.8h1.7c0.4,0,1-0.2,1.5-0.7c0.4-0.4,0.7-1,0.7-1.8
			c0-0.8-0.2-1.4-0.7-1.9c-0.4-0.4-0.9-0.6-1.5-0.6L235.6,17.4L235.6,17.4L235.6,17.4 M231.6,15.9h6c1.4,0,2.5,0.3,3.3,1
			c0.8,0.7,1.3,1.7,1.3,2.9c0,0.9-0.4,1.7-1.1,2.4c-0.6,0.6-1.5,1-2.3,1.1l0,0.1c2.1,0.5,2.9,1.6,2.9,4.4c0,2.4,0.7,4,1.7,4.1v0H240
			c-0.4-0.2-0.9-1.6-0.9-3.9c0-1.1,0-2.7-0.8-3.5c-0.3-0.3-0.8-0.5-1.3-0.5h-1.4v0l0,2.7l0,2.7c0,0.8,0.2,1.5,0.7,2
			c0.2,0.3,0.6,0.4,0.9,0.4v0h-5.6v0c0.9,0,1.5-1.1,1.5-2.4V18.2c0-0.7-0.3-1.4-0.7-1.9C232.2,16.1,231.9,15.9,231.6,15.9
			L231.6,15.9 M243.8,18.5l0.7-2.6l9.6,0l0.6,2.7l-0.1,0c-0.2-0.6-1.1-1.2-2.6-1.2h-1.5v11.9c0,0.7,0.2,1.3,0.4,1.7
			c0.3,0.4,0.7,0.7,1.1,0.7l0,0.1l-5.6,0v-0.1c0.9,0,1.6-1,1.6-2.4V17.4c-0.5,0-0.9,0-1.1,0h-0.3C245.1,17.4,244.2,17.8,243.8,18.5
			L243.8,18.5 M255.4,15.9h5.6l0,0.1c-0.5,0-0.9,0.3-1.1,0.7c-0.3,0.4-0.4,1-0.4,1.7l0,5.5l0,5.5c0,0.7,0.1,1.3,0.4,1.7
			c0.3,0.4,0.7,0.7,1.1,0.7l0,0.1h-5.6l0-0.1c0.9,0,1.6-1,1.6-2.4V18.3C257,17,256.3,16,255.4,15.9L255.4,15.9 M272.9,26.9
			L272.9,26.9l0.1-8.6c0-1.4-0.7-2.3-1.5-2.4l0-0.1h4.6l0,0.1c-0.9,0-1.6,1-1.6,2.4v13.4h-2.1l-6-12.6l-0.1,0v10.2
			c0,0.7,0.1,1.3,0.4,1.7c0.3,0.4,0.6,0.6,1.1,0.7l0,0.1h-4.6v-0.1c0.9,0,1.6-1,1.6-2.4V18.1c0-0.7-0.3-1.4-0.7-1.9
			c-0.3-0.2-0.6-0.4-0.9-0.4v-0.1l4.3,0L272.9,26.9"/>
	</g>
	<g>
		<path class="st1" d="M145,35.6h3.1v0.5h-2.2v1.2h1.8v0.6h-1.8v1.8H145V35.6 M150.8,35.6h0.9v4.1h-0.9V35.6 M162.1,35.6h3v0.5H163
			v1.2h1.9v0.5H163v1.4h2.2v0.5h-3.1V35.6 M179.4,37.3h2v-1.7h0.9v4.1h-0.9v-1.9h-2v1.9h-0.9v-4.1h0.9V37.3 M186.5,38h1.2l-0.6-1.6
			L186.5,38 M187,35.6h0.7l1.7,4.1h-1l-0.5-1.2h-1.6l-0.5,1.2H185L187,35.6 M194.4,38.6l1.5-3h0.8l0.2,4.1H196l-0.1-2.9l-1.5,2.8
			l-0.4,0.1l-1.4-3l0,3h-0.7l0.3-4.1h0.8L194.4,38.6 M200.9,36.1v1.6c0.1,0,0.2,0,0.4,0c0.3,0,1,0,1-0.8c0-0.6-0.3-0.8-1-0.8
			L200.9,36.1 M200.9,39.7H200v-4.1l1.5,0c0.1,0,0.1,0,0.2,0c0.4,0,0.8,0.1,1.2,0.4c0.2,0.2,0.4,0.5,0.4,0.9c0,0.5-0.3,0.8-0.6,1
			c-0.5,0.3-1.1,0.3-1.4,0.3l-0.4,0V39.7 M206.9,38h1.2l-0.6-1.6L206.9,38 M207.4,35.6h0.7l1.7,4.1h-1l-0.5-1.2h-1.6l-0.5,1.2h-0.8
			L207.4,35.6 M226.5,35.6h3v0.5h-2.1v1.2h1.9v0.5h-1.9v1.4h2.2v0.5h-3.1V35.6 M265.3,38h1.2l-0.6-1.6L265.3,38 M265.8,35.6h0.7
			l1.7,4.1h-1l-0.5-1.2h-1.6l-0.5,1.2h-0.8L265.8,35.6 M174,36c-1.2,0-1.4,1-1.4,1.5c0,1.1,0.7,1.7,1.5,1.7c0.3,0,0.6-0.1,1-0.2
			l0.3-0.1l0.1,0.1c0,0,0,0,0,0.1l-0.1,0.4c0,0.1,0,0.1-0.1,0.1c-0.1,0-0.7,0.2-1.3,0.2c-1.8,0-2.3-1.2-2.3-2.1
			c0-1.1,0.8-2.2,2.6-2.2c0.7,0,1.2,0.1,1.2,0.2c0.1,0,0.1,0,0.1,0.1l0,0.4c0,0,0,0.1,0,0.1c0,0-0.1,0.1-0.1,0.1
			c0,0-0.2-0.1-0.2-0.1C174.9,36.2,174.5,36,174,36 M214.6,36c-0.8,0-1.5,0.5-1.5,1.6c0,0.3,0,1,0.6,1.4c0.3,0.2,0.7,0.3,1,0.3
			c0.3,0,0.5-0.1,0.7-0.1v-1.5h0.9v1.9c-0.6,0.1-1.1,0.2-1.7,0.2c-2,0-2.4-1.4-2.4-2.1c0-1.3,1.1-2.2,2.6-2.2c0.6,0,1.2,0.2,1.2,0.2
			c0.1,0,0.1,0.1,0.1,0.1l0,0.4c0,0,0,0,0,0.1l-0.1,0.1l0,0l-0.2-0.1C215.2,36.1,214.9,36,214.6,36 M238.4,36c-1.2,0-1.4,1-1.4,1.5
			c0,1.1,0.7,1.7,1.5,1.7c0.3,0,0.7-0.1,1-0.2l0.3-0.1l0.1,0.1c0,0,0,0,0,0.1l-0.1,0.4c0,0.1,0,0.1-0.1,0.1c-0.1,0-0.7,0.2-1.3,0.2
			c-1.8,0-2.3-1.2-2.3-2.1c0-1.1,0.8-2.2,2.6-2.2c0.7,0,1.2,0.1,1.2,0.2c0,0,0.1,0,0.1,0.1l0,0.4c0,0,0,0.1,0,0.1l-0.1,0.1
			c0,0-0.2-0.1-0.2-0.1C239.3,36.2,238.9,36,238.4,36 M252.4,36c-0.8,0-1.5,0.5-1.5,1.6c0,0.3,0,1,0.6,1.4c0.3,0.2,0.7,0.3,1,0.3
			c0.3,0,0.5-0.1,0.6-0.1v-1.5h0.9v1.9c-0.6,0.1-1.1,0.2-1.7,0.2c-2,0-2.4-1.4-2.4-2.1c0-1.3,1.1-2.2,2.6-2.2c0.6,0,1.2,0.2,1.2,0.2
			c0.1,0,0.1,0.1,0.1,0.1l0,0.4c0,0,0,0,0,0.1l-0.1,0.1l0,0c0,0-0.2-0.1-0.2-0.1C253.1,36.1,252.8,36,252.4,36 M272.8,36
			c-1.2,0-1.4,1-1.4,1.5c0,1.1,0.7,1.7,1.5,1.7c0.3,0,0.6-0.1,1-0.2l0.3-0.1l0.1,0.1c0,0,0,0,0,0.1l-0.1,0.4c0,0.1,0,0.1-0.1,0.1
			c-0.1,0-0.7,0.2-1.3,0.2c-1.8,0-2.3-1.2-2.3-2.1c0-1.1,0.8-2.2,2.6-2.2c0.7,0,1.2,0.1,1.2,0.2c0.1,0,0.1,0,0.1,0.1l0,0.4
			c0,0,0,0.1,0,0.1c0,0-0.1,0.1-0.1,0.1c0,0-0.2-0.1-0.2-0.1C273.7,36.2,273.2,36,272.8,36 M155.5,39.7h-0.7l0-4.1h0.7l2.6,2.9
			l-0.1-2.9h0.7l0,4.1l-0.5,0.1l-2.8-3L155.5,39.7 M219.9,39.7h-0.7l0-4.1h0.7l2.6,2.9l0-2.9h0.6l0,4.1l-0.5,0.1l-2.8-3L219.9,39.7
			 M244.9,36c-0.9,0-1.4,0.8-1.4,1.6c0,1.1,0.7,1.7,1.5,1.7c0.5,0,1.4-0.3,1.4-1.6C246.4,36.7,245.7,36,244.9,36 M245.1,35.5
			L245.1,35.5c0.3,0,1,0.1,1.5,0.5c0.3,0.2,0.7,0.7,0.7,1.6c0,1.5-1.2,2.2-2.5,2.2c-1.7,0-2.3-1.1-2.3-2.1c0-0.7,0.3-1.3,0.8-1.6
			C243.9,35.6,244.5,35.5,245.1,35.5 M260.5,38.5l0-2.9h0.7l0,4.1l-0.5,0.1l-2.8-3l0,3h-0.7l0-4.1h0.7L260.5,38.5"/>
	</g>
	<g>
		<polyline class="st1" points="207.4,-36.2 206.3,-35.7 205.4,-35.2 204.5,-34.7 203.7,-34.2 202.8,-33.6 202,-32.9 201.2,-32.2 
			200.4,-31.4 199.7,-30.6 199,-29.8 198.3,-28.9 197.6,-28 197,-27 196.4,-26 195.8,-25 195.3,-23.9 194.9,-22.8 194.4,-21.7 
			194,-20.5 193.7,-19.3 193.4,-18.1 193.2,-17 193,-15.8 192.9,-14.7 192.8,-13.6 192.7,-12.5 192.7,-11.3 192.7,-10.3 192.8,-9.2 
			193,-8.1 193.1,-7.1 193.3,-6 193.6,-5 193.8,-4 194.2,-3.1 194.5,-2.1 194.9,-1.2 195.3,-0.3 195.8,0.5 196.3,1.3 196.8,2.1 
			197.4,2.9 198,3.6 198.6,4.3 199.3,4.9 199.9,5.5 200.7,6.1 201.4,6.6 202.2,7.1 203,7.5 203.8,7.9 204.6,8.2 205.5,8.5 
			206.4,8.7 207.3,8.9 208.2,9 209.1,9.1 210,9.1 211,9 211.9,8.9 212.8,8.8 213.6,8.5 214.5,8.3 215.4,8 216.3,7.6 217.1,7.2 
			217.9,6.7 218.8,6.2 219.6,5.7 220.3,5.1 221.1,4.5 221.8,3.8 222.6,3.1 223.2,2.4 223.9,1.6 224.6,0.7 225.2,-0.1 225.8,-1 
			226.3,-1.9 226.9,-2.9 227.3,-3.9 227.8,-4.9 228.2,-5.9 228.6,-7 229,-8.3 228.9,-8.3 228.5,-7.1 228.1,-6 227.6,-5 227.2,-4.1 
			226.7,-3.1 226.1,-2.2 225.5,-1.3 224.9,-0.5 224.3,0.3 223.7,1.1 223,1.8 222.3,2.6 221.6,3.2 220.8,3.8 220.1,4.4 219.3,5 
			218.5,5.5 217.7,5.9 216.8,6.3 216,6.7 215.2,7 214.3,7.2 213.4,7.5 212.6,7.6 211.7,7.7 210.8,7.8 209.9,7.8 209,7.7 208.1,7.6 
			207.3,7.5 206.4,7.2 205.5,7 204.7,6.6 203.8,6.2 203,5.8 202.3,5.3 201.5,4.8 200.8,4.2 200.2,3.6 199.5,2.9 198.9,2.2 
			198.3,1.5 197.8,0.7 197.3,-0.1 196.8,-0.9 196.3,-1.8 195.9,-2.7 195.6,-3.7 195.2,-4.6 194.9,-5.6 194.7,-6.6 194.5,-7.6 
			194.3,-8.7 194.2,-9.8 194.1,-10.8 194,-11.9 194,-13.1 194.1,-14.2 194.2,-15.3 194.3,-16.5 194.5,-17.6 194.7,-18.8 195,-20 
			195.4,-21.3 195.8,-22.5 196.2,-23.6 196.7,-24.8 197.3,-25.8 197.9,-26.9 198.5,-27.9 199.1,-28.9 199.8,-29.8 200.5,-30.7 
			201.3,-31.5 202.1,-32.3 202.9,-33.1 203.7,-33.8 204.6,-34.4 205.5,-35 206.3,-35.5 207.5,-36.1 207.4,-36.2 		"/>
	</g>
	<g>
		<path class="st1" d="M204-22.7L204-22.7L204-22.7l0.1,0.1l0,0l0,0.1v0l0,0.1l0,0l0,0.1l0,0l-0.1,0l0,0l0,0c0,0,0,0,0,0l0,0v0
			l0-0.1v0l0-0.1l0,0l0,0L204-22.7L204-22.7C204-22.7,204-22.7,204-22.7 M205.3-4.9l0.1,0h0l0.4,0.1l0.3,0.1l0.3,0l0.2,0l0.2,0
			l0.1,0l-0.1,0l-0.3,0l-0.3-0.1h0l-0.3-0.1l0,0l-0.2-0.1h0l-0.1-0.1v0l-0.1-0.1h0l-0.1-0.1l-0.1-0.1L205-5.5L205-5.6l-0.1-0.1
			l-0.1-0.1l-0.2,0l-0.2,0l-0.2,0h0l-0.2,0l0,0l-0.2-0.1L203.6-6h0l-0.2-0.1l-0.2-0.1l0,0l-0.1-0.1v0L203-6.5l0,0l-0.1-0.2l0,0
			l-0.1-0.2v0l0-0.2v0l0-0.2v0l0.1-0.2l0,0l0.1-0.3l0.1-0.2l0-0.2l0-0.2L203-8.7l-0.1-0.1l-0.1-0.1L202.6-9l-0.2,0l-0.2,0L202-9
			l-0.2,0l-0.2,0.1l-0.1,0.1l-0.1,0.1l-0.1,0l0,0l0,0h0l0.1,0l0.2,0l0.2-0.1h0l0.2,0l0.2,0h0l0.1,0h0l0.1,0l0,0l0.1,0l0,0l0.1,0.1
			l0,0l0,0.1v0l0,0.2l0,0.1l0,0.1v0l0,0.1l-0.1,0.3l0,0.3l0,0.3l0.1,0.3l0.1,0.3l0.1,0.3l0.2,0.2l0.8,0.8l0.2,0.2l0.2,0.2l0.2,0.2
			l0.2,0.2l0,0l0.1,0.2v0l0.1,0.2l0,0l0.1,0.2v0l0,0.3v0l0,0.3v0l-0.1,0.2v0l-0.1,0.2h0l-0.1,0.2v0l-0.1,0.2l-0.1,0.2l0,0l-0.6,0.6
			h0l0,0c0,0-0.1,0-0.1,0l0-0.1l0,0l0-0.1l0-0.1l0-0.2l0-0.2l-0.1-0.2l-0.1-0.2L203-2.9L202.9-3l0.1,0.1l0.1,0.2l0.1,0.1l0,0
			l0.1,0.2l0,0l0.1,0.3l0,0.3l0,0.3l0,0.3v0l0,0.3l0,0.3l0,0.2v0.1h0l0,0l0,0l0,0l0,0l0,0h0l0,0.1l0,0l0,0.1l0,0.1v0l0,0.2v0l0,0.2
			v0l0,0.3v0l-0.1,0.2l0,0l-0.1,0.2v0l-0.1,0.2l0,0l0.1,0l0.1-0.1l0.1-0.1l0.1-0.1l0.1-0.1l0.1-0.2l0.1-0.2l0-0.4l0-0.5c0,0,0,0,0,0
			l0,0l0,0h0.1l0.1,0l0,0l0.1,0.1l0.2,0.1l0.2,0.1l0.2,0.1l0.2,0.1l0.1,0.1l0.4,0.1l0,0l0.1,0l0,0l0.1,0.1h0l0.1,0.1l0,0l0.1,0.1
			l0.1,0.1l0.1,0.1l0.2,0.1l0.1,0.1l0.1,0l0.1,0l0.1,0l0.2-0.1c0,0,0.1,0,0.1,0.1v0l0.1,0l0,0l0.1,0.1l0,0l0,0.1l0,0l0,0.1v0l0,0.1
			l0,0.1v0l0,0.1l0,0l0,0l0,0l0,0l0-0.1l0-0.1l-0.1-0.1l-0.1-0.1L207.6,1l-0.1-0.1l-0.1-0.1l-0.2,0l-0.2,0l-0.2-0.1l-0.2-0.1l0,0
			l-0.2-0.1h0l-0.2-0.1v0l-0.1-0.1h0l-0.1-0.1L206,0.2l0,0l0-0.1l0-0.1l0-0.1l0-0.1l-0.1-0.1l-0.1-0.1l-0.1-0.1l-0.2-0.1l-0.2-0.1
			l-0.2,0l-0.2,0l-0.2,0l-0.2,0l-0.2,0l-0.2,0l-0.1,0h0l-0.1,0l0,0l-0.1,0l0,0l-0.1-0.1l0,0l0-0.1l0,0l0-0.1v0l0-0.1l0,0l0.1-0.1v0
			l0.1-0.1l0,0l0,0l0.1-0.1l0.1-0.1l0.2-0.1l0.2-0.1l0.2-0.1l0.2-0.2l0.2-0.1l0.2-0.2l0.2-0.2l0.2-0.1l0.1-0.1l0-0.1l0,0l0.1-0.1
			l0.1-0.1l0.1-0.2l0.1-0.2l0.1-0.1l-0.1,0h0l-0.2-0.1v0l-0.2-0.1h0L205.5-4l-0.2-0.2l0,0l-0.2-0.2l0,0L205-4.4l0,0l0-0.1v0l0-0.1
			l0,0l0-0.1l0,0l0.1-0.1h0l0.1,0l0,0L205.3-4.9L205.3-4.9 M206.9-7.6L206.9-7.6L206.9-7.6l0.3,0.1l0.2,0.1l0.3,0.1l0.3,0.1l0.3,0.2
			l0,0l0.3,0.2h0.5l0.7,0l0.6-0.1l0.6-0.1l0.5-0.1l0.5-0.1l0.5-0.2l0.4-0.2l0.4-0.2l0.4-0.2l0.3-0.2l0.3-0.2l0.3-0.3l0.2-0.3
			l0.2-0.2l0.2-0.3l0.2-0.2l0.1-0.2l0.1-0.2l0.2-0.3l0.1-0.3l0,0c0,0,0,0,0,0l0,0l0.2,0.1l0.3,0h0.1l0.2,0l0.1-0.1l0.1-0.1l0.1-0.2
			l0.1-0.2l0.1-0.2l0,0l0.1-0.1l0-0.1l0.1-0.1l0.1-0.1l0.1-0.2l0.1-0.2l0.1-0.2l0.1-0.2l0.1-0.2l0-0.1l0,0l-0.1,0.1l-0.1,0.1
			l-0.1,0.2l-0.1,0.2l-0.1,0.2l-0.1,0.2l-0.1,0.2v0l-0.1,0.2l-0.1,0.2l0,0l-0.1,0.1l0,0l-0.1,0.1l0,0l-0.1,0h0l-0.1,0l0,0l-0.1-0.1
			l0,0l-0.1-0.1l-0.1-0.1l0,0l-0.1-0.1l0,0h0l0,0l0,0h0l0,0l0,0l-0.1-0.1l-0.1-0.1l-0.1-0.1l-0.2-0.1l-0.3-0.1l-0.3-0.1l-0.3-0.1
			l-0.3-0.1l-0.3-0.1l-0.3-0.1l-0.2-0.1l-0.2,0l-0.1,0l0,0l0,0l0.1,0.1l0.2,0.1l0.1,0.1h0l0.1,0.1l0.1,0.1h0l0.2,0.1l0.1,0.1l0,0
			l0.1,0.1l0,0c0,0,0,0.1,0,0.1l0,0c0,0,0,0,0,0h-0.1l-0.1,0l-0.1,0l-0.1,0h0l-0.2-0.1l0,0l-0.2-0.1l0,0l-0.2-0.2l-0.2-0.2v0
			l-0.2-0.2l-0.2-0.2l-0.2-0.2l-0.3-0.1l-0.1,0h0l0,0l0.1,0.1l0.1,0.1l0.1,0.1l0,0.1v0l0,0.1l0.1,0.1l0.1,0.2l0,0.1l0,0.1l0,0v0
			l0,0.1L212-12l0.1,0l0.2,0.1l0.2,0.1l0.3,0.1l0.3,0.1l0.3,0.1l0.3,0.1l0.3,0l0.3,0l0.3,0h0l0.3,0h0l0.1,0l0.3,0.1l0,0l0.1,0h0
			l0.1,0.1l0,0l0.1,0.1v0l0.1,0.1l0,0l0,0.1v0l0,0.1v0l0,0.1v0l0,0.2l0,0l-0.1,0.2v0l-0.1,0.2l-0.2,0.2l0,0l-0.2,0.2l-0.3,0.3h0
			l-0.5,0.4v0l-0.5,0.3l-0.5,0.3h0L212.7-8l-0.4,0.2l0,0l-0.4,0.1l-0.4,0.1h0L211-7.5l-0.3,0.1l-0.3,0h0l-0.3,0h-0.4l-0.1,0
			l-0.4-0.1h0l-0.4-0.1l-0.3-0.1l-0.3-0.1l0,0L208-7.8l-0.2-0.1L207.7-8h0L207.6-8l-0.3-0.1l-0.3-0.1l-0.2,0l-0.2,0l-0.2,0h-0.2
			l-0.1,0l-0.1,0l-0.1,0l0,0l0,0.1v0.1l0,0l0,0l0.1,0.1v0l0.1,0.1l0,0l0,0.1l0,0l0,0.1c0,0,0,0.1-0.1,0l-0.2-0.1l-0.1-0.1l0,0
			l-0.1-0.1h0l-0.1-0.1l0,0L205.4-8l-0.1-0.1l0,0l0,0.1v0.1l0,0.1l0.1,0.1l0.1,0.1l0.1,0.1l0.2,0.1l0,0l0.1,0.1l0,0l0.1,0.1l0,0
			l0.1,0.1l0,0l0,0.1l0,0l0,0.1l0,0.1l0,0.2l0,0.1l0,0.1l0,0h0l0,0l0,0h0l0.1,0l0.1-0.1l0.1-0.1l0-0.1l0-0.1l0-0.2v0l0-0.2v0l0-0.1
			l0,0l0.1-0.1l0,0L206.9-7.6L206.9-7.6 M201.6-9.8L201.6-9.8l0.1,0l0.1,0l0.2,0h0l0.2,0.1l0.2,0.1l0.2,0.1l0.2,0.1l0.2,0l0.2-0.1
			l0.2-0.1l0.2-0.1l0.2-0.1l0.3-0.3l0,0l0.4-0.3h0l0.4-0.2l0.4-0.2l0,0l0.4-0.1l0.4-0.1l0.4-0.1l0.4-0.1l0.4-0.1l0.4-0.1l0.3-0.1
			l0.3-0.1l0.3-0.2l0.3-0.2l0.3-0.2l0.3-0.3l0.2-0.3l0.2-0.3l0.2-0.3l0.1-0.4l0.1-0.4v0l0-0.1h0l0-0.1v0l0.1-0.1l0-0.1l0-0.1l0-0.1
			v0l0.1-0.1l0,0l0,0l-0.1-0.1l0,0l-0.1-0.1l-0.1-0.1l-0.1-0.1l-0.1-0.1l-0.2,0l-0.2,0h0l-0.2,0l-0.4,0h0l-0.4,0l-0.4-0.1l-0.4-0.1
			l-0.4,0l-0.4,0h-0.1l-0.1,0l-0.1,0l-0.1,0.1h0l-0.2,0.1l-0.1,0.1l-0.1,0.1l-0.1,0.2l-0.1,0.2l0,0l-0.3,0.3l-0.3,0.3l0,0l0,0
			l-0.3,0.2l-0.3,0.2l-0.3,0.3l-0.3,0.3l-0.3,0.3l0,0l0,0L204-13l-0.1,0.1v0l-0.1,0.1l-0.1,0.1v0l-0.1,0.1l-0.1,0.1l0,0l-0.1,0.1h0
			l-0.1,0.1v0l-0.1,0.1h0l-0.1,0l-0.1,0h0l-0.1,0h0l-0.3,0.2h0l-0.3,0.2l-0.3,0.2l-0.3,0.2l-0.2,0.2l-0.2,0.2l0,0l-0.2,0.1l0,0
			l-0.2,0.1l-0.1,0l-0.1,0.1l-0.1,0.1l-0.2,0.2l0,0l-0.2,0.1l-0.2,0.1l-0.1,0.1l-0.1,0.1v0l-0.2,0.1l0,0l-0.1,0h-0.1l-0.1,0l0,0
			l-0.1,0l0,0l-0.7,1.2l-0.5,0.8c0,0,0,0,0,0h0l-0.1,0h0l-0.1,0l0,0L197.3-8l0,0l-0.1-0.1l0,0l0,0c0,0,0,0,0,0l0.5-0.8l0.8-1.2l0,0
			l-0.1-0.1l0,0l-0.1-0.1l0,0l0-0.1l0,0l0-0.1l0-0.1l0,0l0-0.1l0-0.1v0l0-0.2l0,0l0-0.1l0-0.1l0,0l0.1-0.1l0,0l0.1,0l0,0l0.1,0h0
			l0.1,0h0l0,0l0-0.1l0,0l0.1,0h0l0.1,0l0-0.1l0-0.1v0l0-0.1l0,0l0.1-0.1l0,0l0.1-0.1l0.2-0.1l0,0h0.3l0.9-1.4l1.2-2l1.9-3.1
			l0.7-1.1l-0.1,0h0l-0.2,0l-0.2-0.1l0,0l-0.2-0.1h0l-0.1-0.1l0,0l-0.1-0.1l0,0l-0.1-0.2l-0.1-0.1l0,0l-0.2-0.1l-0.1-0.1l0,0
			l-0.1-0.2v0l-0.1-0.2l0,0l0-0.2l0-0.1l0,0l0-0.1v0l0-0.1l0,0l0-0.1l0,0l0,0l0,0l0,0l0-0.1l0-0.1l0,0l0-0.1l0-0.2l0-0.2v0l0-0.2
			l0,0l0.1-0.2l0,0l0.1-0.2v0l0.1-0.1l0.1-0.1l0.1-0.1l0.1-0.1v0l0.1-0.1l0.1-0.1l0,0l0.1-0.1l0,0l0.1-0.1l0,0l0.1,0h0.1l0.1-0.1
			l0,0l0.1-0.1l0,0l0.1,0h0l0.1,0h0.1l0.2,0l0.1,0h0l0.2,0h0l0.1,0l0,0l0.1,0l0,0l0.1,0.1l0,0l0,0.1l0.1,0.1l0,0h0.1l0,0l0.2,0.1
			l0.2,0.1l0.2,0l0.2,0h0.1l0,0l0,0l0.1,0.1l0,0l0,0.1l0,0l0,0.1l0,0.1l0,0l0,0l0.9-1.5l2.3-3.7l0.6-1l0.6-1l0,0l0.1-0.1l0-0.1
			l0-0.1l0,0l0.1-0.1l0,0l0.1-0.1l0,0l0.1-0.1l0.1-0.1h0l0.1,0l0,0l0,0l0.1,0c0,0,0.1,0,0.1,0l0,0.1v0v0v0.1v0l0,0.1v0l-0.1,0.2l0,0
			l-0.1,0.2l0,0l-0.1,0.1l0,0.1l0,0.1l0,0l-0.2,0.4v0l-0.2,0.4l-0.2,0.4l-0.3,0.4l-0.3,0.5l-0.3,0.5l-0.3,0.5l-0.3,0.5l-0.3,0.5
			l-0.3,0.5l-0.3,0.5l-0.3,0.5l-0.3,0.5l-0.3,0.5l-0.3,0.4l0,0.1l0,0v0v0l0,0.1l0,0l-0.1,0.1l0,0l0,0l0,0l0,0l0,0l0,0l0,0.1v0l0,0
			l0,0.1l0,0l0,0.1l0,0.1l0.1,0.1l0.1,0.1l0,0l0.1,0.1l0,0l0,0.1v0l-0.1,0.2l0,0l0,0h0l0,0l0,0.1l-0.1,0.1l-0.1,0.1l0,0l0,0h0l0,0
			l0.3-0.2l0.1-0.1l0.1-0.1h0l0.1-0.1l0,0l0.1-0.1l0.1-0.2v0l0.1-0.2l0,0l0.1-0.2h0l0.2-0.2v0l0.2-0.2l0,0l0.2-0.2l0.2-0.1l0.2-0.1
			l0.2-0.2l0.2-0.2l0.2-0.2l0.2-0.2l0.2-0.4v0l0.2-0.3h0l0.2-0.3v0l0.3-0.3l0,0l0.3-0.2l0.1-0.3l0.1-0.3l0,0l0.1-0.2v0l0.1-0.2l0,0
			l0.1-0.2l0.9-0.9l0.6-0.5l0,0l0.1-0.1l0.1-0.1l0.1-0.1l0.1-0.2l0.1-0.2h0l0.1-0.2l0.1-0.2l0.2-0.2v0l0.1-0.2l0.1-0.2l0.1-0.1l0,0
			l0,0l0.1,0l0.1-0.1l0,0l0.1-0.1l0.1-0.1l0,0l0.1-0.1l0.1-0.2l0.1-0.2l0.1-0.1l0.1-0.1v0l0.1-0.1l0.1-0.1l0,0l0,0l0,0l0.1,0
			l0.1-0.1l0.1-0.1l0.1-0.1l0,0l0.1-0.1l0.1-0.1l0,0l0.1,0h0h0.1l0,0l0.1,0h0l0,0l0,0l0,0.1l0,0l0,0.1v0l0,0.1l0,0l-0.1,0.1v0
			l-0.1,0.1l-0.1,0.1h0l-0.1,0.1l0,0l0,0l0,0.1l0,0l0,0.1v0v0v0l-0.1,0.2l0,0l-0.1,0.2v0l-0.2,0.2l-0.1,0.2l-0.1,0.3l-0.1,0.2l0,0
			l-0.1,0.1l0,0l-0.1,0.1l0,0l-0.1,0.1h0l-0.1,0l-0.1,0l-0.1,0l-0.1,0l-0.1,0.1l-0.1,0.1l-0.1,0.1l-0.1,0.2l-0.1,0.2l-0.2,0.3
			l-0.1,0.1l0,0.1l0,0l0,0l0,0l0,0.1l0,0.1l0,0.1l-0.1,0.3l-0.1,0.3l-0.1,0.3v0l-0.1,0.2h0l-0.1,0.2v0l-0.2,0.2l0,0l-0.2,0.2
			l-0.4,0.5l-0.1,0.2h0l-0.1,0.2v0l-0.1,0.2l-0.1,0.2l-0.1,0.2h0l-0.1,0.2l-0.1,0.2v0l-0.1,0.1l-0.1,0.1l-0.1,0.1l0,0l-0.2,0.2
			l-0.2,0.2l-0.2,0.2l-0.1,0.2l-0.1,0.2l0,0.3l0,0.3l0.1,0.1v0l0.1,0.1l0.1,0.1l0.1,0.1l0.1,0.1l0.1,0.1l0.2,0.1l0,0l0,0l0,0
			l0.1,0.1l0.1,0.1l0.1,0.1v0l0.1,0.1l0.2,0.1h0l0.2,0.1l0.2,0.2l0.1,0.2v0l0.1,0.1l0,0l0.1,0.2l0,0l0.1,0.2l0.2,0.1l0,0l0.2,0.2
			l0,0l0.1,0.2v0l0.1,0.2l0.1,0.2l0.1,0.2l0.1,0.2l0.1,0.2l0.1,0.1l0.2,0.1l0,0l0.1,0.1l0.1,0.2l0,0l0.1,0.2l0.1,0.2v0l0.1,0.2l0,0
			l0.1,0.2l0,0.1l0.1,0.1l0.1,0.1l0.1,0.2l0.1,0.1l0.1,0.1l0.1,0.1h0l0.1,0.1l0.1,0.1l0,0l0,0l0,0v0l0,0.1l0.1,0.1v0l0.1,0.1
			l0.1,0.2l0.1,0.2l0.1,0.2l0.1,0.2l0.1,0.2h0l0.1,0.2l0-0.1l0-0.2l0-0.2l0-0.2l0-0.2l0-0.1l0-0.1l0-0.2l0-0.2v0l0-0.2l0-0.2v0
			l0-0.2l0-0.2l0,0l0.1-0.3v0l0.2-0.2l0,0L218-17l0.2-0.2l0,0l0.2-0.2l0.3-0.2h0l0.3-0.1l0,0l0.1,0l0.1,0l0.1,0h0l0.1,0l0.1,0h0l0,0
			l0.3-0.1l0.3-0.2l0.3-0.2l0.3-0.3l0.3-0.3l0.3-0.2l0.3-0.2l0,0l0.3-0.2l0.3-0.2h0l0.3-0.2l0,0l0.3-0.1l0.2-0.2l0.2-0.1h0l0.2-0.1
			l0.2-0.1l0,0l0.2,0h0.1l0.1,0l0.1,0l0.3-0.1l0.2-0.1l0,0l0.3-0.1h0l0.3,0l0,0c0,0,0,0,0.1,0l0,0v0l0,0.1l0,0l0,0.1l0,0.1v0l0,0.1
			l0,0.1l0,0.1l0,0l-0.1,0.2l-0.1,0.2l-0.1,0.2l-0.1,0.1v0l-0.1,0.1l0,0l-0.1,0.1l0,0l-0.1,0.1h0l-0.2,0.1l0,0l-0.2,0h0l-0.2,0
			l-0.1,0.1l-0.1,0.1h0l-0.1,0.1l0,0h-0.1l-0.1,0l0,0l-0.1,0l-0.1,0h0v0l-0.1,0.1l0,0.1v0.1v0.1v0.1v0l0,0.1l0,0l0,0.1v0L223-18l0,0
			l-0.1,0.1l0,0l-0.1,0l-0.3,0.1l-0.3,0.2l-0.3,0.2l-0.3,0.2l-0.2,0.2l0.1,0.1l0,0l0.1,0.1l0,0l0.1,0.1v0l0.1,0.2l0,0l0.1,0.2v0v0.2
			l0,0.4l0.1,0.4L222-15v0l0.1,0.7c0,0,0,0,0,0.1l0,0l-0.1,0.1l0,0.1l0,0.2v0.1l0,0.2v0l-0.1,0.3l0,0l-0.1,0.3c0,0,0,0-0.1,0l-0.1,0
			l-0.3-0.1l0,0l-0.3-0.1l0,0l-0.2-0.2h0l-0.3-0.3v0l-0.2-0.3h0l-0.2-0.3v0l0,0l0,0v0v0v0l0-0.1l0,0l0.1-0.1l0-0.1l0-0.1l0,0l0,0
			l0,0c0,0,0,0,0-0.1v0v0l0-0.1l0,0l0.1-0.1l0,0l0.1-0.1l0,0l0.1-0.1l0.1-0.1l0.1-0.1l0-0.1l0,0l-0.1-0.1l-0.1,0l-0.1,0l0,0l-0.1,0
			l-0.1-0.1h0l-0.1-0.1l-0.1-0.1l0,0l0,0l-0.1,0.1l-0.2,0.1l-0.2,0.2l-0.2,0.2l-0.1,0.2l0,0.1l0,0.2l0,0.2l0,0.2v0l0,0.2v0l0,0.1
			l-0.1,0.4l-0.1,0.3l0,0l-0.1,0.3v0l-0.2,0.3l-0.1,0.4l-0.1,0.4v0l-0.1,0.3l-0.1,0.3l0,0l-0.2,0.3l-0.1,0.2v0l-0.2,0.3l-0.2,0.3
			l-0.1,0.4l0,0l-0.1,0.1l0,0L217-9.9l0,0l-0.1,0h-0.1l-0.2,0h0l-0.2-0.1l-0.3-0.1l-0.3,0.4l-0.3,0.4l-0.3,0.4l0,0l-0.3,0.3
			l-0.3,0.3l-0.3,0.3l0,0L214-7.6l-0.3,0.2l-0.3,0.2h0L213-7l-0.5,0.2l0,0L212-6.6l-0.6,0.2h0l-0.6,0.1l-0.6,0.1l-0.6,0.1h0l-0.5,0
			l-0.2,0l-0.1,0l-0.1,0l0,0.1l0,0.1l0,0.1l0,0.2l0.1,0.4v0l-0.1,0.4v0l-0.1,0.3l0,0l-0.1,0.3l-0.2,0.3v0l-0.2,0.3l-0.2,0.3h0
			l-0.3,0.3v0l-0.3,0.3l-0.1,0.1l-0.1,0.2l0,0.2l0,0.1l0.1,0.1l0.2,0.2l0.2,0.2l0.2,0.1l0.2,0.1l0.3,0.1l0.3,0.1l0.3,0l0.6,0.1h0
			l0.2,0l0,0l0.1,0.1l0,0l0.1,0.1l0.1,0.1l0.1,0.1l0.1,0.1l0.1,0.1l0.1,0h0c0,0,0,0,0,0l0,0v0l0.1,0.2l0.1,0.1l0.1,0.1l0.1,0.1l0,0
			l0,0l0,0l0,0l0.1,0.2v0l0.1,0.3l0.1,0.3l0,0c0,0,0,0,0,0.1l0,0l-0.1,0.1l0,0l-0.1,0.1l0,0l-0.1,0.1l0,0l-0.1,0h0l-0.2,0h0l-0.1,0
			h-0.1l-0.2,0h0l-0.2,0h0L210,1.7l0,0l-0.2-0.1l0,0l-0.1-0.2l0,0l0-0.2l-0.1-0.2l0,0l0-0.2l0-0.1v0l0,0l0,0l-0.1,0l-0.2,0.1l-0.1,0
			h0l-0.1,0l0,0l-0.1,0h0l-0.1,0h0l-0.1,0l0,0l-0.2-0.1l-0.1-0.1l-0.2-0.1l-0.2-0.1l-0.1,0l0.1,0.2l0.1,0.2l0.1,0.2l0.2,0.2l0.2,0.1
			l0.2,0.1l0,0l0.1,0.1l0,0l0,0.1l0,0.1l0.1,0.1h0l0,0l0,0l0,0l0.2,0.3l0,0l0.1,0.3l0,0c0,0,0,0.1,0,0.1l0,0l-0.2,0.1l-0.2,0.1h0
			L209,3l0,0L208.8,3h0l-0.3,0h-0.1l-0.2,0L208,3l-0.3,0l0,0l0,0c0,0,0,0,0,0V2.7l0-0.1l0-0.1l0,0l0-0.1v0l0-0.1l0,0l0.1-0.1l0,0
			l-0.1,0h0l-0.1-0.1l0,0l0-0.1v0l0-0.2l0-0.1l0-0.1l0-0.1l0,0l-0.1,0l-0.1,0h0l-0.1,0h0l-0.2,0l0,0l-0.2-0.1h0l-0.2-0.1v0l-0.2-0.1
			h0L206.3,1l-0.1-0.1L206,0.8l-0.1-0.1l-0.2-0.1l-0.2,0h0L205,0.5l-0.1,0l-0.1,0l-0.1,0l-0.1,0l-0.1,0.3l-0.1,0.2l0,0l-0.1,0.2v0
			l-0.1,0.2L204,1.4l0,0l-0.2,0.2l0,0l-0.2,0.1h0l-0.2,0.1h-0.2l-0.1,0L203,2h0l-0.3,0.1l0,0l-0.3,0.1h0l-0.3,0h0l-0.3,0l0,0
			l-0.1-0.1l0,0l-0.1-0.1l0,0l0-0.1v0l0-0.1v0l0-0.1l0,0l0,0l0,0l0,0h0l0.2-0.1l0.2-0.1l0.1-0.2l0.1-0.2l0.1-0.2l0-0.1V0.5l0-0.3
			L202.3,0l-0.1-0.3L202-0.6l-0.2-0.3l-0.2-0.3l-0.2-0.3L201-2.1l0,0h0l0,0l0,0l0,0h-0.1l0,0l-0.1,0l0,0l0-0.1l0,0l-0.2-0.3
			l-0.2-0.3v0l-0.2-0.3l-0.2-0.3l-0.3-0.6l0,0l-0.1,0l0,0h0l0,0l-0.1,0l0,0l-0.1-0.1l0,0c0,0,0,0,0,0v0l-0.1-0.4l-0.1-0.3L199-5.2
			L199-5.5l-0.1-0.3v0l-0.1-0.3l0-0.2v0l0-0.2v-0.3v0l0-0.3v0l0.1-0.3l0.1-0.3l0,0l0.2-0.3l0.2-0.3v0l0.2-0.3l0,0l0.2-0.3l0.2-0.2
			l0,0l0.3-0.2h0l0.3-0.1l0,0l0.3-0.1h0l0.3-0.1l0.2,0h0L201.6-9.8L201.6-9.8 M207.7-16.5l0.2,0h0l0.2,0h0l0.2,0l0.3,0.1l0.3,0
			l0.3,0l0.3,0l0.3,0h0.1l0.1,0h0l0.1,0h0l0.1,0l0.1,0l0.1,0l0,0l0.1,0.1h0l0.1,0.1l0,0l0.1,0.1l0,0l0.1,0.1l0,0l0,0.1v0v0.1v0
			l0,0.2l0,0l0,0.1l0,0.1v0l0,0.1v0l0,0v0l0,0l0,0l0,0.1l0,0.1l0,0.1l0,0.1l0,0.2l0,0.2l0,0.2l0,0.1l0,0.1l0,0.1l0,0l0.1,0l0.1,0
			l0.1-0.1l0.1-0.1l0.1-0.1l0.2-0.2l0.1-0.2l0.1-0.2l0.1-0.1l0.1-0.1l0.1-0.1l0,0l0.1-0.1l0,0l0.2-0.1l0.2-0.1l0.2-0.1l0.2-0.1h0
			l0.3-0.1l0.1-0.1l0.1,0v0l0,0l-0.1,0h0l-0.2,0l-0.2,0.1l-0.2,0.1l-0.2,0.1v0l-0.2,0.1h0l-0.2,0.1h0l-0.2,0h-0.1l-0.1,0l0,0l0,0
			c0,0,0,0,0,0l0-0.1l0,0l0.1-0.1l0.1-0.1l0.1-0.1l0,0l0.1,0l0.1,0l0.1-0.1l0.1-0.1l0-0.1v0l0,0l-0.1,0l-0.2,0l-0.1,0h0l-0.1,0h0
			l0,0c0,0-0.1,0,0-0.1l0,0l0,0l0.1-0.1h0l0.1-0.1v0l0.2-0.1l0.2-0.1h0l0.2-0.1l0.1-0.1l0.1-0.1l0.1-0.1l0-0.1l0-0.1v0l0,0h-0.1
			l-0.1,0l0,0l-0.3,0.1l-0.2,0h0l-0.2,0h0l-0.1,0l-0.2,0l0,0l-0.1,0l0,0l-0.1-0.1v0l0-0.1l0-0.1l0,0l-0.2,0h0l-0.2,0l0,0l-0.1-0.1h0
			l-0.1-0.1l0,0l-0.1-0.1l0,0l0-0.1v0l0-0.1l0-0.1l0-0.1l0,0l0,0l-0.1,0l-0.2,0l-0.2,0l-0.2,0l-0.2,0l-0.1,0h0l-0.1,0l0,0l0,0
			c0,0,0,0,0-0.1l0-0.1l0,0l0.1-0.2l0.1-0.2l0-0.1l0-0.1l0,0l0,0l-0.1,0l-0.1,0.1l-0.1,0.1l-0.1,0.1l0,0l-0.1,0.1l0,0l-0.1,0h-0.1
			l-0.1,0l-0.1,0l0,0.1l0,0v0l0,0v0l0,0l0,0l-0.1,0h0l-0.3,0.1l0,0l-0.3,0.1h0l-0.3,0l-0.3,0h0l-0.3,0l-0.3,0l-0.3,0.1l-0.3,0.1
			l-0.2,0.1l-0.1,0.1l-0.1,0.1l0,0.1l0,0.1l0,0.1l0.1,0.1v0l0.1,0.2l0,0l0.1,0.2v0l0,0.3v0l0,0.3v0l-0.1,0.3l0,0l-0.1,0.1l-0.1,0.1
			v0l-0.1,0l-0.1,0.1l-0.1,0.1l-0.1,0.1l-0.1,0.1l-0.1,0.1l-0.1,0.2l-0.2,0.2h0l-0.1,0.1l-0.1,0.1l0,0l-0.1,0.1l-0.1,0.1l0,0
			l-0.1,0.1l-0.1,0.1l-0.1,0.1l-0.1,0.1l0,0l-0.1,0.1l0,0l-0.1,0l-0.1,0h0l-0.1,0l-0.1,0h0l-0.1,0.2l0,0l-0.2,0.2l-0.2,0.2l0,0
			l-0.2,0.2l-0.3,0.2l-0.3,0.2l-0.2,0.1l-0.2,0.1l-0.2,0.1l-0.1,0.1l-0.1,0.2l-0.1,0.2l-0.1,0.2l0,0l0,0l0,0v0l-0.1,0.1l0,0l-0.1,0
			h-0.3l-0.1,0h-0.2l-0.1,0l-0.1,0l-0.1,0.1l0,0l-0.1,0h0l-0.1,0l0,0l-0.1-0.1l0,0l-0.1-0.1l-0.1-0.1l0,0l-0.1-0.1l0,0l0-0.1v0l0,0
			l0,0.1l0,0.1l0,0l0,0l0.1,0.1l0,0l0.2,0.2l0.1,0.1l0.1,0.1l0.1,0l0.1,0l0,0l0,0l0,0l0,0l0,0l0,0.1v0l0,0.1l0,0l-0.1,0.1l0,0
			l-0.1,0h0l-0.1,0h0l-0.1,0l0,0l-0.1-0.1l0,0l-0.1-0.1l-0.1-0.1v0l-0.1-0.1h0l-0.1-0.1l0,0l0,0l0,0l-0.1,0l0,0v0l0,0.1v0l0,0.1v0.1
			l0,0l0,0.1l0,0l-0.1,0.1l0,0l-0.1,0.1l0,0l0,0l0,0l0,0v0l0,0.1l0.1,0.1v0l0,0l0.1,0.1l0,0c0,0,0,0,0,0l0,0l0,0l0.1,0h0l0.1,0
			l0.1,0l0,0l-0.1-0.1l-0.1-0.1l-0.1-0.1l0,0l0-0.1l0,0V-11l0,0l0,0l0,0l0,0l0,0h0l0,0l0.1,0l0.1,0l0.1,0.1l0.1,0l0.1,0l0.1,0l0,0
			l0.1,0.1l0,0l0,0.1l0,0l0,0.1l0,0l-0.1,0.1l0,0l-0.1,0h0l0,0l0,0l0,0l0,0v0l0,0.1l0,0l0,0l0,0h0l0,0l-0.1,0l-0.1-0.1l0.1,0.1
			c0,0,0,0,0,0l0.1,0l0.1,0l0.1,0l0.1-0.1l0.1-0.1l0.1-0.1l0.1-0.1l0.1-0.1l0,0l0.2-0.1l0.2-0.1v0l0.2-0.1h0l0.1-0.1l0,0l0.1,0
			l0.1,0l0.1-0.1l0.1-0.1l0.2-0.2v0l0.2-0.2l0,0l0.1-0.1l0,0l0.1-0.1l0.1-0.1h0l0.1-0.1l0,0l0,0l0,0l0.2-0.1h0l0.2-0.1l0,0l0.2-0.1
			l1.1-0.8l0.3-0.3l0.3-0.3l0.3-0.2l0.2-0.2l0.2-0.2l0,0l0,0l0.2-0.2l0.2-0.2l0.2-0.2l0.2-0.2l0.2-0.2l0.2-0.2l0.2-0.2h0l0.2-0.2v0
			l0.2-0.2h0l0.3-0.1l0,0l0.3-0.1h0L207.7-16.5L207.7-16.5 M205.4-23.2L205.4-23.2l0.1,0.1l0,0l0.1,0l0.1,0l0,0v-0.1l0-0.1l0-0.1
			l0,0v-0.1c0,0,0,0,0,0l0,0h0.1l0,0l-0.1,0l-0.1,0l-0.1,0l-0.1,0l-0.1,0.1l-0.1,0.1l-0.1,0.1v0l0,0.1l0,0.1l0,0.1
			c0,0,0,0.1-0.1,0.1h0l0,0v0l0,0.1l0,0.1l0,0.1l0,0l0,0.1v0l0,0c0,0,0,0,0,0.1l0,0c0,0,0,0-0.1,0l-0.1,0l0,0l0-0.1l0-0.1l-0.1-0.1
			l-0.1,0l-0.1,0l-0.1,0l0,0l0,0l0,0l0-0.1l0,0l0,0h-0.1l-0.1,0h0l0,0h0l-0.1,0l0,0l0,0l0,0l0-0.1l0,0l0,0h-0.1l-0.1,0l0,0l0,0.1
			l0,0.1l0,0h0l0,0l0,0l0,0l0,0h0.1l0,0c0,0,0,0,0,0l0,0v0l0,0.1l0,0l0,0l0,0l-0.1,0l0,0l-0.1,0l-0.1,0l0,0l0,0l0,0l0,0.1v0.1v0v0
			c0,0,0,0.1-0.1,0.1c0,0,0,0,0,0l0,0l0,0l0-0.1l0-0.1l0,0H203c0,0,0,0,0,0l0,0l0,0l0-0.1v0l0,0l-0.1,0.1l0,0.1l0,0.1l0,0.1v0v0v0
			l0,0.1l0,0.1v0l0.2,0.1c0,0,0,0,0,0.1l0,0.1l0,0l0,0.1l0,0v0v0v0l0,0l0,0l0,0.1l0,0.1l0,0.1l0.1,0.1l0.1,0.1l0.2,0.1l0.2,0.1l0,0
			l0,0l0,0l0.1,0.1l0.1,0.1l0.1,0l0.1,0l0.3,0l0.2,0l0.1-0.1v0l0.1-0.2l0.1-0.2l0.1-0.2v0l0.1-0.2l0.1-0.2l0.1-0.2l0.1-0.2l0.1-0.1
			v0l0-0.1h0l-0.1,0l0,0l0-0.1l0,0l0-0.1l0-0.1l0,0l0,0l0,0l0,0c0,0,0,0,0-0.1l0-0.1l0-0.1l0,0l0.1-0.1l0,0L205.4-23.2
			C205.4-23.2,205.4-23.2,205.4-23.2 M203.7-23.4L203.7-23.4L203.7-23.4L203.7-23.4L203.7-23.4L203.7-23.4l0.1-0.1l-0.1,0l-0.1,0
			l-0.1,0l-0.1,0h0l0,0l-0.1,0.2l0,0.1l0,0.2v0l0,0.1l0,0h0l0,0l0,0l0,0l0,0l0,0l0,0v0v0l0,0l0-0.1l0,0l0.1-0.1v0l0.1,0h0
			L203.7-23.4L203.7-23.4L203.7-23.4 M204-24L204-24L204-24L204-24L204-24L204-24L204-24L204-24 M204.1-23.8L204.1-23.8L204.1-23.8
			l0,0.1v0l0,0.1l0,0.1h0l0,0l0,0l0.1,0l0,0l0,0v0l-0.1-0.1L204.1-23.8L204.1-23.8 M204.5-23.8L204.5-23.8L204.5-23.8L204.5-23.8
			l-0.1,0.1l0,0.1l0,0.1l0,0.1l0.1,0h0.1l0,0l0,0l0,0l0-0.1v0l0-0.1l0-0.1L204.5-23.8L204.5-23.8L204.5-23.8 M206.5-22.3L206.5-22.3
			l-0.1,0l-1.1,1.8l0,0l0,0l0,0l0,0l0,0l0.1,0.1l0,0l0.1,0.2l0.1,0.2v0l0.1,0.2l0,0l0.1,0.3l0,0.2l0,0.2v0l0,0.1v0L206-19l0.2-0.1
			l0,0l0.2-0.1l0.2-0.1l0.1-0.1l0.1-0.1l0.1-0.1l0.1-0.1l0.1-0.1l0,0l0.1-0.1l0.1-0.1l0.1-0.1l0,0l-0.2,0l-0.1,0l-0.1,0.1l-0.1,0.1
			l-0.1,0.1l-0.1,0.1h0l-0.1,0l0,0h-0.1l-0.1,0l0,0l0-0.1l0,0l0-0.2l0-0.3v0l0-0.3v-0.3v0l0-0.2l0,0l0.1-0.1v0l0.1-0.1l0,0l0.1-0.1
			h0l0.1-0.1l0,0h0l0,0l0,0l0,0l0-0.1l0-0.1l0-0.1h0l-0.1,0l-0.1,0h0l-0.1,0h0l-0.1,0c0,0,0,0,0,0l0,0c0,0,0,0,0,0L206.5-22.3
			L206.5-22.3L206.5-22.3 M216.3-31.2L216.3-31.2L216.3-31.2l-0.2,0.2l-0.1,0.1l-0.1,0.1l-0.1,0.1l-0.1,0.1l-0.1,0.1l-0.1,0.1l0,0v0
			l0,0l0,0l0.1,0l0.1-0.1l0.1-0.1l0.1-0.1l0.1-0.1l0.1-0.1l0.1-0.1l0.1-0.1L216.3-31.2L216.3-31.2L216.3-31.2 M214.9-29.3
			L214.9-29.3l-0.1,0.1l-0.1,0.1l0,0.1l0,0.1l0,0l0,0l0.1,0l0.1,0l0.1,0h0l0.1,0l0.1,0l0.1-0.1l0.1-0.1l0-0.1l0.2-0.4l0-0.1l0,0
			l-0.1,0.1l-0.1,0.1l-0.1,0.1l0,0l-0.1,0.1h0l-0.1,0.1l0,0l-0.1,0h-0.1L214.9-29.3L214.9-29.3 M214.8-28.7L214.8-28.7l-0.1,0.1
			l-0.1,0.1l-0.1,0.1l-0.1,0.1l-0.1,0.1l-0.2,0.1h0l-0.2,0.1l-0.1,0.1l-0.1,0.1l0,0h0l0,0l0.1,0l0.1,0l0.1,0h0l0.1,0c0,0,0,0,0.1,0
			l0,0c0,0,0,0,0,0l0,0.1l0,0l-0.1,0.1h0l-0.1,0.1l-0.1,0.1l0,0.1l-0.1,0.2l0,0l-0.2,0.2l0,0l-0.2,0.2l-0.2,0.2l-0.3,0.2l-0.3,0.2
			l-0.2,0.2l-0.2,0.2l-0.2,0.2l-0.1,0.2l0,0.2l0,0.2l0,0.2l0,0.1l0,0c0,0,0,0,0,0l0,0.1l0,0l-0.1,0.1v0l-0.1,0.1l-0.1,0.1h0
			l-0.2,0.1l-0.2,0.1l-0.2,0.1l-0.2,0.1l-0.2,0.1l-0.1,0.1l-0.2,0.2l-0.2,0.2l-0.2,0.1l-0.1,0.1l-0.1,0.1l0,0l0,0.1l0,0.1l0,0.1
			l0,0.1l0,0.2l0,0.1l0,0.1l0.1,0.1l0.1,0.1l0.1,0.1l0.1,0l0.1,0l0.1,0l0.1-0.3l0.1-0.3l0,0l0.1-0.2v0l0.1-0.2l0.1-0.2h0l0.3-0.3
			l0.2-0.3l0.2-0.3l0.2-0.2l0.1-0.2l0.1-0.2l0.1-0.1l0.1-0.1l0.1-0.1l0-0.1l0.1-0.1l0.1-0.1v0l0.1-0.1l0.1-0.1l0,0l0.2-0.1l0.2-0.2
			l0.2-0.2l0.1-0.2l0.1-0.2l0.1-0.2l0.1-0.2l0.1-0.2l0.1-0.2l0.1-0.3l0,0l0.1-0.2l0.1-0.2v0l0.1-0.1l0.1-0.1l0,0l0.1-0.1l0.1-0.1
			L214.8-28.7L214.8-28.7L214.8-28.7 M209.1-20.3L209.1-20.3L209.1-20.3l0,0.1l0,0l0.1,0l0.1,0.1l0.1,0.1l0.1,0.1l0.1,0.1l0.1,0
			l0.1,0l0.2,0h0l0.1,0l0.1,0l0,0l0.1,0.1h0l0.1,0.1l0.1,0.1l0,0l0.2,0.2l0.1,0.1l0.1,0.1l0.1,0l0.1,0l0.1,0h0l0.1,0l0.2,0l0.2,0h0
			l0.1,0.1l0,0l0.1,0.1l0,0l0.1,0.1l0.1,0.1h0v-0.1l0-0.1l0-0.1l-0.1-0.1l-0.1-0.1l-0.1-0.1l-0.1-0.1l-0.1,0l-0.1,0l-0.1,0h0
			l-0.1-0.1l0,0l-0.1-0.1l-0.1-0.1l-0.1-0.1l-0.2,0l-0.1,0l-0.1,0h-0.1l-0.1,0l0,0l-0.1,0l0,0l0-0.1l0,0l0-0.1l0-0.1l-0.1-0.1
			l-0.1-0.1l-0.1-0.1l-0.1,0l-0.2,0h-0.1l-0.1,0l-0.1,0l-0.1,0h0l-0.1,0h0l-0.1,0l-0.1,0L209.1-20.3L209.1-20.3 M213-18.3L213-18.3
			L213-18.3L213-18.3L213-18.3L213-18.3l0.2,0.1l0,0l0.1,0.1h0l0.1,0.1l0,0l0.1,0.1l0.1,0.1l0.1,0l0,0l0,0l0-0.1l0,0l-0.1-0.2l0,0
			l-0.1-0.1l-0.2-0.1l-0.2,0L213-18.3 M220.9-14.5L220.9-14.5l0.3,0.1h0l0.2,0.1v0l0.2,0.1l0,0l0,0l0-0.1v0v-0.2v0l0-0.1l-0.1-0.1
			l-0.2-0.1l-0.2-0.1l-0.2,0l-0.2,0l-0.1,0h0v0l0,0.1v0l0,0.1l0,0.1l0,0.1l0.2,0.3l0.2,0.3l0.2,0.2l0.2,0.2l0.2,0.1l0.2,0.1v0l0,0
			l0,0l0,0l0-0.1l0,0v0l-0.1-0.1l-0.1-0.1l-0.1-0.1l-0.1-0.1h0l-0.1-0.1l-0.1-0.1l-0.1-0.1v0l0-0.1l0,0l0-0.1v0l0,0l0,0L220.9-14.5
			L220.9-14.5L220.9-14.5 M222.8-18.4L222.8-18.4L222.8-18.4l0.1,0v-0.1l0-0.1l0-0.1l0-0.1l0,0l0-0.1v0l0-0.1c0,0,0,0,0,0l0-0.1l0,0
			l0.1,0l0,0l0.1,0h0l0.1,0h0l0.1,0h0l0.1,0l0,0l0-0.1l0-0.1l0-0.1v0l0-0.1v0l0-0.1l0,0v0l0-0.1l0,0l0,0l-0.1,0l-0.1,0l-0.1,0
			l-0.1,0.1l-0.1,0.1l-0.1,0.1l-0.1,0.2l-0.1,0.1l-0.1,0.1l-0.1,0.1l-0.1,0.1l0,0l-0.1,0l0,0l-0.1,0l-0.2,0l-0.1,0l-0.1,0l-0.1,0
			l-0.1,0.1l-0.1,0.1l-0.1,0.1l-0.2,0.2l-0.2,0.2l-0.2,0.2v0l-0.2,0.2l-0.2,0.2l0,0l-0.1,0.1l0.3,0.1l0.3-0.2l0.3-0.2v0l0.3-0.2
			l0.3-0.2h0l0.3-0.2l0,0L222.8-18.4L222.8-18.4L222.8-18.4L222.8-18.4 M224.2-19.6h-0.1l-0.1,0l0,0l0,0.1l0,0.1h0.2l0.2,0l0.1-0.1
			l0.1-0.1l0-0.1h-0.1L224.2-19.6 M220.4-16.5L220.4-16.5l-0.1,0.1l-0.1,0.1l0,0l0,0l0.1,0.1l0.2,0.1l0.1,0l0.1,0l0,0l0.1,0.1l0,0
			l0.1,0.1l0,0v0.1v0l0,0.1l0.1-0.1l0.1-0.1l0-0.1l0-0.1l0-0.1l-0.1-0.1l-0.1-0.1l-0.1-0.1l-0.1,0l0,0l-0.1-0.1L220.4-16.5
			 M215-15.6L215-15.6L215-15.6l0.1,0.2h0l0.2,0.2l0.1,0.2v0l0.1,0.3l0.1,0.3l0.1,0.3l0.1,0.3l0.1,0.2l0.1,0.2l0.1,0.2l0.1,0.2
			l0,0.1l0,0h0.1l0.1,0l0.1-0.1c0,0,0,0,0,0h0l0.1-0.1l0.1-0.1l0.1-0.1l0.1-0.1l0.1-0.1l0.1-0.1l0.1-0.2l0.1-0.2l0.1-0.3l0.1-0.3
			l0-0.2l0-0.2l0-0.2l0-0.2v0l0-0.2l0,0l0.1-0.2l0.1-0.2v0l0.2-0.2l0,0l0.2-0.2l0.2-0.2l0.2-0.2h0l0.2-0.1v0l0.2-0.1l0,0l-0.4-0.1v0
			l-0.1,0l-0.1,0.1l-0.1,0.1v0l-0.1,0.1l-0.1,0.1l-0.2,0.2v0l-0.2,0.1l-0.1,0.1l-0.1,0.2l0,0.1l-0.1,0.2l0,0.2l0,0.2l0,0.2l0,0.2v0
			l0,0.2l0,0.1l-0.1,0.4l-0.1,0.3l0,0l-0.1,0.3l-0.1,0.2l0,0l-0.1,0.1l0,0l-0.2,0.1l0,0l-0.1,0h0l-0.1,0l0,0l-0.1-0.1l0,0l-0.1-0.1
			v0l-0.1-0.1l0,0l-0.1-0.1l-0.1-0.2l-0.1-0.2l-0.2-0.2l-0.2-0.3l-0.2-0.2l-0.2-0.2L215-15.6L215-15.6L215-15.6 M204.9-19.9
			l-0.1,0.2l-0.1,0.2l-0.1,0.2l-0.2,0.3l-0.2,0.3l-1,1.6l-1,1.6l-1,1.6l-0.9,1.5l0.1,0h0l0.1,0h0.1l0,0l0.1-0.1l0.1-0.1h0l0.1-0.1
			l0.1-0.2h0l0.1-0.2v0l0.2-0.2l0.2-0.2l0.2-0.2l0.2-0.2l0.2-0.1l0,0l0.2-0.1h0l0.1-0.1l0.2-0.1l0.2-0.1l0.2-0.2l0.1-0.2l0.1-0.2
			l0.1-0.2l0.1-0.2l0.1-0.2l0.1-0.2l0.1-0.2v0l0.2-0.2l0,0l0.2-0.2l0.2-0.2l0.1-0.2l0.1-0.2l0.1-0.2l0-0.2v0l0-0.2l0-0.1l0,0
			l0.1-0.1l0.2-0.3l0.2-0.2l0,0l0.2-0.2l0.1-0.2l0.1-0.1l0.1-0.1l0-0.3l0-0.3l0-0.2l-0.1-0.1l-0.1-0.1l-0.1-0.1l-0.1-0.1L204.9-19.9
			 M199.3-7.5l0,0.2l-0.1,0.4v0.3l0.1,0.4l0.1,0.3l0,0.3l0,0.2l0,0.2l0,0.2l0,0.1l0,0.1v0l0,0.1l0,0.1l0,0.1l0,0.1l0,0h0.2l0.3,0
			c0,0,0,0,0,0l0.3,0.7l0.1,0.3l0,0l0.1,0.3l0.1,0.3l0.1,0.2l0.1,0.2l0.1,0l0,0c0,0,0,0,0,0l0,0l0.6,0.8h0l0.2,0.3l0.2,0.3l0.2,0.3
			l0.2,0.3v0l0.1,0.3l0,0l0.1,0.3v0l0,0.1l0-0.1l0-0.3l0-0.2l0-0.2l-0.1-0.2l-0.1-0.2l-0.1-0.2l-0.1-0.2l-0.1-0.2l-0.1-0.2l-0.1-0.2
			l0,0l-0.1-0.2L202-2.4v0l0-0.3v0l0-0.3l0-0.3l0-0.2l0-0.2l-0.1-0.1l-0.1-0.1L201.6-4l-0.1,0l-0.1,0l-0.1,0l-0.1,0l-0.1,0v0l0,0
			l0.2,0.2l0,0l0.1,0.2v0l0.1,0.2l0,0l0,0.2l0,0l0,0.2l0,0l0,0.2l0,0.2c0,0,0,0,0,0.1c0,0,0,0,0,0l-0.2-0.2v0l-0.2-0.2h0l-0.2-0.3
			l-0.2-0.3l-0.1-0.2v0L200.7-4l-0.1-0.2l-0.1-0.2l-0.1-0.2l-0.1-0.2l-0.1-0.2L200.1-5l0,0l0,0.1l0,0l0,0H200l0,0c0,0,0,0,0,0l0-0.2
			l0-0.2l-0.1-0.1l-0.1-0.1l-0.1-0.1l-0.1-0.1v0l0-0.1h0l-0.1-0.3v0l-0.1-0.3v0l-0.1-0.3l0-0.2v0l0-0.2L199.3-7.5L199.3-7.5
			 M202.1-8.1l-0.2,0L201.7-8l-0.1,0.1l-0.1,0.2l-0.1,0.2l0,0.3l0,0.2l0.2,0.4l0.1,0.2l0.1,0.2v0l0,0.2v0V-6c0,0,0,0,0,0l-0.2,0.1
			l0,0l0,0l0,0.1l0.1,0.2l0.1,0.2l0.2,0.3l0,0l0,0.2v0l0,0.1l0,0.1l0.1,0.1l0.4,0.4l0.4,0.4v0l0.3,0.4h0l0.3,0.4v0l0.2,0.4l0.1,0.3
			l0.1-0.2l0.1-0.3l0.1-0.3l0-0.3l0-0.2L204-3.7l-0.2-0.3l-0.2-0.3l-0.2-0.3L203.2-5h0l-0.6-0.8v0L202.4-6h0l-0.1-0.3v0l-0.1-0.3v0
			l0-0.3l0-0.3v0l0.1-0.3v0l0.1-0.3l0,0l0,0l0,0l-0.1,0l-0.1,0L202.1-8.1 M207.8-3.6l-0.1,0.1l-0.3,0.3l0,0l-0.3,0.2l-0.3,0.2
			l-0.3,0.2l-0.3,0.2h0l-0.1,0.1l-0.2,0.1l-0.2,0.1h0L205.5-2l-0.2,0.1l-0.2,0.1l-0.1,0.1L205-1.6l0,0l0,0.1l0,0l0,0.1l0,0h0.1
			l0.1,0l0.1,0l0.1,0l0,0l0,0h0.1l0.1,0l0,0l0,0c0,0,0,0,0,0v0c0,0,0,0,0,0l-0.1,0.1l0,0.1v0l0,0.1l0.1,0.1l0.1,0.1l0.1,0.1l0.2,0.1
			l0.2,0.1l0.2,0.1l0.3,0.1l0.3,0.1l0.3,0.1h0l0.2,0.2l0.2,0.2l0.2,0h0l0.2,0h0.3l0.1,0h0l0.1,0l0,0l0.1,0.1h0l0.2,0.1l0.1,0h0.1
			l0,0l0.1,0l0,0l0.1-0.1h0l0.1-0.1h0.2l0.1,0l0,0l0.1,0.1l0.1,0.1l0.1,0.1l0.1,0.1l0,0l0,0.1v0l0,0.1l0,0l0,0.1v0l0,0.1l0,0.1
			l0,0.1l0,0.1l0.1,0.1l0.1,0l0.1,0l0.1,0h0.1l0.1,0l0.1,0l0.1,0l0-0.1l0-0.1L210.8,1l-0.2-0.3l-0.2-0.1l0,0l-0.1-0.2v0l-0.1-0.2
			l-0.1,0l-0.1,0h0l-0.1,0l0,0l-0.1-0.1l0,0L209.6,0l-0.1-0.1l-0.1-0.1l-0.1-0.1l-0.2-0.1l-0.2,0l-0.1,0l-0.1,0l-0.1,0l-0.1,0h0
			l-0.2,0l-0.2,0l-0.2,0h0l-0.3-0.1l-0.2-0.1l-0.2-0.1l0,0l-0.2-0.1h0L206.6-1l0,0l-0.2-0.2l0,0l-0.1-0.2l0,0l0-0.2v0l0-0.2l0,0
			l0.1-0.1l0.1-0.1l0,0l0.1-0.1l0.1-0.1l0.1-0.1l0.1-0.1l0-0.1l0.1-0.1l0,0l0.3-0.3l0.2-0.3L207.8-3.6L207.8-3.6 M208.1,2.1H208
			l-0.1,0l-0.1,0l0,0v0l0,0.1v0l0,0v0l0,0v0v0.1l0,0l0.1,0l0.1-0.1l0,0l0.1-0.1h0l0.2-0.1l0,0l0.2-0.1l0,0v0l0,0l-0.1,0L208.1,2.1"
			/>
	</g>
</g>
</svg>
