<?xml version="1.0" encoding="utf-8"?>
<!-- Generator: Adobe Illustrator 21.1.0, SVG Export Plug-In . SVG Version: 6.00 Build 0)  -->
<svg version="1.1" id="Layer_1" xmlns="http://www.w3.org/2000/svg" xmlns:xlink="http://www.w3.org/1999/xlink" x="0px" y="0px"
	 viewBox="0 0 220 120" style="enable-background:new 0 0 220 120;" xml:space="preserve">
<style type="text/css">
	.st0{fill:#EEEEEE;}
	.st1{fill:#808080;}
</style>
<rect class="st0" width="220" height="120"/>
<g>
	<g>
		<path class="st1" d="M87.2,107.8v-4l-1.7,4h-0.3l-1.7-4v4h-0.7v-5h1l1.6,3.8l1.6-3.8h1v5H87.2z"/>
		<path class="st1" d="M89.8,107.8v-5h0.7v5H89.8z"/>
		<path class="st1" d="M94.8,102.9l2.1,5h-0.8l-0.5-1.1h-2.5l-0.5,1.1h-0.8l2.1-5H94.8z M94.4,103.6l-1.1,2.5h2.1L94.4,103.6z"/>
		<path class="st1" d="M102.6,107.8v-4l-1.7,4h-0.3l-1.7-4v4h-0.7v-5h1l1.6,3.8l1.6-3.8h1v5H102.6z"/>
		<path class="st1" d="M105.2,107.8v-5h0.7v5H105.2z"/>
		<path class="st1" d="M110.7,107.8v-5h2.3c0.9,0,1.5,0.5,1.5,1.3c0,0.6-0.4,1-0.9,1.1c0.5,0.1,1,0.6,1,1.2c0,0.8-0.6,1.3-1.5,1.3
			H110.7z M113.8,104.2c0-0.5-0.3-0.8-0.8-0.8h-1.5v1.5h1.5C113.5,105,113.8,104.7,113.8,104.2z M113.9,106.4c0-0.4-0.3-0.8-0.9-0.8
			h-1.6v1.6h1.6C113.6,107.2,113.9,106.9,113.9,106.4z"/>
		<path class="st1" d="M116.3,107.8v-5h3.5v0.6H117v1.5h2.7v0.6H117v1.6h2.7v0.6H116.3z"/>
		<path class="st1" d="M123.8,102.9l2.1,5h-0.8l-0.5-1.1h-2.5l-0.5,1.1h-0.8l2.1-5H123.8z M123.4,103.6l-1.1,2.5h2.1L123.4,103.6z"
			/>
		<path class="st1" d="M126.7,105.3c0-1.5,1.1-2.6,2.7-2.6c0.9,0,1.5,0.4,2,1l-0.6,0.3c-0.3-0.4-0.8-0.7-1.4-0.7
			c-1.1,0-1.9,0.8-1.9,2c0,1.1,0.8,2,1.9,2c0.6,0,1.1-0.3,1.4-0.7l0.6,0.3c-0.4,0.6-1.1,1-2,1C127.9,107.9,126.7,106.9,126.7,105.3z
			"/>
		<path class="st1" d="M136.5,107.8v-2.2h-3v2.2h-0.7v-5h0.7v2.1h3v-2.1h0.7v5H136.5z"/>
	</g>
	<g>
		<path class="st1" d="M104.6,48c0-0.2,0.5-0.7,0.6-0.7c0.1,0,0.6,0.5,0.6,0.7c0,0.1-0.5,0.6-0.6,0.6
			C105.1,48.7,104.6,48.1,104.6,48L104.6,48z M114.4,48c0-0.2,0.5-0.7,0.6-0.7c0.1,0,0.6,0.5,0.6,0.7c0,0.1-0.5,0.6-0.6,0.6
			C114.9,48.7,114.4,48.1,114.4,48L114.4,48z M109.5,48c0-0.2,0.5-0.7,0.6-0.7c0.1,0,0.6,0.5,0.6,0.7c0,0.1-0.5,0.6-0.6,0.6
			C110,48.7,109.5,48.1,109.5,48L109.5,48z M104,49.1h2.5c0.2,0,0.3-0.1,0.3-0.3v-1.4c0-0.2-0.1-0.3-0.3-0.3c-0.5,0-1.7,0.1-2.5,0.1
			c-0.1,0-0.3,0.1-0.3,0.3v1.4C103.7,49,103.9,49.1,104,49.1L104,49.1z M102.3,48.2c0-0.1,0.4-0.5,0.4-0.5c0.1,0,0.4,0.4,0.4,0.5
			c0,0.1-0.4,0.5-0.4,0.5C102.7,48.7,102.3,48.2,102.3,48.2L102.3,48.2z M107.2,48c0-0.1,0.4-0.5,0.4-0.5c0.1,0,0.4,0.4,0.4,0.5
			c0,0.1-0.4,0.5-0.4,0.5C107.6,48.6,107.2,48.1,107.2,48L107.2,48z M111.3,49.1c0.2,0,0.3-0.1,0.3-0.3v-1.5c0-0.2-0.1-0.3-0.3-0.3
			h-2.4c-0.2,0-0.3,0.1-0.3,0.3v1.5c0,0.2,0.1,0.3,0.3,0.3H111.3L111.3,49.1z M116.3,49.1c0.1,0,0.3-0.1,0.3-0.3v-1.4
			c0-0.2-0.1-0.3-0.3-0.3c-0.8-0.1-2-0.1-2.5-0.1c-0.2,0-0.3,0.1-0.3,0.3v1.4c0,0.2,0.1,0.3,0.3,0.3H116.3L116.3,49.1z M117.9,48.2
			c0,0.1-0.4,0.5-0.4,0.5c-0.1,0-0.4-0.4-0.4-0.5c0-0.1,0.4-0.5,0.4-0.5C117.5,47.7,117.9,48,117.9,48.2L117.9,48.2z M113,48
			c0,0.1-0.4,0.5-0.4,0.5c-0.1,0-0.4-0.4-0.4-0.5c0-0.1,0.4-0.5,0.4-0.5C112.7,47.5,113,47.9,113,48L113,48z M106.6,18.6L106.6,18.6
			c0.4,1.2,1.8,1.3,2.1,2.7l-0.1,0.1c-0.7-1-1.6-1.1-2-1.6C106.4,19.5,106.4,19.2,106.6,18.6L106.6,18.6z M108.9,34.9
			c0,2-1.6,2.9-3.4,2.9c2.2-2.4,0.5-5.9,2.7-8.2C108,31.6,108.9,33.5,108.9,34.9L108.9,34.9z M119.4,40.3c2.3,0,3.5-1.2,3.5-3
			c0-0.6-0.2-1.1-0.2-1.1c-0.6,0.5-1.4,0.6-1.8,0.6c-1,0-2.2-0.6-2.2-2.1c0-2,2.1-3,2.1-5.2c0-0.6-0.3-0.9-0.3-0.9
			c1-1.3,1.3-2.5,1.3-3.4c0-1.8-1-2.9-1-2.9l1,0.5c-0.4-1.7-1.4-2.9-1.4-2.9s0.5,0.3,0.8,0.1c-0.5-0.3-1.3-1.2-1.3-2.9
			s-0.4-2.7-3.7-3.2c-0.4-0.8-1.3-1.6-1.7-1.8c-0.8,0.4-1.9,0.8-2.3,1.1c0,0-1,0.1-1.3,0.1c-0.6,0-1-0.2-1.3-0.2
			c-0.8,0-1.3,0.8-1.3,0.8s-1.7,0.1-2.9,0.3c-0.6,0.1-1,0.6-1.5,1.7l-3.1,1.7c-0.6,0.3-1,0.5-1,1c0,0.3,0.2,0.7,0.6,1.3
			c0.3,1.9,0.6,2.2,1.1,2.2c0.1,0,0.4-0.1,0.4-0.1c0.1,0.1,0.4,0.6,0.5,0.8c-0.5,0.3-1.1-0.3-1.9-0.3c-0.4,0-1.1,0.3-1.1,1
			c0,0.3,0.1,0.3,0.3,0.3c0.2,0,0.4-0.1,0.8-0.1c0.6,0,1,0.5,1.9,0.5c0.3,0,0.5-0.1,0.6,0c-0.4,0.3-0.7,0.5-0.6,1
			c0.2,0.8,1,1.8,1.3,1.8c0.3,0,0.9-0.2,0.9-0.2l-0.4,0.3c-2.5,2.2-2,4.6-2,7c0,1.8-0.5,3-2,3c-1,0-2.3-0.6-3.3-1.8
			c-0.1,0.4-0.2,1-0.2,1.5c0,2.2,2,3.7,4.1,3.7c1.8,0,3-0.5,4.3-1.5c3.6-0.1,4.8-2.5,4.8-2.5c1.7,2.5,4.9,2.3,5.4,2.3
			C116.6,39.8,118.2,40.3,119.4,40.3L119.4,40.3z M119.7,26.8c0,2.7-3.4,3-3.4,5.6c0,1,0.3,1.7,0.1,2.3c0,0,0.7-0.8,0.8-1.3
			c0,2,1,4.2,3.6,4.2c0.4,0,1-0.1,1.5-0.4c0,0-0.1,1.8-2.2,1.8c-2.7,0-5.1-2.2-5.1-6.3c0-0.8,0.1-1.6,0.6-2.3c0,0-1.3,0.7-1.4,2.9
			c0,0-0.5-0.8-0.5-1.7C113.6,28.5,117.5,29.7,119.7,26.8L119.7,26.8z M116.7,14.8c2.3,0.5,2,2,2.5,3.1c-1-1.3-2.3-2.1-2.3-2.1
			C117,15.3,116.7,14.8,116.7,14.8L116.7,14.8z M102.5,21.2c0.1-0.1,0.6-0.1,0.6-0.1c0.1,0.3,0.1,0.7,0.1,1.1
			C102.6,22.1,102.4,21.6,102.5,21.2L102.5,21.2z M103.9,23.1c-0.3,0.4-0.4,0.9-1.2,0.9c-0.8,0-1.4-0.6-1.9-0.6
			c-0.3,0-0.4,0.1-0.5,0.1s-0.2-0.1-0.2-0.1c0-0.2,0.3-0.4,0.6-0.4c0.4,0,0.7,0.2,1.3,0.3c0.8,0.3,1.3-0.4,1.6-0.7
			c0.4-0.3,0.7-0.4,1-0.4c0.6,0,1.1,0.3,1.1,0.3c-0.3,0-1,0.3-1.5,0.6C104,23.1,103.9,23,103.9,23.1L103.9,23.1z M104.5,23.9
			c-0.3,0.3-0.5,0.3-0.6,0.3c-0.1-0.3,0-0.8,0-0.8C104.2,23.4,104.5,23.6,104.5,23.9L104.5,23.9z M100.5,37.8c3,0,2.9-3.4,2.9-4.6
			c0-5.1,1.5-6.4,5.1-8c2.7-1.3,5.1-1.8,5.1-4.3c0-0.9-0.3-1.8-1.3-1.8c0,0,0.4,0.4,0.4,1c0,0.3-0.1,0.5-0.2,0.8
			c0-0.3-0.1-0.6-0.3-0.8c-0.3,0.5-0.3,1.3-0.4,1.6c0,0-0.1,0.3-1,0.8c0,0-0.1,0.1,0.3,0.1c0,0,1.1,0,1.5-0.4
			c-0.3,0.9-0.7,1.2-1.3,1.2c-0.3,0-0.8-0.1-1.3-0.1c-0.8,0-2.5,0.4-3.2,1.6c-0.5,0.8-2,1.6-2.5,1.6c-0.4,0-1.1-1-1.1-1.5
			c0-0.5,0.9-0.2,1.6-0.9c1.1-1.1,1.6-1.4,2.8-1.4c0,0,0.7,0,0.1-0.6l-2-1.8c-0.3-0.3-0.4-0.4-0.7-0.4c-0.1,0-0.4,0.1-1,0.6
			c-1.1,0.1-1.6,0.3-1.9,0.5c-0.2,0.1-0.3,0.3-0.4,0.3c-0.2,0-0.4-1-0.4-1.2c0-0.5,0.6-0.8,0.6-1.1c0-0.2-0.2-0.3-0.2-0.3l-0.8,0.4
			c0,0-0.4-0.5,0.1-0.8c0,0,1.3-0.7,3.7-1.8c0.1,0.7,0.3,0.8,0.9,0.8l-0.3,0.1l-0.1,0.2c0.2,0.1,0.6,0,1-0.1
			c0.3-0.1,0.7-0.1,0.8-0.2c0.1-0.1,0.3-0.3,0.3-0.3c-0.1,0-0.5,0.1-0.8,0.1c0.4-0.3,0.6-0.4,0.6-0.6c0-0.1-0.1-0.1-0.1-0.1
			c-0.2,0-0.3,0.1-0.5,0.1c-0.1-0.1-0.3-0.2-0.3-0.4c0-0.1,0.1-0.3,0.6-0.3c0.1,0,0.3,0,0.3,0c0-0.3-0.6-0.4-0.9-0.4
			c-0.3,0-0.8,0.1-1.1,0.3c0,0,0.1-0.5,0.6-0.8c0.3-0.1,2-0.3,3.5-0.3c2.3,0,4,2,4.3,2c0.1,0,0.3-0.1,0.1-0.3
			c-0.8-0.6-1.3-1-1.3-1.6c0-0.2,0-1.4,2.6-1.8c1.1,1,1.5,1.6,1.5,2.3c0,1.1-1.2,1.2-1.3,1.6c3,0.2,5.2,4.1,5.2,6.1
			c0,3.5-3.4,5-5.5,5.4c3-2.3,4.2-4.6,4.2-6.1c0-2.6-2.3-4.1-2.9-4.4c1.3,1.5,1.6,3,1.6,4.1c0,2.2-1.4,3.3-1.4,3.3
			c0.3-0.5,0.3-1,0.3-1.3c0-0.3-0.1-0.6-0.1-0.6c-1.2,2.9-4,4.8-4.2,7.2c-0.2-0.6-0.3-1.1-0.3-1.6c0-2,1.3-3.3,1.3-3.3
			c-2.5,1.7-3,3.7-3,5.2c0,1.5,0.6,2.7,0.6,2.7c-0.1-0.6-0.1-1.5,0.1-2.3c0.3,2.2,1.3,4.8,4.3,6.5c-5.2,0-7.4-6.2-5.2-10.1
			c-3.6,1-4.1,4.7-4.1,6.8c-0.3-1.1-0.3-2-0.3-2.7c0-3.9,3.2-4.9,5.6-6c3.5-1.6,5-2.9,5-5.1c0-2.4-2.9-3.9-4.9-3.5l0.8,0.8
			c0.1,0.1,0.3,0.3,0.3,0.3c2.2,1.1,2.5,2.4,2.5,3.2c0,2-2.3,3.1-3.9,3.8c-5.3,2.3-6.3,3.3-6.3,6.6c0,2.4,0.7,6.2-1.8,6.5
			c0.2,0.3,1.1,0.4,1.1,0.4c-0.8,0.6-1.6,0.8-2.5,0.8c-0.9,0-2.7-0.3-3.2-2.2C98.7,37.5,99.4,37.8,100.5,37.8L100.5,37.8z M114.4,16
			l0.2,0.1c0,0,1.1-0.5,1.1-1.3c0,0,0-0.4-0.3-0.7c-0.1,0-0.1,0.3-0.1,0.4c0,0.3-0.2,0.4-0.5,0.4c-0.3,0-0.7-0.3-0.7-0.7
			c0-0.4,0.2-0.6,0.2-0.8c0,0,0-0.1-0.1-0.1c-1,0.4-1.1,0.8-1.1,1.1C113.2,15,113.4,15.4,114.4,16L114.4,16z M102.1,18.6
			c0.1,0.1,0.3,0.3,0.4,0.3c0.3-0.3,0.5-0.6,0.5-0.9C102.7,18,102.1,18.1,102.1,18.6L102.1,18.6z M122.7,39.7l-0.2-0.1
			c-0.3,0.4-1.1,1.2-2.5,1.2l-0.1,0.1c0.6,0.6,0.4,1.8-0.3,1.8c-0.4,0-0.6-0.4-0.7-0.7l-0.1-0.1c-0.2,0.1-0.7,0.5-0.8,0.6
			c0,0.4,0.1,0.9,0.1,1.2h0.1c0.1-0.3,0.4-0.3,0.5-0.3c0.3,0,0.6,0.3,0.6,0.6c0,0.6-0.4,1.2-1.3,1.2c-1,0-1.8-0.4-1.8-1.5
			c0-0.5,0.3-1.1,1-1.4v-0.1c-0.5-0.4-1-1-1.1-1.3h-0.1c-0.2,0.3-0.8,0.8-1.4,1v0.1c0.5,0.5,0.6,1,0.6,1.3c0,0.8-0.7,1.3-2.2,1.3
			c-1.1,0-2.2-0.3-2.2-1.4c0-0.6,0.4-0.9,0.8-0.9c0.3,0,0.7,0.1,1,0.5h0.1c0.3-0.3,0.4-0.5,0.8-0.9V42c-0.2-0.1-0.5-0.5-0.8-1h-0.1
			c-0.4,0.5-0.8,0.6-1.1,0.6c-0.3,0-0.6-0.1-0.6-0.6c0-0.6,0.7-0.8,1.3-1v-0.1c-1-0.4-1.8-1.4-2-2h-0.1c-0.2,0.6-1.1,1.6-2,2v0.1
			c0.6,0.2,1.3,0.4,1.3,1c0,0.4-0.4,0.6-0.6,0.6c-0.4,0-0.7-0.1-1.1-0.6h-0.1c-0.3,0.4-0.6,0.8-0.8,1v0.1c0.4,0.4,0.6,0.6,0.8,0.9
			h0.1c0.3-0.4,0.6-0.5,1-0.5c0.4,0,0.8,0.3,0.8,0.9c0,1.1-1.1,1.4-2.2,1.4c-1.5,0-2.2-0.5-2.2-1.3c0-0.3,0.1-0.8,0.6-1.3V42
			c-0.6-0.1-1.2-0.7-1.4-1H104c-0.1,0.3-0.6,1-1.1,1.3v0.1c0.7,0.3,1,0.9,1,1.4c0,1-0.8,1.5-1.8,1.5c-0.9,0-1.3-0.6-1.3-1.2
			c0-0.4,0.3-0.6,0.6-0.6c0.1,0,0.4,0.1,0.5,0.3h0.1c0.1-0.3,0.1-0.8,0.1-1.2c-0.1-0.1-0.6-0.5-0.8-0.6l-0.1,0.1
			c-0.1,0.3-0.3,0.7-0.7,0.7c-0.7,0-0.8-1.3-0.3-1.8l-0.1-0.1c-1.3,0-2.2-0.8-2.5-1.2l-0.2,0.1l2.7,6.1c0,0-0.6,0.3-0.4,0.7
			c0.3,0.9,1,2,1,3.4c0,0.6-0.1,0.6-0.1,0.9c0,0.3,0.2,0.4,0.4,0.4h18c0.3,0,0.4-0.1,0.4-0.4c0-0.3-0.1-0.3-0.1-0.9
			c0-1.4,0.8-2.5,1-3.4c0.1-0.4-0.4-0.7-0.4-0.7L122.7,39.7L122.7,39.7z M110.1,49.7c-4.9,0-8.2-0.1-8.2-0.1l-0.7-2.7
			c0,0,4.5-0.6,8.9-0.6c4.4,0,8.9,0.6,8.9,0.6l-0.7,2.7C118.4,49.6,115.1,49.7,110.1,49.7L110.1,49.7z"/>
		<path class="st1" d="M188.4,71.2l-5.3-6.1h-3.6v0.5c1.1,0,1.2,0.1,1.2,1.1v5.1c0,1.8-0.4,2-1.3,2v0.5h3.3v-0.5
			c-1,0-1.4-0.2-1.4-1.3v-6l7.1,8h0.5v-7.6c0-1.1,0.6-1.3,1.2-1.3v-0.5h-3.3v0.5c0.8,0,1.5,0.2,1.5,1.2V71.2L188.4,71.2z"/>
		<path class="st1" d="M173.7,64.9c-2.4,0-5,1.6-5,4.8c0,3.2,2.5,4.8,5,4.8c2.4,0,5-1.6,5-4.8C178.6,66.5,176.1,64.9,173.7,64.9
			L173.7,64.9z M173.7,74c-1.7,0-2.5-1.5-2.5-4.4c0-2.8,0.8-4.4,2.5-4.4c1.7,0,2.5,1.5,2.5,4.4C176.1,72.5,175.4,74,173.7,74
			L173.7,74z"/>
		<path class="st1" d="M161.9,73c0,0.7-0.2,0.7-1.1,0.7v0.5h4.6v-0.5c-0.9,0-1.1-0.1-1.1-0.7v-7c0-0.3,0.2-0.5,0.5-0.5
			c0.8,0,2.1,0.7,2.9,2.1l0.4-0.1l-0.5-2.7h-0.4c-0.2,0.1-0.6,0.2-0.9,0.2h-6c-0.2,0-0.3,0-0.5-0.1c-0.2-0.1-0.3-0.1-0.4-0.2h-0.4
			l-0.5,2.7l0.4,0.1c0.8-1.4,2.1-2.1,2.9-2.1c0.3,0,0.5,0.1,0.5,0.5V73L161.9,73z"/>
		<path class="st1" d="M150.9,73c0,0.7-0.2,0.7-1.1,0.7v0.5h8.6l0.7-2.7h-0.4c-1.3,1.8-2.1,2.2-4.2,2.2c-1,0-1.2-0.2-1.2-0.6v-6.8
			c0-0.7,0.2-0.7,1.1-0.7v-0.5h-4.6v0.5c0.9,0,1.1,0.1,1.1,0.7V73L150.9,73z"/>
		<path class="st1" d="M147.4,72.8l-1.5-2.3c-0.4-0.6-0.7-0.8-1.2-0.8v0c1.5-0.1,2.4-0.8,2.4-2c0-1.1-1-2.5-4-2.5h-4.6v0.5
			c0.9,0,1.1,0.1,1.1,0.7V73c0,0.7-0.2,0.7-1.1,0.7v0.5h4.6v-0.5c-0.9,0-1.1-0.1-1.1-0.7v-3.2c1,0,1.3,0.1,1.5,0.6l2.1,3.8h3.1v-0.5
			C148.2,73.7,148,73.7,147.4,72.8L147.4,72.8z M142.8,69.4H142v-3.8h0.5c1.9,0,2.3,1.1,2.3,1.9C144.8,68.9,143.8,69.4,142.8,69.4
			L142.8,69.4z"/>
		<path class="st1" d="M136,72.7l-3.8-7.4c-0.2-0.3-0.2-0.4-0.3-0.4c-0.1,0-0.4,0.7-1.5,1.5c0.2,0.1,0.3,0.2,0.3,0.4
			c0,0.1,0,0.2-0.1,0.4l-2.3,4.8c-0.6,1.2-0.9,1.6-1.8,1.6v0.5h3.3v-0.5c-0.9,0-1.2-0.2-1.2-0.6c0-0.2,0.1-0.6,0.5-1.3h4.1
			c0.6,0.9,0.7,1.3,0.7,1.5c0,0.3-0.3,0.4-1.2,0.4v0.5h4.9v-0.5C136.7,73.7,136.5,73.5,136,72.7L136,72.7z M129.2,71.3l1.8-3.8
			l1.9,3.8H129.2L129.2,71.3z"/>
		<path class="st1" d="M124.7,71.1c-0.8,1.6-2,2.9-3.5,2.9c-1.4,0-2.9-1.1-2.9-4.3c0-3,1.2-4.3,3-4.3c1.7,0,2.7,1.1,3.4,2.5h0.4V65
			h-0.3c-0.1,0.2-0.4,0.4-0.7,0.4c-0.5,0-1.7-0.5-3-0.5c-3.2,0-5.3,2.1-5.3,5c0,2.5,2.1,4.6,5,4.6c1.7,0,2.8-0.6,3.3-0.6
			c0.3,0,0.5,0.2,0.7,0.6h0.3v-3.4H124.7L124.7,71.1z"/>
		<path class="st1" d="M96.7,74.2h7.9l1-2.7h-0.4c-1.3,1.8-2.1,2.3-3.4,2.3h-2.2l5.7-8.4v-0.2h-7.8l-0.8,2.5h0.3
			c1-1.4,2.1-2.1,3.4-2.1h2.1l-5.7,8.3V74.2L96.7,74.2z"/>
		<path class="st1" d="M89.7,73c0,0.7-0.2,0.7-1.1,0.7v0.5h4.6v-0.5c-0.9,0-1.1-0.1-1.1-0.7v-7c0-0.3,0.2-0.5,0.5-0.5
			c0.8,0,2.1,0.7,2.9,2.1l0.4-0.1l-0.5-2.7h-0.4c-0.2,0.1-0.6,0.2-0.9,0.2h-6c-0.2,0-0.3,0-0.5-0.1c-0.2-0.1-0.3-0.1-0.4-0.2h-0.4
			L86,67.5l0.4,0.1c0.8-1.4,2.1-2.1,2.9-2.1c0.3,0,0.5,0.1,0.5,0.5V73L89.7,73z"/>
		<path class="st1" d="M81.4,73c0,0.7-0.2,0.7-1.1,0.7v0.5h4.6v-0.5c-0.9,0-1.1-0.1-1.1-0.7v-6.7c0-0.7,0.2-0.7,1.1-0.7v-0.5h-4.6
			v0.5c0.9,0,1.1,0.1,1.1,0.7V73L81.4,73z"/>
		<path class="st1" d="M77.7,72.8l-1.5-2.3c-0.4-0.6-0.7-0.8-1.2-0.8v0c1.5-0.1,2.4-0.8,2.4-2c0-1.1-1-2.5-4-2.5h-4.6v0.5
			c0.9,0,1.1,0.1,1.1,0.7V73c0,0.7-0.2,0.7-1.1,0.7v0.5h4.6v-0.5c-0.9,0-1.1-0.1-1.1-0.7v-3.2c1,0,1.3,0.1,1.5,0.6l2.1,3.8h3.1v-0.5
			C78.5,73.7,78.3,73.7,77.7,72.8L77.7,72.8z M73.1,69.4h-0.8v-3.8h0.5c1.9,0,2.3,1.1,2.3,1.9C75.1,68.9,74.1,69.4,73.1,69.4
			L73.1,69.4z"/>
		<path class="st1" d="M54.4,73c0,0.7-0.2,0.7-1.1,0.7v0.5h8.4l0.7-2.7h-0.4c-1,1.7-2.1,2.2-3.9,2.2c-1.2,0-1.4-0.2-1.4-0.5v-3.4
			h0.6c1.6,0,2.4,0.4,2.7,1.7h0.4v-4.1h-0.4c-0.4,1.3-1,1.8-2.7,1.8h-0.6v-3.1c0-0.5,0.2-0.6,0.8-0.6c2.1,0,3,0.6,4.3,2h0.4
			l-0.9-2.5h-8v0.5c0.9,0,1.1,0.1,1.1,0.7V73L54.4,73z"/>
		<path class="st1" d="M48.4,73c0,0.7-0.2,0.7-1.1,0.7v0.5h4.6v-0.5c-0.9,0-1.1-0.1-1.1-0.7v-6.7c0-0.7,0.2-0.7,1.1-0.7v-0.5h-4.6
			v0.5c0.9,0,1.1,0.1,1.1,0.7v2.8h-4.6v-2.8c0-0.7,0.2-0.7,1.1-0.7v-0.5h-4.6v0.5c0.9,0,1.1,0.1,1.1,0.7V73c0,0.7-0.2,0.7-1.1,0.7
			v0.5h4.6v-0.5c-0.9,0-1.1-0.1-1.1-0.7v-3.3h4.6V73L48.4,73z"/>
		<path class="st1" d="M33.5,73c0,0.7-0.2,0.7-1.1,0.7v0.5h4.6v-0.5c-0.9,0-1.1-0.1-1.1-0.7v-7c0-0.3,0.2-0.5,0.5-0.5
			c0.8,0,2.1,0.7,2.9,2.1l0.4-0.1l-0.5-2.7h-0.4c-0.2,0.1-0.6,0.2-0.9,0.2h-6c-0.2,0-0.3,0-0.5-0.1c-0.2-0.1-0.3-0.1-0.4-0.2h-0.4
			l-0.5,2.7l0.4,0.1c0.8-1.4,2.1-2.1,2.9-2.1c0.3,0,0.5,0.1,0.5,0.5V73L33.5,73z"/>
		<polygon class="st1" points="108.5,70.3 111.5,70.3 112.8,68.5 109.8,68.5 108.5,70.3 		"/>
		<path class="st1" d="M62,80.4c0-0.7-0.2-0.7-1.1-0.7v-0.5h4.6c2.9,0,4,1.4,4,2.5c0,1.1-0.9,1.9-2.3,2v0c0.5,0,0.8,0.2,1.2,0.8
			l1.5,2.3c0.5,0.9,0.8,0.9,1.3,0.9v0.5h-3.1l-2.1-3.8c-0.2-0.5-0.6-0.6-1.5-0.6v3.2c0,0.7,0.2,0.7,1.1,0.7v0.5h-4.6v-0.5
			c0.9,0,1.1-0.1,1.1-0.7V80.4z M64.3,83.5h0.8c1.1,0,2-0.5,2-1.9c0-0.8-0.5-1.9-2.3-1.9h-0.5V83.5z"/>
		<path class="st1" d="M73.1,80.4c0-0.7-0.2-0.7-1.1-0.7v-0.5h8l0.9,2.5h-0.4c-1.3-1.4-2.3-2-4.3-2c-0.7,0-0.8,0.1-0.8,0.6v3.1H76
			c1.7,0,2.3-0.5,2.6-1.8H79v4h-0.4c-0.3-1.3-1-1.7-2.6-1.7h-0.6v3.4c0,0.4,0.2,0.5,1.4,0.5c1.8,0,2.9-0.5,3.9-2.2h0.4l-0.7,2.6H72
			v-0.5c0.9,0,1.1-0.1,1.1-0.7V80.4z"/>
		<path class="st1" d="M88.6,82.2c-0.5-1.6-1.5-2.7-3-2.7c-0.8,0-1.5,0.4-1.5,1.2c0,2,5.5,1.4,5.5,5c0,1.8-1.3,2.9-3.5,2.9
			c-1.6,0-2.2-0.5-2.6-0.5c-0.4,0-0.6,0.2-0.8,0.5h-0.2v-3.3h0.3c0.5,1.9,1.8,2.8,3.2,2.8c1.3,0,1.8-0.7,1.8-1.4
			c0-0.6-0.5-1.5-2.6-2.1c-1.6-0.5-2.7-1.6-2.7-2.9c0-1.7,1.4-2.7,3.1-2.7c1.3,0,2,0.5,2.3,0.5c0.2,0,0.5-0.2,0.7-0.5h0.3v3.2H88.6z
			"/>
		<path class="st1" d="M92.4,80.4c0-0.7-0.2-0.7-1.1-0.7v-0.5h4.6v0.5c-0.9,0-1.1,0.1-1.1,0.7v6.7c0,0.7,0.2,0.7,1.1,0.7v0.5h-4.6
			v-0.5c0.9,0,1.1-0.1,1.1-0.7V80.4z"/>
		<path class="st1" d="M98.6,80.4c0-0.7-0.2-0.7-1.1-0.7v-0.5h5.1c3.1,0,5.6,1.7,5.6,4.5c0,2.3-2.1,4.5-5.3,4.5h-5.4v-0.5
			c0.9,0,1.1-0.1,1.1-0.7V80.4z M100.8,87.3c0,0.3,0.1,0.5,1.3,0.5c2.6,0,3.5-2.2,3.5-3.9c0-3.1-1.7-4.3-3.7-4.3
			c-1,0-1.1,0.2-1.1,0.8V87.3z"/>
		<path class="st1" d="M110.1,80.4c0-0.7-0.2-0.7-1.1-0.7v-0.5h8l0.9,2.5h-0.4c-1.3-1.4-2.3-2-4.3-2c-0.7,0-0.8,0.1-0.8,0.6v3.1h0.6
			c1.7,0,2.3-0.5,2.6-1.8h0.4v4h-0.4c-0.3-1.3-1-1.7-2.6-1.7h-0.6v3.4c0,0.4,0.2,0.5,1.4,0.5c1.8,0,2.9-0.5,3.9-2.2h0.4l-0.7,2.6
			h-8.4v-0.5c0.9,0,1.1-0.1,1.1-0.7V80.4z"/>
		<path class="st1" d="M128,81c0-1.1-0.6-1.2-1.4-1.2v-0.5h3.3v0.5c-0.6,0-1.2,0.1-1.2,1.3v7.6h-0.5l-7.1-8v6c0,1.1,0.3,1.3,1.4,1.3
			v0.5h-3.3v-0.5c0.9,0,1.3-0.2,1.3-2v-5.1c0-0.9-0.2-1.1-1.2-1.1v-0.5h3.5l5.3,6.1V81z"/>
		<path class="st1" d="M139.9,85.2v3.4h-0.3c-0.2-0.4-0.4-0.6-0.7-0.6c-0.4,0-1.6,0.6-3.2,0.6c-2.9,0-5-2.1-5-4.6
			c0-2.8,2-4.9,5.2-4.9c1.3,0,2.5,0.5,3,0.5c0.2,0,0.5-0.1,0.7-0.4h0.3v2.8h-0.4c-0.7-1.4-1.7-2.5-3.4-2.5c-1.8,0-3,1.3-3,4.3
			c0,3.2,1.5,4.3,2.9,4.3c1.5,0,2.7-1.3,3.5-2.9H139.9z"/>
		<path class="st1" d="M142.7,80.4c0-0.7-0.2-0.7-1.1-0.7v-0.5h8l0.9,2.5h-0.4c-1.3-1.4-2.3-2-4.3-2c-0.7,0-0.8,0.1-0.8,0.6v3.1h0.6
			c1.7,0,2.3-0.5,2.6-1.8h0.4v4h-0.4c-0.3-1.3-1-1.7-2.6-1.7h-0.6v3.4c0,0.4,0.2,0.5,1.4,0.5c1.8,0,2.9-0.5,3.9-2.2h0.4l-0.7,2.6
			h-8.4v-0.5c0.9,0,1.1-0.1,1.1-0.7V80.4z"/>
		<path class="st1" d="M158.1,82.2c-0.5-1.6-1.5-2.7-3-2.7c-0.8,0-1.5,0.4-1.5,1.2c0,2,5.5,1.4,5.5,5c0,1.8-1.3,2.9-3.5,2.9
			c-1.6,0-2.2-0.5-2.6-0.5c-0.4,0-0.6,0.2-0.8,0.5h-0.2v-3.3h0.3c0.5,1.9,1.8,2.8,3.2,2.8c1.3,0,1.8-0.7,1.8-1.4
			c0-0.6-0.5-1.5-2.6-2.1c-1.6-0.5-2.7-1.6-2.7-2.9c0-1.7,1.4-2.7,3.1-2.7c1.3,0,2,0.5,2.3,0.5c0.2,0,0.5-0.2,0.7-0.5h0.3v3.2H158.1
			z"/>
	</g>
</g>
</svg>
