<?xml version="1.0" encoding="utf-8"?>
<!-- Generator: Adobe Illustrator 19.0.1, SVG Export Plug-In . SVG Version: 6.00 Build 0)  -->
<svg version="1.1" id="Layer_1" xmlns="http://www.w3.org/2000/svg" xmlns:xlink="http://www.w3.org/1999/xlink" x="0px" y="0px"
	 viewBox="100 -50 220 120" style="enable-background:new 100 -50 220 120;" xml:space="preserve">
<style type="text/css">
	.st0{fill:#EEEEEE;}
	.st1{fill:#808080;}
</style>
<g>
	<rect x="100" y="-50" class="st0" width="220" height="120"/>
</g>
<g>
	<path class="st1" d="M154.2,14c-3.9,0-7.2-3.1-7.2-7.1c0-4,3.3-7.1,7.2-7.1c3.9,0,7.2,3.1,7.2,7.1C161.5,10.8,158.2,14,154.2,14
		 M149.6,6.9c0,3.7,1.1,6.6,4.7,6.6c3.6,0,4.7-2.9,4.7-6.6c0-3.3-0.7-6.6-4.7-6.6C150.3,0.3,149.6,3.6,149.6,6.9"/>
	<path class="st1" d="M171.6,6.4L171.6,6.4c1.1-0.3,2.4-1.1,2.4-2.8c0-2.1-2.3-3.7-3.8-3.7h-5.3v14h6.1c2.6,0,4.4-1.4,4.4-4
		C175.4,8,173.5,6.7,171.6,6.4 M167.3,0.5c0,0,1,0,1.3,0c1.6,0,2.9,1.2,2.9,3c0,1.6-0.8,2.5-2.4,2.5h-1.7V0.5z M170.2,13.4h-2.9V6.5
		h2.4c2,0,3.2,2.1,3.2,3.8C172.9,11.9,171.8,13.4,170.2,13.4"/>
	<polygon class="st1" points="242.4,-0.1 240.1,-0.1 236.2,8.4 232.8,-0.1 231.1,-0.1 229.5,13.8 230.1,13.8 231.4,2.4 231.4,2.4 
		235.3,11.8 240.2,1.2 240.2,1.2 241.2,13.8 243.5,13.8 	"/>
	<path class="st1" d="M252.9-0.4h-0.4l-6.5,14.2h0.7l2.4-5.4h5.2l2.4,5.4h2.5L252.9-0.4z M249.3,7.9l2.4-5.2l2.3,5.2H249.3z"/>
	<polygon class="st1" points="181.1,13.3 181.1,6.6 186.4,6.6 186.4,6 181.1,6 181.1,0.4 189,0.4 189,-0.1 178.7,-0.1 178.7,13.8 
		189,13.8 189,13.3 	"/>
	<polygon class="st1" points="218.7,0.5 218.7,-0.1 204.7,-0.1 204.7,0.5 210.4,0.5 210.4,13.8 212.7,13.8 212.7,0.5 	"/>
	<path class="st1" d="M285.6,11.3c-0.7,1.4-1.8,2.1-3.6,2.1c-3.6,0-4.7-2.9-4.7-6.6c0-3.3,0.7-6.6,4.7-6.6c1.9,0,2.9,0.7,3.6,2h0.4
		V0.9c-1.2-0.8-2.5-1.2-4-1.2c-3.9,0-7.2,3.1-7.2,7.1c0,4,3.3,7.1,7.2,7.1c1.5,0,2.9-0.4,4-1.2v-1.5H285.6z"/>
	<path class="st1" d="M143.6,11.5l-0.7-1.4c-0.7-1.3-1.8-3-3.6-3.5v0c2.5-0.1,5.1-0.2,5.1-3.1c0-1.9-2.1-3.6-5.2-3.6H134v13.9h2.4
		V6.6h1.2c0.8,0,1.3,0.3,2.1,1.9l1,2.2c0.8,1.7,2.2,3.6,4.5,3.6c0.2,0,0.5,0,0.6,0c0,0-0.6-0.3-1-0.7
		C144.5,13.1,144,12.3,143.6,11.5 M138.7,6h-2.3V0.4h2.2c2.1,0,3.2,1.1,3.2,3c0,1.2-0.5,1.8-1.3,2.2C140,5.9,139.4,6,138.7,6"/>
	<path class="st1" d="M202.1,11.5l-0.7-1.4c-0.7-1.3-1.8-3-3.6-3.5v0c2.4-0.1,5.1-0.2,5.1-3.1c0-1.9-2.1-3.6-5.2-3.6h-5.1v13.9h2.4
		V6.6h1.2c0.8,0,1.3,0.3,2.1,1.9l1,2.2c0.8,1.7,2.2,3.6,4.6,3.6c0.2,0,0.5,0,0.6,0c0,0-0.6-0.3-1-0.7
		C203,13.1,202.5,12.3,202.1,11.5 M197.2,6h-2.3V0.4h2.2c2.1,0,3.2,1.1,3.2,3c0,1.2-0.5,1.8-1.3,2.2C198.5,5.9,197.9,6,197.2,6"/>
	<path class="st1" d="M271.4,11.5l-0.7-1.4c-0.7-1.3-1.8-3-3.6-3.5v0c2.4-0.1,5.1-0.2,5.1-3.1c0-1.9-2.1-3.6-5.2-3.6h-5.1v13.9h2.4
		V6.6h1.2c0.8,0,1.3,0.3,2.1,1.9l1,2.2c0.8,1.7,2.2,3.6,4.5,3.6c0.2,0,0.5,0,0.6,0c0,0-0.6-0.3-1-0.7
		C272.2,13.1,271.7,12.3,271.4,11.5 M266.5,6h-2.3V0.4h2.2c2.1,0,3.2,1.1,3.2,3c0,1.2-0.5,1.8-1.3,2.2C267.7,5.9,267.1,6,266.5,6"/>
	<path class="st1" d="M193.5,24l-2.6-4v4h-0.3v-4.6h0.3l2.6,3.9v-3.9h0.3V24H193.5z M196.4,24v-4.6h2.8v0.3h-2.4v1.8h2.1v0.3h-2.1
		v1.8h2.4V24H196.4z M204.8,24h-0.4l-1.1-4l-1.1,4h-0.4l-1.1-4.6h0.4l1,4l1.1-4h0.4l1.1,4l1-4h0.4L204.8,24z M211.7,22.1V24h-0.3
		v-1.9l-1.3-2.7h0.4l1.2,2.3l1.1-2.3h0.4L211.7,22.1z M217.5,23.6c-0.3,0.3-0.7,0.5-1.1,0.5c-0.4,0-0.8-0.2-1.1-0.5
		c-0.4-0.4-0.4-0.8-0.4-1.8c0-1,0-1.4,0.4-1.8c0.3-0.3,0.7-0.5,1.1-0.5c0.4,0,0.8,0.2,1.1,0.5c0.4,0.4,0.4,0.8,0.4,1.8
		C217.9,22.7,217.9,23.1,217.5,23.6z M217.2,20.1c-0.2-0.2-0.5-0.4-0.9-0.4c-0.3,0-0.6,0.1-0.9,0.4c-0.3,0.3-0.4,0.7-0.4,1.7
		c0,1,0,1.3,0.4,1.7c0.2,0.2,0.5,0.4,0.9,0.4c0.3,0,0.6-0.1,0.9-0.4c0.3-0.3,0.4-0.7,0.4-1.7C217.5,20.7,217.5,20.4,217.2,20.1z
		 M223,24l-1.1-2.1h-1.3V24h-0.3v-4.6h1.7c0.7,0,1.3,0.4,1.3,1.2c0,0.7-0.4,1.1-1,1.2l1.1,2.1H223z M222,19.7h-1.3v1.8h1.3
		c0.6,0,1-0.3,1-0.9C223,20,222.5,19.7,222,19.7z M228.5,24l-1.5-2.6l-1.1,1.3V24h-0.3v-4.6h0.3v2.8l2.3-2.8h0.4l-1.4,1.7l1.6,2.8
		H228.5z"/>
</g>
</svg>
